<svg width="353" height="403" viewBox="0 0 353 403" fill="none" xmlns="http://www.w3.org/2000/svg">
<path d="M0 0H353V403H0V0Z" fill="#FFFAF1"/>
<path d="M11.5 13.5H340.5V388.5H11.5V13.5Z" stroke="#E5C697"/>
<path d="M41.4446 277.28C40.5966 278.352 40.3086 278.944 40.3086 279.568C40.3086 280.192 40.6286 280.64 41.1246 280.64C41.5726 280.64 41.8766 280.304 41.8766 279.92C41.8766 279.504 41.5566 279.168 41.1406 279.168C41.2686 278.688 41.5406 278.176 41.9726 277.68L41.4446 277.28ZM44.5486 277.28C43.7006 278.352 43.4126 278.944 43.4126 279.568C43.4126 280.192 43.7326 280.64 44.2286 280.64C44.6766 280.64 44.9806 280.304 44.9806 279.92C44.9806 279.504 44.6606 279.168 44.2446 279.168C44.3726 278.688 44.6446 278.176 45.0766 277.68L44.5486 277.28ZM47.8478 288H52.9358C54.8398 288 56.1998 286.752 56.1998 284.992C56.1998 283.792 55.4318 282.752 54.1998 282.192C55.1597 281.712 55.7678 280.912 55.7678 279.744C55.7678 278.144 54.5198 277.008 52.7438 277.008H47.8478V288ZM48.8718 281.776V277.952H52.5198C53.8158 277.952 54.7278 278.752 54.7278 279.856C54.7278 280.976 53.8478 281.776 52.5838 281.776H48.8718ZM48.8718 287.056V282.72H52.7118C54.1518 282.72 55.1597 283.616 55.1597 284.88C55.1597 286.144 54.1518 287.056 52.7118 287.056H48.8718ZM59.4294 281.424V279.728H58.4374V288H59.4294V283.376C59.4294 281.664 60.7574 280.448 62.6294 280.448V279.536C61.1094 279.536 59.8934 280.304 59.4294 281.424ZM67.8685 288.192C70.1885 288.192 72.1405 286.208 72.1405 283.856C72.1405 281.504 70.1885 279.536 67.8685 279.536C65.5485 279.536 63.5805 281.504 63.5805 283.856C63.5805 286.208 65.5485 288.192 67.8685 288.192ZM67.8685 287.28C66.0925 287.28 64.6205 285.728 64.6205 283.856C64.6205 282 66.0925 280.448 67.8685 280.448C69.6285 280.448 71.1005 282 71.1005 283.856C71.1005 285.728 69.6285 287.28 67.8685 287.28ZM75.9058 288H76.8978L79.1698 281.2L81.4258 288H82.4178L85.1858 279.728H84.1298L81.9218 286.672L79.6018 279.728H78.7378L76.4018 286.672L74.2098 279.728H73.1538L75.9058 288ZM89.8628 288.192C91.5268 288.192 92.8388 287.216 92.8388 285.808C92.8388 284.368 91.6548 283.84 90.1348 283.36C88.5188 282.832 87.8788 282.496 87.8788 281.744C87.8788 280.944 88.7268 280.448 89.7348 280.448C90.5028 280.448 91.3668 280.72 92.1988 281.232L92.6948 280.464C91.8148 279.888 90.7428 279.536 89.7348 279.536C88.1348 279.536 86.8868 280.48 86.8868 281.856C86.8868 283.024 87.6708 283.648 89.6548 284.224C90.9668 284.624 91.8468 285.008 91.8468 285.904C91.8468 286.704 90.9988 287.28 89.8628 287.28C88.9348 287.28 87.9268 286.912 86.9668 286.224L86.4388 286.96C87.4148 287.744 88.6948 288.192 89.8628 288.192ZM95.3054 278.112C95.6894 278.112 95.9934 277.808 95.9934 277.424C95.9934 277.056 95.6894 276.736 95.3054 276.736C94.9214 276.736 94.6174 277.056 94.6174 277.424C94.6174 277.808 94.9214 278.112 95.3054 278.112ZM94.8094 288H95.8014V279.728H94.8094V288ZM101.944 279.536C100.728 279.536 99.672 280.176 99.224 281.088V279.728H98.232V288H99.224V282.736C99.224 281.456 100.36 280.448 101.816 280.448C103.128 280.448 104.056 281.424 104.056 282.816V288H105.048V282.688C105.048 280.848 103.768 279.536 101.944 279.536ZM113.914 279.728V281.296C113.274 280.176 112.154 279.536 110.762 279.536C108.618 279.536 107.018 281.216 107.018 283.456C107.018 285.712 108.618 287.392 110.762 287.392C112.138 287.392 113.274 286.736 113.914 285.616V287.12C113.914 288.8 112.714 289.84 110.826 289.84C109.786 289.84 108.714 289.456 108.042 288.848L107.594 289.648C108.346 290.288 109.642 290.752 110.938 290.752C113.274 290.752 114.906 289.248 114.906 287.12V279.728H113.914ZM110.938 286.48C109.29 286.48 108.042 285.184 108.042 283.456C108.042 281.744 109.29 280.448 110.938 280.448C112.666 280.448 113.914 281.696 113.914 283.456C113.914 285.232 112.666 286.48 110.938 286.48ZM123.195 281.424V279.728H122.203V288H123.195V283.376C123.195 281.664 124.523 280.448 126.395 280.448V279.536C124.875 279.536 123.659 280.304 123.195 281.424ZM131.372 279.536C130.556 279.536 129.532 279.76 128.444 280.336L128.844 281.152C129.596 280.736 130.46 280.416 131.292 280.416C133.148 280.416 133.692 281.744 133.692 282.96V283.296C132.812 283.008 131.82 282.8 130.924 282.8C129.068 282.8 127.644 283.92 127.644 285.552C127.644 287.152 128.924 288.192 130.652 288.192C131.772 288.192 133.084 287.664 133.692 286.688V288H134.684V282.96C134.684 280.96 133.548 279.536 131.372 279.536ZM130.812 287.296C129.58 287.296 128.62 286.608 128.62 285.504C128.62 284.432 129.692 283.664 131.068 283.664C131.996 283.664 132.908 283.84 133.692 284.08V285.408C133.372 286.688 131.964 287.296 130.812 287.296ZM140.866 279.536C139.65 279.536 138.594 280.176 138.146 281.088V279.728H137.154V288H138.146V282.736C138.146 281.456 139.282 280.448 140.738 280.448C142.05 280.448 142.978 281.424 142.978 282.816V288H143.97V282.688C143.97 280.848 142.69 279.536 140.866 279.536ZM152.916 276.816V281.344C152.276 280.224 151.188 279.536 149.828 279.536C147.7 279.536 146.052 281.392 146.052 283.856C146.052 286.336 147.7 288.192 149.828 288.192C151.188 288.192 152.276 287.504 152.916 286.384V288H153.908V276.816H152.916ZM150.004 287.28C148.34 287.28 147.076 285.808 147.076 283.856C147.076 281.904 148.34 280.448 150.004 280.448C151.716 280.448 152.916 281.856 152.916 283.856C152.916 285.856 151.716 287.28 150.004 287.28ZM160.29 288.192C162.61 288.192 164.562 286.208 164.562 283.856C164.562 281.504 162.61 279.536 160.29 279.536C157.97 279.536 156.002 281.504 156.002 283.856C156.002 286.208 157.97 288.192 160.29 288.192ZM160.29 287.28C158.514 287.28 157.042 285.728 157.042 283.856C157.042 282 158.514 280.448 160.29 280.448C162.05 280.448 163.522 282 163.522 283.856C163.522 285.728 162.05 287.28 160.29 287.28ZM175.344 279.536C174.064 279.536 172.976 280.24 172.624 281.328C172.192 280.24 171.232 279.536 169.984 279.536C168.848 279.536 167.936 280.08 167.536 280.944V279.728H166.544V288H167.536V282.688C167.536 281.376 168.496 280.448 169.856 280.448C171.056 280.448 171.888 281.424 171.888 282.816V288H172.88V282.688C172.88 281.376 173.84 280.448 175.2 280.448C176.4 280.448 177.248 281.424 177.248 282.816V288H178.24V282.688C178.24 280.848 177.04 279.536 175.344 279.536ZM180.669 288H181.661V276.816H180.669V288ZM185.179 290.88C186.331 290.864 187.131 290.336 187.659 289.024L191.467 279.728H190.395L187.499 286.944L184.443 279.728H183.355L186.987 288.128L186.491 289.2C186.187 289.744 185.755 289.968 185.147 289.968C184.795 289.968 184.427 289.888 184.123 289.728L183.867 290.608C184.251 290.784 184.715 290.88 185.179 290.88ZM201.387 279.536C200.571 279.536 199.547 279.76 198.459 280.336L198.859 281.152C199.611 280.736 200.475 280.416 201.307 280.416C203.163 280.416 203.707 281.744 203.707 282.96V283.296C202.827 283.008 201.835 282.8 200.939 282.8C199.083 282.8 197.659 283.92 197.659 285.552C197.659 287.152 198.939 288.192 200.667 288.192C201.787 288.192 203.099 287.664 203.707 286.688V288H204.699V282.96C204.699 280.96 203.563 279.536 201.387 279.536ZM200.827 287.296C199.595 287.296 198.635 286.608 198.635 285.504C198.635 284.432 199.707 283.664 201.083 283.664C202.011 283.664 202.923 283.84 203.707 284.08V285.408C203.387 286.688 201.979 287.296 200.827 287.296ZM210.882 279.536C209.666 279.536 208.61 280.176 208.162 281.088V279.728H207.17V288H208.162V282.736C208.162 281.456 209.298 280.448 210.754 280.448C212.066 280.448 212.994 281.424 212.994 282.816V288H213.986V282.688C213.986 280.848 212.706 279.536 210.882 279.536ZM222.931 276.816V281.344C222.291 280.224 221.203 279.536 219.843 279.536C217.715 279.536 216.067 281.392 216.067 283.856C216.067 286.336 217.715 288.192 219.843 288.192C221.203 288.192 222.291 287.504 222.931 286.384V288H223.923V276.816H222.931ZM220.019 287.28C218.355 287.28 217.091 285.808 217.091 283.856C217.091 281.904 218.355 280.448 220.019 280.448C221.731 280.448 222.931 281.856 222.931 283.856C222.931 285.856 221.731 287.28 220.019 287.28ZM231.107 288H232.099V276.816H231.107V288ZM238.369 288.192C240.689 288.192 242.641 286.208 242.641 283.856C242.641 281.504 240.689 279.536 238.369 279.536C236.049 279.536 234.081 281.504 234.081 283.856C234.081 286.208 236.049 288.192 238.369 288.192ZM238.369 287.28C236.593 287.28 235.121 285.728 235.121 283.856C235.121 282 236.593 280.448 238.369 280.448C240.129 280.448 241.601 282 241.601 283.856C241.601 285.728 240.129 287.28 238.369 287.28ZM248.462 288.192C250.782 288.192 252.734 286.208 252.734 283.856C252.734 281.504 250.782 279.536 248.462 279.536C246.142 279.536 244.174 281.504 244.174 283.856C244.174 286.208 246.142 288.192 248.462 288.192ZM248.462 287.28C246.686 287.28 245.214 285.728 245.214 283.856C245.214 282 246.686 280.448 248.462 280.448C250.222 280.448 251.694 282 251.694 283.856C251.694 285.728 250.222 287.28 248.462 287.28ZM261.74 279.728H260.444L255.692 284.544V276.816H254.7V288H255.692V285.824L257.308 284.192L260.284 288H261.532L258.012 283.52L261.74 279.728ZM263.665 278.112C264.049 278.112 264.353 277.808 264.353 277.424C264.353 277.056 264.049 276.736 263.665 276.736C263.281 276.736 262.977 277.056 262.977 277.424C262.977 277.808 263.281 278.112 263.665 278.112ZM263.169 288H264.161V279.728H263.169V288ZM270.303 279.536C269.087 279.536 268.031 280.176 267.583 281.088V279.728H266.591V288H267.583V282.736C267.583 281.456 268.719 280.448 270.175 280.448C271.487 280.448 272.415 281.424 272.415 282.816V288H273.407V282.688C273.407 280.848 272.127 279.536 270.303 279.536ZM282.273 279.728V281.296C281.633 280.176 280.513 279.536 279.121 279.536C276.977 279.536 275.377 281.216 275.377 283.456C275.377 285.712 276.977 287.392 279.121 287.392C280.497 287.392 281.633 286.736 282.273 285.616V287.12C282.273 288.8 281.073 289.84 279.185 289.84C278.145 289.84 277.073 289.456 276.401 288.848L275.953 289.648C276.705 290.288 278.001 290.752 279.297 290.752C281.633 290.752 283.265 289.248 283.265 287.12V279.728H282.273ZM279.297 286.48C277.649 286.48 276.401 285.184 276.401 283.456C276.401 281.744 277.649 280.448 279.297 280.448C281.025 280.448 282.273 281.696 282.273 283.456C282.273 285.232 281.025 286.48 279.297 286.48ZM292.162 278.592C292.162 277.888 292.61 277.392 293.154 277.392C293.554 277.392 293.89 277.52 294.114 277.744L294.626 277.008C294.178 276.672 293.65 276.48 293.09 276.48C291.97 276.48 291.17 277.36 291.17 278.592V279.728H289.826V280.64H291.17V288H292.162V280.64H294.29V279.728H292.162V278.592ZM299.853 288.192C302.173 288.192 304.125 286.208 304.125 283.856C304.125 281.504 302.173 279.536 299.853 279.536C297.533 279.536 295.565 281.504 295.565 283.856C295.565 286.208 297.533 288.192 299.853 288.192ZM299.853 287.28C298.077 287.28 296.605 285.728 296.605 283.856C296.605 282 298.077 280.448 299.853 280.448C301.613 280.448 303.085 282 303.085 283.856C303.085 285.728 301.613 287.28 299.853 287.28ZM307.211 281.424V279.728H306.219V288H307.211V283.376C307.211 281.664 308.539 280.448 310.411 280.448V279.536C308.891 279.536 307.675 280.304 307.211 281.424ZM42.1222 310.928C41.8982 311.136 41.5462 311.28 41.1622 311.28C40.6182 311.28 40.1702 310.784 40.1702 310.08V304.64H42.2502V303.728H40.1702V301.456H39.1782V303.728H37.8342V304.64H39.1782V310.08C39.1782 311.312 39.9782 312.192 41.0982 312.192C41.6422 312.192 42.2022 312 42.6342 311.664L42.1222 310.928ZM48.0612 303.536C46.8452 303.536 45.7892 304.176 45.3412 305.088V300.816H44.3492V312H45.3412V306.736C45.3412 305.456 46.4772 304.448 47.9332 304.448C49.2452 304.448 50.1732 305.424 50.1732 306.816V312H51.1652V306.688C51.1652 304.848 49.8852 303.536 48.0612 303.536ZM57.2948 311.28C55.5988 311.28 54.3348 309.968 54.1588 308.256H61.1508C61.1508 305.408 59.6788 303.536 57.2308 303.536C54.9908 303.536 53.1508 305.392 53.1508 307.84C53.1508 310.32 55.0868 312.192 57.2948 312.192C58.5108 312.192 59.9668 311.68 60.6708 310.912L60.0468 310.24C59.4708 310.864 58.3348 311.28 57.2948 311.28ZM57.2628 304.448C59.0068 304.448 60.0308 305.68 60.1588 307.344H54.1748C54.3828 305.632 55.6468 304.448 57.2628 304.448ZM71.9471 303.536C70.5871 303.536 69.4991 304.224 68.8591 305.344V303.728H67.8671V314.752H68.8591V310.384C69.4991 311.504 70.5871 312.192 71.9471 312.192C74.0751 312.192 75.7231 310.336 75.7231 307.856C75.7231 305.392 74.0751 303.536 71.9471 303.536ZM71.7711 311.28C70.0591 311.28 68.8591 309.856 68.8591 307.856C68.8591 305.856 70.0591 304.448 71.7711 304.448C73.4351 304.448 74.6991 305.904 74.6991 307.856C74.6991 309.808 73.4351 311.28 71.7711 311.28ZM81.4979 311.28C79.8019 311.28 78.5379 309.968 78.3619 308.256H85.3539C85.3539 305.408 83.8819 303.536 81.4339 303.536C79.1939 303.536 77.3539 305.392 77.3539 307.84C77.3539 310.32 79.2899 312.192 81.4979 312.192C82.7139 312.192 84.1699 311.68 84.8739 310.912L84.2499 310.24C83.6739 310.864 82.5379 311.28 81.4979 311.28ZM81.4659 304.448C83.2099 304.448 84.2339 305.68 84.3619 307.344H78.3779C78.5859 305.632 79.8499 304.448 81.4659 304.448ZM93.7496 303.728V305.296C93.1096 304.176 91.9896 303.536 90.5976 303.536C88.4536 303.536 86.8536 305.216 86.8536 307.456C86.8536 309.712 88.4536 311.392 90.5976 311.392C91.9736 311.392 93.1096 310.736 93.7496 309.616V311.12C93.7496 312.8 92.5496 313.84 90.6616 313.84C89.6216 313.84 88.5496 313.456 87.8776 312.848L87.4296 313.648C88.1816 314.288 89.4776 314.752 90.7736 314.752C93.1096 314.752 94.7416 313.248 94.7416 311.12V303.728H93.7496ZM90.7736 310.48C89.1256 310.48 87.8776 309.184 87.8776 307.456C87.8776 305.744 89.1256 304.448 90.7736 304.448C92.5016 304.448 93.7496 305.696 93.7496 307.456C93.7496 309.232 92.5016 310.48 90.7736 310.48ZM100.214 312.192C101.878 312.192 103.19 311.216 103.19 309.808C103.19 308.368 102.006 307.84 100.486 307.36C98.8703 306.832 98.2303 306.496 98.2303 305.744C98.2303 304.944 99.0783 304.448 100.086 304.448C100.854 304.448 101.718 304.72 102.55 305.232L103.046 304.464C102.166 303.888 101.094 303.536 100.086 303.536C98.4863 303.536 97.2383 304.48 97.2383 305.856C97.2383 307.024 98.0223 307.648 100.006 308.224C101.318 308.624 102.198 309.008 102.198 309.904C102.198 310.704 101.35 311.28 100.214 311.28C99.2863 311.28 98.2783 310.912 97.3183 310.224L96.7903 310.96C97.7663 311.744 99.0463 312.192 100.214 312.192ZM109.866 312H110.89V301.008H109.866V312ZM118.005 312H118.997V300.816H118.005V312ZM121.907 302.112C122.291 302.112 122.595 301.808 122.595 301.424C122.595 301.056 122.291 300.736 121.907 300.736C121.523 300.736 121.219 301.056 121.219 301.424C121.219 301.808 121.523 302.112 121.907 302.112ZM121.411 312H122.403V303.728H121.411V312ZM131.842 303.728H130.546L125.794 308.544V300.816H124.802V312H125.794V309.824L127.41 308.192L130.386 312H131.634L128.114 307.52L131.842 303.728ZM136.982 311.28C135.286 311.28 134.022 309.968 133.846 308.256H140.838C140.838 305.408 139.366 303.536 136.918 303.536C134.678 303.536 132.838 305.392 132.838 307.84C132.838 310.32 134.774 312.192 136.982 312.192C138.198 312.192 139.654 311.68 140.358 310.912L139.734 310.24C139.158 310.864 138.022 311.28 136.982 311.28ZM136.95 304.448C138.694 304.448 139.718 305.68 139.846 307.344H133.862C134.07 305.632 135.334 304.448 136.95 304.448ZM147.923 302.112C148.307 302.112 148.611 301.808 148.611 301.424C148.611 301.056 148.307 300.736 147.923 300.736C147.539 300.736 147.235 301.056 147.235 301.424C147.235 301.808 147.539 302.112 147.923 302.112ZM147.427 312H148.419V303.728H147.427V312ZM153.761 312.192C155.425 312.192 156.737 311.216 156.737 309.808C156.737 308.368 155.553 307.84 154.033 307.36C152.417 306.832 151.777 306.496 151.777 305.744C151.777 304.944 152.625 304.448 153.633 304.448C154.401 304.448 155.265 304.72 156.097 305.232L156.593 304.464C155.713 303.888 154.641 303.536 153.633 303.536C152.033 303.536 150.785 304.48 150.785 305.856C150.785 307.024 151.569 307.648 153.553 308.224C154.865 308.624 155.745 309.008 155.745 309.904C155.745 310.704 154.897 311.28 153.761 311.28C152.833 311.28 151.825 310.912 150.865 310.224L150.337 310.96C151.313 311.744 152.593 312.192 153.761 312.192ZM167.092 303.536C165.876 303.536 164.82 304.176 164.372 305.088V300.816H163.38V312H164.372V306.736C164.372 305.456 165.508 304.448 166.964 304.448C168.276 304.448 169.204 305.424 169.204 306.816V312H170.196V306.688C170.196 304.848 168.916 303.536 167.092 303.536ZM175.942 303.536C175.126 303.536 174.102 303.76 173.014 304.336L173.414 305.152C174.166 304.736 175.03 304.416 175.862 304.416C177.718 304.416 178.262 305.744 178.262 306.96V307.296C177.382 307.008 176.39 306.8 175.494 306.8C173.638 306.8 172.214 307.92 172.214 309.552C172.214 311.152 173.494 312.192 175.222 312.192C176.342 312.192 177.654 311.664 178.262 310.688V312H179.254V306.96C179.254 304.96 178.118 303.536 175.942 303.536ZM175.382 311.296C174.15 311.296 173.19 310.608 173.19 309.504C173.19 308.432 174.262 307.664 175.638 307.664C176.566 307.664 177.478 307.84 178.262 308.08V309.408C177.942 310.688 176.534 311.296 175.382 311.296ZM182.812 305.424V303.728H181.82V312H182.812V307.376C182.812 305.664 184.14 304.448 186.012 304.448V303.536C184.492 303.536 183.276 304.304 182.812 305.424ZM194.189 300.816V305.344C193.549 304.224 192.461 303.536 191.101 303.536C188.973 303.536 187.325 305.392 187.325 307.856C187.325 310.336 188.973 312.192 191.101 312.192C192.461 312.192 193.549 311.504 194.189 310.384V312H195.181V300.816H194.189ZM191.277 311.28C189.613 311.28 188.349 309.808 188.349 307.856C188.349 305.904 189.613 304.448 191.277 304.448C192.989 304.448 194.189 305.856 194.189 307.856C194.189 309.856 192.989 311.28 191.277 311.28ZM198.428 312.192C198.828 312.192 199.148 311.856 199.148 311.44C199.148 311.056 198.828 310.72 198.428 310.72C197.996 310.72 197.676 311.056 197.676 311.44C197.676 311.856 197.996 312.192 198.428 312.192ZM206.209 312H207.233V301.008H206.209V312ZM218.077 303.536C216.861 303.536 215.805 304.176 215.357 305.088V300.816H214.365V312H215.357V306.736C215.357 305.456 216.493 304.448 217.949 304.448C219.261 304.448 220.189 305.424 220.189 306.816V312H221.181V306.688C221.181 304.848 219.901 303.536 218.077 303.536ZM227.454 312.192C229.774 312.192 231.726 310.208 231.726 307.856C231.726 305.504 229.774 303.536 227.454 303.536C225.134 303.536 223.166 305.504 223.166 307.856C223.166 310.208 225.134 312.192 227.454 312.192ZM227.454 311.28C225.678 311.28 224.206 309.728 224.206 307.856C224.206 306 225.678 304.448 227.454 304.448C229.214 304.448 230.686 306 230.686 307.856C230.686 309.728 229.214 311.28 227.454 311.28ZM237.9 303.536C236.54 303.536 235.452 304.224 234.812 305.344V303.728H233.82V314.752H234.812V310.384C235.452 311.504 236.54 312.192 237.9 312.192C240.028 312.192 241.676 310.336 241.676 307.856C241.676 305.392 240.028 303.536 237.9 303.536ZM237.724 311.28C236.012 311.28 234.812 309.856 234.812 307.856C234.812 305.856 236.012 304.448 237.724 304.448C239.388 304.448 240.652 305.904 240.652 307.856C240.652 309.808 239.388 311.28 237.724 311.28ZM247.451 311.28C245.755 311.28 244.491 309.968 244.315 308.256H251.307C251.307 305.408 249.835 303.536 247.387 303.536C245.147 303.536 243.307 305.392 243.307 307.84C243.307 310.32 245.243 312.192 247.451 312.192C248.667 312.192 250.123 311.68 250.827 310.912L250.203 310.24C249.627 310.864 248.491 311.28 247.451 311.28ZM247.419 304.448C249.163 304.448 250.187 305.68 250.315 307.344H244.331C244.539 305.632 245.803 304.448 247.419 304.448ZM261.575 310.928C261.351 311.136 260.999 311.28 260.615 311.28C260.071 311.28 259.623 310.784 259.623 310.08V304.64H261.703V303.728H259.623V301.456H258.631V303.728H257.287V304.64H258.631V310.08C258.631 311.312 259.431 312.192 260.551 312.192C261.095 312.192 261.655 312 262.087 311.664L261.575 310.928ZM267.514 303.536C266.298 303.536 265.242 304.176 264.794 305.088V300.816H263.802V312H264.794V306.736C264.794 305.456 265.93 304.448 267.386 304.448C268.698 304.448 269.626 305.424 269.626 306.816V312H270.618V306.688C270.618 304.848 269.338 303.536 267.514 303.536ZM276.748 311.28C275.052 311.28 273.788 309.968 273.612 308.256H280.604C280.604 305.408 279.132 303.536 276.684 303.536C274.444 303.536 272.604 305.392 272.604 307.84C272.604 310.32 274.54 312.192 276.748 312.192C277.964 312.192 279.42 311.68 280.124 310.912L279.5 310.24C278.924 310.864 277.788 311.28 276.748 311.28ZM276.716 304.448C278.46 304.448 279.484 305.68 279.612 307.344H273.628C273.836 305.632 275.1 304.448 276.716 304.448ZM283.672 305.424V303.728H282.68V312H283.672V307.376C283.672 305.664 285 304.448 286.872 304.448V303.536C285.352 303.536 284.136 304.304 283.672 305.424ZM292.232 311.28C290.536 311.28 289.272 309.968 289.096 308.256H296.088C296.088 305.408 294.616 303.536 292.168 303.536C289.928 303.536 288.088 305.392 288.088 307.84C288.088 310.32 290.024 312.192 292.232 312.192C293.448 312.192 294.904 311.68 295.608 310.912L294.984 310.24C294.408 310.864 293.272 311.28 292.232 311.28ZM292.2 304.448C293.944 304.448 294.968 305.68 295.096 307.344H289.112C289.32 305.632 290.584 304.448 292.2 304.448ZM303.173 302.112C303.557 302.112 303.861 301.808 303.861 301.424C303.861 301.056 303.557 300.736 303.173 300.736C302.789 300.736 302.485 301.056 302.485 301.424C302.485 301.808 302.789 302.112 303.173 302.112ZM302.677 312H303.669V303.728H302.677V312ZM309.011 312.192C310.675 312.192 311.987 311.216 311.987 309.808C311.987 308.368 310.803 307.84 309.283 307.36C307.667 306.832 307.027 306.496 307.027 305.744C307.027 304.944 307.875 304.448 308.883 304.448C309.651 304.448 310.515 304.72 311.347 305.232L311.843 304.464C310.963 303.888 309.891 303.536 308.883 303.536C307.283 303.536 306.035 304.48 306.035 305.856C306.035 307.024 306.819 307.648 308.803 308.224C310.115 308.624 310.995 309.008 310.995 309.904C310.995 310.704 310.147 311.28 309.011 311.28C308.083 311.28 307.075 310.912 306.115 310.224L305.587 310.96C306.563 311.744 307.843 312.192 309.011 312.192ZM45.3483 327.536C44.5323 327.536 43.5083 327.76 42.4203 328.336L42.8203 329.152C43.5723 328.736 44.4363 328.416 45.2683 328.416C47.1243 328.416 47.6683 329.744 47.6683 330.96V331.296C46.7883 331.008 45.7963 330.8 44.9003 330.8C43.0443 330.8 41.6203 331.92 41.6203 333.552C41.6203 335.152 42.9003 336.192 44.6283 336.192C45.7483 336.192 47.0603 335.664 47.6683 334.688V336H48.6603V330.96C48.6603 328.96 47.5243 327.536 45.3483 327.536ZM44.7883 335.296C43.5563 335.296 42.5963 334.608 42.5963 333.504C42.5963 332.432 43.6683 331.664 45.0443 331.664C45.9723 331.664 46.8843 331.84 47.6683 332.08V333.408C47.3483 334.688 45.9403 335.296 44.7883 335.296ZM54.8424 327.536C53.6264 327.536 52.5704 328.176 52.1224 329.088V327.728H51.1304V336H52.1224V330.736C52.1224 329.456 53.2584 328.448 54.7144 328.448C56.0264 328.448 56.9544 329.424 56.9544 330.816V336H57.9464V330.688C57.9464 328.848 56.6664 327.536 54.8424 327.536ZM68.7167 335.28C67.0207 335.28 65.7567 333.968 65.5807 332.256H72.5727C72.5727 329.408 71.1007 327.536 68.6527 327.536C66.4127 327.536 64.5727 329.392 64.5727 331.84C64.5727 334.32 66.5087 336.192 68.7167 336.192C69.9327 336.192 71.3887 335.68 72.0927 334.912L71.4687 334.24C70.8927 334.864 69.7567 335.28 68.7167 335.28ZM68.6847 328.448C70.4287 328.448 71.4527 329.68 71.5807 331.344H65.5967C65.8047 329.632 67.0687 328.448 68.6847 328.448ZM77.8483 327.536C77.0323 327.536 76.0083 327.76 74.9203 328.336L75.3203 329.152C76.0723 328.736 76.9363 328.416 77.7683 328.416C79.6243 328.416 80.1683 329.744 80.1683 330.96V331.296C79.2883 331.008 78.2963 330.8 77.4003 330.8C75.5443 330.8 74.1203 331.92 74.1203 333.552C74.1203 335.152 75.4003 336.192 77.1283 336.192C78.2483 336.192 79.5603 335.664 80.1683 334.688V336H81.1603V330.96C81.1603 328.96 80.0243 327.536 77.8483 327.536ZM77.2883 335.296C76.0563 335.296 75.0963 334.608 75.0963 333.504C75.0963 332.432 76.1683 331.664 77.5443 331.664C78.4723 331.664 79.3843 331.84 80.1683 332.08V333.408C79.8483 334.688 78.4403 335.296 77.2883 335.296ZM86.5424 336.192C88.2064 336.192 89.5184 335.216 89.5184 333.808C89.5184 332.368 88.3344 331.84 86.8144 331.36C85.1984 330.832 84.5584 330.496 84.5584 329.744C84.5584 328.944 85.4064 328.448 86.4144 328.448C87.1824 328.448 88.0464 328.72 88.8784 329.232L89.3744 328.464C88.4944 327.888 87.4224 327.536 86.4144 327.536C84.8144 327.536 83.5664 328.48 83.5664 329.856C83.5664 331.024 84.3504 331.648 86.3344 332.224C87.6464 332.624 88.5264 333.008 88.5264 333.904C88.5264 334.704 87.6784 335.28 86.5424 335.28C85.6144 335.28 84.6064 334.912 83.6464 334.224L83.1184 334.96C84.0944 335.744 85.3744 336.192 86.5424 336.192ZM92.5931 338.88C93.7451 338.864 94.5451 338.336 95.0731 337.024L98.8811 327.728H97.8091L94.9131 334.944L91.8571 327.728H90.7691L94.4011 336.128L93.9051 337.2C93.6011 337.744 93.1691 337.968 92.5611 337.968C92.2091 337.968 91.8411 337.888 91.5371 337.728L91.2811 338.608C91.6651 338.784 92.1291 338.88 92.5931 338.88ZM107.585 336H108.577L110.849 329.2L113.105 336H114.097L116.865 327.728H115.809L113.601 334.672L111.281 327.728H110.417L108.081 334.672L105.889 327.728H104.833L107.585 336ZM121.926 327.536C121.11 327.536 120.086 327.76 118.998 328.336L119.398 329.152C120.15 328.736 121.014 328.416 121.846 328.416C123.702 328.416 124.246 329.744 124.246 330.96V331.296C123.366 331.008 122.374 330.8 121.478 330.8C119.622 330.8 118.198 331.92 118.198 333.552C118.198 335.152 119.478 336.192 121.206 336.192C122.326 336.192 123.638 335.664 124.246 334.688V336H125.238V330.96C125.238 328.96 124.102 327.536 121.926 327.536ZM121.366 335.296C120.134 335.296 119.174 334.608 119.174 333.504C119.174 332.432 120.246 331.664 121.622 331.664C122.55 331.664 123.462 331.84 124.246 332.08V333.408C123.926 334.688 122.518 335.296 121.366 335.296ZM128.781 338.88C129.933 338.864 130.733 338.336 131.261 337.024L135.069 327.728H133.997L131.101 334.944L128.045 327.728H126.957L130.589 336.128L130.093 337.2C129.789 337.744 129.357 337.968 128.749 337.968C128.397 337.968 128.029 337.888 127.725 337.728L127.469 338.608C127.853 338.784 128.317 338.88 128.781 338.88ZM145.341 334.928C145.117 335.136 144.765 335.28 144.381 335.28C143.837 335.28 143.389 334.784 143.389 334.08V328.64H145.469V327.728H143.389V325.456H142.397V327.728H141.053V328.64H142.397V334.08C142.397 335.312 143.197 336.192 144.317 336.192C144.861 336.192 145.421 336 145.853 335.664L145.341 334.928ZM151.392 336.192C153.712 336.192 155.664 334.208 155.664 331.856C155.664 329.504 153.712 327.536 151.392 327.536C149.072 327.536 147.104 329.504 147.104 331.856C147.104 334.208 149.072 336.192 151.392 336.192ZM151.392 335.28C149.616 335.28 148.144 333.728 148.144 331.856C148.144 330 149.616 328.448 151.392 328.448C153.152 328.448 154.624 330 154.624 331.856C154.624 333.728 153.152 335.28 151.392 335.28ZM163.998 326.592C163.998 325.888 164.446 325.392 164.99 325.392C165.39 325.392 165.726 325.52 165.95 325.744L166.462 325.008C166.014 324.672 165.486 324.48 164.926 324.48C163.806 324.48 163.006 325.36 163.006 326.592V327.728H161.662V328.64H163.006V336H163.998V328.64H166.126V327.728H163.998V326.592ZM168.329 326.112C168.713 326.112 169.017 325.808 169.017 325.424C169.017 325.056 168.713 324.736 168.329 324.736C167.945 324.736 167.641 325.056 167.641 325.424C167.641 325.808 167.945 326.112 168.329 326.112ZM167.833 336H168.825V327.728H167.833V336ZM171.239 336H172.231V324.816H171.239V336ZM178.325 334.928C178.101 335.136 177.749 335.28 177.365 335.28C176.821 335.28 176.373 334.784 176.373 334.08V328.64H178.453V327.728H176.373V325.456H175.381V327.728H174.037V328.64H175.381V334.08C175.381 335.312 176.181 336.192 177.301 336.192C177.845 336.192 178.405 336 178.837 335.664L178.325 334.928ZM184.232 335.28C182.536 335.28 181.272 333.968 181.096 332.256H188.088C188.088 329.408 186.616 327.536 184.168 327.536C181.928 327.536 180.088 329.392 180.088 331.84C180.088 334.32 182.024 336.192 184.232 336.192C185.448 336.192 186.904 335.68 187.608 334.912L186.984 334.24C186.408 334.864 185.272 335.28 184.232 335.28ZM184.2 328.448C185.944 328.448 186.968 329.68 187.096 331.344H181.112C181.32 329.632 182.584 328.448 184.2 328.448ZM191.156 329.424V327.728H190.164V336H191.156V331.376C191.156 329.664 192.484 328.448 194.356 328.448V327.536C192.836 327.536 191.62 328.304 191.156 329.424ZM204.501 336.192C206.821 336.192 208.773 334.208 208.773 331.856C208.773 329.504 206.821 327.536 204.501 327.536C202.181 327.536 200.213 329.504 200.213 331.856C200.213 334.208 202.181 336.192 204.501 336.192ZM204.501 335.28C202.725 335.28 201.253 333.728 201.253 331.856C201.253 330 202.725 328.448 204.501 328.448C206.261 328.448 207.733 330 207.733 331.856C207.733 333.728 206.261 335.28 204.501 335.28ZM216.579 327.728V332.992C216.579 334.272 215.443 335.28 213.987 335.28C212.675 335.28 211.747 334.304 211.747 332.912V327.728H210.755V333.04C210.755 334.88 212.035 336.192 213.859 336.192C215.075 336.192 216.131 335.552 216.579 334.64V336H217.571V327.728H216.579ZM223.685 334.928C223.461 335.136 223.109 335.28 222.725 335.28C222.181 335.28 221.733 334.784 221.733 334.08V328.64H223.813V327.728H221.733V325.456H220.741V327.728H219.397V328.64H220.741V334.08C220.741 335.312 221.541 336.192 222.661 336.192C223.205 336.192 223.765 336 224.197 335.664L223.685 334.928ZM234.328 336.192C235.448 336.192 236.488 335.712 237.256 334.944L236.568 334.272C235.992 334.896 235.192 335.28 234.328 335.28C232.536 335.28 231.128 333.776 231.128 331.856C231.128 329.952 232.536 328.448 234.328 328.448C235.176 328.448 235.96 328.816 236.536 329.424L237.224 328.752C236.456 328 235.432 327.536 234.328 327.536C231.976 327.536 230.088 329.44 230.088 331.856C230.088 334.272 231.976 336.192 234.328 336.192ZM242.411 327.536C241.595 327.536 240.571 327.76 239.483 328.336L239.883 329.152C240.635 328.736 241.499 328.416 242.331 328.416C244.187 328.416 244.731 329.744 244.731 330.96V331.296C243.851 331.008 242.859 330.8 241.963 330.8C240.107 330.8 238.683 331.92 238.683 333.552C238.683 335.152 239.963 336.192 241.691 336.192C242.811 336.192 244.123 335.664 244.731 334.688V336H245.723V330.96C245.723 328.96 244.587 327.536 242.411 327.536ZM241.851 335.296C240.619 335.296 239.659 334.608 239.659 333.504C239.659 332.432 240.731 331.664 242.107 331.664C243.035 331.664 243.947 331.84 244.731 332.08V333.408C244.411 334.688 243.003 335.296 241.851 335.296ZM251.841 334.928C251.617 335.136 251.265 335.28 250.881 335.28C250.337 335.28 249.889 334.784 249.889 334.08V328.64H251.969V327.728H249.889V325.456H248.897V327.728H247.553V328.64H248.897V334.08C248.897 335.312 249.697 336.192 250.817 336.192C251.361 336.192 251.921 336 252.353 335.664L251.841 334.928ZM257.748 335.28C256.052 335.28 254.788 333.968 254.612 332.256H261.604C261.604 329.408 260.132 327.536 257.684 327.536C255.444 327.536 253.604 329.392 253.604 331.84C253.604 334.32 255.54 336.192 257.748 336.192C258.964 336.192 260.42 335.68 261.124 334.912L260.5 334.24C259.924 334.864 258.788 335.28 257.748 335.28ZM257.716 328.448C259.46 328.448 260.484 329.68 260.612 331.344H254.628C254.836 329.632 256.1 328.448 257.716 328.448ZM270 327.728V329.296C269.36 328.176 268.24 327.536 266.848 327.536C264.704 327.536 263.104 329.216 263.104 331.456C263.104 333.712 264.704 335.392 266.848 335.392C268.224 335.392 269.36 334.736 270 333.616V335.12C270 336.8 268.8 337.84 266.912 337.84C265.872 337.84 264.8 337.456 264.128 336.848L263.68 337.648C264.432 338.288 265.728 338.752 267.024 338.752C269.36 338.752 270.992 337.248 270.992 335.12V327.728H270ZM267.024 334.48C265.376 334.48 264.128 333.184 264.128 331.456C264.128 329.744 265.376 328.448 267.024 328.448C268.752 328.448 270 329.696 270 331.456C270 333.232 268.752 334.48 267.024 334.48ZM277.376 336.192C279.696 336.192 281.648 334.208 281.648 331.856C281.648 329.504 279.696 327.536 277.376 327.536C275.056 327.536 273.088 329.504 273.088 331.856C273.088 334.208 275.056 336.192 277.376 336.192ZM277.376 335.28C275.6 335.28 274.128 333.728 274.128 331.856C274.128 330 275.6 328.448 277.376 328.448C279.136 328.448 280.608 330 280.608 331.856C280.608 333.728 279.136 335.28 277.376 335.28ZM284.734 329.424V327.728H283.742V336H284.734V331.376C284.734 329.664 286.062 328.448 287.934 328.448V327.536C286.414 327.536 285.198 328.304 284.734 329.424ZM290.079 326.112C290.463 326.112 290.767 325.808 290.767 325.424C290.767 325.056 290.463 324.736 290.079 324.736C289.695 324.736 289.391 325.056 289.391 325.424C289.391 325.808 289.695 326.112 290.079 326.112ZM289.583 336H290.575V327.728H289.583V336ZM296.685 335.28C294.989 335.28 293.725 333.968 293.549 332.256H300.541C300.541 329.408 299.069 327.536 296.621 327.536C294.381 327.536 292.541 329.392 292.541 331.84C292.541 334.32 294.477 336.192 296.685 336.192C297.901 336.192 299.357 335.68 300.061 334.912L299.437 334.24C298.861 334.864 297.725 335.28 296.685 335.28ZM296.653 328.448C298.397 328.448 299.421 329.68 299.549 331.344H293.565C293.773 329.632 295.037 328.448 296.653 328.448ZM305.433 336.192C307.097 336.192 308.409 335.216 308.409 333.808C308.409 332.368 307.225 331.84 305.705 331.36C304.089 330.832 303.449 330.496 303.449 329.744C303.449 328.944 304.297 328.448 305.305 328.448C306.073 328.448 306.937 328.72 307.769 329.232L308.265 328.464C307.385 327.888 306.313 327.536 305.305 327.536C303.705 327.536 302.457 328.48 302.457 329.856C302.457 331.024 303.241 331.648 305.225 332.224C306.537 332.624 307.417 333.008 307.417 333.904C307.417 334.704 306.569 335.28 305.433 335.28C304.505 335.28 303.497 334.912 302.537 334.224L302.009 334.96C302.985 335.744 304.265 336.192 305.433 336.192ZM139.059 351.536C138.243 351.536 137.219 351.76 136.131 352.336L136.531 353.152C137.283 352.736 138.147 352.416 138.979 352.416C140.835 352.416 141.379 353.744 141.379 354.96V355.296C140.499 355.008 139.507 354.8 138.611 354.8C136.755 354.8 135.331 355.92 135.331 357.552C135.331 359.152 136.611 360.192 138.339 360.192C139.459 360.192 140.771 359.664 141.379 358.688V360H142.371V354.96C142.371 352.96 141.235 351.536 139.059 351.536ZM138.499 359.296C137.267 359.296 136.307 358.608 136.307 357.504C136.307 356.432 137.379 355.664 138.755 355.664C139.683 355.664 140.595 355.84 141.379 356.08V357.408C141.059 358.688 139.651 359.296 138.499 359.296ZM148.553 351.536C147.337 351.536 146.281 352.176 145.833 353.088V351.728H144.841V360H145.833V354.736C145.833 353.456 146.969 352.448 148.425 352.448C149.737 352.448 150.665 353.424 150.665 354.816V360H151.657V354.688C151.657 352.848 150.377 351.536 148.553 351.536ZM160.603 348.816V353.344C159.963 352.224 158.875 351.536 157.515 351.536C155.387 351.536 153.739 353.392 153.739 355.856C153.739 358.336 155.387 360.192 157.515 360.192C158.875 360.192 159.963 359.504 160.603 358.384V360H161.595V348.816H160.603ZM157.691 359.28C156.027 359.28 154.763 357.808 154.763 355.856C154.763 353.904 156.027 352.448 157.691 352.448C159.403 352.448 160.603 353.856 160.603 355.856C160.603 357.856 159.403 359.28 157.691 359.28ZM171.707 360.192C173.371 360.192 174.683 359.216 174.683 357.808C174.683 356.368 173.499 355.84 171.979 355.36C170.363 354.832 169.723 354.496 169.723 353.744C169.723 352.944 170.571 352.448 171.579 352.448C172.347 352.448 173.211 352.72 174.043 353.232L174.539 352.464C173.659 351.888 172.587 351.536 171.579 351.536C169.979 351.536 168.731 352.48 168.731 353.856C168.731 355.024 169.515 355.648 171.499 356.224C172.811 356.624 173.691 357.008 173.691 357.904C173.691 358.704 172.843 359.28 171.707 359.28C170.779 359.28 169.771 358.912 168.811 358.224L168.283 358.96C169.259 359.744 170.539 360.192 171.707 360.192ZM177.149 350.112C177.533 350.112 177.837 349.808 177.837 349.424C177.837 349.056 177.533 348.736 177.149 348.736C176.765 348.736 176.461 349.056 176.461 349.424C176.461 349.808 176.765 350.112 177.149 350.112ZM176.653 360H177.645V351.728H176.653V360ZM179.708 360H186.236V359.056H181.02L186.204 352.512V351.728H179.804V352.672H184.876L179.708 359.216V360ZM191.975 359.28C190.279 359.28 189.015 357.968 188.839 356.256H195.831C195.831 353.408 194.359 351.536 191.911 351.536C189.671 351.536 187.831 353.392 187.831 355.84C187.831 358.32 189.767 360.192 191.975 360.192C193.191 360.192 194.647 359.68 195.351 358.912L194.727 358.24C194.151 358.864 193.015 359.28 191.975 359.28ZM191.943 352.448C193.687 352.448 194.711 353.68 194.839 355.344H188.855C189.062 353.632 190.327 352.448 191.943 352.448ZM200.722 360.192C202.386 360.192 203.698 359.216 203.698 357.808C203.698 356.368 202.514 355.84 200.994 355.36C199.378 354.832 198.738 354.496 198.738 353.744C198.738 352.944 199.586 352.448 200.594 352.448C201.362 352.448 202.226 352.72 203.058 353.232L203.554 352.464C202.674 351.888 201.602 351.536 200.594 351.536C198.994 351.536 197.746 352.48 197.746 353.856C197.746 355.024 198.53 355.648 200.514 356.224C201.826 356.624 202.706 357.008 202.706 357.904C202.706 358.704 201.858 359.28 200.722 359.28C199.794 359.28 198.786 358.912 197.826 358.224L197.298 358.96C198.274 359.744 199.554 360.192 200.722 360.192ZM206.389 360.192C206.789 360.192 207.109 359.856 207.109 359.44C207.109 359.056 206.789 358.72 206.389 358.72C205.957 358.72 205.637 359.056 205.637 359.44C205.637 359.856 205.957 360.192 206.389 360.192ZM210.058 352.704C210.906 351.632 211.194 351.04 211.194 350.416C211.194 349.792 210.874 349.344 210.378 349.344C209.93 349.344 209.626 349.68 209.626 350.064C209.626 350.48 209.946 350.816 210.362 350.816C210.234 351.296 209.962 351.808 209.53 352.304L210.058 352.704ZM213.146 352.704C213.994 351.632 214.282 351.04 214.282 350.416C214.282 349.792 213.962 349.344 213.466 349.344C213.018 349.344 212.714 349.68 212.714 350.064C212.714 350.48 213.034 350.816 213.45 350.816C213.322 351.296 213.05 351.808 212.618 352.304L213.146 352.704Z" fill="#2D2D2D"/>
<path d="M133.276 251H140.86V249.816H135.276L138.156 247.32C140.012 245.72 140.748 244.536 140.748 243.048C140.748 241.08 139.148 239.816 137.244 239.816C135.516 239.816 134.284 240.632 133.372 241.928L134.252 242.648C135.004 241.624 135.916 240.936 137.196 240.936C138.364 240.936 139.484 241.72 139.484 243.064C139.484 244.152 138.844 245.208 137.292 246.536L133.276 249.96V251ZM142.698 251H150.282V249.816H144.698L147.578 247.32C149.434 245.72 150.17 244.536 150.17 243.048C150.17 241.08 148.57 239.816 146.666 239.816C144.938 239.816 143.706 240.632 142.794 241.928L143.674 242.648C144.426 241.624 145.338 240.936 146.618 240.936C147.786 240.936 148.906 241.72 148.906 243.064C148.906 244.152 148.266 245.208 146.714 246.536L142.698 249.96V251ZM153.192 253.128C154.152 251.928 154.424 251.384 154.424 250.744C154.424 250.008 154.056 249.464 153.448 249.464C152.936 249.464 152.568 249.864 152.568 250.312C152.568 250.792 152.952 251.192 153.432 251.192C153.304 251.688 153.032 252.184 152.6 252.68L153.192 253.128ZM165.267 251.176C167.827 251.176 169.139 249.752 169.139 248.008C169.139 246.072 167.635 245.32 165.539 244.824C163.667 244.376 162.579 243.976 162.579 242.84C162.579 241.832 163.571 240.936 164.931 240.936C166.083 240.936 167.171 241.464 168.083 242.344L168.851 241.368C167.843 240.44 166.627 239.8 164.995 239.8C162.883 239.8 161.315 241.176 161.315 242.936C161.315 244.84 162.707 245.528 164.915 246.04C166.835 246.488 167.875 246.952 167.875 248.12C167.875 249.112 167.011 250.04 165.315 250.04C163.779 250.04 162.643 249.384 161.715 248.456L160.931 249.432C162.035 250.52 163.459 251.176 165.267 251.176ZM174.856 249.784C174.68 249.976 174.36 250.12 173.992 250.12C173.512 250.12 173.096 249.688 173.096 249.08V243.8H175.128V242.728H173.096V240.456H171.896V242.728H170.6V243.8H171.896V249.08C171.896 250.312 172.728 251.192 173.912 251.192C174.472 251.192 175.016 251 175.448 250.664L174.856 249.784ZM182.97 242.728V247.992C182.97 249.144 181.802 250.12 180.41 250.12C179.194 250.12 178.346 249.176 178.346 247.832V242.728H177.146V247.992C177.146 249.864 178.426 251.192 180.25 251.192C181.418 251.192 182.49 250.552 182.97 249.672V251H184.17V242.728H182.97ZM193.078 239.816V244.28C192.454 243.192 191.398 242.536 190.07 242.536C187.894 242.536 186.262 244.328 186.262 246.856C186.262 249.4 187.894 251.192 190.07 251.192C191.398 251.192 192.454 250.536 193.078 249.448V251H194.278V239.816H193.078ZM190.294 250.12C188.678 250.12 187.526 248.76 187.526 246.856C187.526 244.952 188.678 243.608 190.294 243.608C191.926 243.608 193.078 244.952 193.078 246.856C193.078 248.76 191.926 250.12 190.294 250.12ZM200.546 250.12C198.914 250.12 197.778 248.936 197.602 247.32H204.37C204.37 244.424 202.946 242.536 200.45 242.536C198.226 242.536 196.37 244.376 196.37 246.84C196.37 249.384 198.354 251.192 200.562 251.192C201.714 251.192 203.17 250.696 203.89 249.912L203.154 249.128C202.642 249.688 201.522 250.12 200.546 250.12ZM200.498 243.608C202.146 243.608 203.026 244.76 203.186 246.248H197.618C197.842 244.648 199.026 243.608 200.498 243.608ZM210.269 242.536C209.101 242.536 208.029 243.176 207.549 244.056V242.728H206.349V251H207.549V245.736C207.549 244.584 208.717 243.608 210.109 243.608C211.325 243.608 212.173 244.552 212.173 245.896V251H213.373V245.736C213.373 243.864 212.093 242.536 210.269 242.536ZM219.434 249.784C219.258 249.976 218.938 250.12 218.57 250.12C218.09 250.12 217.674 249.688 217.674 249.08V243.8H219.706V242.728H217.674V240.456H216.474V242.728H215.178V243.8H216.474V249.08C216.474 250.312 217.306 251.192 218.49 251.192C219.05 251.192 219.594 251 220.026 250.664L219.434 249.784Z" fill="#BF8427"/>
<path d="M134.097 227.288C137.433 227.288 139.785 224.936 139.785 221.624V210.512H136.233V221.336C136.233 222.944 135.177 224.072 133.737 224.072C132.633 224.072 131.457 223.328 130.929 222.248L128.577 224.552C129.681 226.16 131.985 227.288 134.097 227.288ZM148.759 224.192C147.295 224.192 146.215 223.28 145.807 221.936H154.759C154.759 217.256 152.479 214.304 148.591 214.304C144.967 214.304 142.207 217.016 142.207 220.76C142.207 224.576 145.087 227.288 148.783 227.288C150.607 227.288 152.743 226.52 153.847 225.368L151.615 223.088C150.943 223.736 149.743 224.192 148.759 224.192ZM148.735 217.4C150.151 217.4 151.063 218.192 151.399 219.416H145.855C146.311 218.168 147.415 217.4 148.735 217.4ZM164.306 214.304C162.698 214.304 161.306 215.024 160.562 216.152V214.592H157.058V227H160.562V219.584L160.586 219.656C160.586 218.312 161.714 217.256 163.178 217.256C164.57 217.256 165.53 218.312 165.53 219.848V227H168.914V219.104C168.914 216.296 166.994 214.304 164.306 214.304ZM179.048 214.304C177.44 214.304 176.048 215.024 175.304 216.152V214.592H171.8V227H175.304V219.584L175.328 219.656C175.328 218.312 176.456 217.256 177.92 217.256C179.312 217.256 180.272 218.312 180.272 219.848V227H183.656V219.104C183.656 216.296 181.736 214.304 179.048 214.304ZM188.366 212.888C189.398 212.888 190.238 212.024 190.238 210.968C190.238 209.984 189.398 209.096 188.366 209.096C187.286 209.096 186.446 209.984 186.446 210.968C186.446 212.024 187.286 212.888 188.366 212.888ZM186.59 227H190.094V214.592H186.59V227ZM197.305 213.92C197.305 213.104 197.833 212.528 198.481 212.528C198.961 212.528 199.441 212.696 199.681 212.936L200.521 210.8C199.801 210.152 198.673 209.72 197.665 209.72C195.481 209.72 193.945 211.28 193.945 213.512V214.592H192.241V217.424H193.945V227H197.305V217.424H199.993V214.592H197.305V213.92ZM208.103 224.192C206.639 224.192 205.559 223.28 205.151 221.936H214.103C214.103 217.256 211.823 214.304 207.935 214.304C204.311 214.304 201.551 217.016 201.551 220.76C201.551 224.576 204.431 227.288 208.127 227.288C209.951 227.288 212.087 226.52 213.191 225.368L210.959 223.088C210.287 223.736 209.087 224.192 208.103 224.192ZM208.079 217.4C209.495 217.4 210.407 218.192 210.743 219.416H205.199C205.655 218.168 206.759 217.4 208.079 217.4ZM219.978 216.896V214.592H216.474V227H219.978V221.072C219.978 218.744 221.634 217.256 224.226 217.256V214.304C222.33 214.304 220.794 215.288 219.978 216.896Z" fill="#BF8427"/>
<circle cx="171" cy="113" r="69.6" fill="#FFFAF1" stroke="#BF8427" stroke-width="0.8"/>
<circle cx="171" cy="113" r="62" fill="#FFEED5"/>
<mask id="mask0" mask-type="alpha" maskUnits="userSpaceOnUse" x="109" y="51" width="124" height="124">
<circle cx="171" cy="113" r="62" fill="#EFDAB9"/>
</mask>
<g mask="url(#mask0)">
<path d="M194.754 101.511C225.611 76.2327 196.488 53.1113 165.202 65.4257C161.855 66.7431 152.581 61.469 143.99 67.0253C138.448 70.6097 140.605 73.4186 138.447 76.2277C136.289 79.0367 127.97 78.8714 126.147 86.1653C125.068 90.4866 128.055 95.013 127.655 98.2655C127.256 101.518 124.102 104.45 123.951 108.744C123.886 110.557 124.179 112.366 124.813 114.066C125.447 115.767 126.41 117.325 127.646 118.654C128.883 119.982 130.369 121.054 132.02 121.807C133.67 122.561 135.453 122.982 137.267 123.047C137.282 126.632 138.682 130.073 141.174 132.65C143.666 135.227 147.059 136.742 150.641 136.876C153.023 136.96 159.052 136.961 164.234 133.835C177.217 126.005 174.304 118.263 194.754 101.511Z" fill="white"/>
<path d="M162.714 129.98C162.714 126.093 162.582 106.919 162.588 106.595C151.916 108.168 152.132 87.8674 162.93 92.8345C165.305 94.3463 172 92.8345 171.352 80.3087C183.014 92.8345 196.554 78.2251 197.715 90.1298C199.3 106.385 197.705 123.397 187.603 123.398C186.498 123.385 185.396 123.275 184.31 123.069V129.98C184.31 134.299 192.085 136.459 192.085 136.459C192.085 136.459 178.655 149.114 173.08 149.045C167.505 148.975 154.939 136.459 154.939 136.459C154.939 136.459 162.714 134.299 162.714 129.98Z" fill="url(#paint0_linear)"/>
<path d="M184.31 123.067C178.952 121.879 173.874 119.664 169.357 116.546C169.357 116.546 173.084 125.656 184.296 127.385L184.31 123.067Z" fill="#DB6F3D"/>
<path d="M213.249 149.417C216.383 156.38 218 177.492 218 177.492H129.023C129.023 177.492 130.641 156.38 133.775 149.417C136.52 143.317 154.61 136.313 159.912 134.299C162.973 137.724 167.359 139.914 173.512 139.914C179.664 139.914 184.051 137.724 187.112 134.299C192.413 136.313 210.504 143.317 213.249 149.417Z" fill="url(#paint1_linear)"/>
<mask id="mask1" mask-type="alpha" maskUnits="userSpaceOnUse" x="129" y="134" width="90" height="44">
<path d="M213.249 149.417C216.383 156.38 218 177.492 218 177.492H129.023C129.023 177.492 130.641 156.38 133.775 149.417C136.52 143.317 154.61 136.313 159.912 134.299C162.973 137.724 167.359 139.914 173.512 139.914C179.664 139.914 184.051 137.724 187.112 134.299C192.413 136.313 210.504 143.317 213.249 149.417Z" fill="url(#paint2_linear)"/>
</mask>
<g mask="url(#mask1)">
<path d="M214.113 173.173C214.113 172.66 214.265 172.159 214.549 171.733C214.834 171.307 215.239 170.975 215.713 170.778C216.186 170.582 216.707 170.531 217.21 170.631C217.713 170.731 218.174 170.978 218.537 171.34C218.899 171.703 219.146 172.164 219.246 172.667C219.346 173.17 219.295 173.691 219.099 174.164C218.902 174.638 218.57 175.043 218.144 175.328C217.718 175.612 217.217 175.764 216.704 175.764C216.017 175.764 215.358 175.491 214.872 175.005C214.386 174.519 214.113 173.86 214.113 173.173ZM196.836 173.173C196.836 172.66 196.988 172.159 197.272 171.733C197.557 171.307 197.962 170.975 198.435 170.778C198.909 170.582 199.43 170.531 199.933 170.631C200.436 170.731 200.897 170.978 201.26 171.34C201.622 171.703 201.869 172.164 201.969 172.667C202.069 173.17 202.018 173.691 201.822 174.164C201.625 174.638 201.293 175.043 200.867 175.328C200.441 175.612 199.94 175.764 199.427 175.764C198.74 175.764 198.081 175.491 197.595 175.005C197.109 174.519 196.836 173.86 196.836 173.173ZM179.559 173.173C179.559 172.66 179.711 172.159 179.995 171.733C180.28 171.307 180.685 170.975 181.158 170.778C181.632 170.582 182.153 170.531 182.656 170.631C183.158 170.731 183.62 170.978 183.983 171.34C184.345 171.703 184.592 172.164 184.692 172.667C184.792 173.17 184.741 173.691 184.544 174.164C184.348 174.638 184.016 175.043 183.59 175.328C183.164 175.612 182.663 175.764 182.15 175.764C181.463 175.764 180.804 175.491 180.318 175.005C179.832 174.519 179.559 173.86 179.559 173.173ZM162.282 173.173C162.282 172.66 162.434 172.159 162.718 171.733C163.003 171.307 163.408 170.975 163.881 170.778C164.355 170.582 164.876 170.531 165.379 170.631C165.881 170.731 166.343 170.978 166.706 171.34C167.068 171.703 167.315 172.164 167.415 172.667C167.515 173.17 167.464 173.691 167.267 174.164C167.071 174.638 166.739 175.043 166.313 175.328C165.887 175.612 165.386 175.764 164.873 175.764C164.186 175.764 163.527 175.491 163.041 175.005C162.555 174.519 162.282 173.86 162.282 173.173ZM145.005 173.173C145.005 172.66 145.157 172.159 145.441 171.733C145.726 171.307 146.131 170.975 146.604 170.778C147.078 170.582 147.599 170.531 148.102 170.631C148.604 170.731 149.066 170.978 149.429 171.34C149.791 171.703 150.038 172.164 150.138 172.667C150.238 173.17 150.187 173.691 149.99 174.164C149.794 174.638 149.462 175.043 149.036 175.328C148.61 175.612 148.109 175.764 147.596 175.764C146.909 175.764 146.25 175.491 145.764 175.005C145.278 174.519 145.005 173.86 145.005 173.173ZM127.728 173.173C127.728 172.66 127.88 172.159 128.164 171.733C128.449 171.307 128.854 170.975 129.327 170.778C129.801 170.582 130.322 170.531 130.825 170.631C131.327 170.731 131.789 170.978 132.152 171.34C132.514 171.703 132.761 172.164 132.861 172.667C132.961 173.17 132.91 173.691 132.713 174.164C132.517 174.638 132.185 175.043 131.759 175.328C131.333 175.612 130.832 175.764 130.319 175.764C129.632 175.764 128.973 175.491 128.487 175.005C128.001 174.519 127.728 173.86 127.728 173.173V173.173ZM205.474 164.534C205.474 164.022 205.626 163.521 205.911 163.094C206.196 162.668 206.6 162.336 207.074 162.14C207.548 161.944 208.069 161.892 208.571 161.992C209.074 162.092 209.536 162.339 209.898 162.702C210.261 163.064 210.508 163.526 210.608 164.029C210.708 164.531 210.656 165.052 210.46 165.526C210.264 166 209.932 166.404 209.506 166.689C209.079 166.974 208.578 167.126 208.066 167.126C207.378 167.126 206.719 166.853 206.233 166.367C205.747 165.881 205.474 165.222 205.474 164.534ZM188.197 164.534C188.197 164.022 188.349 163.521 188.634 163.094C188.919 162.668 189.323 162.336 189.797 162.14C190.271 161.944 190.792 161.892 191.294 161.992C191.797 162.092 192.259 162.339 192.621 162.702C192.984 163.064 193.23 163.526 193.33 164.029C193.43 164.531 193.379 165.052 193.183 165.526C192.987 166 192.655 166.404 192.229 166.689C191.802 166.974 191.301 167.126 190.789 167.126C190.101 167.126 189.442 166.853 188.956 166.367C188.47 165.881 188.197 165.222 188.197 164.534ZM170.92 164.534C170.92 164.022 171.072 163.521 171.357 163.094C171.642 162.668 172.046 162.336 172.52 162.14C172.993 161.944 173.515 161.892 174.017 161.992C174.52 162.092 174.982 162.339 175.344 162.702C175.707 163.064 175.953 163.526 176.053 164.029C176.153 164.531 176.102 165.052 175.906 165.526C175.71 166 175.378 166.404 174.951 166.689C174.525 166.974 174.024 167.126 173.512 167.126C172.824 167.126 172.165 166.853 171.679 166.367C171.193 165.881 170.92 165.222 170.92 164.534ZM153.643 164.534C153.643 164.022 153.795 163.521 154.08 163.094C154.365 162.668 154.769 162.336 155.243 162.14C155.716 161.944 156.238 161.892 156.74 161.992C157.243 162.092 157.705 162.339 158.067 162.702C158.43 163.064 158.676 163.526 158.776 164.029C158.876 164.531 158.825 165.052 158.629 165.526C158.433 166 158.101 166.404 157.674 166.689C157.248 166.974 156.747 167.126 156.235 167.126C155.547 167.126 154.888 166.853 154.402 166.367C153.916 165.881 153.643 165.222 153.643 164.534ZM136.366 164.534C136.366 164.022 136.518 163.521 136.803 163.094C137.088 162.668 137.492 162.336 137.966 162.14C138.439 161.944 138.96 161.892 139.463 161.992C139.966 162.092 140.428 162.339 140.79 162.702C141.153 163.064 141.399 163.526 141.499 164.029C141.599 164.531 141.548 165.052 141.352 165.526C141.156 166 140.824 166.404 140.397 166.689C139.971 166.974 139.47 167.126 138.958 167.126C138.27 167.126 137.611 166.853 137.125 166.367C136.639 165.881 136.366 165.222 136.366 164.534ZM214.113 155.896C214.113 155.383 214.265 154.882 214.549 154.456C214.834 154.03 215.239 153.698 215.713 153.501C216.186 153.305 216.707 153.254 217.21 153.354C217.713 153.454 218.174 153.701 218.537 154.063C218.899 154.426 219.146 154.887 219.246 155.39C219.346 155.893 219.295 156.414 219.099 156.887C218.902 157.361 218.57 157.766 218.144 158.051C217.718 158.335 217.217 158.487 216.704 158.487C216.017 158.487 215.358 158.214 214.872 157.728C214.386 157.242 214.113 156.583 214.113 155.896ZM196.836 155.896C196.836 155.383 196.988 154.882 197.272 154.456C197.557 154.03 197.962 153.698 198.435 153.501C198.909 153.305 199.43 153.254 199.933 153.354C200.436 153.454 200.897 153.701 201.26 154.063C201.622 154.426 201.869 154.887 201.969 155.39C202.069 155.893 202.018 156.414 201.822 156.887C201.625 157.361 201.293 157.766 200.867 158.051C200.441 158.335 199.94 158.487 199.427 158.487C198.74 158.487 198.081 158.214 197.595 157.728C197.109 157.242 196.836 156.583 196.836 155.896ZM179.559 155.896C179.559 155.383 179.711 154.882 179.995 154.456C180.28 154.03 180.685 153.698 181.158 153.501C181.632 153.305 182.153 153.254 182.656 153.354C183.158 153.454 183.62 153.701 183.983 154.063C184.345 154.426 184.592 154.887 184.692 155.39C184.792 155.893 184.741 156.414 184.544 156.887C184.348 157.361 184.016 157.766 183.59 158.051C183.164 158.335 182.663 158.487 182.15 158.487C181.463 158.487 180.804 158.214 180.318 157.728C179.832 157.242 179.559 156.583 179.559 155.896ZM162.282 155.896C162.282 155.383 162.434 154.882 162.718 154.456C163.003 154.03 163.408 153.698 163.881 153.501C164.355 153.305 164.876 153.254 165.379 153.354C165.881 153.454 166.343 153.701 166.706 154.063C167.068 154.426 167.315 154.887 167.415 155.39C167.515 155.893 167.464 156.414 167.267 156.887C167.071 157.361 166.739 157.766 166.313 158.051C165.887 158.335 165.386 158.487 164.873 158.487C164.186 158.487 163.527 158.214 163.041 157.728C162.555 157.242 162.282 156.583 162.282 155.896ZM145.005 155.896C145.005 155.383 145.157 154.882 145.441 154.456C145.726 154.03 146.131 153.698 146.604 153.501C147.078 153.305 147.599 153.254 148.102 153.354C148.604 153.454 149.066 153.701 149.429 154.063C149.791 154.426 150.038 154.887 150.138 155.39C150.238 155.893 150.187 156.414 149.99 156.887C149.794 157.361 149.462 157.766 149.036 158.051C148.61 158.335 148.109 158.487 147.596 158.487C146.909 158.487 146.25 158.214 145.764 157.728C145.278 157.242 145.005 156.583 145.005 155.896ZM127.728 155.896C127.728 155.383 127.88 154.882 128.164 154.456C128.449 154.03 128.854 153.698 129.327 153.501C129.801 153.305 130.322 153.254 130.825 153.354C131.327 153.454 131.789 153.701 132.152 154.063C132.514 154.426 132.761 154.887 132.861 155.39C132.961 155.893 132.91 156.414 132.713 156.887C132.517 157.361 132.185 157.766 131.759 158.051C131.333 158.335 130.832 158.487 130.319 158.487C129.632 158.487 128.973 158.214 128.487 157.728C128.001 157.242 127.728 156.583 127.728 155.896V155.896ZM205.474 147.257C205.474 146.745 205.626 146.244 205.911 145.817C206.196 145.391 206.6 145.059 207.074 144.863C207.548 144.667 208.069 144.615 208.571 144.715C209.074 144.815 209.536 145.062 209.898 145.425C210.261 145.787 210.508 146.249 210.608 146.752C210.708 147.254 210.656 147.775 210.46 148.249C210.264 148.722 209.932 149.127 209.506 149.412C209.079 149.697 208.578 149.849 208.066 149.849C207.378 149.849 206.719 149.576 206.233 149.09C205.747 148.604 205.474 147.945 205.474 147.257ZM188.197 147.257C188.197 146.745 188.349 146.244 188.634 145.817C188.919 145.391 189.323 145.059 189.797 144.863C190.271 144.667 190.792 144.615 191.294 144.715C191.797 144.815 192.259 145.062 192.621 145.425C192.984 145.787 193.23 146.249 193.33 146.752C193.43 147.254 193.379 147.775 193.183 148.249C192.987 148.722 192.655 149.127 192.229 149.412C191.802 149.697 191.301 149.849 190.789 149.849C190.101 149.849 189.442 149.576 188.956 149.09C188.47 148.604 188.197 147.945 188.197 147.257ZM170.92 147.257C170.92 146.745 171.072 146.244 171.357 145.817C171.642 145.391 172.046 145.059 172.52 144.863C172.993 144.667 173.515 144.615 174.017 144.715C174.52 144.815 174.982 145.062 175.344 145.425C175.707 145.787 175.953 146.249 176.053 146.752C176.153 147.254 176.102 147.775 175.906 148.249C175.71 148.722 175.378 149.127 174.951 149.412C174.525 149.697 174.024 149.849 173.512 149.849C172.824 149.849 172.165 149.576 171.679 149.09C171.193 148.604 170.92 147.945 170.92 147.257ZM153.643 147.257C153.643 146.745 153.795 146.244 154.08 145.817C154.365 145.391 154.769 145.059 155.243 144.863C155.716 144.667 156.238 144.615 156.74 144.715C157.243 144.815 157.705 145.062 158.067 145.425C158.43 145.787 158.676 146.249 158.776 146.752C158.876 147.254 158.825 147.775 158.629 148.249C158.433 148.722 158.101 149.127 157.674 149.412C157.248 149.697 156.747 149.849 156.235 149.849C155.547 149.849 154.888 149.576 154.402 149.09C153.916 148.604 153.643 147.945 153.643 147.257ZM136.366 147.257C136.366 146.745 136.518 146.244 136.803 145.817C137.088 145.391 137.492 145.059 137.966 144.863C138.439 144.667 138.96 144.615 139.463 144.715C139.966 144.815 140.428 145.062 140.79 145.425C141.153 145.787 141.399 146.249 141.499 146.752C141.599 147.254 141.548 147.775 141.352 148.249C141.156 148.722 140.824 149.127 140.397 149.412C139.971 149.697 139.47 149.849 138.958 149.849C138.27 149.849 137.611 149.576 137.125 149.09C136.639 148.604 136.366 147.945 136.366 147.257ZM214.113 138.619C214.113 138.106 214.265 137.605 214.549 137.179C214.834 136.753 215.239 136.421 215.713 136.224C216.186 136.028 216.707 135.977 217.21 136.077C217.713 136.177 218.174 136.424 218.537 136.786C218.899 137.149 219.146 137.61 219.246 138.113C219.346 138.616 219.295 139.137 219.099 139.61C218.902 140.084 218.57 140.489 218.144 140.773C217.718 141.058 217.217 141.21 216.704 141.21C216.017 141.21 215.358 140.937 214.872 140.451C214.386 139.965 214.113 139.306 214.113 138.619ZM196.836 138.619C196.836 138.106 196.988 137.605 197.272 137.179C197.557 136.753 197.962 136.421 198.435 136.224C198.909 136.028 199.43 135.977 199.933 136.077C200.436 136.177 200.897 136.424 201.26 136.786C201.622 137.149 201.869 137.61 201.969 138.113C202.069 138.616 202.018 139.137 201.822 139.61C201.625 140.084 201.293 140.489 200.867 140.773C200.441 141.058 199.94 141.21 199.427 141.21C198.74 141.21 198.081 140.937 197.595 140.451C197.109 139.965 196.836 139.306 196.836 138.619ZM145.005 138.619C145.005 138.106 145.157 137.605 145.441 137.179C145.726 136.753 146.131 136.421 146.604 136.224C147.078 136.028 147.599 135.977 148.102 136.077C148.604 136.177 149.066 136.424 149.429 136.786C149.791 137.149 150.038 137.61 150.138 138.113C150.238 138.616 150.187 139.137 149.99 139.61C149.794 140.084 149.462 140.489 149.036 140.773C148.61 141.058 148.109 141.21 147.596 141.21C146.909 141.21 146.25 140.937 145.764 140.451C145.278 139.965 145.005 139.306 145.005 138.619ZM127.728 138.619C127.728 138.106 127.88 137.605 128.164 137.179C128.449 136.753 128.854 136.421 129.327 136.224C129.801 136.028 130.322 135.977 130.825 136.077C131.327 136.177 131.789 136.424 132.152 136.786C132.514 137.149 132.761 137.61 132.861 138.113C132.961 138.616 132.91 139.137 132.713 139.61C132.517 140.084 132.185 140.489 131.759 140.773C131.333 141.058 130.832 141.21 130.319 141.21C129.632 141.21 128.973 140.937 128.487 140.451C128.001 139.965 127.728 139.306 127.728 138.619V138.619Z" fill="#FFA789"/>
</g>
</g>
<defs>
<linearGradient id="paint0_linear" x1="176.475" y1="80.3087" x2="176.475" y2="149.045" gradientUnits="userSpaceOnUse">
<stop stop-color="#E6864E"/>
<stop offset="1" stop-color="#EB965E"/>
</linearGradient>
<linearGradient id="paint1_linear" x1="173.512" y1="134.299" x2="173.512" y2="177.492" gradientUnits="userSpaceOnUse">
<stop stop-color="#FECBB5"/>
<stop offset="1" stop-color="#FED4C4"/>
</linearGradient>
<linearGradient id="paint2_linear" x1="173.512" y1="134.299" x2="173.512" y2="177.492" gradientUnits="userSpaceOnUse">
<stop stop-color="#FECBB5"/>
<stop offset="1" stop-color="#FED4C4"/>
</linearGradient>
</defs>
</svg>
