<svg width="353" height="403" viewBox="0 0 353 403" fill="none" xmlns="http://www.w3.org/2000/svg">
<path d="M0 0H353V403H0V0Z" fill="#FFFAF1"/>
<path d="M11.5 13.5H340.5V388.5H11.5V13.5Z" stroke="#E5C697"/>
<path d="M32.1908 280.992H32.8148C32.9268 280.064 33.1508 278.704 33.1508 278C33.1508 277.648 32.8628 277.36 32.5108 277.36C32.1588 277.36 31.8548 277.648 31.8548 278C31.8548 278.704 32.0788 280.064 32.1908 280.992ZM35.0708 280.992H35.6948C35.8068 280.064 36.0308 278.704 36.0308 278C36.0308 277.648 35.7428 277.36 35.3908 277.36C35.0388 277.36 34.7348 277.648 34.7348 278C34.7348 278.704 34.9588 280.064 35.0708 280.992ZM38.4515 288H39.4755V277.008H38.4515V288ZM45.6144 286.928C45.3904 287.136 45.0384 287.28 44.6544 287.28C44.1104 287.28 43.6624 286.784 43.6624 286.08V280.64H45.7424V279.728H43.6624V277.456H42.6704V279.728H41.3264V280.64H42.6704V286.08C42.6704 287.312 43.4704 288.192 44.5904 288.192C45.1344 288.192 45.6944 288 46.1264 287.664L45.6144 286.928ZM48.0814 280.992H48.7054C48.8174 280.064 49.0414 278.704 49.0414 278C49.0414 277.648 48.7534 277.36 48.4014 277.36C48.0494 277.36 47.7454 277.648 47.7454 278C47.7454 278.704 47.9694 280.064 48.0814 280.992ZM54.3159 288.192C55.9799 288.192 57.2919 287.216 57.2919 285.808C57.2919 284.368 56.1079 283.84 54.5879 283.36C52.9719 282.832 52.3319 282.496 52.3319 281.744C52.3319 280.944 53.1799 280.448 54.1879 280.448C54.9559 280.448 55.8199 280.72 56.6519 281.232L57.1479 280.464C56.2679 279.888 55.1959 279.536 54.1879 279.536C52.5879 279.536 51.3399 280.48 51.3399 281.856C51.3399 283.024 52.1239 283.648 54.1079 284.224C55.4199 284.624 56.2999 285.008 56.2999 285.904C56.2999 286.704 55.4519 287.28 54.3159 287.28C53.3879 287.28 52.3799 286.912 51.4199 286.224L50.8919 286.96C51.8679 287.744 53.1479 288.192 54.3159 288.192ZM65.6311 278.592C65.6311 277.888 66.0791 277.392 66.6231 277.392C67.0231 277.392 67.3591 277.52 67.5831 277.744L68.0951 277.008C67.6471 276.672 67.1191 276.48 66.5591 276.48C65.4391 276.48 64.6391 277.36 64.6391 278.592V279.728H63.2951V280.64H64.6391V288H65.6311V280.64H67.7591V279.728H65.6311V278.592ZM70.5856 281.424V279.728H69.5936V288H70.5856V283.376C70.5856 281.664 71.9136 280.448 73.7856 280.448V279.536C72.2656 279.536 71.0496 280.304 70.5856 281.424ZM81.2744 279.728V284.992C81.2744 286.272 80.1384 287.28 78.6824 287.28C77.3704 287.28 76.4424 286.304 76.4424 284.912V279.728H75.4504V285.04C75.4504 286.88 76.7304 288.192 78.5544 288.192C79.7704 288.192 80.8264 287.552 81.2744 286.64V288H82.2664V279.728H81.2744ZM87.644 288.192C89.308 288.192 90.62 287.216 90.62 285.808C90.62 284.368 89.436 283.84 87.916 283.36C86.3 282.832 85.66 282.496 85.66 281.744C85.66 280.944 86.508 280.448 87.516 280.448C88.284 280.448 89.148 280.72 89.98 281.232L90.476 280.464C89.596 279.888 88.524 279.536 87.516 279.536C85.916 279.536 84.668 280.48 84.668 281.856C84.668 283.024 85.452 283.648 87.436 284.224C88.748 284.624 89.628 285.008 89.628 285.904C89.628 286.704 88.78 287.28 87.644 287.28C86.716 287.28 85.708 286.912 84.748 286.224L84.22 286.96C85.196 287.744 86.476 288.192 87.644 288.192ZM96.2706 286.928C96.0466 287.136 95.6946 287.28 95.3106 287.28C94.7666 287.28 94.3186 286.784 94.3186 286.08V280.64H96.3986V279.728H94.3186V277.456H93.3266V279.728H91.9826V280.64H93.3266V286.08C93.3266 287.312 94.1266 288.192 95.2466 288.192C95.7906 288.192 96.3506 288 96.7826 287.664L96.2706 286.928ZM99.5856 281.424V279.728H98.5936V288H99.5856V283.376C99.5856 281.664 100.914 280.448 102.786 280.448V279.536C101.266 279.536 100.05 280.304 99.5856 281.424ZM107.762 279.536C106.946 279.536 105.922 279.76 104.834 280.336L105.234 281.152C105.986 280.736 106.85 280.416 107.682 280.416C109.538 280.416 110.082 281.744 110.082 282.96V283.296C109.202 283.008 108.21 282.8 107.314 282.8C105.458 282.8 104.034 283.92 104.034 285.552C104.034 287.152 105.314 288.192 107.042 288.192C108.162 288.192 109.474 287.664 110.082 286.688V288H111.074V282.96C111.074 280.96 109.938 279.536 107.762 279.536ZM107.202 287.296C105.97 287.296 105.01 286.608 105.01 285.504C105.01 284.432 106.082 283.664 107.458 283.664C108.386 283.664 109.298 283.84 110.082 284.08V285.408C109.762 286.688 108.354 287.296 107.202 287.296ZM117.193 286.928C116.969 287.136 116.617 287.28 116.233 287.28C115.689 287.28 115.241 286.784 115.241 286.08V280.64H117.321V279.728H115.241V277.456H114.249V279.728H112.905V280.64H114.249V286.08C114.249 287.312 115.049 288.192 116.169 288.192C116.713 288.192 117.273 288 117.705 287.664L117.193 286.928ZM119.884 278.112C120.268 278.112 120.572 277.808 120.572 277.424C120.572 277.056 120.268 276.736 119.884 276.736C119.5 276.736 119.196 277.056 119.196 277.424C119.196 277.808 119.5 278.112 119.884 278.112ZM119.388 288H120.38V279.728H119.388V288ZM126.522 279.536C125.306 279.536 124.25 280.176 123.802 281.088V279.728H122.81V288H123.802V282.736C123.802 281.456 124.938 280.448 126.394 280.448C127.706 280.448 128.634 281.424 128.634 282.816V288H129.626V282.688C129.626 280.848 128.346 279.536 126.522 279.536ZM138.492 279.728V281.296C137.852 280.176 136.732 279.536 135.34 279.536C133.196 279.536 131.596 281.216 131.596 283.456C131.596 285.712 133.196 287.392 135.34 287.392C136.716 287.392 137.852 286.736 138.492 285.616V287.12C138.492 288.8 137.292 289.84 135.404 289.84C134.364 289.84 133.292 289.456 132.62 288.848L132.172 289.648C132.924 290.288 134.22 290.752 135.516 290.752C137.852 290.752 139.484 289.248 139.484 287.12V279.728H138.492ZM135.516 286.48C133.868 286.48 132.62 285.184 132.62 283.456C132.62 281.744 133.868 280.448 135.516 280.448C137.244 280.448 138.492 281.696 138.492 283.456C138.492 285.232 137.244 286.48 135.516 286.48ZM150.333 286.928C150.109 287.136 149.757 287.28 149.373 287.28C148.829 287.28 148.381 286.784 148.381 286.08V280.64H150.461V279.728H148.381V277.456H147.389V279.728H146.045V280.64H147.389V286.08C147.389 287.312 148.189 288.192 149.309 288.192C149.853 288.192 150.413 288 150.845 287.664L150.333 286.928ZM156.384 288.192C158.704 288.192 160.656 286.208 160.656 283.856C160.656 281.504 158.704 279.536 156.384 279.536C154.064 279.536 152.096 281.504 152.096 283.856C152.096 286.208 154.064 288.192 156.384 288.192ZM156.384 287.28C154.608 287.28 153.136 285.728 153.136 283.856C153.136 282 154.608 280.448 156.384 280.448C158.144 280.448 159.616 282 159.616 283.856C159.616 285.728 158.144 287.28 156.384 287.28ZM173.711 279.728V281.296C173.071 280.176 171.951 279.536 170.559 279.536C168.414 279.536 166.815 281.216 166.815 283.456C166.815 285.712 168.414 287.392 170.559 287.392C171.935 287.392 173.071 286.736 173.711 285.616V287.12C173.711 288.8 172.511 289.84 170.623 289.84C169.583 289.84 168.511 289.456 167.839 288.848L167.391 289.648C168.143 290.288 169.439 290.752 170.735 290.752C173.071 290.752 174.703 289.248 174.703 287.12V279.728H173.711ZM170.735 286.48C169.087 286.48 167.839 285.184 167.839 283.456C167.839 281.744 169.087 280.448 170.735 280.448C172.463 280.448 173.711 281.696 173.711 283.456C173.711 285.232 172.463 286.48 170.735 286.48ZM181.087 288.192C183.407 288.192 185.359 286.208 185.359 283.856C185.359 281.504 183.407 279.536 181.087 279.536C178.767 279.536 176.799 281.504 176.799 283.856C176.799 286.208 178.767 288.192 181.087 288.192ZM181.087 287.28C179.311 287.28 177.839 285.728 177.839 283.856C177.839 282 179.311 280.448 181.087 280.448C182.847 280.448 184.319 282 184.319 283.856C184.319 285.728 182.847 287.28 181.087 287.28ZM195.646 286.928C195.422 287.136 195.07 287.28 194.686 287.28C194.142 287.28 193.694 286.784 193.694 286.08V280.64H195.774V279.728H193.694V277.456H192.702V279.728H191.358V280.64H192.702V286.08C192.702 287.312 193.502 288.192 194.622 288.192C195.166 288.192 195.726 288 196.158 287.664L195.646 286.928ZM201.585 279.536C200.369 279.536 199.313 280.176 198.865 281.088V276.816H197.873V288H198.865V282.736C198.865 281.456 200.001 280.448 201.457 280.448C202.769 280.448 203.697 281.424 203.697 282.816V288H204.689V282.688C204.689 280.848 203.409 279.536 201.585 279.536ZM208.226 281.424V279.728H207.234V288H208.226V283.376C208.226 281.664 209.554 280.448 211.426 280.448V279.536C209.906 279.536 208.69 280.304 208.226 281.424ZM216.665 288.192C218.985 288.192 220.937 286.208 220.937 283.856C220.937 281.504 218.985 279.536 216.665 279.536C214.345 279.536 212.377 281.504 212.377 283.856C212.377 286.208 214.345 288.192 216.665 288.192ZM216.665 287.28C214.889 287.28 213.417 285.728 213.417 283.856C213.417 282 214.889 280.448 216.665 280.448C218.425 280.448 219.897 282 219.897 283.856C219.897 285.728 218.425 287.28 216.665 287.28ZM228.743 279.728V284.992C228.743 286.272 227.607 287.28 226.151 287.28C224.839 287.28 223.911 286.304 223.911 284.912V279.728H222.919V285.04C222.919 286.88 224.199 288.192 226.023 288.192C227.239 288.192 228.295 287.552 228.743 286.64V288H229.735V279.728H228.743ZM238.617 279.728V281.296C237.977 280.176 236.857 279.536 235.465 279.536C233.321 279.536 231.721 281.216 231.721 283.456C231.721 285.712 233.321 287.392 235.465 287.392C236.841 287.392 237.977 286.736 238.617 285.616V287.12C238.617 288.8 237.417 289.84 235.529 289.84C234.489 289.84 233.417 289.456 232.745 288.848L232.297 289.648C233.049 290.288 234.345 290.752 235.641 290.752C237.977 290.752 239.609 289.248 239.609 287.12V279.728H238.617ZM235.641 286.48C233.993 286.48 232.745 285.184 232.745 283.456C232.745 281.744 233.993 280.448 235.641 280.448C237.369 280.448 238.617 281.696 238.617 283.456C238.617 285.232 237.369 286.48 235.641 286.48ZM245.882 279.536C244.666 279.536 243.61 280.176 243.162 281.088V276.816H242.17V288H243.162V282.736C243.162 281.456 244.298 280.448 245.754 280.448C247.066 280.448 247.994 281.424 247.994 282.816V288H248.986V282.688C248.986 280.848 247.706 279.536 245.882 279.536ZM258.988 288.192C260.652 288.192 261.964 287.216 261.964 285.808C261.964 284.368 260.78 283.84 259.26 283.36C257.644 282.832 257.004 282.496 257.004 281.744C257.004 280.944 257.852 280.448 258.86 280.448C259.628 280.448 260.492 280.72 261.324 281.232L261.82 280.464C260.94 279.888 259.868 279.536 258.86 279.536C257.26 279.536 256.012 280.48 256.012 281.856C256.012 283.024 256.796 283.648 258.78 284.224C260.092 284.624 260.972 285.008 260.972 285.904C260.972 286.704 260.124 287.28 258.988 287.28C258.06 287.28 257.052 286.912 256.092 286.224L255.564 286.96C256.54 287.744 257.82 288.192 258.988 288.192ZM267.79 288.192C270.11 288.192 272.062 286.208 272.062 283.856C272.062 281.504 270.11 279.536 267.79 279.536C265.47 279.536 263.502 281.504 263.502 283.856C263.502 286.208 265.47 288.192 267.79 288.192ZM267.79 287.28C266.014 287.28 264.542 285.728 264.542 283.856C264.542 282 266.014 280.448 267.79 280.448C269.55 280.448 271.022 282 271.022 283.856C271.022 285.728 269.55 287.28 267.79 287.28ZM287.485 279.536C286.205 279.536 285.117 280.24 284.765 281.328C284.333 280.24 283.373 279.536 282.125 279.536C280.989 279.536 280.077 280.08 279.677 280.944V279.728H278.685V288H279.677V282.688C279.677 281.376 280.637 280.448 281.997 280.448C283.197 280.448 284.029 281.424 284.029 282.816V288H285.021V282.688C285.021 281.376 285.981 280.448 287.341 280.448C288.541 280.448 289.389 281.424 289.389 282.816V288H290.381V282.688C290.381 280.848 289.181 279.536 287.485 279.536ZM296.122 279.536C295.306 279.536 294.282 279.76 293.194 280.336L293.594 281.152C294.346 280.736 295.21 280.416 296.042 280.416C297.898 280.416 298.442 281.744 298.442 282.96V283.296C297.562 283.008 296.57 282.8 295.674 282.8C293.818 282.8 292.394 283.92 292.394 285.552C292.394 287.152 293.674 288.192 295.402 288.192C296.522 288.192 297.834 287.664 298.442 286.688V288H299.434V282.96C299.434 280.96 298.298 279.536 296.122 279.536ZM295.562 287.296C294.33 287.296 293.37 286.608 293.37 285.504C293.37 284.432 294.442 283.664 295.818 283.664C296.746 283.664 297.658 283.84 298.442 284.08V285.408C298.122 286.688 296.714 287.296 295.562 287.296ZM305.616 279.536C304.4 279.536 303.344 280.176 302.896 281.088V279.728H301.904V288H302.896V282.736C302.896 281.456 304.032 280.448 305.488 280.448C306.8 280.448 307.728 281.424 307.728 282.816V288H308.72V282.688C308.72 280.848 307.44 279.536 305.616 279.536ZM312.242 290.88C313.394 290.864 314.194 290.336 314.722 289.024L318.53 279.728H317.458L314.562 286.944L311.506 279.728H310.418L314.049 288.128L313.554 289.2C313.25 289.744 312.818 289.968 312.21 289.968C311.858 289.968 311.49 289.888 311.186 289.728L310.93 290.608C311.314 290.784 311.778 290.88 312.242 290.88ZM58.8218 300.816V305.344C58.1818 304.224 57.0938 303.536 55.7338 303.536C53.6058 303.536 51.9578 305.392 51.9578 307.856C51.9578 310.336 53.6058 312.192 55.7338 312.192C57.0938 312.192 58.1818 311.504 58.8218 310.384V312H59.8138V300.816H58.8218ZM55.9098 311.28C54.2458 311.28 52.9818 309.808 52.9818 307.856C52.9818 305.904 54.2458 304.448 55.9098 304.448C57.6218 304.448 58.8218 305.856 58.8218 307.856C58.8218 309.856 57.6218 311.28 55.9098 311.28ZM62.8366 302.112C63.2206 302.112 63.5246 301.808 63.5246 301.424C63.5246 301.056 63.2206 300.736 62.8366 300.736C62.4526 300.736 62.1486 301.056 62.1486 301.424C62.1486 301.808 62.4526 302.112 62.8366 302.112ZM62.3406 312H63.3326V303.728H62.3406V312ZM67.4593 302.592C67.4593 301.888 67.9073 301.392 68.4513 301.392C68.8513 301.392 69.1873 301.52 69.4113 301.744L69.9233 301.008C69.4753 300.672 68.9473 300.48 68.3873 300.48C67.2673 300.48 66.4673 301.36 66.4673 302.592V303.728H65.1233V304.64H66.4673V312H67.4593V304.64H69.5873V303.728H67.4593V302.592ZM73.0218 302.592C73.0218 301.888 73.4698 301.392 74.0138 301.392C74.4138 301.392 74.7498 301.52 74.9738 301.744L75.4858 301.008C75.0378 300.672 74.5098 300.48 73.9498 300.48C72.8298 300.48 72.0298 301.36 72.0298 302.592V303.728H70.6858V304.64H72.0298V312H73.0218V304.64H75.1498V303.728H73.0218V302.592ZM80.5683 311.28C78.8723 311.28 77.6083 309.968 77.4323 308.256H84.4243C84.4243 305.408 82.9523 303.536 80.5043 303.536C78.2643 303.536 76.4243 305.392 76.4243 307.84C76.4243 310.32 78.3603 312.192 80.5683 312.192C81.7843 312.192 83.2403 311.68 83.9443 310.912L83.3203 310.24C82.7443 310.864 81.6083 311.28 80.5683 311.28ZM80.5363 304.448C82.2803 304.448 83.3043 305.68 83.4323 307.344H77.4483C77.6562 305.632 78.9203 304.448 80.5363 304.448ZM87.4919 305.424V303.728H86.4999V312H87.4919V307.376C87.4919 305.664 88.8199 304.448 90.6919 304.448V303.536C89.1719 303.536 87.9559 304.304 87.4919 305.424ZM96.0526 311.28C94.3566 311.28 93.0926 309.968 92.9166 308.256H99.9086C99.9086 305.408 98.4366 303.536 95.9886 303.536C93.7486 303.536 91.9086 305.392 91.9086 307.84C91.9086 310.32 93.8446 312.192 96.0526 312.192C97.2686 312.192 98.7246 311.68 99.4286 310.912L98.8046 310.24C98.2286 310.864 97.0926 311.28 96.0526 311.28ZM96.0206 304.448C97.7646 304.448 98.7886 305.68 98.9166 307.344H92.9326C93.1406 305.632 94.4046 304.448 96.0206 304.448ZM105.6 303.536C104.384 303.536 103.328 304.176 102.88 305.088V303.728H101.888V312H102.88V306.736C102.88 305.456 104.016 304.448 105.472 304.448C106.784 304.448 107.712 305.424 107.712 306.816V312H108.704V306.688C108.704 304.848 107.424 303.536 105.6 303.536ZM114.802 310.928C114.578 311.136 114.226 311.28 113.842 311.28C113.298 311.28 112.85 310.784 112.85 310.08V304.64H114.93V303.728H112.85V301.456H111.858V303.728H110.514V304.64H111.858V310.08C111.858 311.312 112.658 312.192 113.778 312.192C114.322 312.192 114.882 312 115.314 311.664L114.802 310.928ZM125.494 312.192C127.814 312.192 129.766 310.208 129.766 307.856C129.766 305.504 127.814 303.536 125.494 303.536C123.174 303.536 121.206 305.504 121.206 307.856C121.206 310.208 123.174 312.192 125.494 312.192ZM125.494 311.28C123.718 311.28 122.246 309.728 122.246 307.856C122.246 306 123.718 304.448 125.494 304.448C127.254 304.448 128.726 306 128.726 307.856C128.726 309.728 127.254 311.28 125.494 311.28ZM135.939 303.536C134.579 303.536 133.491 304.224 132.851 305.344V303.728H131.859V314.752H132.851V310.384C133.491 311.504 134.579 312.192 135.939 312.192C138.067 312.192 139.715 310.336 139.715 307.856C139.715 305.392 138.067 303.536 135.939 303.536ZM135.763 311.28C134.051 311.28 132.851 309.856 132.851 307.856C132.851 305.856 134.051 304.448 135.763 304.448C137.427 304.448 138.691 305.904 138.691 307.856C138.691 309.808 137.427 311.28 135.763 311.28ZM145.458 310.928C145.234 311.136 144.882 311.28 144.498 311.28C143.954 311.28 143.506 310.784 143.506 310.08V304.64H145.586V303.728H143.506V301.456H142.514V303.728H141.17V304.64H142.514V310.08C142.514 311.312 143.314 312.192 144.434 312.192C144.978 312.192 145.538 312 145.97 311.664L145.458 310.928ZM148.149 302.112C148.533 302.112 148.837 301.808 148.837 301.424C148.837 301.056 148.533 300.736 148.149 300.736C147.765 300.736 147.461 301.056 147.461 301.424C147.461 301.808 147.765 302.112 148.149 302.112ZM147.653 312H148.645V303.728H147.653V312ZM154.9 312.192C157.22 312.192 159.172 310.208 159.172 307.856C159.172 305.504 157.22 303.536 154.9 303.536C152.58 303.536 150.612 305.504 150.612 307.856C150.612 310.208 152.58 312.192 154.9 312.192ZM154.9 311.28C153.124 311.28 151.652 309.728 151.652 307.856C151.652 306 153.124 304.448 154.9 304.448C156.66 304.448 158.132 306 158.132 307.856C158.132 309.728 156.66 311.28 154.9 311.28ZM164.882 303.536C163.666 303.536 162.61 304.176 162.162 305.088V303.728H161.17V312H162.162V306.736C162.162 305.456 163.298 304.448 164.754 304.448C166.066 304.448 166.994 305.424 166.994 306.816V312H167.986V306.688C167.986 304.848 166.706 303.536 164.882 303.536ZM173.347 312.192C175.011 312.192 176.323 311.216 176.323 309.808C176.323 308.368 175.139 307.84 173.619 307.36C172.003 306.832 171.363 306.496 171.363 305.744C171.363 304.944 172.211 304.448 173.219 304.448C173.987 304.448 174.851 304.72 175.683 305.232L176.179 304.464C175.299 303.888 174.227 303.536 173.219 303.536C171.619 303.536 170.371 304.48 170.371 305.856C170.371 307.024 171.155 307.648 173.139 308.224C174.451 308.624 175.331 309.008 175.331 309.904C175.331 310.704 174.483 311.28 173.347 311.28C172.419 311.28 171.411 310.912 170.451 310.224L169.923 310.96C170.899 311.744 172.179 312.192 173.347 312.192ZM183.43 302.112C183.814 302.112 184.118 301.808 184.118 301.424C184.118 301.056 183.814 300.736 183.43 300.736C183.046 300.736 182.742 301.056 182.742 301.424C182.742 301.808 183.046 302.112 183.43 302.112ZM182.934 312H183.926V303.728H182.934V312ZM190.069 303.536C188.853 303.536 187.797 304.176 187.349 305.088V303.728H186.357V312H187.349V306.736C187.349 305.456 188.485 304.448 189.941 304.448C191.253 304.448 192.181 305.424 192.181 306.816V312H193.173V306.688C193.173 304.848 191.893 303.536 190.069 303.536ZM203.175 312.192C204.839 312.192 206.151 311.216 206.151 309.808C206.151 308.368 204.967 307.84 203.447 307.36C201.831 306.832 201.191 306.496 201.191 305.744C201.191 304.944 202.039 304.448 203.047 304.448C203.815 304.448 204.679 304.72 205.511 305.232L206.007 304.464C205.127 303.888 204.055 303.536 203.047 303.536C201.447 303.536 200.199 304.48 200.199 305.856C200.199 307.024 200.983 307.648 202.967 308.224C204.279 308.624 205.159 309.008 205.159 309.904C205.159 310.704 204.311 311.28 203.175 311.28C202.247 311.28 201.239 310.912 200.279 310.224L199.751 310.96C200.727 311.744 202.007 312.192 203.175 312.192ZM211.834 311.28C210.138 311.28 208.874 309.968 208.698 308.256H215.69C215.69 305.408 214.218 303.536 211.77 303.536C209.53 303.536 207.69 305.392 207.69 307.84C207.69 310.32 209.626 312.192 211.834 312.192C213.05 312.192 214.506 311.68 215.21 310.912L214.586 310.24C214.01 310.864 212.874 311.28 211.834 311.28ZM211.802 304.448C213.546 304.448 214.57 305.68 214.698 307.344H208.714C208.922 305.632 210.186 304.448 211.802 304.448ZM220.966 303.536C220.15 303.536 219.126 303.76 218.038 304.336L218.438 305.152C219.19 304.736 220.054 304.416 220.886 304.416C222.742 304.416 223.286 305.744 223.286 306.96V307.296C222.406 307.008 221.414 306.8 220.518 306.8C218.662 306.8 217.238 307.92 217.238 309.552C217.238 311.152 218.518 312.192 220.246 312.192C221.366 312.192 222.678 311.664 223.286 310.688V312H224.278V306.96C224.278 304.96 223.142 303.536 220.966 303.536ZM220.406 311.296C219.174 311.296 218.214 310.608 218.214 309.504C218.214 308.432 219.286 307.664 220.661 307.664C221.59 307.664 222.502 307.84 223.286 308.08V309.408C222.966 310.688 221.558 311.296 220.406 311.296ZM227.836 305.424V303.728H226.844V312H227.836V307.376C227.836 305.664 229.164 304.448 231.036 304.448V303.536C229.516 303.536 228.3 304.304 227.836 305.424ZM236.492 312.192C237.612 312.192 238.652 311.712 239.42 310.944L238.732 310.272C238.156 310.896 237.356 311.28 236.492 311.28C234.7 311.28 233.292 309.776 233.292 307.856C233.292 305.952 234.7 304.448 236.492 304.448C237.34 304.448 238.124 304.816 238.7 305.424L239.388 304.752C238.62 304 237.596 303.536 236.492 303.536C234.14 303.536 232.252 305.44 232.252 307.856C232.252 310.272 234.14 312.192 236.492 312.192ZM244.991 303.536C243.775 303.536 242.719 304.176 242.271 305.088V300.816H241.279V312H242.271V306.736C242.271 305.456 243.407 304.448 244.863 304.448C246.175 304.448 247.103 305.424 247.103 306.816V312H248.095V306.688C248.095 304.848 246.815 303.536 244.991 303.536ZM259.009 312.192C261.329 312.192 263.281 310.208 263.281 307.856C263.281 305.504 261.329 303.536 259.009 303.536C256.689 303.536 254.721 305.504 254.721 307.856C254.721 310.208 256.689 312.192 259.009 312.192ZM259.009 311.28C257.233 311.28 255.761 309.728 255.761 307.856C255.761 306 257.233 304.448 259.009 304.448C260.769 304.448 262.241 306 262.241 307.856C262.241 309.728 260.769 311.28 259.009 311.28ZM266.975 302.592C266.975 301.888 267.423 301.392 267.967 301.392C268.367 301.392 268.703 301.52 268.927 301.744L269.439 301.008C268.991 300.672 268.463 300.48 267.903 300.48C266.783 300.48 265.983 301.36 265.983 302.592V303.728H264.639V304.64H265.983V312H266.975V304.64H269.103V303.728H266.975V302.592ZM279.13 310.928C278.906 311.136 278.554 311.28 278.17 311.28C277.626 311.28 277.178 310.784 277.178 310.08V304.64H279.258V303.728H277.178V301.456H276.186V303.728H274.842V304.64H276.186V310.08C276.186 311.312 276.986 312.192 278.106 312.192C278.65 312.192 279.21 312 279.642 311.664L279.13 310.928ZM285.069 303.536C283.853 303.536 282.797 304.176 282.349 305.088V300.816H281.357V312H282.349V306.736C282.349 305.456 283.485 304.448 284.941 304.448C286.253 304.448 287.181 305.424 287.181 306.816V312H288.173V306.688C288.173 304.848 286.893 303.536 285.069 303.536ZM294.303 311.28C292.607 311.28 291.343 309.968 291.167 308.256H298.159C298.159 305.408 296.687 303.536 294.239 303.536C291.999 303.536 290.159 305.392 290.159 307.84C290.159 310.32 292.095 312.192 294.303 312.192C295.519 312.192 296.975 311.68 297.679 310.912L297.055 310.24C296.479 310.864 295.343 311.28 294.303 311.28ZM294.271 304.448C296.015 304.448 297.039 305.68 297.167 307.344H291.183C291.391 305.632 292.655 304.448 294.271 304.448ZM55.2636 335.28C53.5676 335.28 52.3036 333.968 52.1276 332.256H59.1196C59.1196 329.408 57.6476 327.536 55.1996 327.536C52.9596 327.536 51.1196 329.392 51.1196 331.84C51.1196 334.32 53.0556 336.192 55.2636 336.192C56.4796 336.192 57.9356 335.68 58.6396 334.912L58.0156 334.24C57.4396 334.864 56.3036 335.28 55.2636 335.28ZM55.2316 328.448C56.9756 328.448 57.9996 329.68 58.1276 331.344H52.1436C52.3516 329.632 53.6156 328.448 55.2316 328.448ZM67.9312 336L64.7472 331.776L67.8032 327.728H66.6352L64.1552 331.008L61.6752 327.728H60.5072L63.5792 331.776L60.3792 336H61.5472L64.1552 332.544L66.7632 336H67.9312ZM72.9733 327.536C72.1573 327.536 71.1333 327.76 70.0453 328.336L70.4453 329.152C71.1973 328.736 72.0613 328.416 72.8933 328.416C74.7493 328.416 75.2933 329.744 75.2933 330.96V331.296C74.4133 331.008 73.4213 330.8 72.5253 330.8C70.6693 330.8 69.2453 331.92 69.2453 333.552C69.2453 335.152 70.5253 336.192 72.2533 336.192C73.3733 336.192 74.6853 335.664 75.2933 334.688V336H76.2853V330.96C76.2853 328.96 75.1493 327.536 72.9733 327.536ZM72.4133 335.296C71.1813 335.296 70.2213 334.608 70.2213 333.504C70.2213 332.432 71.2933 331.664 72.6693 331.664C73.5973 331.664 74.5093 331.84 75.2933 332.08V333.408C74.9733 334.688 73.5653 335.296 72.4133 335.296ZM82.5314 336.192C83.6514 336.192 84.6914 335.712 85.4594 334.944L84.7714 334.272C84.1954 334.896 83.3954 335.28 82.5314 335.28C80.7394 335.28 79.3314 333.776 79.3314 331.856C79.3314 329.952 80.7394 328.448 82.5314 328.448C83.3794 328.448 84.1634 328.816 84.7394 329.424L85.4274 328.752C84.6594 328 83.6354 327.536 82.5314 327.536C80.1794 327.536 78.2914 329.44 78.2914 331.856C78.2914 334.272 80.1794 336.192 82.5314 336.192ZM90.9659 334.928C90.7419 335.136 90.3899 335.28 90.0059 335.28C89.4619 335.28 89.0139 334.784 89.0139 334.08V328.64H91.0939V327.728H89.0139V325.456H88.0219V327.728H86.6779V328.64H88.0219V334.08C88.0219 335.312 88.8219 336.192 89.9419 336.192C90.4859 336.192 91.0459 336 91.4779 335.664L90.9659 334.928ZM100.746 336.192C102.41 336.192 103.722 335.216 103.722 333.808C103.722 332.368 102.538 331.84 101.018 331.36C99.4016 330.832 98.7616 330.496 98.7616 329.744C98.7616 328.944 99.6096 328.448 100.618 328.448C101.386 328.448 102.25 328.72 103.082 329.232L103.578 328.464C102.698 327.888 101.626 327.536 100.618 327.536C99.0176 327.536 97.7696 328.48 97.7696 329.856C97.7696 331.024 98.5536 331.648 100.538 332.224C101.85 332.624 102.73 333.008 102.73 333.904C102.73 334.704 101.882 335.28 100.746 335.28C99.8176 335.28 98.8096 334.912 97.8496 334.224L97.3216 334.96C98.2976 335.744 99.5776 336.192 100.746 336.192ZM106.188 326.112C106.572 326.112 106.876 325.808 106.876 325.424C106.876 325.056 106.572 324.736 106.188 324.736C105.804 324.736 105.5 325.056 105.5 325.424C105.5 325.808 105.804 326.112 106.188 326.112ZM105.692 336H106.684V327.728H105.692V336ZM108.747 336H115.275V335.056H110.059L115.243 328.512V327.728H108.843V328.672H113.915L108.747 335.216V336ZM121.014 335.28C119.318 335.28 118.054 333.968 117.878 332.256H124.87C124.87 329.408 123.398 327.536 120.95 327.536C118.71 327.536 116.87 329.392 116.87 331.84C116.87 334.32 118.806 336.192 121.014 336.192C122.23 336.192 123.686 335.68 124.39 334.912L123.766 334.24C123.19 334.864 122.054 335.28 121.014 335.28ZM120.982 328.448C122.726 328.448 123.75 329.68 123.878 331.344H117.894C118.102 329.632 119.366 328.448 120.982 328.448ZM134.786 327.536C133.97 327.536 132.946 327.76 131.858 328.336L132.258 329.152C133.01 328.736 133.874 328.416 134.706 328.416C136.562 328.416 137.106 329.744 137.106 330.96V331.296C136.226 331.008 135.234 330.8 134.338 330.8C132.482 330.8 131.058 331.92 131.058 333.552C131.058 335.152 132.338 336.192 134.066 336.192C135.186 336.192 136.498 335.664 137.106 334.688V336H138.098V330.96C138.098 328.96 136.962 327.536 134.786 327.536ZM134.226 335.296C132.994 335.296 132.034 334.608 132.034 333.504C132.034 332.432 133.106 331.664 134.482 331.664C135.41 331.664 136.322 331.84 137.106 332.08V333.408C136.786 334.688 135.378 335.296 134.226 335.296ZM144.28 327.536C143.064 327.536 142.008 328.176 141.56 329.088V327.728H140.568V336H141.56V330.736C141.56 329.456 142.696 328.448 144.152 328.448C145.464 328.448 146.392 329.424 146.392 330.816V336H147.384V330.688C147.384 328.848 146.104 327.536 144.28 327.536ZM156.33 324.816V329.344C155.69 328.224 154.602 327.536 153.242 327.536C151.114 327.536 149.466 329.392 149.466 331.856C149.466 334.336 151.114 336.192 153.242 336.192C154.602 336.192 155.69 335.504 156.33 334.384V336H157.322V324.816H156.33ZM153.418 335.28C151.754 335.28 150.49 333.808 150.49 331.856C150.49 329.904 151.754 328.448 153.418 328.448C155.13 328.448 156.33 329.856 156.33 331.856C156.33 333.856 155.13 335.28 153.418 335.28ZM168.697 327.536C167.337 327.536 166.249 328.224 165.609 329.344V327.728H164.617V338.752H165.609V334.384C166.249 335.504 167.337 336.192 168.697 336.192C170.825 336.192 172.473 334.336 172.473 331.856C172.473 329.392 170.825 327.536 168.697 327.536ZM168.521 335.28C166.809 335.28 165.609 333.856 165.609 331.856C165.609 329.856 166.809 328.448 168.521 328.448C170.185 328.448 171.449 329.904 171.449 331.856C171.449 333.808 170.185 335.28 168.521 335.28ZM175.656 329.424V327.728H174.664V336H175.656V331.376C175.656 329.664 176.984 328.448 178.856 328.448V327.536C177.336 327.536 176.12 328.304 175.656 329.424ZM184.095 336.192C186.415 336.192 188.367 334.208 188.367 331.856C188.367 329.504 186.415 327.536 184.095 327.536C181.775 327.536 179.807 329.504 179.807 331.856C179.807 334.208 181.775 336.192 184.095 336.192ZM184.095 335.28C182.319 335.28 180.847 333.728 180.847 331.856C180.847 330 182.319 328.448 184.095 328.448C185.855 328.448 187.327 330 187.327 331.856C187.327 333.728 185.855 335.28 184.095 335.28ZM196.861 324.816V329.344C196.221 328.224 195.133 327.536 193.773 327.536C191.645 327.536 189.997 329.392 189.997 331.856C189.997 334.336 191.645 336.192 193.773 336.192C195.133 336.192 196.221 335.504 196.861 334.384V336H197.853V324.816H196.861ZM193.949 335.28C192.285 335.28 191.021 333.808 191.021 331.856C191.021 329.904 192.285 328.448 193.949 328.448C195.661 328.448 196.861 329.856 196.861 331.856C196.861 333.856 195.661 335.28 193.949 335.28ZM206.22 327.728V332.992C206.22 334.272 205.084 335.28 203.628 335.28C202.316 335.28 201.388 334.304 201.388 332.912V327.728H200.396V333.04C200.396 334.88 201.676 336.192 203.5 336.192C204.716 336.192 205.772 335.552 206.22 334.64V336H207.212V327.728H206.22ZM213.453 336.192C214.573 336.192 215.613 335.712 216.381 334.944L215.693 334.272C215.117 334.896 214.317 335.28 213.453 335.28C211.661 335.28 210.253 333.776 210.253 331.856C210.253 329.952 211.661 328.448 213.453 328.448C214.301 328.448 215.085 328.816 215.661 329.424L216.349 328.752C215.581 328 214.557 327.536 213.453 327.536C211.101 327.536 209.213 329.44 209.213 331.856C209.213 334.272 211.101 336.192 213.453 336.192ZM221.888 334.928C221.664 335.136 221.312 335.28 220.928 335.28C220.384 335.28 219.936 334.784 219.936 334.08V328.64H222.016V327.728H219.936V325.456H218.944V327.728H217.6V328.64H218.944V334.08C218.944 335.312 219.744 336.192 220.864 336.192C221.408 336.192 221.968 336 222.4 335.664L221.888 334.928ZM228.787 336H229.811V325.008H228.787V336ZM238.031 329.424V327.728H237.039V336H238.031V331.376C238.031 329.664 239.359 328.448 241.231 328.448V327.536C239.711 327.536 238.495 328.304 238.031 329.424ZM246.592 335.28C244.896 335.28 243.632 333.968 243.456 332.256H250.448C250.448 329.408 248.976 327.536 246.528 327.536C244.288 327.536 242.448 329.392 242.448 331.84C242.448 334.32 244.384 336.192 246.592 336.192C247.808 336.192 249.264 335.68 249.968 334.912L249.344 334.24C248.768 334.864 247.632 335.28 246.592 335.28ZM246.56 328.448C248.304 328.448 249.328 329.68 249.456 331.344H243.472C243.68 329.632 244.944 328.448 246.56 328.448ZM258.923 327.728V329.344C258.283 328.224 257.195 327.536 255.835 327.536C253.707 327.536 252.059 329.392 252.059 331.856C252.059 334.336 253.707 336.192 255.835 336.192C257.195 336.192 258.283 335.504 258.923 334.384V338.752H259.915V327.728H258.923ZM256.011 335.28C254.347 335.28 253.083 333.808 253.083 331.856C253.083 329.904 254.347 328.448 256.011 328.448C257.723 328.448 258.923 329.856 258.923 331.856C258.923 333.856 257.723 335.28 256.011 335.28ZM268.282 327.728V332.992C268.282 334.272 267.146 335.28 265.69 335.28C264.378 335.28 263.45 334.304 263.45 332.912V327.728H262.458V333.04C262.458 334.88 263.738 336.192 265.562 336.192C266.778 336.192 267.834 335.552 268.282 334.64V336H269.274V327.728H268.282ZM272.204 326.112C272.588 326.112 272.892 325.808 272.892 325.424C272.892 325.056 272.588 324.736 272.204 324.736C271.82 324.736 271.516 325.056 271.516 325.424C271.516 325.808 271.82 326.112 272.204 326.112ZM271.708 336H272.7V327.728H271.708V336ZM276.218 329.424V327.728H275.226V336H276.218V331.376C276.218 329.664 277.546 328.448 279.418 328.448V327.536C277.898 327.536 276.682 328.304 276.218 329.424ZM284.779 335.28C283.083 335.28 281.819 333.968 281.643 332.256H288.635C288.635 329.408 287.163 327.536 284.715 327.536C282.475 327.536 280.635 329.392 280.635 331.84C280.635 334.32 282.571 336.192 284.779 336.192C285.995 336.192 287.451 335.68 288.155 334.912L287.531 334.24C286.955 334.864 285.819 335.28 284.779 335.28ZM284.747 328.448C286.491 328.448 287.515 329.68 287.643 331.344H281.659C281.867 329.632 283.131 328.448 284.747 328.448ZM291.303 336.192C291.703 336.192 292.023 335.856 292.023 335.44C292.023 335.056 291.703 334.72 291.303 334.72C290.871 334.72 290.551 335.056 290.551 335.44C290.551 335.856 290.871 336.192 291.303 336.192ZM294.652 328.992H295.276C295.388 328.064 295.612 326.704 295.612 326C295.612 325.648 295.324 325.36 294.972 325.36C294.62 325.36 294.316 325.648 294.316 326C294.316 326.704 294.54 328.064 294.652 328.992ZM297.532 328.992H298.156C298.268 328.064 298.492 326.704 298.492 326C298.492 325.648 298.204 325.36 297.852 325.36C297.5 325.36 297.196 325.648 297.196 326C297.196 326.704 297.42 328.064 297.532 328.992Z" fill="#2D2D2D"/>
<path d="M92.9246 251H100.509V249.816H94.9246L97.8046 247.32C99.6606 245.72 100.397 244.536 100.397 243.048C100.397 241.08 98.7966 239.816 96.8926 239.816C95.1646 239.816 93.9326 240.632 93.0206 241.928L93.9006 242.648C94.6526 241.624 95.5646 240.936 96.8446 240.936C98.0126 240.936 99.1326 241.72 99.1326 243.064C99.1326 244.152 98.4926 245.208 96.9406 246.536L92.9246 249.96V251ZM103.771 251H105.211L109.947 240.952V240.008H102.507V241.192H108.459L103.771 251ZM113.012 253.128C113.972 251.928 114.244 251.384 114.244 250.744C114.244 250.008 113.876 249.464 113.268 249.464C112.756 249.464 112.388 249.864 112.388 250.312C112.388 250.792 112.772 251.192 113.252 251.192C113.124 251.688 112.852 252.184 112.42 252.68L113.012 253.128ZM123.808 251.192C125.84 251.192 127.28 249.624 127.28 247.416V240.008H126.032V247.416C126.032 248.968 125.104 250.056 123.808 250.056C122.8 250.056 121.776 249.4 121.344 248.472L120.432 249.368C121.104 250.44 122.512 251.192 123.808 251.192ZM135.696 242.728V247.992C135.696 249.144 134.528 250.12 133.136 250.12C131.92 250.12 131.072 249.176 131.072 247.832V242.728H129.872V247.992C129.872 249.864 131.152 251.192 132.976 251.192C134.144 251.192 135.216 250.552 135.696 249.672V251H136.896V242.728H135.696ZM143.277 242.536C142.109 242.536 141.037 243.176 140.557 244.056V242.728H139.357V251H140.557V245.736C140.557 244.584 141.725 243.608 143.117 243.608C144.333 243.608 145.181 244.552 145.181 245.896V251H146.381V245.736C146.381 243.864 145.101 242.536 143.277 242.536ZM149.402 241.224C149.834 241.224 150.186 240.856 150.186 240.424C150.186 240.008 149.834 239.64 149.402 239.64C148.954 239.64 148.602 240.008 148.602 240.424C148.602 240.856 148.954 241.224 149.402 241.224ZM148.794 251H149.994V242.728H148.794V251ZM156.244 251.192C158.564 251.192 160.516 249.208 160.516 246.856C160.516 244.504 158.564 242.536 156.244 242.536C153.924 242.536 151.956 244.504 151.956 246.856C151.956 249.208 153.924 251.192 156.244 251.192ZM156.244 250.12C154.596 250.12 153.22 248.632 153.22 246.856C153.22 245.096 154.596 243.608 156.244 243.608C157.876 243.608 159.252 245.096 159.252 246.856C159.252 248.632 157.876 250.12 156.244 250.12ZM163.809 244.344V242.728H162.609V251H163.809V246.376C163.809 244.76 165.137 243.608 167.009 243.608V242.536C165.489 242.536 164.305 243.24 163.809 244.344ZM182.302 251H183.662L178.814 240.008H177.454L172.606 251H173.966L175.07 248.504H181.198L182.302 251ZM175.582 247.32L178.142 241.544L180.686 247.32H175.582ZM189.228 251.192C190.38 251.192 191.436 250.712 192.22 249.928L191.388 249.112C190.828 249.736 190.06 250.12 189.228 250.12C187.58 250.12 186.204 248.632 186.204 246.856C186.204 245.096 187.58 243.608 189.228 243.608C190.044 243.608 190.796 243.976 191.34 244.568L192.172 243.752C191.388 243 190.348 242.536 189.228 242.536C186.908 242.536 184.94 244.504 184.94 246.856C184.94 249.208 186.908 251.192 189.228 251.192ZM197.9 251.192C199.052 251.192 200.108 250.712 200.892 249.928L200.06 249.112C199.5 249.736 198.732 250.12 197.9 250.12C196.252 250.12 194.876 248.632 194.876 246.856C194.876 245.096 196.252 243.608 197.9 243.608C198.716 243.608 199.468 243.976 200.012 244.568L200.844 243.752C200.06 243 199.02 242.536 197.9 242.536C195.58 242.536 193.612 244.504 193.612 246.856C193.612 249.208 195.58 251.192 197.9 251.192ZM206.4 251.192C208.72 251.192 210.672 249.208 210.672 246.856C210.672 244.504 208.72 242.536 206.4 242.536C204.08 242.536 202.112 244.504 202.112 246.856C202.112 249.208 204.08 251.192 206.4 251.192ZM206.4 250.12C204.752 250.12 203.376 248.632 203.376 246.856C203.376 245.096 204.752 243.608 206.4 243.608C208.032 243.608 209.408 245.096 209.408 246.856C209.408 248.632 208.032 250.12 206.4 250.12ZM218.478 242.728V247.992C218.478 249.144 217.31 250.12 215.918 250.12C214.702 250.12 213.854 249.176 213.854 247.832V242.728H212.654V247.992C212.654 249.864 213.934 251.192 215.758 251.192C216.926 251.192 217.998 250.552 218.478 249.672V251H219.678V242.728H218.478ZM226.058 242.536C224.89 242.536 223.818 243.176 223.338 244.056V242.728H222.138V251H223.338V245.736C223.338 244.584 224.506 243.608 225.898 243.608C227.114 243.608 227.962 244.552 227.962 245.896V251H229.162V245.736C229.162 243.864 227.882 242.536 226.058 242.536ZM235.223 249.784C235.047 249.976 234.727 250.12 234.359 250.12C233.879 250.12 233.463 249.688 233.463 249.08V243.8H235.495V242.728H233.463V240.456H232.263V242.728H230.967V243.8H232.263V249.08C232.263 250.312 233.095 251.192 234.279 251.192C234.839 251.192 235.383 251 235.815 250.664L235.223 249.784ZM240.873 242.536C240.073 242.536 239.081 242.744 237.897 243.336L238.377 244.312C239.129 243.928 239.961 243.56 240.793 243.56C242.585 243.56 243.033 244.84 243.033 245.96V246.264C242.185 245.992 241.241 245.8 240.345 245.8C238.569 245.8 237.097 246.904 237.097 248.552C237.097 250.184 238.377 251.192 240.121 251.192C241.209 251.192 242.441 250.68 243.033 249.704V251H244.233V245.96C244.233 243.96 243.129 242.536 240.873 242.536ZM240.329 250.136C239.161 250.136 238.265 249.528 238.265 248.504C238.265 247.512 239.305 246.808 240.537 246.808C241.433 246.808 242.281 246.936 243.033 247.144V248.408C242.713 249.576 241.417 250.136 240.329 250.136ZM250.621 242.536C249.453 242.536 248.381 243.176 247.901 244.056V242.728H246.701V251H247.901V245.736C247.901 244.584 249.069 243.608 250.461 243.608C251.677 243.608 252.525 244.552 252.525 245.896V251H253.725V245.736C253.725 243.864 252.445 242.536 250.621 242.536ZM259.786 249.784C259.61 249.976 259.29 250.12 258.922 250.12C258.442 250.12 258.026 249.688 258.026 249.08V243.8H260.058V242.728H258.026V240.456H256.826V242.728H255.53V243.8H256.826V249.08C256.826 250.312 257.658 251.192 258.842 251.192C259.402 251.192 259.946 251 260.378 250.664L259.786 249.784Z" fill="#BF8427"/>
<path d="M142.24 227.288C144.736 227.288 147.04 226.208 148.648 224.528L146.08 222.224C145.12 223.328 143.752 224.072 142.24 224.072C139.48 224.072 137.128 221.624 137.128 218.744C137.128 215.888 139.48 213.44 142.24 213.44C143.752 213.44 145.12 214.184 146.08 215.288L148.648 212.984C147.04 211.28 144.736 210.224 142.24 210.224C137.512 210.224 133.48 214.112 133.48 218.744C133.48 223.376 137.512 227.288 142.24 227.288ZM157.919 214.304C156.335 214.304 154.967 215.024 154.199 216.104V210.224H150.695V227H154.199V219.656C154.199 218.312 155.327 217.256 156.791 217.256C158.183 217.256 159.143 218.312 159.143 219.848V227H162.527V219.104C162.527 216.296 160.607 214.304 157.919 214.304ZM171.029 214.304C169.301 214.304 167.597 214.784 165.845 215.672L167.021 218C168.005 217.496 169.085 217.112 170.237 217.112C172.277 217.112 173.093 218.264 173.093 219.584V219.824C172.037 219.416 170.933 219.2 169.925 219.2C167.045 219.2 164.765 220.88 164.765 223.328C164.765 225.704 166.805 227.288 169.445 227.288C170.789 227.288 172.205 226.76 173.093 225.752V227H176.477V219.584C176.477 216.344 174.269 214.304 171.029 214.304ZM170.237 224.864C169.037 224.864 168.149 224.24 168.149 223.232C168.149 222.224 169.157 221.48 170.429 221.48C171.389 221.48 172.301 221.648 173.093 221.936V223.088C172.853 224.24 171.581 224.864 170.237 224.864ZM182.935 216.896V214.592H179.431V227H182.935V221.072C182.935 218.744 184.591 217.256 187.183 217.256V214.304C185.287 214.304 183.751 215.288 182.935 216.896ZM189.204 227H192.708V210.224H189.204V227ZM201.622 224.192C200.158 224.192 199.078 223.28 198.67 221.936H207.622C207.622 217.256 205.342 214.304 201.454 214.304C197.83 214.304 195.07 217.016 195.07 220.76C195.07 224.576 197.95 227.288 201.646 227.288C203.47 227.288 205.606 226.52 206.71 225.368L204.478 223.088C203.806 223.736 202.606 224.192 201.622 224.192ZM201.598 217.4C203.014 217.4 203.926 218.192 204.262 219.416H198.718C199.174 218.168 200.278 217.4 201.598 217.4ZM214.649 227.288C217.697 227.288 219.689 225.728 219.689 223.28C219.689 220.568 217.313 219.848 215.177 219.296C213.497 218.84 212.993 218.648 212.993 217.976C212.993 217.544 213.593 217.232 214.457 217.232C215.513 217.232 216.809 217.64 217.937 218.336L219.353 215.84C217.985 214.928 216.233 214.304 214.457 214.304C211.529 214.304 209.585 215.984 209.609 218.336C209.633 220.784 211.601 221.48 214.145 222.104C215.417 222.44 216.329 222.68 216.329 223.448C216.329 224 215.657 224.384 214.721 224.384C213.065 224.384 211.673 223.784 210.569 222.992L209.057 225.416C210.545 226.616 212.657 227.288 214.649 227.288Z" fill="#BF8427"/>
<circle cx="177" cy="113" r="69.6" fill="#FFFAF1" stroke="#BF8427" stroke-width="0.8"/>
<circle cx="177" cy="113" r="62" fill="#FFEED5"/>
<mask id="mask0" mask-type="alpha" maskUnits="userSpaceOnUse" x="115" y="51" width="124" height="124">
<circle cx="177" cy="113" r="62" fill="#EFDAB9"/>
</mask>
<g mask="url(#mask0)">
<path d="M188.732 122.861V127.699C188.732 134.151 198.006 136.973 198.006 136.973C198.006 136.973 187.321 145.038 176.233 145.038C165.144 145.038 154.459 136.973 154.459 136.973C154.459 136.973 163.806 134.151 163.733 127.699C163.66 121.248 163.709 117.458 163.66 106.405C157.881 98.914 158.252 93.8867 161.412 90.3513C171.999 78.5068 200.829 82.539 200.829 82.539C200.829 82.539 203.519 111.568 197.402 120.038C194.781 123.667 188.732 122.861 188.732 122.861Z" fill="url(#paint0_linear)"/>
<g style="mix-blend-mode:multiply">
<path d="M188.732 122.861C179.861 121.853 174.619 118.022 174.619 118.022C177.929 122.918 182.972 126.377 188.732 127.699V122.861Z" fill="#FFDBC9"/>
</g>
<path d="M218.571 149.194C222.409 156.999 224.619 175 224.619 175H127.847C127.847 175 130.057 156.997 133.895 149.194C137.733 141.391 160.144 134.154 160.144 134.154C164.464 143.022 188.171 143.022 192.309 134.151C192.309 134.151 214.732 141.389 218.571 149.194Z" fill="url(#paint1_linear)"/>
<path d="M174.619 164.795C174.619 164.476 174.714 164.165 174.891 163.899C175.068 163.634 175.32 163.427 175.615 163.305C175.91 163.183 176.234 163.151 176.547 163.214C176.86 163.276 177.147 163.429 177.372 163.655C177.598 163.88 177.752 164.168 177.814 164.481C177.876 164.794 177.844 165.118 177.722 165.413C177.6 165.707 177.393 165.959 177.128 166.136C176.863 166.314 176.551 166.408 176.232 166.408C175.804 166.408 175.394 166.238 175.092 165.936C174.789 165.633 174.619 165.223 174.619 164.795ZM174.619 156.731C174.619 156.412 174.714 156.1 174.891 155.835C175.068 155.57 175.32 155.363 175.615 155.241C175.91 155.119 176.234 155.087 176.547 155.149C176.86 155.211 177.147 155.365 177.372 155.591C177.598 155.816 177.752 156.104 177.814 156.416C177.876 156.729 177.844 157.054 177.722 157.348C177.6 157.643 177.393 157.895 177.128 158.072C176.863 158.249 176.551 158.344 176.232 158.344C175.804 158.344 175.394 158.174 175.092 157.872C174.789 157.569 174.619 157.159 174.619 156.731ZM174.619 148.667C174.619 148.348 174.714 148.036 174.891 147.771C175.068 147.505 175.32 147.299 175.615 147.177C175.91 147.055 176.234 147.023 176.547 147.085C176.86 147.147 177.147 147.301 177.372 147.526C177.598 147.752 177.752 148.039 177.814 148.352C177.876 148.665 177.844 148.989 177.722 149.284C177.6 149.579 177.393 149.831 177.128 150.008C176.863 150.185 176.551 150.28 176.232 150.28C175.804 150.28 175.394 150.11 175.092 149.807C174.789 149.505 174.619 149.094 174.619 148.667Z" fill="white"/>
<path d="M168.635 94.3166C167.353 93.2154 165.794 92.4739 163.592 93.6182C158.371 96.329 162.322 106.732 166.959 106.732C168.169 106.732 168.771 110.531 163.385 113.184C163.385 108.95 156.933 98.4661 156.369 88.9211C149.877 86.5038 151.49 76.8318 155.947 76.8318C155.235 67.9659 169.433 63.3861 174.931 68.4743C180.522 61.7733 194.634 65.2006 195.486 71.0142C205.19 65.8341 211.569 80.7245 202.483 86.505C198.744 88.884 189.997 89.7892 177.371 89.7892C175.465 89.7892 174.398 90.2626 174.931 92.6194C175.962 97.1863 173.567 100.063 168.635 94.3166Z" fill="url(#paint2_linear)"/>
</g>
<defs>
<linearGradient id="paint0_linear" x1="177.939" y1="81.8774" x2="177.939" y2="145.038" gradientUnits="userSpaceOnUse">
<stop stop-color="#FFD4B3"/>
<stop offset="1" stop-color="#FFDCC2"/>
</linearGradient>
<linearGradient id="paint1_linear" x1="176.233" y1="134.151" x2="176.233" y2="175" gradientUnits="userSpaceOnUse">
<stop stop-color="#806A6A"/>
<stop offset="1" stop-color="#665654"/>
</linearGradient>
<linearGradient id="paint2_linear" x1="179.452" y1="113.184" x2="179.452" y2="64.7964" gradientUnits="userSpaceOnUse">
<stop stop-color="#E6864E"/>
<stop offset="1" stop-color="#E67240"/>
</linearGradient>
</defs>
</svg>
