<svg width="353" height="403" viewBox="0 0 353 403" fill="none" xmlns="http://www.w3.org/2000/svg">
<path d="M0 0H353V403H0V0Z" fill="#FFFAF1"/>
<path d="M11.5 13.5H340.5V388.5H11.5V13.5Z" stroke="#E5C697"/>
<path d="M35.1946 277.28C34.3466 278.352 34.0586 278.944 34.0586 279.568C34.0586 280.192 34.3786 280.64 34.8746 280.64C35.3226 280.64 35.6266 280.304 35.6266 279.92C35.6266 279.504 35.3066 279.168 34.8906 279.168C35.0186 278.688 35.2906 278.176 35.7226 277.68L35.1946 277.28ZM38.2986 277.28C37.4506 278.352 37.1626 278.944 37.1626 279.568C37.1626 280.192 37.4826 280.64 37.9786 280.64C38.4266 280.64 38.7306 280.304 38.7306 279.92C38.7306 279.504 38.4106 279.168 37.9946 279.168C38.1226 278.688 38.3946 278.176 38.8266 277.68L38.2986 277.28ZM41.3578 288H42.3818V283.936H45.8698C48.1258 283.936 49.8378 282.512 49.8378 280.48C49.8378 278.448 48.1258 277.008 45.8698 277.008H41.3578V288ZM42.3818 282.96V277.984H45.6938C47.5338 277.984 48.8138 278.944 48.8138 280.48C48.8138 282 47.5338 282.96 45.6938 282.96H42.3818ZM52.6794 281.424V279.728H51.6874V288H52.6794V283.376C52.6794 281.664 54.0074 280.448 55.8794 280.448V279.536C54.3594 279.536 53.1434 280.304 52.6794 281.424ZM61.1185 288.192C63.4385 288.192 65.3905 286.208 65.3905 283.856C65.3905 281.504 63.4385 279.536 61.1185 279.536C58.7985 279.536 56.8305 281.504 56.8305 283.856C56.8305 286.208 58.7985 288.192 61.1185 288.192ZM61.1185 287.28C59.3425 287.28 57.8705 285.728 57.8705 283.856C57.8705 282 59.3425 280.448 61.1185 280.448C62.8785 280.448 64.3505 282 64.3505 283.856C64.3505 285.728 62.8785 287.28 61.1185 287.28ZM73.8843 276.816V281.344C73.2443 280.224 72.1563 279.536 70.7963 279.536C68.6683 279.536 67.0203 281.392 67.0203 283.856C67.0203 286.336 68.6683 288.192 70.7963 288.192C72.1563 288.192 73.2443 287.504 73.8843 286.384V288H74.8763V276.816H73.8843ZM70.9723 287.28C69.3083 287.28 68.0443 285.808 68.0443 283.856C68.0443 281.904 69.3083 280.448 70.9723 280.448C72.6843 280.448 73.8843 281.856 73.8843 283.856C73.8843 285.856 72.6843 287.28 70.9723 287.28ZM83.2431 279.728V284.992C83.2431 286.272 82.1071 287.28 80.6511 287.28C79.3391 287.28 78.4111 286.304 78.4111 284.912V279.728H77.4191V285.04C77.4191 286.88 78.6991 288.192 80.5231 288.192C81.7391 288.192 82.7951 287.552 83.2431 286.64V288H84.2351V279.728H83.2431ZM90.4768 288.192C91.5968 288.192 92.6368 287.712 93.4048 286.944L92.7168 286.272C92.1408 286.896 91.3408 287.28 90.4768 287.28C88.6848 287.28 87.2768 285.776 87.2768 283.856C87.2768 281.952 88.6848 280.448 90.4768 280.448C91.3248 280.448 92.1088 280.816 92.6848 281.424L93.3728 280.752C92.6048 280 91.5808 279.536 90.4768 279.536C88.1248 279.536 86.2368 281.44 86.2368 283.856C86.2368 286.272 88.1248 288.192 90.4768 288.192ZM98.9113 286.928C98.6873 287.136 98.3353 287.28 97.9513 287.28C97.4073 287.28 96.9593 286.784 96.9593 286.08V280.64H99.0393V279.728H96.9593V277.456H95.9673V279.728H94.6233V280.64H95.9673V286.08C95.9673 287.312 96.7673 288.192 97.8873 288.192C98.4313 288.192 98.9913 288 99.4233 287.664L98.9113 286.928ZM107.475 278.592C107.475 277.888 107.923 277.392 108.467 277.392C108.867 277.392 109.203 277.52 109.427 277.744L109.939 277.008C109.491 276.672 108.963 276.48 108.403 276.48C107.283 276.48 106.483 277.36 106.483 278.592V279.728H105.139V280.64H106.483V288H107.475V280.64H109.603V279.728H107.475V278.592ZM111.805 278.112C112.189 278.112 112.493 277.808 112.493 277.424C112.493 277.056 112.189 276.736 111.805 276.736C111.421 276.736 111.117 277.056 111.117 277.424C111.117 277.808 111.421 278.112 111.805 278.112ZM111.309 288H112.301V279.728H111.309V288ZM114.716 288H115.708V276.816H114.716V288ZM121.802 286.928C121.578 287.136 121.226 287.28 120.842 287.28C120.298 287.28 119.85 286.784 119.85 286.08V280.64H121.93V279.728H119.85V277.456H118.858V279.728H117.514V280.64H118.858V286.08C118.858 287.312 119.658 288.192 120.778 288.192C121.322 288.192 121.882 288 122.314 287.664L121.802 286.928ZM127.709 287.28C126.013 287.28 124.749 285.968 124.573 284.256H131.565C131.565 281.408 130.093 279.536 127.645 279.536C125.405 279.536 123.565 281.392 123.565 283.84C123.565 286.32 125.501 288.192 127.709 288.192C128.925 288.192 130.381 287.68 131.085 286.912L130.461 286.24C129.885 286.864 128.749 287.28 127.709 287.28ZM127.677 280.448C129.421 280.448 130.445 281.68 130.573 283.344H124.589C124.797 281.632 126.061 280.448 127.677 280.448ZM134.633 281.424V279.728H133.641V288H134.633V283.376C134.633 281.664 135.961 280.448 137.833 280.448V279.536C136.312 279.536 135.097 280.304 134.633 281.424ZM142.425 288.192C144.089 288.192 145.401 287.216 145.401 285.808C145.401 284.368 144.217 283.84 142.697 283.36C141.081 282.832 140.441 282.496 140.441 281.744C140.441 280.944 141.289 280.448 142.297 280.448C143.065 280.448 143.929 280.72 144.761 281.232L145.257 280.464C144.377 279.888 143.305 279.536 142.297 279.536C140.697 279.536 139.449 280.48 139.449 281.856C139.449 283.024 140.233 283.648 142.217 284.224C143.529 284.624 144.409 285.008 144.409 285.904C144.409 286.704 143.561 287.28 142.425 287.28C141.497 287.28 140.489 286.912 139.529 286.224L139.001 286.96C139.977 287.744 141.257 288.192 142.425 288.192ZM155.869 288.192C158.189 288.192 160.141 286.208 160.141 283.856C160.141 281.504 158.189 279.536 155.869 279.536C153.549 279.536 151.581 281.504 151.581 283.856C151.581 286.208 153.549 288.192 155.869 288.192ZM155.869 287.28C154.093 287.28 152.621 285.728 152.621 283.856C152.621 282 154.093 280.448 155.869 280.448C157.629 280.448 159.101 282 159.101 283.856C159.101 285.728 157.629 287.28 155.869 287.28ZM165.85 279.536C164.634 279.536 163.578 280.176 163.13 281.088V279.728H162.138V288H163.13V282.736C163.13 281.456 164.266 280.448 165.722 280.448C167.034 280.448 167.962 281.424 167.962 282.816V288H168.954V282.688C168.954 280.848 167.674 279.536 165.85 279.536ZM184.829 279.536C183.549 279.536 182.461 280.24 182.109 281.328C181.677 280.24 180.717 279.536 179.469 279.536C178.333 279.536 177.421 280.08 177.021 280.944V279.728H176.029V288H177.021V282.688C177.021 281.376 177.981 280.448 179.341 280.448C180.541 280.448 181.373 281.424 181.373 282.816V288H182.365V282.688C182.365 281.376 183.325 280.448 184.685 280.448C185.885 280.448 186.733 281.424 186.733 282.816V288H187.725V282.688C187.725 280.848 186.525 279.536 184.829 279.536ZM193.994 288.192C196.314 288.192 198.266 286.208 198.266 283.856C198.266 281.504 196.314 279.536 193.994 279.536C191.674 279.536 189.706 281.504 189.706 283.856C189.706 286.208 191.674 288.192 193.994 288.192ZM193.994 287.28C192.218 287.28 190.746 285.728 190.746 283.856C190.746 282 192.218 280.448 193.994 280.448C195.754 280.448 197.226 282 197.226 283.856C197.226 285.728 195.754 287.28 193.994 287.28ZM204.439 279.536C203.079 279.536 201.991 280.224 201.351 281.344V276.816H200.359V288H201.351V286.384C201.991 287.504 203.079 288.192 204.439 288.192C206.567 288.192 208.215 286.336 208.215 283.856C208.215 281.392 206.567 279.536 204.439 279.536ZM204.263 287.28C202.551 287.28 201.351 285.856 201.351 283.856C201.351 281.856 202.551 280.448 204.263 280.448C205.927 280.448 207.191 281.904 207.191 283.856C207.191 285.808 205.927 287.28 204.263 287.28ZM210.774 278.112C211.158 278.112 211.462 277.808 211.462 277.424C211.462 277.056 211.158 276.736 210.774 276.736C210.39 276.736 210.086 277.056 210.086 277.424C210.086 277.808 210.39 278.112 210.774 278.112ZM210.278 288H211.27V279.728H210.278V288ZM213.685 288H214.677V276.816H213.685V288ZM220.803 287.28C219.107 287.28 217.843 285.968 217.667 284.256H224.659C224.659 281.408 223.187 279.536 220.739 279.536C218.499 279.536 216.659 281.392 216.659 283.84C216.659 286.32 218.595 288.192 220.803 288.192C222.019 288.192 223.475 287.68 224.179 286.912L223.555 286.24C222.979 286.864 221.843 287.28 220.803 287.28ZM220.771 280.448C222.515 280.448 223.539 281.68 223.667 283.344H217.683C217.891 281.632 219.155 280.448 220.771 280.448ZM237.775 276.816V281.344C237.135 280.224 236.047 279.536 234.687 279.536C232.559 279.536 230.911 281.392 230.911 283.856C230.911 286.336 232.559 288.192 234.687 288.192C236.047 288.192 237.135 287.504 237.775 286.384V288H238.767V276.816H237.775ZM234.863 287.28C233.199 287.28 231.935 285.808 231.935 283.856C231.935 281.904 233.199 280.448 234.863 280.448C236.575 280.448 237.775 281.856 237.775 283.856C237.775 285.856 236.575 287.28 234.863 287.28ZM245.006 287.28C243.31 287.28 242.046 285.968 241.87 284.256H248.862C248.862 281.408 247.39 279.536 244.942 279.536C242.702 279.536 240.862 281.392 240.862 283.84C240.862 286.32 242.798 288.192 245.006 288.192C246.222 288.192 247.678 287.68 248.382 286.912L247.758 286.24C247.182 286.864 246.046 287.28 245.006 287.28ZM244.974 280.448C246.718 280.448 247.742 281.68 247.87 283.344H241.886C242.094 281.632 243.358 280.448 244.974 280.448ZM253.657 288H254.537L258.121 279.728H257.017L254.089 286.736L251.145 279.728H250.041L253.657 288ZM260.243 278.112C260.627 278.112 260.931 277.808 260.931 277.424C260.931 277.056 260.627 276.736 260.243 276.736C259.859 276.736 259.555 277.056 259.555 277.424C259.555 277.808 259.859 278.112 260.243 278.112ZM259.747 288H260.739V279.728H259.747V288ZM266.946 288.192C268.066 288.192 269.106 287.712 269.874 286.944L269.186 286.272C268.61 286.896 267.81 287.28 266.946 287.28C265.154 287.28 263.746 285.776 263.746 283.856C263.746 281.952 265.154 280.448 266.946 280.448C267.794 280.448 268.578 280.816 269.154 281.424L269.842 280.752C269.074 280 268.05 279.536 266.946 279.536C264.594 279.536 262.706 281.44 262.706 283.856C262.706 286.272 264.594 288.192 266.946 288.192ZM275.412 287.28C273.716 287.28 272.452 285.968 272.276 284.256H279.268C279.268 281.408 277.796 279.536 275.348 279.536C273.108 279.536 271.268 281.392 271.268 283.84C271.268 286.32 273.204 288.192 275.412 288.192C276.628 288.192 278.084 287.68 278.788 286.912L278.164 286.24C277.588 286.864 276.452 287.28 275.412 287.28ZM275.38 280.448C277.124 280.448 278.148 281.68 278.276 283.344H272.292C272.5 281.632 273.764 280.448 275.38 280.448ZM284.16 288.192C285.824 288.192 287.136 287.216 287.136 285.808C287.136 284.368 285.952 283.84 284.432 283.36C282.816 282.832 282.176 282.496 282.176 281.744C282.176 280.944 283.024 280.448 284.032 280.448C284.8 280.448 285.664 280.72 286.496 281.232L286.992 280.464C286.112 279.888 285.04 279.536 284.032 279.536C282.432 279.536 281.184 280.48 281.184 281.856C281.184 283.024 281.968 283.648 283.952 284.224C285.264 284.624 286.144 285.008 286.144 285.904C286.144 286.704 285.296 287.28 284.16 287.28C283.232 287.28 282.224 286.912 281.264 286.224L280.736 286.96C281.712 287.744 282.992 288.192 284.16 288.192ZM297.075 279.536C296.259 279.536 295.235 279.76 294.147 280.336L294.547 281.152C295.299 280.736 296.163 280.416 296.995 280.416C298.851 280.416 299.395 281.744 299.395 282.96V283.296C298.515 283.008 297.523 282.8 296.627 282.8C294.771 282.8 293.347 283.92 293.347 285.552C293.347 287.152 294.627 288.192 296.355 288.192C297.475 288.192 298.787 287.664 299.395 286.688V288H300.387V282.96C300.387 280.96 299.251 279.536 297.075 279.536ZM296.515 287.296C295.283 287.296 294.323 286.608 294.323 285.504C294.323 284.432 295.395 283.664 296.771 283.664C297.699 283.664 298.611 283.84 299.395 284.08V285.408C299.075 286.688 297.667 287.296 296.515 287.296ZM303.945 281.424V279.728H302.953V288H303.945V283.376C303.945 281.664 305.273 280.448 307.145 280.448V279.536C305.625 279.536 304.409 280.304 303.945 281.424ZM312.506 287.28C310.81 287.28 309.546 285.968 309.37 284.256H316.362C316.362 281.408 314.89 279.536 312.442 279.536C310.202 279.536 308.362 281.392 308.362 283.84C308.362 286.32 310.298 288.192 312.506 288.192C313.722 288.192 315.178 287.68 315.882 286.912L315.258 286.24C314.682 286.864 313.546 287.28 312.506 287.28ZM312.474 280.448C314.218 280.448 315.242 281.68 315.37 283.344H309.386C309.594 281.632 310.858 280.448 312.474 280.448ZM57.1259 303.728V308.992C57.1259 310.272 55.9899 311.28 54.5339 311.28C53.2219 311.28 52.2939 310.304 52.2939 308.912V303.728H51.3019V309.04C51.3019 310.88 52.5819 312.192 54.4059 312.192C55.6219 312.192 56.6779 311.552 57.1259 310.64V312H58.1179V303.728H57.1259ZM63.4956 312.192C65.1596 312.192 66.4716 311.216 66.4716 309.808C66.4716 308.368 65.2876 307.84 63.7676 307.36C62.1516 306.832 61.5116 306.496 61.5116 305.744C61.5116 304.944 62.3596 304.448 63.3676 304.448C64.1356 304.448 64.9996 304.72 65.8316 305.232L66.3276 304.464C65.4476 303.888 64.3756 303.536 63.3676 303.536C61.7676 303.536 60.5196 304.48 60.5196 305.856C60.5196 307.024 61.3036 307.648 63.2876 308.224C64.5996 308.624 65.4796 309.008 65.4796 309.904C65.4796 310.704 64.6316 311.28 63.4956 311.28C62.5676 311.28 61.5596 310.912 60.5996 310.224L60.0716 310.96C61.0476 311.744 62.3276 312.192 63.4956 312.192ZM74.2822 303.728V308.992C74.2822 310.272 73.1462 311.28 71.6902 311.28C70.3782 311.28 69.4502 310.304 69.4502 308.912V303.728H68.4582V309.04C68.4582 310.88 69.7382 312.192 71.5622 312.192C72.7782 312.192 73.8342 311.552 74.2822 310.64V312H75.2742V303.728H74.2822ZM81.0358 303.536C80.2198 303.536 79.1958 303.76 78.1078 304.336L78.5078 305.152C79.2598 304.736 80.1238 304.416 80.9558 304.416C82.8118 304.416 83.3558 305.744 83.3558 306.96V307.296C82.4758 307.008 81.4838 306.8 80.5878 306.8C78.7318 306.8 77.3078 307.92 77.3078 309.552C77.3078 311.152 78.5878 312.192 80.3158 312.192C81.4358 312.192 82.7478 311.664 83.3558 310.688V312H84.3478V306.96C84.3478 304.96 83.2118 303.536 81.0358 303.536ZM80.4758 311.296C79.2438 311.296 78.2838 310.608 78.2838 309.504C78.2838 308.432 79.3558 307.664 80.7318 307.664C81.6598 307.664 82.5718 307.84 83.3558 308.08V309.408C83.0358 310.688 81.6278 311.296 80.4758 311.296ZM86.8019 312H87.7939V300.816H86.8019V312ZM90.2238 312H91.2158V300.816H90.2238V312ZM94.7337 314.88C95.8857 314.864 96.6857 314.336 97.2137 313.024L101.022 303.728H99.9497L97.0537 310.944L93.9977 303.728H92.9097L96.5417 312.128L96.0457 313.2C95.7417 313.744 95.3097 313.968 94.7017 313.968C94.3497 313.968 93.9817 313.888 93.6777 313.728L93.4217 314.608C93.8057 314.784 94.2697 314.88 94.7337 314.88ZM111.358 303.536C110.142 303.536 109.086 304.176 108.638 305.088V303.728H107.646V312H108.638V306.736C108.638 305.456 109.774 304.448 111.23 304.448C112.542 304.448 113.47 305.424 113.47 306.816V312H114.462V306.688C114.462 304.848 113.182 303.536 111.358 303.536ZM120.736 312.192C123.056 312.192 125.008 310.208 125.008 307.856C125.008 305.504 123.056 303.536 120.736 303.536C118.416 303.536 116.448 305.504 116.448 307.856C116.448 310.208 118.416 312.192 120.736 312.192ZM120.736 311.28C118.96 311.28 117.488 309.728 117.488 307.856C117.488 306 118.96 304.448 120.736 304.448C122.496 304.448 123.968 306 123.968 307.856C123.968 309.728 122.496 311.28 120.736 311.28ZM130.653 310.928C130.429 311.136 130.077 311.28 129.693 311.28C129.149 311.28 128.701 310.784 128.701 310.08V304.64H130.781V303.728H128.701V301.456H127.709V303.728H126.365V304.64H127.709V310.08C127.709 311.312 128.509 312.192 129.629 312.192C130.173 312.192 130.733 312 131.165 311.664L130.653 310.928ZM140.817 303.536C140.001 303.536 138.977 303.76 137.889 304.336L138.289 305.152C139.041 304.736 139.905 304.416 140.737 304.416C142.593 304.416 143.137 305.744 143.137 306.96V307.296C142.257 307.008 141.265 306.8 140.369 306.8C138.513 306.8 137.089 307.92 137.089 309.552C137.089 311.152 138.369 312.192 140.097 312.192C141.217 312.192 142.529 311.664 143.137 310.688V312H144.129V306.96C144.129 304.96 142.993 303.536 140.817 303.536ZM140.257 311.296C139.025 311.296 138.065 310.608 138.065 309.504C138.065 308.432 139.137 307.664 140.513 307.664C141.441 307.664 142.353 307.84 143.137 308.08V309.408C142.817 310.688 141.409 311.296 140.257 311.296ZM152.936 302.592C152.936 301.888 153.384 301.392 153.928 301.392C154.328 301.392 154.664 301.52 154.888 301.744L155.4 301.008C154.952 300.672 154.424 300.48 153.864 300.48C152.744 300.48 151.944 301.36 151.944 302.592V303.728H150.6V304.64H151.944V312H152.936V304.64H155.064V303.728H152.936V302.592ZM162.61 303.728V308.992C162.61 310.272 161.474 311.28 160.018 311.28C158.706 311.28 157.778 310.304 157.778 308.912V303.728H156.786V309.04C156.786 310.88 158.066 312.192 159.89 312.192C161.106 312.192 162.162 311.552 162.61 310.64V312H163.602V303.728H162.61ZM169.78 303.536C168.564 303.536 167.508 304.176 167.06 305.088V303.728H166.068V312H167.06V306.736C167.06 305.456 168.196 304.448 169.652 304.448C170.964 304.448 171.892 305.424 171.892 306.816V312H172.884V306.688C172.884 304.848 171.604 303.536 169.78 303.536ZM183.654 311.28C181.958 311.28 180.694 309.968 180.518 308.256H187.51C187.51 305.408 186.038 303.536 183.59 303.536C181.35 303.536 179.51 305.392 179.51 307.84C179.51 310.32 181.446 312.192 183.654 312.192C184.87 312.192 186.326 311.68 187.03 310.912L186.406 310.24C185.83 310.864 184.694 311.28 183.654 311.28ZM183.622 304.448C185.366 304.448 186.39 305.68 186.518 307.344H180.534C180.742 305.632 182.006 304.448 183.622 304.448ZM196.322 312L193.138 307.776L196.194 303.728H195.026L192.546 307.008L190.066 303.728H188.898L191.97 307.776L188.77 312H189.938L192.546 308.544L195.154 312H196.322ZM202.244 303.536C200.884 303.536 199.796 304.224 199.156 305.344V303.728H198.164V314.752H199.156V310.384C199.796 311.504 200.884 312.192 202.244 312.192C204.372 312.192 206.02 310.336 206.02 307.856C206.02 305.392 204.372 303.536 202.244 303.536ZM202.068 311.28C200.356 311.28 199.156 309.856 199.156 307.856C199.156 305.856 200.356 304.448 202.068 304.448C203.732 304.448 204.996 305.904 204.996 307.856C204.996 309.808 203.732 311.28 202.068 311.28ZM211.795 311.28C210.099 311.28 208.835 309.968 208.659 308.256H215.651C215.651 305.408 214.179 303.536 211.731 303.536C209.491 303.536 207.651 305.392 207.651 307.84C207.651 310.32 209.587 312.192 211.795 312.192C213.011 312.192 214.467 311.68 215.171 310.912L214.547 310.24C213.971 310.864 212.835 311.28 211.795 311.28ZM211.763 304.448C213.507 304.448 214.531 305.68 214.659 307.344H208.675C208.883 305.632 210.147 304.448 211.763 304.448ZM218.718 305.424V303.728H217.726V312H218.718V307.376C218.718 305.664 220.046 304.448 221.918 304.448V303.536C220.398 303.536 219.182 304.304 218.718 305.424ZM224.063 302.112C224.447 302.112 224.751 301.808 224.751 301.424C224.751 301.056 224.447 300.736 224.063 300.736C223.679 300.736 223.375 301.056 223.375 301.424C223.375 301.808 223.679 302.112 224.063 302.112ZM223.567 312H224.559V303.728H223.567V312ZM230.67 311.28C228.974 311.28 227.71 309.968 227.534 308.256H234.526C234.526 305.408 233.054 303.536 230.606 303.536C228.366 303.536 226.526 305.392 226.526 307.84C226.526 310.32 228.462 312.192 230.67 312.192C231.886 312.192 233.342 311.68 234.046 310.912L233.422 310.24C232.846 310.864 231.71 311.28 230.67 311.28ZM230.638 304.448C232.382 304.448 233.406 305.68 233.534 307.344H227.55C227.758 305.632 229.022 304.448 230.638 304.448ZM240.217 303.536C239.001 303.536 237.945 304.176 237.497 305.088V303.728H236.505V312H237.497V306.736C237.497 305.456 238.633 304.448 240.089 304.448C241.401 304.448 242.329 305.424 242.329 306.816V312H243.321V306.688C243.321 304.848 242.041 303.536 240.217 303.536ZM249.547 312.192C250.667 312.192 251.707 311.712 252.475 310.944L251.787 310.272C251.211 310.896 250.411 311.28 249.547 311.28C247.755 311.28 246.347 309.776 246.347 307.856C246.347 305.952 247.755 304.448 249.547 304.448C250.395 304.448 251.179 304.816 251.755 305.424L252.443 304.752C251.675 304 250.651 303.536 249.547 303.536C247.195 303.536 245.307 305.44 245.307 307.856C245.307 310.272 247.195 312.192 249.547 312.192ZM258.014 311.28C256.318 311.28 255.054 309.968 254.878 308.256H261.87C261.87 305.408 260.398 303.536 257.95 303.536C255.71 303.536 253.87 305.392 253.87 307.84C253.87 310.32 255.806 312.192 258.014 312.192C259.23 312.192 260.686 311.68 261.39 310.912L260.766 310.24C260.19 310.864 259.054 311.28 258.014 311.28ZM257.982 304.448C259.726 304.448 260.75 305.68 260.878 307.344H254.894C255.102 305.632 256.366 304.448 257.982 304.448ZM264.537 312.192C264.937 312.192 265.257 311.856 265.257 311.44C265.257 311.056 264.937 310.72 264.537 310.72C264.105 310.72 263.785 311.056 263.785 311.44C263.785 311.856 264.105 312.192 264.537 312.192ZM275.583 312H276.607V301.984H280.415V301.008H271.775V301.984H275.583V312ZM286.077 303.536C284.861 303.536 283.805 304.176 283.357 305.088V300.816H282.365V312H283.357V306.736C283.357 305.456 284.493 304.448 285.949 304.448C287.261 304.448 288.189 305.424 288.189 306.816V312H289.181V306.688C289.181 304.848 287.901 303.536 286.077 303.536ZM295.31 311.28C293.614 311.28 292.35 309.968 292.174 308.256H299.166C299.166 305.408 297.694 303.536 295.246 303.536C293.006 303.536 291.166 305.392 291.166 307.84C291.166 310.32 293.102 312.192 295.31 312.192C296.526 312.192 297.982 311.68 298.686 310.912L298.062 310.24C297.486 310.864 296.35 311.28 295.31 311.28ZM295.278 304.448C297.022 304.448 298.046 305.68 298.174 307.344H292.19C292.398 305.632 293.662 304.448 295.278 304.448ZM59.1389 326.592C59.1389 325.888 59.5869 325.392 60.1309 325.392C60.5309 325.392 60.8669 325.52 61.0909 325.744L61.6029 325.008C61.1549 324.672 60.6269 324.48 60.0669 324.48C58.9469 324.48 58.1469 325.36 58.1469 326.592V327.728H56.8029V328.64H58.1469V336H59.1389V328.64H61.2669V327.728H59.1389V326.592ZM63.4694 326.112C63.8534 326.112 64.1574 325.808 64.1574 325.424C64.1574 325.056 63.8534 324.736 63.4694 324.736C63.0854 324.736 62.7814 325.056 62.7814 325.424C62.7814 325.808 63.0854 326.112 63.4694 326.112ZM62.9734 336H63.9654V327.728H62.9734V336ZM66.3801 336H67.3721V324.816H66.3801V336ZM73.4659 334.928C73.2419 335.136 72.8899 335.28 72.5059 335.28C71.9619 335.28 71.5139 334.784 71.5139 334.08V328.64H73.5939V327.728H71.5139V325.456H70.5219V327.728H69.1779V328.64H70.5219V334.08C70.5219 335.312 71.3219 336.192 72.4419 336.192C72.9859 336.192 73.5459 336 73.9779 335.664L73.4659 334.928ZM79.3729 335.28C77.6769 335.28 76.4129 333.968 76.2369 332.256H83.2289C83.2289 329.408 81.7569 327.536 79.3089 327.536C77.0689 327.536 75.2289 329.392 75.2289 331.84C75.2289 334.32 77.1649 336.192 79.3729 336.192C80.5889 336.192 82.0449 335.68 82.7489 334.912L82.1249 334.24C81.5489 334.864 80.4129 335.28 79.3729 335.28ZM79.3409 328.448C81.0849 328.448 82.1089 329.68 82.2369 331.344H76.2529C76.4609 329.632 77.7249 328.448 79.3409 328.448ZM86.2966 329.424V327.728H85.3046V336H86.2966V331.376C86.2966 329.664 87.6246 328.448 89.4966 328.448V327.536C87.9766 327.536 86.7606 328.304 86.2966 329.424ZM94.0893 336.192C95.7533 336.192 97.0653 335.216 97.0653 333.808C97.0653 332.368 95.8813 331.84 94.3613 331.36C92.7453 330.832 92.1053 330.496 92.1053 329.744C92.1053 328.944 92.9533 328.448 93.9613 328.448C94.7293 328.448 95.5933 328.72 96.4253 329.232L96.9213 328.464C96.0413 327.888 94.9693 327.536 93.9613 327.536C92.3613 327.536 91.1133 328.48 91.1133 329.856C91.1133 331.024 91.8973 331.648 93.8813 332.224C95.1933 332.624 96.0733 333.008 96.0733 333.904C96.0733 334.704 95.2253 335.28 94.0893 335.28C93.1613 335.28 92.1533 334.912 91.1933 334.224L90.6653 334.96C91.6413 335.744 92.9213 336.192 94.0893 336.192ZM107.005 327.536C106.189 327.536 105.165 327.76 104.077 328.336L104.477 329.152C105.229 328.736 106.093 328.416 106.925 328.416C108.781 328.416 109.325 329.744 109.325 330.96V331.296C108.445 331.008 107.453 330.8 106.557 330.8C104.701 330.8 103.277 331.92 103.277 333.552C103.277 335.152 104.557 336.192 106.285 336.192C107.405 336.192 108.717 335.664 109.325 334.688V336H110.317V330.96C110.317 328.96 109.181 327.536 107.005 327.536ZM106.445 335.296C105.213 335.296 104.253 334.608 104.253 333.504C104.253 332.432 105.325 331.664 106.701 331.664C107.629 331.664 108.541 331.84 109.325 332.08V333.408C109.005 334.688 107.597 335.296 106.445 335.296ZM113.875 329.424V327.728H112.883V336H113.875V331.376C113.875 329.664 115.203 328.448 117.075 328.448V327.536C115.555 327.536 114.339 328.304 113.875 329.424ZM122.435 335.28C120.739 335.28 119.475 333.968 119.299 332.256H126.291C126.291 329.408 124.819 327.536 122.371 327.536C120.131 327.536 118.291 329.392 118.291 331.84C118.291 334.32 120.227 336.192 122.435 336.192C123.651 336.192 125.107 335.68 125.811 334.912L125.187 334.24C124.611 334.864 123.475 335.28 122.435 335.28ZM122.403 328.448C124.147 328.448 125.171 329.68 125.299 331.344H119.315C119.523 329.632 120.787 328.448 122.403 328.448ZM136.56 334.928C136.336 335.136 135.984 335.28 135.6 335.28C135.056 335.28 134.608 334.784 134.608 334.08V328.64H136.688V327.728H134.608V325.456H133.616V327.728H132.272V328.64H133.616V334.08C133.616 335.312 134.416 336.192 135.536 336.192C136.08 336.192 136.64 336 137.072 335.664L136.56 334.928ZM142.611 336.192C144.931 336.192 146.883 334.208 146.883 331.856C146.883 329.504 144.931 327.536 142.611 327.536C140.291 327.536 138.323 329.504 138.323 331.856C138.323 334.208 140.291 336.192 142.611 336.192ZM142.611 335.28C140.835 335.28 139.363 333.728 139.363 331.856C139.363 330 140.835 328.448 142.611 328.448C144.371 328.448 145.843 330 145.843 331.856C145.843 333.728 144.371 335.28 142.611 335.28ZM152.704 336.192C155.024 336.192 156.976 334.208 156.976 331.856C156.976 329.504 155.024 327.536 152.704 327.536C150.384 327.536 148.416 329.504 148.416 331.856C148.416 334.208 150.384 336.192 152.704 336.192ZM152.704 335.28C150.928 335.28 149.456 333.728 149.456 331.856C149.456 330 150.928 328.448 152.704 328.448C154.464 328.448 155.936 330 155.936 331.856C155.936 333.728 154.464 335.28 152.704 335.28ZM166.527 336.192C168.191 336.192 169.503 335.216 169.503 333.808C169.503 332.368 168.319 331.84 166.799 331.36C165.183 330.832 164.543 330.496 164.543 329.744C164.543 328.944 165.391 328.448 166.399 328.448C167.167 328.448 168.031 328.72 168.863 329.232L169.359 328.464C168.479 327.888 167.407 327.536 166.399 327.536C164.799 327.536 163.551 328.48 163.551 329.856C163.551 331.024 164.335 331.648 166.319 332.224C167.631 332.624 168.511 333.008 168.511 333.904C168.511 334.704 167.663 335.28 166.527 335.28C165.599 335.28 164.591 334.912 163.631 334.224L163.103 334.96C164.079 335.744 165.359 336.192 166.527 336.192ZM180.289 327.536C179.009 327.536 177.921 328.24 177.569 329.328C177.137 328.24 176.177 327.536 174.929 327.536C173.793 327.536 172.881 328.08 172.481 328.944V327.728H171.489V336H172.481V330.688C172.481 329.376 173.441 328.448 174.801 328.448C176.001 328.448 176.833 329.424 176.833 330.816V336H177.825V330.688C177.825 329.376 178.785 328.448 180.145 328.448C181.345 328.448 182.193 329.424 182.193 330.816V336H183.185V330.688C183.185 328.848 181.985 327.536 180.289 327.536ZM188.926 327.536C188.11 327.536 187.086 327.76 185.998 328.336L186.398 329.152C187.15 328.736 188.014 328.416 188.846 328.416C190.702 328.416 191.246 329.744 191.246 330.96V331.296C190.366 331.008 189.374 330.8 188.478 330.8C186.622 330.8 185.198 331.92 185.198 333.552C185.198 335.152 186.478 336.192 188.206 336.192C189.326 336.192 190.638 335.664 191.246 334.688V336H192.238V330.96C192.238 328.96 191.102 327.536 188.926 327.536ZM188.366 335.296C187.134 335.296 186.174 334.608 186.174 333.504C186.174 332.432 187.246 331.664 188.622 331.664C189.55 331.664 190.462 331.84 191.246 332.08V333.408C190.926 334.688 189.518 335.296 188.366 335.296ZM194.693 336H195.685V324.816H194.693V336ZM198.114 336H199.106V324.816H198.114V336ZM207.889 326.592C207.889 325.888 208.337 325.392 208.881 325.392C209.281 325.392 209.617 325.52 209.841 325.744L210.353 325.008C209.905 324.672 209.377 324.48 208.817 324.48C207.697 324.48 206.897 325.36 206.897 326.592V327.728H205.553V328.64H206.897V336H207.889V328.64H210.017V327.728H207.889V326.592ZM215.579 336.192C217.899 336.192 219.851 334.208 219.851 331.856C219.851 329.504 217.899 327.536 215.579 327.536C213.259 327.536 211.291 329.504 211.291 331.856C211.291 334.208 213.259 336.192 215.579 336.192ZM215.579 335.28C213.803 335.28 212.331 333.728 212.331 331.856C212.331 330 213.803 328.448 215.579 328.448C217.339 328.448 218.811 330 218.811 331.856C218.811 333.728 217.339 335.28 215.579 335.28ZM222.937 329.424V327.728H221.945V336H222.937V331.376C222.937 329.664 224.265 328.448 226.137 328.448V327.536C224.617 327.536 223.401 328.304 222.937 329.424ZM234.155 326.592C234.155 325.888 234.603 325.392 235.147 325.392C235.547 325.392 235.883 325.52 236.107 325.744L236.619 325.008C236.171 324.672 235.643 324.48 235.083 324.48C233.963 324.48 233.163 325.36 233.163 326.592V327.728H231.819V328.64H233.163V336H234.155V328.64H236.283V327.728H234.155V326.592ZM238.485 326.112C238.869 326.112 239.173 325.808 239.173 325.424C239.173 325.056 238.869 324.736 238.485 324.736C238.101 324.736 237.797 325.056 237.797 325.424C237.797 325.808 238.101 326.112 238.485 326.112ZM237.989 336H238.981V327.728H237.989V336ZM245.124 327.536C243.908 327.536 242.852 328.176 242.404 329.088V327.728H241.412V336H242.404V330.736C242.404 329.456 243.54 328.448 244.996 328.448C246.308 328.448 247.236 329.424 247.236 330.816V336H248.228V330.688C248.228 328.848 246.948 327.536 245.124 327.536ZM257.093 327.728V329.296C256.453 328.176 255.333 327.536 253.941 327.536C251.797 327.536 250.197 329.216 250.197 331.456C250.197 333.712 251.797 335.392 253.941 335.392C255.317 335.392 256.453 334.736 257.093 333.616V335.12C257.093 336.8 255.893 337.84 254.005 337.84C252.965 337.84 251.893 337.456 251.221 336.848L250.773 337.648C251.525 338.288 252.821 338.752 254.117 338.752C256.453 338.752 258.085 337.248 258.085 335.12V327.728H257.093ZM254.117 334.48C252.469 334.48 251.221 333.184 251.221 331.456C251.221 329.744 252.469 328.448 254.117 328.448C255.845 328.448 257.093 329.696 257.093 331.456C257.093 333.232 255.845 334.48 254.117 334.48ZM264.326 335.28C262.63 335.28 261.366 333.968 261.19 332.256H268.182C268.182 329.408 266.71 327.536 264.262 327.536C262.022 327.536 260.182 329.392 260.182 331.84C260.182 334.32 262.118 336.192 264.326 336.192C265.542 336.192 266.998 335.68 267.702 334.912L267.078 334.24C266.502 334.864 265.366 335.28 264.326 335.28ZM264.294 328.448C266.038 328.448 267.062 329.68 267.19 331.344H261.206C261.414 329.632 262.678 328.448 264.294 328.448ZM271.25 329.424V327.728H270.258V336H271.25V331.376C271.25 329.664 272.578 328.448 274.45 328.448V327.536C272.93 327.536 271.714 328.304 271.25 329.424ZM279.042 336.192C280.706 336.192 282.018 335.216 282.018 333.808C282.018 332.368 280.834 331.84 279.314 331.36C277.698 330.832 277.058 330.496 277.058 329.744C277.058 328.944 277.906 328.448 278.914 328.448C279.682 328.448 280.546 328.72 281.378 329.232L281.874 328.464C280.994 327.888 279.922 327.536 278.914 327.536C277.314 327.536 276.066 328.48 276.066 329.856C276.066 331.024 276.85 331.648 278.834 332.224C280.146 332.624 281.026 333.008 281.026 333.904C281.026 334.704 280.178 335.28 279.042 335.28C278.114 335.28 277.106 334.912 276.146 334.224L275.618 334.96C276.594 335.744 277.874 336.192 279.042 336.192ZM284.709 336.192C285.109 336.192 285.429 335.856 285.429 335.44C285.429 335.056 285.109 334.72 284.709 334.72C284.277 334.72 283.957 335.056 283.957 335.44C283.957 335.856 284.277 336.192 284.709 336.192ZM288.378 328.704C289.226 327.632 289.514 327.04 289.514 326.416C289.514 325.792 289.194 325.344 288.698 325.344C288.25 325.344 287.946 325.68 287.946 326.064C287.946 326.48 288.266 326.816 288.682 326.816C288.554 327.296 288.282 327.808 287.85 328.304L288.378 328.704ZM291.466 328.704C292.314 327.632 292.602 327.04 292.602 326.416C292.602 325.792 292.282 325.344 291.786 325.344C291.338 325.344 291.034 325.68 291.034 326.064C291.034 326.48 291.354 326.816 291.77 326.816C291.642 327.296 291.37 327.808 290.938 328.304L291.466 328.704Z" fill="#2D2D2D"/>
<path d="M90.7884 251.192C93.0764 251.192 94.6124 249.864 94.6124 248.024C94.6124 246.44 93.3644 245.624 92.2444 245.368C93.3804 245.032 94.3724 244.2 94.3724 242.792C94.3724 241.032 92.8364 239.816 90.7404 239.816C89.0284 239.816 87.8124 240.648 86.9804 241.752L87.8124 242.504C88.5964 241.56 89.4604 240.952 90.6764 240.952C92.0524 240.952 93.1084 241.784 93.1084 242.936C93.1084 244.184 92.0044 244.888 90.5324 244.872L89.3484 244.856V246.008H90.5164C92.2444 246.008 93.3484 246.664 93.3484 247.96C93.3484 249.208 92.3244 250.056 90.7884 250.056C89.4444 250.056 88.3724 249.416 87.6524 248.488L86.7884 249.304C87.5884 250.36 88.9804 251.192 90.7884 251.192ZM96.3074 251H103.891V249.816H98.3074L101.187 247.32C103.043 245.72 103.779 244.536 103.779 243.048C103.779 241.08 102.179 239.816 100.275 239.816C98.5474 239.816 97.3154 240.632 96.4034 241.928L97.2834 242.648C98.0354 241.624 98.9474 240.936 100.227 240.936C101.395 240.936 102.515 241.72 102.515 243.064C102.515 244.152 101.875 245.208 100.323 246.536L96.3074 249.96V251ZM106.801 253.128C107.761 251.928 108.033 251.384 108.033 250.744C108.033 250.008 107.665 249.464 107.057 249.464C106.545 249.464 106.177 249.864 106.177 250.312C106.177 250.792 106.561 251.192 107.041 251.192C106.913 251.688 106.641 252.184 106.209 252.68L106.801 253.128ZM115.309 251H116.557V242.696L120.637 250.36L124.717 242.696V251H125.965V240.008H124.717L120.637 247.672L116.557 240.008H115.309V251ZM132.037 242.536C131.237 242.536 130.245 242.744 129.061 243.336L129.541 244.312C130.293 243.928 131.125 243.56 131.957 243.56C133.749 243.56 134.197 244.84 134.197 245.96V246.264C133.349 245.992 132.405 245.8 131.509 245.8C129.733 245.8 128.261 246.904 128.261 248.552C128.261 250.184 129.541 251.192 131.285 251.192C132.373 251.192 133.605 250.68 134.197 249.704V251H135.397V245.96C135.397 243.96 134.293 242.536 132.037 242.536ZM131.493 250.136C130.325 250.136 129.429 249.528 129.429 248.504C129.429 247.512 130.469 246.808 131.701 246.808C132.597 246.808 133.445 246.936 134.197 247.144V248.408C133.877 249.576 132.581 250.136 131.493 250.136ZM139.161 244.344V242.728H137.961V251H139.161V246.376C139.161 244.76 140.489 243.608 142.361 243.608V242.536C140.841 242.536 139.657 243.24 139.161 244.344ZM151.269 242.728H149.733L145.205 247.304V239.816H144.005V251H145.205V248.808L146.693 247.336L149.557 251H151.061L147.541 246.52L151.269 242.728ZM156.436 250.12C154.804 250.12 153.668 248.936 153.492 247.32H160.26C160.26 244.424 158.836 242.536 156.34 242.536C154.116 242.536 152.26 244.376 152.26 246.84C152.26 249.384 154.244 251.192 156.452 251.192C157.604 251.192 159.06 250.696 159.78 249.912L159.044 249.128C158.532 249.688 157.412 250.12 156.436 250.12ZM156.388 243.608C158.036 243.608 158.916 244.76 159.076 246.248H153.508C153.732 244.648 154.916 243.608 156.388 243.608ZM165.856 249.784C165.68 249.976 165.36 250.12 164.992 250.12C164.512 250.12 164.096 249.688 164.096 249.08V243.8H166.128V242.728H164.096V240.456H162.896V242.728H161.6V243.8H162.896V249.08C162.896 250.312 163.728 251.192 164.912 251.192C165.472 251.192 166.016 251 166.448 250.664L165.856 249.784ZM168.738 241.224C169.17 241.224 169.522 240.856 169.522 240.424C169.522 240.008 169.17 239.64 168.738 239.64C168.29 239.64 167.938 240.008 167.938 240.424C167.938 240.856 168.29 241.224 168.738 241.224ZM168.13 251H169.33V242.728H168.13V251ZM175.675 242.536C174.507 242.536 173.435 243.176 172.955 244.056V242.728H171.755V251H172.955V245.736C172.955 244.584 174.123 243.608 175.515 243.608C176.731 243.608 177.579 244.552 177.579 245.896V251H178.779V245.736C178.779 243.864 177.499 242.536 175.675 242.536ZM187.64 242.728V244.152C187 243.144 185.944 242.536 184.632 242.536C182.408 242.536 180.824 244.152 180.824 246.456C180.824 248.76 182.408 250.392 184.632 250.392C185.944 250.392 187 249.784 187.64 248.776V250.12C187.64 251.736 186.52 252.68 184.616 252.68C183.592 252.68 182.6 252.312 181.96 251.704L181.432 252.648C182.184 253.288 183.432 253.752 184.776 253.752C187.16 253.752 188.84 252.248 188.84 250.12V242.728H187.64ZM184.856 249.32C183.24 249.32 182.088 248.136 182.088 246.456C182.088 244.792 183.24 243.608 184.856 243.608C186.488 243.608 187.64 244.792 187.64 246.456C187.64 248.136 186.488 249.32 184.856 249.32ZM199.877 251.176C202.437 251.176 203.749 249.752 203.749 248.008C203.749 246.072 202.245 245.32 200.149 244.824C198.277 244.376 197.189 243.976 197.189 242.84C197.189 241.832 198.181 240.936 199.541 240.936C200.693 240.936 201.781 241.464 202.693 242.344L203.461 241.368C202.453 240.44 201.237 239.8 199.605 239.8C197.493 239.8 195.925 241.176 195.925 242.936C195.925 244.84 197.317 245.528 199.525 246.04C201.445 246.488 202.485 246.952 202.485 248.12C202.485 249.112 201.621 250.04 199.925 250.04C198.389 250.04 197.253 249.384 196.325 248.456L195.541 249.432C196.645 250.52 198.069 251.176 199.877 251.176ZM210.153 242.536C208.825 242.536 207.769 243.192 207.145 244.28V242.728H205.945V253.752H207.145V249.448C207.769 250.536 208.825 251.192 210.153 251.192C212.329 251.192 213.961 249.4 213.961 246.856C213.961 244.328 212.329 242.536 210.153 242.536ZM209.929 250.12C208.297 250.12 207.145 248.76 207.145 246.856C207.145 244.952 208.297 243.608 209.929 243.608C211.545 243.608 212.697 244.952 212.697 246.856C212.697 248.76 211.545 250.12 209.929 250.12ZM219.764 250.12C218.132 250.12 216.996 248.936 216.82 247.32H223.588C223.588 244.424 222.164 242.536 219.668 242.536C217.444 242.536 215.588 244.376 215.588 246.84C215.588 249.384 217.572 251.192 219.78 251.192C220.932 251.192 222.388 250.696 223.108 249.912L222.372 249.128C221.86 249.688 220.74 250.12 219.764 250.12ZM219.716 243.608C221.364 243.608 222.244 244.76 222.404 246.248H216.836C217.06 244.648 218.244 243.608 219.716 243.608ZM229.392 251.192C230.544 251.192 231.6 250.712 232.384 249.928L231.552 249.112C230.992 249.736 230.224 250.12 229.392 250.12C227.744 250.12 226.368 248.632 226.368 246.856C226.368 245.096 227.744 243.608 229.392 243.608C230.208 243.608 230.96 243.976 231.504 244.568L232.336 243.752C231.552 243 230.512 242.536 229.392 242.536C227.072 242.536 225.104 244.504 225.104 246.856C225.104 249.208 227.072 251.192 229.392 251.192ZM234.816 241.224C235.248 241.224 235.6 240.856 235.6 240.424C235.6 240.008 235.248 239.64 234.816 239.64C234.368 239.64 234.016 240.008 234.016 240.424C234.016 240.856 234.368 241.224 234.816 241.224ZM234.208 251H235.408V242.728H234.208V251ZM241.178 242.536C240.378 242.536 239.386 242.744 238.202 243.336L238.682 244.312C239.434 243.928 240.266 243.56 241.098 243.56C242.89 243.56 243.338 244.84 243.338 245.96V246.264C242.49 245.992 241.546 245.8 240.65 245.8C238.874 245.8 237.402 246.904 237.402 248.552C237.402 250.184 238.682 251.192 240.426 251.192C241.514 251.192 242.746 250.68 243.338 249.704V251H244.538V245.96C244.538 243.96 243.434 242.536 241.178 242.536ZM240.634 250.136C239.466 250.136 238.57 249.528 238.57 248.504C238.57 247.512 239.61 246.808 240.842 246.808C241.738 246.808 242.586 246.936 243.338 247.144V248.408C243.018 249.576 241.722 250.136 240.634 250.136ZM246.989 251H248.189V239.816H246.989V251ZM251.206 241.224C251.638 241.224 251.99 240.856 251.99 240.424C251.99 240.008 251.638 239.64 251.206 239.64C250.758 239.64 250.406 240.008 250.406 240.424C250.406 240.856 250.758 241.224 251.206 241.224ZM250.598 251H251.798V242.728H250.598V251ZM257.136 251.192C258.848 251.192 260.16 250.216 260.16 248.696C260.16 247.128 258.784 246.68 257.456 246.264C255.92 245.768 255.312 245.544 255.312 244.824C255.312 244.024 256.08 243.608 257.008 243.608C257.744 243.608 258.56 243.864 259.392 244.392L259.968 243.464C259.088 242.888 258.032 242.536 257.008 242.536C255.36 242.536 254.112 243.464 254.112 244.968C254.112 246.152 254.88 246.744 256.88 247.32C258 247.64 258.96 247.928 258.96 248.824C258.96 249.608 258.224 250.12 257.136 250.12C256.224 250.12 255.28 249.768 254.336 249.08L253.712 249.96C254.704 250.76 255.984 251.192 257.136 251.192ZM265.778 249.784C265.602 249.976 265.282 250.12 264.914 250.12C264.434 250.12 264.018 249.688 264.018 249.08V243.8H266.05V242.728H264.018V240.456H262.818V242.728H261.522V243.8H262.818V249.08C262.818 250.312 263.65 251.192 264.834 251.192C265.394 251.192 265.938 251 266.37 250.664L265.778 249.784Z" fill="#BF8427"/>
<path d="M142.153 227.288C146.185 227.288 148.561 225.2 148.561 222.056C148.561 219.008 146.209 217.952 142.657 217.16C140.113 216.584 139.129 216.2 139.129 215C139.129 214.016 140.041 213.224 141.553 213.224C143.137 213.224 144.793 213.872 146.257 215.048L148.105 212.504C146.425 211.064 144.337 210.224 141.649 210.224C138.049 210.224 135.553 212.312 135.553 215.36C135.553 218.552 138.025 219.536 141.505 220.328C144.025 220.904 144.985 221.264 144.985 222.44C144.985 223.472 144.073 224.288 142.297 224.288C140.209 224.288 138.433 223.472 136.873 222.128L134.833 224.552C136.753 226.328 139.297 227.288 142.153 227.288ZM156.549 214.304C154.821 214.304 153.117 214.784 151.365 215.672L152.541 218C153.525 217.496 154.605 217.112 155.757 217.112C157.797 217.112 158.613 218.264 158.613 219.584V219.824C157.557 219.416 156.453 219.2 155.445 219.2C152.565 219.2 150.285 220.88 150.285 223.328C150.285 225.704 152.325 227.288 154.965 227.288C156.309 227.288 157.725 226.76 158.613 225.752V227H161.997V219.584C161.997 216.344 159.789 214.304 156.549 214.304ZM155.757 224.864C154.557 224.864 153.669 224.24 153.669 223.232C153.669 222.224 154.677 221.48 155.949 221.48C156.909 221.48 157.821 221.648 158.613 221.936V223.088C158.373 224.24 157.101 224.864 155.757 224.864ZM172.126 214.304C170.518 214.304 169.126 215.024 168.382 216.152V214.592H164.878V227H168.382V219.584L168.406 219.656C168.406 218.312 169.534 217.256 170.998 217.256C172.39 217.256 173.35 218.312 173.35 219.848V227H176.734V219.104C176.734 216.296 174.814 214.304 172.126 214.304ZM188.956 210.224V216.368C187.972 215.072 186.532 214.304 184.78 214.304C181.468 214.304 179.068 216.992 179.068 220.784C179.068 224.6 181.468 227.288 184.78 227.288C186.532 227.288 187.972 226.52 188.956 225.224V227H192.46V210.224H188.956ZM185.788 224.336C183.844 224.336 182.476 222.872 182.476 220.784C182.476 218.72 183.844 217.256 185.788 217.256C187.636 217.256 188.956 218.72 188.956 220.784C188.956 222.872 187.636 224.336 185.788 224.336ZM199.04 216.896V214.592H195.536V227H199.04V221.072C199.04 218.744 200.696 217.256 203.288 217.256V214.304C201.392 214.304 199.856 215.288 199.04 216.896ZM210.853 214.304C209.125 214.304 207.421 214.784 205.669 215.672L206.845 218C207.829 217.496 208.909 217.112 210.061 217.112C212.101 217.112 212.917 218.264 212.917 219.584V219.824C211.861 219.416 210.757 219.2 209.749 219.2C206.869 219.2 204.589 220.88 204.589 223.328C204.589 225.704 206.629 227.288 209.269 227.288C210.613 227.288 212.029 226.76 212.917 225.752V227H216.301V219.584C216.301 216.344 214.093 214.304 210.853 214.304ZM210.061 224.864C208.861 224.864 207.973 224.24 207.973 223.232C207.973 222.224 208.981 221.48 210.253 221.48C211.213 221.48 212.125 221.648 212.917 221.936V223.088C212.677 224.24 211.405 224.864 210.061 224.864Z" fill="#BF8427"/>
<circle cx="177" cy="113" r="69.6" fill="#FFFAF1" stroke="#BF8427" stroke-width="0.8"/>
<circle cx="177" cy="113" r="62" fill="#FFEED5"/>
<mask id="mask0" mask-type="alpha" maskUnits="userSpaceOnUse" x="115" y="51" width="124" height="124">
<circle cx="177" cy="113" r="62" fill="#EFDAB9"/>
</mask>
<g mask="url(#mask0)">
<path d="M218.034 155.729C221.345 162.049 223 185.073 223 185.073H130C130 185.073 131.655 162.049 134.966 155.729C139.932 146.248 176.5 134.059 176.5 134.059C176.5 134.059 213.068 146.248 218.034 155.729Z" fill="url(#paint0_linear)"/>
<mask id="mask1" mask-type="alpha" maskUnits="userSpaceOnUse" x="130" y="134" width="93" height="52">
<path d="M218.034 155.729C221.345 162.049 223 185.073 223 185.073H130C130 185.073 131.655 162.049 134.966 155.729C139.932 146.248 176.5 134.059 176.5 134.059C176.5 134.059 213.068 146.248 218.034 155.729Z" fill="url(#paint1_linear)"/>
</mask>
<g mask="url(#mask1)">
<path d="M218.937 181.01C218.937 180.475 219.096 179.951 219.393 179.505C219.691 179.06 220.114 178.713 220.609 178.508C221.104 178.303 221.649 178.249 222.174 178.354C222.699 178.458 223.182 178.716 223.561 179.095C223.94 179.474 224.198 179.956 224.302 180.482C224.407 181.007 224.353 181.552 224.148 182.047C223.943 182.542 223.596 182.965 223.15 183.263C222.705 183.56 222.181 183.719 221.646 183.719C220.927 183.719 220.238 183.434 219.73 182.926C219.222 182.418 218.937 181.729 218.937 181.01ZM200.879 181.01C200.879 180.475 201.037 179.951 201.335 179.505C201.633 179.06 202.056 178.713 202.551 178.508C203.046 178.303 203.59 178.249 204.116 178.354C204.641 178.458 205.124 178.716 205.503 179.095C205.881 179.474 206.139 179.956 206.244 180.482C206.348 181.007 206.295 181.552 206.09 182.047C205.885 182.542 205.538 182.965 205.092 183.263C204.647 183.56 204.123 183.719 203.587 183.719C202.869 183.719 202.18 183.434 201.672 182.926C201.164 182.418 200.879 181.729 200.879 181.01ZM182.82 181.01C182.82 180.475 182.979 179.951 183.277 179.505C183.574 179.06 183.997 178.713 184.492 178.508C184.987 178.303 185.532 178.249 186.057 178.354C186.583 178.458 187.066 178.716 187.444 179.095C187.823 179.474 188.081 179.956 188.186 180.482C188.29 181.007 188.237 181.552 188.032 182.047C187.827 182.542 187.479 182.965 187.034 183.263C186.588 183.56 186.065 183.719 185.529 183.719C184.811 183.719 184.122 183.434 183.614 182.926C183.106 182.418 182.82 181.729 182.82 181.01ZM164.762 181.01C164.762 180.475 164.921 179.951 165.219 179.505C165.516 179.06 165.939 178.713 166.434 178.508C166.929 178.303 167.474 178.249 167.999 178.354C168.525 178.458 169.007 178.716 169.386 179.095C169.765 179.474 170.023 179.956 170.127 180.482C170.232 181.007 170.178 181.552 169.973 182.047C169.768 182.542 169.421 182.965 168.976 183.263C168.53 183.56 168.006 183.719 167.471 183.719C166.752 183.719 166.063 183.434 165.555 182.926C165.047 182.418 164.762 181.729 164.762 181.01ZM146.704 181.01C146.704 180.475 146.863 179.951 147.16 179.505C147.458 179.06 147.881 178.713 148.376 178.508C148.871 178.303 149.416 178.249 149.941 178.354C150.466 178.458 150.949 178.716 151.328 179.095C151.707 179.474 151.965 179.956 152.069 180.482C152.174 181.007 152.12 181.552 151.915 182.047C151.71 182.542 151.363 182.965 150.917 183.263C150.472 183.56 149.948 183.719 149.413 183.719C148.694 183.719 148.005 183.434 147.497 182.926C146.989 182.418 146.704 181.729 146.704 181.01ZM128.646 181.01C128.646 180.475 128.804 179.951 129.102 179.505C129.4 179.06 129.823 178.713 130.318 178.508C130.813 178.303 131.357 178.249 131.883 178.354C132.408 178.458 132.891 178.716 133.27 179.095C133.648 179.474 133.906 179.956 134.011 180.482C134.115 181.007 134.062 181.552 133.857 182.047C133.652 182.542 133.305 182.965 132.859 183.263C132.414 183.56 131.89 183.719 131.354 183.719C130.636 183.719 129.947 183.434 129.439 182.926C128.931 182.418 128.646 181.729 128.646 181.01V181.01ZM209.908 171.981C209.908 171.445 210.067 170.922 210.364 170.476C210.662 170.031 211.085 169.684 211.58 169.479C212.075 169.274 212.619 169.22 213.145 169.325C213.67 169.429 214.153 169.687 214.532 170.066C214.911 170.445 215.169 170.927 215.273 171.453C215.378 171.978 215.324 172.523 215.119 173.018C214.914 173.513 214.567 173.936 214.121 174.233C213.676 174.531 213.152 174.69 212.616 174.69C211.898 174.69 211.209 174.405 210.701 173.897C210.193 173.389 209.908 172.7 209.908 171.981ZM191.849 171.981C191.849 171.445 192.008 170.922 192.306 170.476C192.604 170.031 193.027 169.684 193.522 169.479C194.017 169.274 194.561 169.22 195.087 169.325C195.612 169.429 196.095 169.687 196.474 170.066C196.852 170.445 197.11 170.927 197.215 171.453C197.319 171.978 197.266 172.523 197.061 173.018C196.856 173.513 196.508 173.936 196.063 174.233C195.618 174.531 195.094 174.69 194.558 174.69C193.84 174.69 193.151 174.405 192.643 173.897C192.135 173.389 191.849 172.7 191.849 171.981ZM173.791 171.981C173.791 171.445 173.95 170.922 174.248 170.476C174.545 170.031 174.968 169.684 175.463 169.479C175.958 169.274 176.503 169.22 177.028 169.325C177.554 169.429 178.036 169.687 178.415 170.066C178.794 170.445 179.052 170.927 179.157 171.453C179.261 171.978 179.207 172.523 179.002 173.018C178.797 173.513 178.45 173.936 178.005 174.233C177.559 174.531 177.036 174.69 176.5 174.69C175.781 174.69 175.093 174.405 174.585 173.897C174.077 173.389 173.791 172.7 173.791 171.981ZM155.733 171.981C155.733 171.445 155.892 170.922 156.189 170.476C156.487 170.031 156.91 169.684 157.405 169.479C157.9 169.274 158.445 169.22 158.97 169.325C159.496 169.429 159.978 169.687 160.357 170.066C160.736 170.445 160.994 170.927 161.098 171.453C161.203 171.978 161.149 172.523 160.944 173.018C160.739 173.513 160.392 173.936 159.947 174.233C159.501 174.531 158.977 174.69 158.442 174.69C157.723 174.69 157.034 174.405 156.526 173.897C156.018 173.389 155.733 172.7 155.733 171.981ZM137.675 171.981C137.675 171.445 137.833 170.922 138.131 170.476C138.429 170.031 138.852 169.684 139.347 169.479C139.842 169.274 140.386 169.22 140.912 169.325C141.437 169.429 141.92 169.687 142.299 170.066C142.678 170.445 142.936 170.927 143.04 171.453C143.145 171.978 143.091 172.523 142.886 173.018C142.681 173.513 142.334 173.936 141.888 174.233C141.443 174.531 140.919 174.69 140.383 174.69C139.665 174.69 138.976 174.405 138.468 173.897C137.96 173.389 137.675 172.7 137.675 171.981ZM218.937 162.952C218.937 162.416 219.096 161.893 219.393 161.447C219.691 161.002 220.114 160.655 220.609 160.45C221.104 160.245 221.649 160.191 222.174 160.295C222.699 160.4 223.182 160.658 223.561 161.037C223.94 161.416 224.198 161.898 224.302 162.424C224.407 162.949 224.353 163.494 224.148 163.989C223.943 164.484 223.596 164.907 223.15 165.204C222.705 165.502 222.181 165.661 221.646 165.661C220.927 165.661 220.238 165.375 219.73 164.867C219.222 164.359 218.937 163.67 218.937 162.952ZM200.879 162.952C200.879 162.416 201.037 161.893 201.335 161.447C201.633 161.002 202.056 160.655 202.551 160.45C203.046 160.245 203.59 160.191 204.116 160.295C204.641 160.4 205.124 160.658 205.503 161.037C205.881 161.416 206.139 161.898 206.244 162.424C206.348 162.949 206.295 163.494 206.09 163.989C205.885 164.484 205.538 164.907 205.092 165.204C204.647 165.502 204.123 165.661 203.587 165.661C202.869 165.661 202.18 165.375 201.672 164.867C201.164 164.359 200.879 163.67 200.879 162.952ZM182.82 162.952C182.82 162.416 182.979 161.893 183.277 161.447C183.574 161.002 183.997 160.655 184.492 160.45C184.987 160.245 185.532 160.191 186.057 160.295C186.583 160.4 187.066 160.658 187.444 161.037C187.823 161.416 188.081 161.898 188.186 162.424C188.29 162.949 188.237 163.494 188.032 163.989C187.827 164.484 187.479 164.907 187.034 165.204C186.588 165.502 186.065 165.661 185.529 165.661C184.811 165.661 184.122 165.375 183.614 164.867C183.106 164.359 182.82 163.67 182.82 162.952ZM164.762 162.952C164.762 162.416 164.921 161.893 165.219 161.447C165.516 161.002 165.939 160.655 166.434 160.45C166.929 160.245 167.474 160.191 167.999 160.295C168.525 160.4 169.007 160.658 169.386 161.037C169.765 161.416 170.023 161.898 170.127 162.424C170.232 162.949 170.178 163.494 169.973 163.989C169.768 164.484 169.421 164.907 168.976 165.204C168.53 165.502 168.006 165.661 167.471 165.661C166.752 165.661 166.063 165.375 165.555 164.867C165.047 164.359 164.762 163.67 164.762 162.952ZM146.704 162.952C146.704 162.416 146.863 161.893 147.16 161.447C147.458 161.002 147.881 160.655 148.376 160.45C148.871 160.245 149.416 160.191 149.941 160.295C150.466 160.4 150.949 160.658 151.328 161.037C151.707 161.416 151.965 161.898 152.069 162.424C152.174 162.949 152.12 163.494 151.915 163.989C151.71 164.484 151.363 164.907 150.917 165.204C150.472 165.502 149.948 165.661 149.413 165.661C148.694 165.661 148.005 165.375 147.497 164.867C146.989 164.359 146.704 163.67 146.704 162.952ZM128.646 162.952C128.646 162.416 128.804 161.893 129.102 161.447C129.4 161.002 129.823 160.655 130.318 160.45C130.813 160.245 131.357 160.191 131.883 160.295C132.408 160.4 132.891 160.658 133.27 161.037C133.648 161.416 133.906 161.898 134.011 162.424C134.115 162.949 134.062 163.494 133.857 163.989C133.652 164.484 133.305 164.907 132.859 165.204C132.414 165.502 131.89 165.661 131.354 165.661C130.636 165.661 129.947 165.375 129.439 164.867C128.931 164.359 128.646 163.67 128.646 162.952V162.952ZM209.908 153.923C209.908 153.387 210.067 152.864 210.364 152.418C210.662 151.973 211.085 151.625 211.58 151.42C212.075 151.215 212.619 151.162 213.145 151.266C213.67 151.371 214.153 151.629 214.532 152.008C214.911 152.386 215.169 152.869 215.273 153.395C215.378 153.92 215.324 154.465 215.119 154.96C214.914 155.455 214.567 155.878 214.121 156.175C213.676 156.473 213.152 156.632 212.616 156.632C211.898 156.632 211.209 156.346 210.701 155.838C210.193 155.33 209.908 154.641 209.908 153.923ZM191.849 153.923C191.849 153.387 192.008 152.864 192.306 152.418C192.604 151.973 193.027 151.625 193.522 151.42C194.017 151.215 194.561 151.162 195.087 151.266C195.612 151.371 196.095 151.629 196.474 152.008C196.852 152.386 197.11 152.869 197.215 153.395C197.319 153.92 197.266 154.465 197.061 154.96C196.856 155.455 196.508 155.878 196.063 156.175C195.618 156.473 195.094 156.632 194.558 156.632C193.84 156.632 193.151 156.346 192.643 155.838C192.135 155.33 191.849 154.641 191.849 153.923ZM173.791 153.923C173.791 153.387 173.95 152.864 174.248 152.418C174.545 151.973 174.968 151.625 175.463 151.42C175.958 151.215 176.503 151.162 177.028 151.266C177.554 151.371 178.036 151.629 178.415 152.008C178.794 152.386 179.052 152.869 179.157 153.395C179.261 153.92 179.207 154.465 179.002 154.96C178.797 155.455 178.45 155.878 178.005 156.175C177.559 156.473 177.036 156.632 176.5 156.632C175.781 156.632 175.093 156.346 174.585 155.838C174.077 155.33 173.791 154.641 173.791 153.923ZM155.733 153.923C155.733 153.387 155.892 152.864 156.189 152.418C156.487 151.973 156.91 151.625 157.405 151.42C157.9 151.215 158.445 151.162 158.97 151.266C159.496 151.371 159.978 151.629 160.357 152.008C160.736 152.386 160.994 152.869 161.098 153.395C161.203 153.92 161.149 154.465 160.944 154.96C160.739 155.455 160.392 155.878 159.947 156.175C159.501 156.473 158.977 156.632 158.442 156.632C157.723 156.632 157.034 156.346 156.526 155.838C156.018 155.33 155.733 154.641 155.733 153.923ZM137.675 153.923C137.675 153.387 137.833 152.864 138.131 152.418C138.429 151.973 138.852 151.625 139.347 151.42C139.842 151.215 140.386 151.162 140.912 151.266C141.437 151.371 141.92 151.629 142.299 152.008C142.678 152.386 142.936 152.869 143.04 153.395C143.145 153.92 143.091 154.465 142.886 154.96C142.681 155.455 142.334 155.878 141.888 156.175C141.443 156.473 140.919 156.632 140.383 156.632C139.665 156.632 138.976 156.346 138.468 155.838C137.96 155.33 137.675 154.641 137.675 153.923ZM218.937 144.894C218.937 144.358 219.096 143.834 219.393 143.389C219.691 142.943 220.114 142.596 220.609 142.391C221.104 142.186 221.649 142.133 222.174 142.237C222.699 142.342 223.182 142.6 223.561 142.978C223.94 143.357 224.198 143.84 224.302 144.365C224.407 144.891 224.353 145.435 224.148 145.93C223.943 146.425 223.596 146.848 223.15 147.146C222.705 147.444 222.181 147.603 221.646 147.603C220.927 147.603 220.238 147.317 219.73 146.809C219.222 146.301 218.937 145.612 218.937 144.894ZM200.879 144.894C200.879 144.358 201.037 143.834 201.335 143.389C201.633 142.943 202.056 142.596 202.551 142.391C203.046 142.186 203.59 142.133 204.116 142.237C204.641 142.342 205.124 142.6 205.503 142.978C205.881 143.357 206.139 143.84 206.244 144.365C206.348 144.891 206.295 145.435 206.09 145.93C205.885 146.425 205.538 146.848 205.092 147.146C204.647 147.444 204.123 147.603 203.587 147.603C202.869 147.603 202.18 147.317 201.672 146.809C201.164 146.301 200.879 145.612 200.879 144.894ZM146.704 144.894C146.704 144.358 146.863 143.834 147.16 143.389C147.458 142.943 147.881 142.596 148.376 142.391C148.871 142.186 149.416 142.133 149.941 142.237C150.466 142.342 150.949 142.6 151.328 142.978C151.707 143.357 151.965 143.84 152.069 144.365C152.174 144.891 152.12 145.435 151.915 145.93C151.71 146.425 151.363 146.848 150.917 147.146C150.472 147.444 149.948 147.603 149.413 147.603C148.694 147.603 148.005 147.317 147.497 146.809C146.989 146.301 146.704 145.612 146.704 144.894ZM128.646 144.894C128.646 144.358 128.804 143.834 129.102 143.389C129.4 142.943 129.823 142.596 130.318 142.391C130.813 142.186 131.357 142.133 131.883 142.237C132.408 142.342 132.891 142.6 133.27 142.978C133.648 143.357 133.906 143.84 134.011 144.365C134.115 144.891 134.062 145.435 133.857 145.93C133.652 146.425 133.305 146.848 132.859 147.146C132.414 147.444 131.89 147.603 131.354 147.603C130.636 147.603 129.947 147.317 129.439 146.809C128.931 146.301 128.646 145.612 128.646 144.894V144.894Z" fill="#FFA573"/>
</g>
<path d="M181.404 69.8166C179.598 61.9161 188.161 55.8535 196.979 60.0155C217.746 69.8166 205.393 83.4957 197.718 82.5928C190.043 81.6899 183.21 77.7171 181.404 69.8166Z" fill="url(#paint2_linear)"/>
<path opacity="0.6" d="M188.915 71.0807C188.915 71.0807 204.265 81.0128 208.102 75.5953C208.498 77.8575 206.677 84.2474 203.813 84.173C195.246 83.9499 188.915 71.0807 188.915 71.0807Z" fill="black"/>
<path d="M186.432 119.612C176.733 124.272 175.318 124.022 153.927 106.52C121.648 80.1098 152.121 55.9569 184.852 68.8234C220.291 84.3986 208.418 109.051 186.432 119.612Z" fill="url(#paint3_linear)"/>
<path d="M187.336 138.122C184.025 143.539 168.976 143.539 165.666 138.122V129.093C165.666 129.093 164.193 129.138 163.183 129.093C152.623 128.641 149.094 111.654 150.751 94.6639C151.965 82.2209 162.505 99.2968 179.661 87.3332C178.984 100.425 184.627 99.071 187.11 97.4909C198.396 92.2992 198.491 113.582 187.336 111.938V138.122Z" fill="url(#paint4_linear)"/>
<path d="M165.666 129.091C171.759 128.638 180.844 122.274 180.844 122.274C180.844 122.274 176.498 131.571 165.667 133.152L165.666 129.091Z" fill="#DB6F3D"/>
<path d="M187.335 136.975V134.059C188.163 134.059 190.534 136.015 191.753 137.671C196.573 144.217 191.227 150.086 186.866 150.086C181.365 150.086 177.719 145.489 176.5 143.278C175.281 145.49 171.635 150.086 166.134 150.086C161.773 150.086 156.427 144.217 161.247 137.671C162.466 136.015 164.837 134.059 165.665 134.059V136.975C165.665 140.428 173.222 142.026 176.485 142.174C179.574 142.026 187.335 140.428 187.335 136.975Z" fill="white"/>
</g>
<defs>
<linearGradient id="paint0_linear" x1="212.491" y1="177.523" x2="176.749" y2="116.85" gradientUnits="userSpaceOnUse">
<stop stop-color="#E2834C"/>
<stop offset="1" stop-color="#DF6638"/>
</linearGradient>
<linearGradient id="paint1_linear" x1="212.491" y1="177.523" x2="176.749" y2="116.85" gradientUnits="userSpaceOnUse">
<stop stop-color="#E2834C"/>
<stop offset="1" stop-color="#DF6638"/>
</linearGradient>
<linearGradient id="paint2_linear" x1="194.793" y1="58.6635" x2="194.793" y2="82.6353" gradientUnits="userSpaceOnUse">
<stop stop-color="#1D0024"/>
<stop offset="1" stop-color="#100014"/>
</linearGradient>
<linearGradient id="paint3_linear" x1="173.766" y1="65.2602" x2="173.766" y2="122.178" gradientUnits="userSpaceOnUse">
<stop stop-color="#1D0024"/>
<stop offset="1" stop-color="#100014"/>
</linearGradient>
<linearGradient id="paint4_linear" x1="173" y1="87.3332" x2="173" y2="142.185" gradientUnits="userSpaceOnUse">
<stop stop-color="#E6864E"/>
<stop offset="1" stop-color="#EB965E"/>
</linearGradient>
</defs>
</svg>
