<svg width="900" height="220" viewBox="0 0 900 220" fill="none" xmlns="http://www.w3.org/2000/svg">
<rect x="690" width="210" height="220" fill="#FAFAFA"/>
<g clip-path="url(#clip0)">
<path d="M816.188 124.1H816.287V124V118.1H819.088V131.5C819.082 135.585 815.773 138.895 811.687 138.9H778.688C776.078 138.895 773.665 137.521 772.327 135.286L774.752 133.886C775.587 135.257 777.077 136.098 778.687 136.1H778.688H811.688C814.228 136.1 816.287 134.04 816.287 131.5V127V126.9H816.188H789.288V124.1H816.188Z" fill="black" stroke="#FAFAFA" stroke-width="0.2"/>
<path d="M793.788 130.1H796.587V132.9H793.788V130.1Z" fill="black" stroke="#FAFAFA" stroke-width="0.2"/>
<path d="M798.111 86.6H802.588V89.4H798.108H798.015L798.008 89.4926C797.304 99.0336 789.721 106.622 780.18 107.331L780.087 107.338V107.431V111.9H777.288V107.431V107.338L777.195 107.331C767.654 106.622 760.071 99.0336 759.367 89.4926L759.36 89.4H759.267H754.788V86.6H759.264H759.356L759.363 86.5077C759.927 79.2443 764.506 72.9071 771.226 70.0922L771.288 70.0665V70V56.5001C771.293 52.4149 774.602 49.1051 778.688 49.1L811.688 49.1C813.456 49.0993 815.166 49.7328 816.507 50.8843L814.654 52.9847C813.825 52.2848 812.774 51.9 811.688 51.9H778.688C776.147 51.9 774.087 53.9597 774.087 56.5V58V58.1H774.188H798.088V60.9H774.188H774.087V61V69.0442V69.1706L774.211 69.1415C775.192 68.909 776.19 68.7531 777.195 68.6759L777.288 68.6688V68.5762V64.1H780.087V68.5762V68.6687L780.18 68.6759C789.703 69.4198 797.268 76.9848 798.012 86.5078L798.019 86.6H798.111ZM777.288 104.431V101.6H780.087V104.436V104.545L780.197 104.535C782.302 104.344 784.351 103.751 786.233 102.789L786.288 102.761V102.7V100C786.288 95.8029 782.885 92.4 778.688 92.4C774.49 92.4 771.087 95.8029 771.087 100V102.7V102.761L771.142 102.789C773.025 103.75 775.073 104.341 777.179 104.531L777.288 104.541V104.431ZM795.108 89.4H792.287V86.6H795.111H795.221L795.211 86.4908C794.473 78.5239 788.164 72.2142 780.197 71.4766L780.087 71.4665V71.5762V74.4H777.288V71.5762V71.4665L777.178 71.4766C769.211 72.2142 762.902 78.5239 762.164 86.4908L762.154 86.6H762.264H765.087V89.4H762.267H762.158L762.168 89.509C762.545 93.6929 764.494 97.5776 767.621 100.382L767.621 100.382C767.728 100.478 767.843 100.569 767.955 100.658C768.013 100.703 768.07 100.748 768.124 100.793L768.288 100.927V100.716V100C768.291 96.119 770.456 92.5628 773.902 90.7768L774.035 90.7079L773.92 90.6115C771.543 88.609 770.67 85.334 771.736 82.4144C772.802 79.4942 775.579 77.5517 778.688 77.5517C781.796 77.5517 784.573 79.4942 785.639 82.4144C786.705 85.334 785.832 88.609 783.455 90.6115L783.34 90.7079L783.473 90.7768C786.919 92.5628 789.084 96.119 789.088 100V100.708V100.923L789.252 100.785C789.315 100.732 789.38 100.681 789.446 100.63C789.464 100.616 789.482 100.601 789.5 100.587C789.529 100.564 789.558 100.541 789.587 100.518V100.532L789.754 100.382C792.881 97.5776 794.83 93.6929 795.207 89.509L795.217 89.4H795.108ZM778.688 80.4C776.147 80.4 774.087 82.4597 774.087 85C774.087 87.5403 776.147 89.6 778.688 89.6C781.228 89.6 783.288 87.5403 783.288 85C783.288 82.4597 781.228 80.4 778.688 80.4Z" fill="black" stroke="#FAFAFA" stroke-width="0.2"/>
<path d="M804.187 57.9H804.087V58V73V73.1H804.187H834.187H834.287V73V58V57.9H834.187H804.187ZM837.087 74.5C837.087 75.2731 836.461 75.9 835.687 75.9H802.687C801.914 75.9 801.288 75.2731 801.288 74.5V56.5C801.288 55.7269 801.914 55.1 802.687 55.1H835.687C836.461 55.1 837.087 55.7269 837.087 56.5V74.5Z" fill="black" stroke="#FAFAFA" stroke-width="0.2"/>
<path d="M807.288 61.1H813.088V63.9H807.288V61.1Z" fill="black" stroke="#FAFAFA" stroke-width="0.2"/>
<path d="M816.288 61.1H831.087V63.9H816.288V61.1Z" fill="black" stroke="#FAFAFA" stroke-width="0.2"/>
<path d="M807.288 67.1H831.087V69.9H807.288V67.1Z" fill="black" stroke="#FAFAFA" stroke-width="0.2"/>
<path d="M832.338 80.2747L832.339 80.2745C833.188 79.5195 834.285 79.1022 835.422 79.1C837.256 79.1 838.919 80.1742 839.674 81.8456L839.674 81.8456C840.429 83.517 840.134 85.4753 838.921 86.8506C838.921 86.8506 838.921 86.8506 838.921 86.8506L817.582 111.034L817.559 111.06L817.557 111.094C817.243 116.593 812.696 120.893 807.187 120.9H796.687H796.687C796.037 120.901 795.473 120.454 795.324 119.821C795.175 119.189 795.48 118.537 796.062 118.247C797.43 117.57 798.293 116.172 798.287 114.646V112C798.294 106.492 802.594 101.945 808.093 101.63L808.128 101.628L808.154 101.605L816.687 94.075L816.885 93.9H816.621H816.287V79.1H819.087V91.7354V91.9568L819.253 91.8104L832.338 80.2747ZM807.187 118.1H807.187C811.147 118.096 814.442 115.055 814.763 111.108L814.767 111.062L814.734 111.029L808.158 104.453L808.126 104.421L808.079 104.424C804.132 104.746 801.093 108.04 801.087 112V112V114.646L801.087 114.646C801.09 115.802 800.798 116.94 800.24 117.952L800.158 118.1H800.327H807.187ZM836.821 84.9988L836.822 84.9986C837.47 84.2595 837.434 83.1443 836.739 82.4486L836.739 82.4485C836.043 81.7536 834.928 81.7172 834.189 82.3658L834.189 82.3659L810.811 102.994L810.731 103.064L810.807 103.14L816.049 108.381L816.125 108.456L816.195 108.376L836.821 84.9988Z" fill="black" stroke="#FAFAFA" stroke-width="0.2"/>
<path d="M774.087 116.5V116.6H774.187H784.687C785.461 116.6 786.087 117.227 786.087 118V130C786.087 130.773 785.461 131.4 784.687 131.4H751.687C750.914 131.4 750.288 130.773 750.288 130V118C750.288 117.227 750.914 116.6 751.687 116.6H771.187H771.287V116.5V109.1H774.087V116.5ZM753.187 119.4H753.087V119.5V128.5V128.6H753.187H783.187H783.287V128.5V119.5V119.4H783.187H753.187Z" fill="black" stroke="#FAFAFA" stroke-width="0.2"/>
<path d="M756.288 122.6H763.588V125.4H756.288V122.6Z" fill="black" stroke="#FAFAFA" stroke-width="0.2"/>
<path d="M766.788 122.6H780.087V125.4H766.788V122.6Z" fill="black" stroke="#FAFAFA" stroke-width="0.2"/>
<path d="M753.188 57.9H753.088V58V67V67.1H753.188H765.188H765.288V67V58V57.9H765.188H753.188ZM766.688 69.9H751.688C750.914 69.9 750.288 69.2731 750.288 68.5V56.5C750.288 55.7269 750.914 55.1 751.688 55.1H766.688C767.461 55.1 768.087 55.7269 768.087 56.5V68.5C768.087 69.2731 767.461 69.9 766.688 69.9Z" fill="black" stroke="#FAFAFA" stroke-width="0.2"/>
<path d="M756.288 61.1H762.088V63.9H756.288V61.1Z" fill="black" stroke="#FAFAFA" stroke-width="0.2"/>
</g>
<rect x="460" width="210" height="220" fill="#FAFAFA"/>
<rect x="230" width="210" height="220" fill="#FAFAFA"/>
<rect width="210" height="220" fill="#FAFAFA"/>
<path d="M765.389 187H766.637V176.008H765.389V187ZM775.586 175.816V180.28C774.962 179.192 773.906 178.536 772.578 178.536C770.402 178.536 768.77 180.328 768.77 182.856C768.77 185.4 770.402 187.192 772.578 187.192C773.906 187.192 774.962 186.536 775.586 185.448V187H776.786V175.816H775.586ZM772.802 186.12C771.186 186.12 770.034 184.76 770.034 182.856C770.034 180.952 771.186 179.608 772.802 179.608C774.434 179.608 775.586 180.952 775.586 182.856C775.586 184.76 774.434 186.12 772.802 186.12ZM783.053 186.12C781.421 186.12 780.285 184.936 780.109 183.32H786.877C786.877 180.424 785.453 178.536 782.957 178.536C780.733 178.536 778.877 180.376 778.877 182.84C778.877 185.384 780.861 187.192 783.069 187.192C784.221 187.192 785.677 186.696 786.397 185.912L785.661 185.128C785.149 185.688 784.029 186.12 783.053 186.12ZM783.005 179.608C784.653 179.608 785.533 180.76 785.693 182.248H780.125C780.349 180.648 781.533 179.608 783.005 179.608ZM792.201 178.536C791.401 178.536 790.409 178.744 789.225 179.336L789.705 180.312C790.457 179.928 791.289 179.56 792.121 179.56C793.913 179.56 794.361 180.84 794.361 181.96V182.264C793.513 181.992 792.569 181.8 791.673 181.8C789.897 181.8 788.425 182.904 788.425 184.552C788.425 186.184 789.705 187.192 791.449 187.192C792.537 187.192 793.769 186.68 794.361 185.704V187H795.561V181.96C795.561 179.96 794.457 178.536 792.201 178.536ZM791.657 186.136C790.489 186.136 789.593 185.528 789.593 184.504C789.593 183.512 790.633 182.808 791.865 182.808C792.761 182.808 793.609 182.936 794.361 183.144V184.408C794.041 185.576 792.745 186.136 791.657 186.136ZM801.645 185.784C801.469 185.976 801.149 186.12 800.781 186.12C800.301 186.12 799.885 185.688 799.885 185.08V179.8H801.917V178.728H799.885V176.456H798.685V178.728H797.389V179.8H798.685V185.08C798.685 186.312 799.517 187.192 800.701 187.192C801.261 187.192 801.805 187 802.237 186.664L801.645 185.784ZM804.527 177.224C804.959 177.224 805.311 176.856 805.311 176.424C805.311 176.008 804.959 175.64 804.527 175.64C804.079 175.64 803.727 176.008 803.727 176.424C803.727 176.856 804.079 177.224 804.527 177.224ZM803.919 187H805.119V178.728H803.919V187ZM811.369 187.192C813.689 187.192 815.641 185.208 815.641 182.856C815.641 180.504 813.689 178.536 811.369 178.536C809.049 178.536 807.081 180.504 807.081 182.856C807.081 185.208 809.049 187.192 811.369 187.192ZM811.369 186.12C809.721 186.12 808.345 184.632 808.345 182.856C808.345 181.096 809.721 179.608 811.369 179.608C813.001 179.608 814.377 181.096 814.377 182.856C814.377 184.632 813.001 186.12 811.369 186.12ZM821.558 178.536C820.39 178.536 819.318 179.176 818.838 180.056V178.728H817.638V187H818.838V181.736C818.838 180.584 820.006 179.608 821.398 179.608C822.614 179.608 823.462 180.552 823.462 181.896V187H824.662V181.736C824.662 179.864 823.382 178.536 821.558 178.536Z" fill="#2D2D2D"/>
<path d="M517.336 172.392H520.488V175.016C519.672 175.64 518.488 176.04 517.464 176.04C515.096 176.04 513.096 173.96 513.096 171.496C513.096 169.048 515.096 166.968 517.464 166.968C518.664 166.968 520.088 167.512 520.888 168.36L521.736 167.496C520.712 166.456 518.984 165.816 517.464 165.816C514.424 165.816 511.832 168.408 511.832 171.496C511.832 174.584 514.424 177.192 517.464 177.192C518.984 177.192 520.712 176.536 521.736 175.512V171.208H517.336V172.392ZM527.866 176.12C526.234 176.12 525.098 174.936 524.922 173.32H531.69C531.69 170.424 530.266 168.536 527.77 168.536C525.546 168.536 523.69 170.376 523.69 172.84C523.69 175.384 525.674 177.192 527.882 177.192C529.034 177.192 530.49 176.696 531.21 175.912L530.474 175.128C529.962 175.688 528.842 176.12 527.866 176.12ZM527.818 169.608C529.466 169.608 530.346 170.76 530.506 172.248H524.938C525.162 170.648 526.346 169.608 527.818 169.608ZM537.59 168.536C536.422 168.536 535.35 169.176 534.87 170.056V168.728H533.67V177H534.87V171.736C534.87 170.584 536.038 169.608 537.43 169.608C538.646 169.608 539.494 170.552 539.494 171.896V177H540.694V171.736C540.694 169.864 539.414 168.536 537.59 168.536ZM546.85 176.12C545.218 176.12 544.082 174.936 543.906 173.32H550.674C550.674 170.424 549.25 168.536 546.754 168.536C544.53 168.536 542.674 170.376 542.674 172.84C542.674 175.384 544.658 177.192 546.866 177.192C548.018 177.192 549.474 176.696 550.194 175.912L549.458 175.128C548.946 175.688 547.826 176.12 546.85 176.12ZM546.802 169.608C548.45 169.608 549.33 170.76 549.49 172.248H543.922C544.146 170.648 545.33 169.608 546.802 169.608ZM553.95 170.344V168.728H552.75V177H553.95V172.376C553.95 170.76 555.278 169.608 557.15 169.608V168.536C555.63 168.536 554.446 169.24 553.95 170.344ZM562.17 168.536C561.37 168.536 560.378 168.744 559.194 169.336L559.674 170.312C560.426 169.928 561.258 169.56 562.09 169.56C563.882 169.56 564.33 170.84 564.33 171.96V172.264C563.482 171.992 562.538 171.8 561.642 171.8C559.866 171.8 558.394 172.904 558.394 174.552C558.394 176.184 559.674 177.192 561.418 177.192C562.506 177.192 563.738 176.68 564.33 175.704V177H565.53V171.96C565.53 169.96 564.426 168.536 562.17 168.536ZM561.626 176.136C560.458 176.136 559.562 175.528 559.562 174.504C559.562 173.512 560.602 172.808 561.834 172.808C562.73 172.808 563.578 172.936 564.33 173.144V174.408C564.01 175.576 562.714 176.136 561.626 176.136ZM571.614 175.784C571.438 175.976 571.118 176.12 570.75 176.12C570.27 176.12 569.854 175.688 569.854 175.08V169.8H571.886V168.728H569.854V166.456H568.654V168.728H567.358V169.8H568.654V175.08C568.654 176.312 569.486 177.192 570.67 177.192C571.23 177.192 571.774 177 572.206 176.664L571.614 175.784ZM574.496 167.224C574.928 167.224 575.28 166.856 575.28 166.424C575.28 166.008 574.928 165.64 574.496 165.64C574.048 165.64 573.696 166.008 573.696 166.424C573.696 166.856 574.048 167.224 574.496 167.224ZM573.888 177H575.088V168.728H573.888V177ZM581.337 177.192C583.657 177.192 585.609 175.208 585.609 172.856C585.609 170.504 583.657 168.536 581.337 168.536C579.017 168.536 577.049 170.504 577.049 172.856C577.049 175.208 579.017 177.192 581.337 177.192ZM581.337 176.12C579.689 176.12 578.313 174.632 578.313 172.856C578.313 171.096 579.689 169.608 581.337 169.608C582.969 169.608 584.345 171.096 584.345 172.856C584.345 174.632 582.969 176.12 581.337 176.12ZM591.527 168.536C590.359 168.536 589.287 169.176 588.807 170.056V168.728H587.607V177H588.807V171.736C588.807 170.584 589.975 169.608 591.367 169.608C592.583 169.608 593.431 170.552 593.431 171.896V177H594.631V171.736C594.631 169.864 593.351 168.536 591.527 168.536ZM606.948 177.192C610.004 177.192 612.564 174.584 612.564 171.496C612.564 168.408 610.004 165.816 606.948 165.816C603.908 165.816 601.316 168.408 601.316 171.496C601.316 174.584 603.908 177.192 606.948 177.192ZM606.948 176.04C604.58 176.04 602.58 173.96 602.58 171.496C602.58 169.048 604.58 166.968 606.948 166.968C609.316 166.968 611.3 169.048 611.3 171.496C611.3 173.96 609.316 176.04 606.948 176.04ZM616.479 167.592C616.479 166.984 616.895 166.552 617.375 166.552C617.743 166.552 618.063 166.696 618.239 166.888L618.831 166.008C618.399 165.672 617.855 165.48 617.295 165.48C616.111 165.48 615.279 166.36 615.279 167.592V168.728H613.983V169.8H615.279V177H616.479V169.8H618.511V168.728H616.479V167.592ZM537.123 197H538.371V186.008H537.123V197ZM544.793 188.536C543.625 188.536 542.553 189.176 542.073 190.056V188.728H540.873V197H542.073V191.736C542.073 190.584 543.241 189.608 544.633 189.608C545.849 189.608 546.697 190.552 546.697 191.896V197H547.897V191.736C547.897 189.864 546.617 188.536 544.793 188.536ZM553.253 197.192C554.965 197.192 556.277 196.216 556.277 194.696C556.277 193.128 554.901 192.68 553.573 192.264C552.037 191.768 551.429 191.544 551.429 190.824C551.429 190.024 552.197 189.608 553.125 189.608C553.861 189.608 554.677 189.864 555.509 190.392L556.085 189.464C555.205 188.888 554.149 188.536 553.125 188.536C551.477 188.536 550.229 189.464 550.229 190.968C550.229 192.152 550.997 192.744 552.997 193.32C554.117 193.64 555.077 193.928 555.077 194.824C555.077 195.608 554.341 196.12 553.253 196.12C552.341 196.12 551.397 195.768 550.453 195.08L549.829 195.96C550.821 196.76 552.101 197.192 553.253 197.192ZM558.855 187.224C559.287 187.224 559.639 186.856 559.639 186.424C559.639 186.008 559.287 185.64 558.855 185.64C558.407 185.64 558.055 186.008 558.055 186.424C558.055 186.856 558.407 187.224 558.855 187.224ZM558.247 197H559.447V188.728H558.247V197ZM568.289 188.728V190.152C567.649 189.144 566.593 188.536 565.281 188.536C563.057 188.536 561.473 190.152 561.473 192.456C561.473 194.76 563.057 196.392 565.281 196.392C566.593 196.392 567.649 195.784 568.289 194.776V196.12C568.289 197.736 567.169 198.68 565.265 198.68C564.241 198.68 563.249 198.312 562.609 197.704L562.081 198.648C562.833 199.288 564.081 199.752 565.425 199.752C567.809 199.752 569.489 198.248 569.489 196.12V188.728H568.289ZM565.505 195.32C563.889 195.32 562.737 194.136 562.737 192.456C562.737 190.792 563.889 189.608 565.505 189.608C567.137 189.608 568.289 190.792 568.289 192.456C568.289 194.136 567.137 195.32 565.505 195.32ZM575.965 188.536C574.797 188.536 573.725 189.176 573.245 190.056V185.816H572.045V197H573.245V191.736C573.245 190.584 574.413 189.608 575.805 189.608C577.021 189.608 577.869 190.552 577.869 191.896V197H579.069V191.736C579.069 189.864 577.789 188.536 575.965 188.536ZM585.129 195.784C584.953 195.976 584.633 196.12 584.265 196.12C583.785 196.12 583.369 195.688 583.369 195.08V189.8H585.401V188.728H583.369V186.456H582.169V188.728H580.873V189.8H582.169V195.08C582.169 196.312 583.001 197.192 584.185 197.192C584.745 197.192 585.289 197 585.721 196.664L585.129 195.784ZM590.347 197.192C592.059 197.192 593.371 196.216 593.371 194.696C593.371 193.128 591.995 192.68 590.667 192.264C589.131 191.768 588.523 191.544 588.523 190.824C588.523 190.024 589.291 189.608 590.219 189.608C590.955 189.608 591.771 189.864 592.603 190.392L593.179 189.464C592.299 188.888 591.243 188.536 590.219 188.536C588.571 188.536 587.323 189.464 587.323 190.968C587.323 192.152 588.091 192.744 590.091 193.32C591.211 193.64 592.171 193.928 592.171 194.824C592.171 195.608 591.435 196.12 590.347 196.12C589.435 196.12 588.491 195.768 587.547 195.08L586.923 195.96C587.915 196.76 589.195 197.192 590.347 197.192Z" fill="#2D2D2D"/>
<path d="M295.322 177.176C297.882 177.176 299.194 175.752 299.194 174.008C299.194 172.072 297.69 171.32 295.594 170.824C293.722 170.376 292.634 169.976 292.634 168.84C292.634 167.832 293.626 166.936 294.986 166.936C296.138 166.936 297.226 167.464 298.138 168.344L298.906 167.368C297.898 166.44 296.682 165.8 295.05 165.8C292.938 165.8 291.37 167.176 291.37 168.936C291.37 170.84 292.762 171.528 294.97 172.04C296.89 172.488 297.93 172.952 297.93 174.12C297.93 175.112 297.066 176.04 295.37 176.04C293.834 176.04 292.698 175.384 291.77 174.456L290.986 175.432C292.09 176.52 293.514 177.176 295.322 177.176ZM302.511 179.88C303.647 179.864 304.447 179.336 305.023 177.928L308.799 168.728H307.503L304.766 175.608L301.871 168.728H300.543L304.143 177.032L303.663 178.056C303.343 178.616 302.991 178.792 302.463 178.792C302.111 178.792 301.775 178.728 301.487 178.584L301.199 179.608C301.583 179.784 302.031 179.88 302.511 179.88ZM314.699 168.536C313.531 168.536 312.459 169.176 311.979 170.056V168.728H310.779V177H311.979V171.736C311.979 170.584 313.147 169.608 314.539 169.608C315.755 169.608 316.603 170.552 316.603 171.896V177H317.803V171.736C317.803 169.864 316.523 168.536 314.699 168.536ZM323.864 175.784C323.688 175.976 323.368 176.12 323 176.12C322.52 176.12 322.104 175.688 322.104 175.08V169.8H324.136V168.728H322.104V166.456H320.904V168.728H319.608V169.8H320.904V175.08C320.904 176.312 321.736 177.192 322.92 177.192C323.48 177.192 324.024 177 324.456 176.664L323.864 175.784ZM330.09 168.536C328.922 168.536 327.85 169.176 327.37 170.056V165.816H326.17V177H327.37V171.736C327.37 170.584 328.538 169.608 329.93 169.608C331.146 169.608 331.994 170.552 331.994 171.896V177H333.194V171.736C333.194 169.864 331.914 168.536 330.09 168.536ZM339.35 176.12C337.718 176.12 336.582 174.936 336.406 173.32H343.174C343.174 170.424 341.75 168.536 339.254 168.536C337.03 168.536 335.174 170.376 335.174 172.84C335.174 175.384 337.158 177.192 339.366 177.192C340.518 177.192 341.974 176.696 342.694 175.912L341.958 175.128C341.446 175.688 340.326 176.12 339.35 176.12ZM339.302 169.608C340.95 169.608 341.83 170.76 341.99 172.248H336.422C336.646 170.648 337.83 169.608 339.302 169.608ZM348.066 177.192C349.778 177.192 351.09 176.216 351.09 174.696C351.09 173.128 349.714 172.68 348.386 172.264C346.85 171.768 346.242 171.544 346.242 170.824C346.242 170.024 347.01 169.608 347.938 169.608C348.674 169.608 349.49 169.864 350.322 170.392L350.898 169.464C350.018 168.888 348.962 168.536 347.938 168.536C346.29 168.536 345.042 169.464 345.042 170.968C345.042 172.152 345.81 172.744 347.81 173.32C348.93 173.64 349.89 173.928 349.89 174.824C349.89 175.608 349.154 176.12 348.066 176.12C347.154 176.12 346.21 175.768 345.266 175.08L344.642 175.96C345.634 176.76 346.914 177.192 348.066 177.192ZM353.667 167.224C354.099 167.224 354.451 166.856 354.451 166.424C354.451 166.008 354.099 165.64 353.667 165.64C353.219 165.64 352.867 166.008 352.867 166.424C352.867 166.856 353.219 167.224 353.667 167.224ZM353.059 177H354.259V168.728H353.059V177ZM359.597 177.192C361.309 177.192 362.621 176.216 362.621 174.696C362.621 173.128 361.245 172.68 359.917 172.264C358.381 171.768 357.773 171.544 357.773 170.824C357.773 170.024 358.541 169.608 359.469 169.608C360.205 169.608 361.021 169.864 361.853 170.392L362.429 169.464C361.549 168.888 360.493 168.536 359.469 168.536C357.821 168.536 356.573 169.464 356.573 170.968C356.573 172.152 357.341 172.744 359.341 173.32C360.461 173.64 361.421 173.928 361.421 174.824C361.421 175.608 360.685 176.12 359.597 176.12C358.685 176.12 357.741 175.768 356.797 175.08L356.173 175.96C357.165 176.76 358.445 177.192 359.597 177.192ZM378.079 176.584L376.255 174.728C376.815 173.928 377.311 172.968 377.775 171.944L376.735 171.48C376.399 172.392 375.967 173.224 375.487 173.944C374.495 172.904 373.727 172.072 372.975 171.192C374.543 170.568 375.663 169.88 375.663 168.424C375.663 167.048 374.543 165.88 373.071 165.88C371.423 165.88 370.271 167.016 370.271 168.456C370.271 169.272 370.575 170.008 371.199 170.872C369.503 171.624 368.687 172.664 368.687 174.088C368.687 176.008 370.191 177.192 372.143 177.192C373.503 177.192 374.591 176.6 375.503 175.656L376.943 177.112L378.079 176.584ZM373.071 166.952C373.887 166.952 374.463 167.608 374.463 168.456C374.463 169.368 373.807 169.848 372.335 170.424C371.743 169.672 371.471 169.032 371.471 168.456C371.471 167.512 372.159 166.952 373.071 166.952ZM372.191 176.12C370.943 176.12 369.887 175.352 369.887 174.056C369.887 173.032 370.623 172.232 371.823 171.672C372.591 172.6 373.423 173.512 374.735 174.872C373.999 175.656 373.151 176.12 372.191 176.12ZM313.06 197H314.42L309.572 186.008H308.212L303.364 197H304.724L305.828 194.504H311.956L313.06 197ZM306.34 193.32L308.9 187.544L311.444 193.32H306.34ZM320.082 188.536C318.914 188.536 317.842 189.176 317.362 190.056V188.728H316.162V197H317.362V191.736C317.362 190.584 318.53 189.608 319.922 189.608C321.138 189.608 321.986 190.552 321.986 191.896V197H323.186V191.736C323.186 189.864 321.906 188.536 320.082 188.536ZM328.974 188.536C328.174 188.536 327.182 188.744 325.998 189.336L326.478 190.312C327.23 189.928 328.062 189.56 328.894 189.56C330.686 189.56 331.134 190.84 331.134 191.96V192.264C330.286 191.992 329.342 191.8 328.446 191.8C326.67 191.8 325.198 192.904 325.198 194.552C325.198 196.184 326.478 197.192 328.222 197.192C329.31 197.192 330.542 196.68 331.134 195.704V197H332.334V191.96C332.334 189.96 331.23 188.536 328.974 188.536ZM328.43 196.136C327.262 196.136 326.366 195.528 326.366 194.504C326.366 193.512 327.406 192.808 328.638 192.808C329.534 192.808 330.382 192.936 331.134 193.144V194.408C330.814 195.576 329.518 196.136 328.43 196.136ZM334.786 197H335.986V185.816H334.786V197ZM339.643 199.88C340.779 199.864 341.579 199.336 342.155 197.928L345.931 188.728H344.635L341.899 195.608L339.003 188.728H337.675L341.275 197.032L340.795 198.056C340.475 198.616 340.123 198.792 339.595 198.792C339.243 198.792 338.907 198.728 338.619 198.584L338.331 199.608C338.715 199.784 339.163 199.88 339.643 199.88ZM350.824 197.192C352.536 197.192 353.848 196.216 353.848 194.696C353.848 193.128 352.472 192.68 351.144 192.264C349.608 191.768 349 191.544 349 190.824C349 190.024 349.768 189.608 350.696 189.608C351.432 189.608 352.248 189.864 353.08 190.392L353.656 189.464C352.776 188.888 351.72 188.536 350.696 188.536C349.048 188.536 347.8 189.464 347.8 190.968C347.8 192.152 348.568 192.744 350.568 193.32C351.688 193.64 352.648 193.928 352.648 194.824C352.648 195.608 351.912 196.12 350.824 196.12C349.912 196.12 348.968 195.768 348.024 195.08L347.4 195.96C348.392 196.76 349.672 197.192 350.824 197.192ZM356.425 187.224C356.857 187.224 357.209 186.856 357.209 186.424C357.209 186.008 356.857 185.64 356.425 185.64C355.977 185.64 355.625 186.008 355.625 186.424C355.625 186.856 355.977 187.224 356.425 187.224ZM355.817 197H357.017V188.728H355.817V197ZM362.355 197.192C364.067 197.192 365.379 196.216 365.379 194.696C365.379 193.128 364.003 192.68 362.675 192.264C361.139 191.768 360.531 191.544 360.531 190.824C360.531 190.024 361.299 189.608 362.227 189.608C362.963 189.608 363.779 189.864 364.611 190.392L365.187 189.464C364.307 188.888 363.251 188.536 362.227 188.536C360.579 188.536 359.331 189.464 359.331 190.968C359.331 192.152 360.099 192.744 362.099 193.32C363.219 193.64 364.179 193.928 364.179 194.824C364.179 195.608 363.443 196.12 362.355 196.12C361.443 196.12 360.499 195.768 359.555 195.08L358.931 195.96C359.923 196.76 361.203 197.192 362.355 197.192Z" fill="#2D2D2D"/>
<path d="M62.0227 187.192C64.7107 187.192 66.6147 185.224 66.6147 182.44V176.008H65.3667V182.44C65.3667 184.552 63.9747 186.056 62.0227 186.056C60.0707 186.056 58.6787 184.552 58.6787 182.44V176.008H57.4307V182.44C57.4307 185.224 59.3347 187.192 62.0227 187.192ZM72.1362 187.192C73.8482 187.192 75.1602 186.216 75.1602 184.696C75.1602 183.128 73.7842 182.68 72.4562 182.264C70.9202 181.768 70.3122 181.544 70.3122 180.824C70.3122 180.024 71.0802 179.608 72.0082 179.608C72.7442 179.608 73.5602 179.864 74.3922 180.392L74.9682 179.464C74.0882 178.888 73.0322 178.536 72.0082 178.536C70.3602 178.536 69.1122 179.464 69.1122 180.968C69.1122 182.152 69.8802 182.744 71.8802 183.32C73.0002 183.64 73.9602 183.928 73.9602 184.824C73.9602 185.608 73.2242 186.12 72.1362 186.12C71.2242 186.12 70.2802 185.768 69.3362 185.08L68.7122 185.96C69.7042 186.76 70.9842 187.192 72.1362 187.192ZM80.8737 186.12C79.2417 186.12 78.1057 184.936 77.9297 183.32H84.6977C84.6977 180.424 83.2737 178.536 80.7777 178.536C78.5537 178.536 76.6977 180.376 76.6977 182.84C76.6977 185.384 78.6817 187.192 80.8897 187.192C82.0417 187.192 83.4977 186.696 84.2177 185.912L83.4817 185.128C82.9697 185.688 81.8497 186.12 80.8737 186.12ZM80.8257 179.608C82.4737 179.608 83.3537 180.76 83.5137 182.248H77.9457C78.1697 180.648 79.3537 179.608 80.8257 179.608ZM87.9733 180.344V178.728H86.7733V187H87.9733V182.376C87.9733 180.76 89.3013 179.608 91.1733 179.608V178.536C89.6533 178.536 88.4693 179.24 87.9733 180.344ZM100.674 187H101.922V177.192H105.618V176.008H96.9778V177.192H100.674V187ZM111.28 186.12C109.648 186.12 108.512 184.936 108.336 183.32H115.104C115.104 180.424 113.68 178.536 111.184 178.536C108.96 178.536 107.104 180.376 107.104 182.84C107.104 185.384 109.088 187.192 111.296 187.192C112.448 187.192 113.904 186.696 114.624 185.912L113.888 185.128C113.376 185.688 112.256 186.12 111.28 186.12ZM111.232 179.608C112.88 179.608 113.76 180.76 113.92 182.248H108.352C108.576 180.648 109.76 179.608 111.232 179.608ZM119.996 187.192C121.708 187.192 123.02 186.216 123.02 184.696C123.02 183.128 121.644 182.68 120.316 182.264C118.78 181.768 118.172 181.544 118.172 180.824C118.172 180.024 118.94 179.608 119.868 179.608C120.604 179.608 121.42 179.864 122.252 180.392L122.828 179.464C121.948 178.888 120.892 178.536 119.868 178.536C118.22 178.536 116.972 179.464 116.972 180.968C116.972 182.152 117.74 182.744 119.74 183.32C120.86 183.64 121.82 183.928 121.82 184.824C121.82 185.608 121.084 186.12 119.996 186.12C119.084 186.12 118.14 185.768 117.196 185.08L116.572 185.96C117.564 186.76 118.844 187.192 119.996 187.192ZM128.637 185.784C128.461 185.976 128.141 186.12 127.773 186.12C127.293 186.12 126.877 185.688 126.877 185.08V179.8H128.909V178.728H126.877V176.456H125.677V178.728H124.381V179.8H125.677V185.08C125.677 186.312 126.509 187.192 127.693 187.192C128.253 187.192 128.797 187 129.229 186.664L128.637 185.784ZM131.519 177.224C131.951 177.224 132.303 176.856 132.303 176.424C132.303 176.008 131.951 175.64 131.519 175.64C131.071 175.64 130.719 176.008 130.719 176.424C130.719 176.856 131.071 177.224 131.519 177.224ZM130.911 187H132.111V178.728H130.911V187ZM138.457 178.536C137.289 178.536 136.217 179.176 135.737 180.056V178.728H134.537V187H135.737V181.736C135.737 180.584 136.905 179.608 138.297 179.608C139.513 179.608 140.361 180.552 140.361 181.896V187H141.561V181.736C141.561 179.864 140.281 178.536 138.457 178.536ZM150.421 178.728V180.152C149.781 179.144 148.725 178.536 147.413 178.536C145.189 178.536 143.605 180.152 143.605 182.456C143.605 184.76 145.189 186.392 147.413 186.392C148.725 186.392 149.781 185.784 150.421 184.776V186.12C150.421 187.736 149.301 188.68 147.397 188.68C146.373 188.68 145.381 188.312 144.741 187.704L144.213 188.648C144.965 189.288 146.213 189.752 147.557 189.752C149.941 189.752 151.621 188.248 151.621 186.12V178.728H150.421ZM147.637 185.32C146.021 185.32 144.869 184.136 144.869 182.456C144.869 180.792 146.021 179.608 147.637 179.608C149.269 179.608 150.421 180.792 150.421 182.456C150.421 184.136 149.269 185.32 147.637 185.32Z" fill="#2D2D2D"/>
<path d="M250.424 110.424C250.659 110.19 250.659 109.81 250.424 109.576L246.606 105.757C246.372 105.523 245.992 105.523 245.757 105.757C245.523 105.992 245.523 106.372 245.757 106.606L249.151 110L245.757 113.394C245.523 113.628 245.523 114.008 245.757 114.243C245.992 114.477 246.372 114.477 246.606 114.243L250.424 110.424ZM190 110.6H250V109.4H190V110.6Z" fill="black"/>
<path d="M343.979 68.894L344.022 68.8343L343.978 68.7756C343.405 68.016 343.065 67.0721 343.065 66.05C343.065 63.5474 345.101 61.5111 347.604 61.5111C350.106 61.5111 352.143 63.5474 352.143 66.05C352.143 68.5525 350.106 70.5887 347.604 70.5887C347.111 70.5887 346.636 70.5084 346.191 70.3625L346.121 70.3396L346.078 70.3993L338.457 81.0499L338.414 81.1096L338.458 81.1682C339.031 81.9279 339.371 82.872 339.371 83.8942C339.371 86.3968 337.335 88.4331 334.832 88.4331C332.329 88.4331 330.293 86.3968 330.293 83.8942C330.293 83.567 330.329 83.2478 330.395 82.9398L330.41 82.8681L330.347 82.8318L325.267 79.9492L325.203 79.913L325.149 79.9629C324.338 80.7178 323.252 81.1808 322.06 81.1808C320.867 81.1808 319.781 80.7178 318.97 79.9628L318.917 79.9128L318.853 79.949L313.773 82.8316L313.709 82.8679L313.724 82.9397C313.791 83.2476 313.826 83.5668 313.826 83.894C313.826 86.3966 311.79 88.4329 309.288 88.4329C306.785 88.4329 304.749 86.3966 304.749 83.894C304.749 81.3915 306.785 79.3552 309.288 79.3552C310.48 79.3552 311.566 79.818 312.377 80.573L312.431 80.623L312.494 80.5868L317.574 77.7041L317.638 77.6679L317.623 77.5961C317.557 77.2882 317.521 76.969 317.521 76.6417C317.521 74.1392 319.557 72.1031 322.06 72.1031C324.562 72.1031 326.598 74.1392 326.598 76.6417C326.598 76.969 326.563 77.2882 326.497 77.5961L326.481 77.6679L326.545 77.7041L331.625 80.5868L331.689 80.623L331.743 80.573C332.554 79.818 333.639 79.355 334.832 79.355C335.325 79.355 335.8 79.4352 336.245 79.5814L336.315 79.6043L336.357 79.5446L343.979 68.894ZM349.559 66.05C349.559 64.9715 348.682 64.0943 347.604 64.0943C346.525 64.0943 345.648 64.9715 345.648 66.05C345.648 67.1283 346.526 68.0055 347.604 68.0055C348.682 68.0055 349.559 67.1283 349.559 66.05ZM307.332 83.8937C307.332 84.9722 308.209 85.8493 309.287 85.8493C310.365 85.8493 311.243 84.9722 311.243 83.8937C311.243 82.8151 310.365 81.938 309.287 81.938C308.209 81.938 307.332 82.8151 307.332 83.8937ZM320.104 76.6416C320.104 77.7201 320.981 78.5972 322.059 78.5972C323.138 78.5972 324.015 77.7201 324.015 76.6416C324.015 75.5632 323.138 74.6861 322.059 74.6861C320.981 74.6861 320.104 75.5632 320.104 76.6416ZM332.876 83.8937C332.876 84.9722 333.753 85.8493 334.832 85.8493C335.91 85.8493 336.787 84.9722 336.787 83.8937C336.787 82.8151 335.91 81.938 334.832 81.938C333.753 81.938 332.876 82.8151 332.876 83.8937Z" fill="black" stroke="#FAFAFA" stroke-width="0.2"/>
<path d="M300.632 118.728V118.628H300.532H290.936C288.821 118.628 287.1 116.907 287.1 114.791V57.3797C287.1 55.2644 288.821 53.5434 290.936 53.5434H297.497C298.21 53.5434 298.788 54.1215 298.788 54.835C298.788 55.5484 298.21 56.1266 297.497 56.1266H290.936C290.245 56.1266 289.683 56.6886 289.683 57.3797V114.791C289.683 115.483 290.245 116.045 290.936 116.045H301.923H354.968H364.706C365.42 116.045 365.998 116.623 365.998 117.336C365.998 118.05 365.42 118.628 364.706 118.628H356.359H356.259V118.728V121.79C356.259 123.48 354.885 124.855 353.195 124.855H339.265H339.102L339.176 125L345.734 137.803L345.823 137.757L345.734 137.803C346.059 138.438 345.808 139.216 345.173 139.541C344.984 139.637 344.783 139.683 344.585 139.683C344.116 139.683 343.663 139.427 343.435 138.98L336.227 124.909L336.2 124.855H336.138H320.752H320.691L320.663 124.909L313.456 138.98L313.538 139.022L313.456 138.98C313.228 139.427 312.775 139.683 312.306 139.683C312.108 139.683 311.906 139.638 311.718 139.541L311.675 139.624L311.718 139.541C311.083 139.216 310.832 138.438 311.157 137.803L317.714 125L317.789 124.855H317.625H303.696C302.006 124.855 300.632 123.48 300.632 121.79V118.728ZM303.315 118.628H303.215V118.728V121.79C303.215 122.056 303.43 122.271 303.696 122.271H353.195C353.46 122.271 353.676 122.056 353.676 121.79V118.728V118.628H353.576H303.315Z" fill="black" stroke="#FAFAFA" stroke-width="0.2"/>
<path d="M336.069 53.4434V53.5434H336.169H365.954C368.07 53.5434 369.791 55.2645 369.791 57.3798V70.6113C369.791 71.3248 369.212 71.9029 368.499 71.9029C367.786 71.9029 367.207 71.3248 367.207 70.6113V57.3798C367.207 56.6887 366.645 56.1266 365.954 56.1266H334.777H322.113H303.063C302.35 56.1266 301.771 55.5485 301.771 54.835C301.771 54.1215 302.35 53.5434 303.063 53.5434H320.722H320.822V53.4434V50.708C320.822 48.8382 322.343 47.3168 324.213 47.3168H332.678C334.548 47.3168 336.069 48.8382 336.069 50.708V53.4434ZM323.405 50.708V50.808H323.405V53.4434V53.5434H323.505H333.386H333.486V53.4434V50.708C333.486 50.2624 333.123 49.9 332.678 49.9H324.213C323.768 49.9 323.405 50.2624 323.405 50.708Z" fill="black" stroke="#FAFAFA" stroke-width="0.2"/>
<path d="M307.756 107.944V108.044H307.856H310.718V107.944H310.818V98.4309V98.3309H310.718H307.856H307.756V98.4309V107.944ZM305.173 97.0391C305.173 96.3256 305.751 95.7475 306.464 95.7475H312.11C312.823 95.7475 313.401 96.3256 313.401 97.0391V109.336C313.401 110.049 312.823 110.627 312.11 110.627H306.464C305.751 110.627 305.173 110.049 305.173 109.336V97.0391Z" fill="black" stroke="#FAFAFA" stroke-width="0.2"/>
<path d="M323.491 108.045H323.591V107.945V91.3193V91.2193H323.491H320.628H320.528V91.3193V107.945V108.045H320.628H323.491ZM317.945 89.9277C317.945 89.2143 318.523 88.6361 319.236 88.6361H324.882C325.595 88.6361 326.174 89.2143 326.174 89.9277V109.336C326.174 110.05 325.595 110.628 324.882 110.628H319.236C318.523 110.628 317.945 110.05 317.945 109.336V89.9277Z" fill="black" stroke="#FAFAFA" stroke-width="0.2"/>
<path d="M336.263 108.044H336.363V107.944V98.4309V98.3309H336.263H333.4H333.3V98.4309V107.944V108.044H333.4H336.263ZM330.717 97.0391C330.717 96.3256 331.295 95.7475 332.009 95.7475H337.654C338.368 95.7475 338.946 96.3256 338.946 97.0391V109.336C338.946 110.049 338.368 110.627 337.654 110.627H332.009C331.295 110.627 330.717 110.049 330.717 109.336V97.0391Z" fill="black" stroke="#FAFAFA" stroke-width="0.2"/>
<path d="M346.073 107.945V108.045H346.173H350.427C351.14 108.045 351.718 108.623 351.718 109.336C351.718 110.05 351.14 110.628 350.427 110.628H344.781C344.068 110.628 343.489 110.05 343.489 109.336V105.251C343.489 104.537 344.068 103.959 344.781 103.959C345.494 103.959 346.073 104.537 346.073 105.251V107.945Z" fill="black" stroke="#FAFAFA" stroke-width="0.2"/>
<path d="M373.234 103.357L373.183 103.411L373.22 103.475L381.204 117.303C381.659 118.093 381.9 118.989 381.9 119.896C381.9 121.745 380.905 123.469 379.304 124.393C378.488 124.864 377.597 125.087 376.718 125.087C374.922 125.087 373.174 124.156 372.214 122.493L364.233 108.665L364.195 108.601L364.123 108.618C362.788 108.93 361.423 109.088 360.05 109.088C358.478 109.088 356.897 108.882 355.338 108.464C350.671 107.213 346.771 104.22 344.355 100.036C339.368 91.3981 342.338 80.3133 350.976 75.3265C359.614 70.3397 370.698 73.3093 375.685 81.9475L375.763 81.9027L375.685 81.9475C378.101 86.132 378.743 91.0063 377.492 95.6733C376.71 98.5936 375.245 101.213 373.234 103.357ZM356.007 105.969L356.032 105.876L356.007 105.969C360.007 107.04 364.186 106.49 367.773 104.42C371.359 102.349 373.925 99.0052 374.997 95.0048C376.069 91.0044 375.519 86.8256 373.448 83.2391L373.379 83.2788L373.448 83.2391C370.579 78.2705 365.356 75.4894 359.994 75.4894C357.365 75.4894 354.703 76.1573 352.267 77.5635L352.313 77.6425L352.267 77.5635C344.863 81.8385 342.317 91.3399 346.592 98.7443L346.664 98.7024L346.592 98.7443C348.663 102.331 352.007 104.897 356.007 105.969ZM366.821 107.755L366.715 107.798L366.772 107.898L374.452 121.202C375.17 122.447 376.768 122.875 378.013 122.156C378.817 121.691 379.317 120.825 379.317 119.896C379.317 119.442 379.196 118.992 378.966 118.595L378.966 118.595L371.285 105.29L371.227 105.19L371.137 105.261C370.483 105.768 369.793 106.236 369.065 106.657C368.336 107.077 367.587 107.443 366.821 107.755Z" fill="black" stroke="#FAFAFA" stroke-width="0.2"/>
<path d="M369.552 86.5156L369.552 86.5156C369.247 85.8703 369.524 85.1009 370.169 84.7968C370.815 84.4928 371.584 84.7694 371.888 85.4148C373.285 88.3794 373.517 91.7417 372.542 94.8826C371.561 98.0418 369.443 100.693 366.576 102.347L366.626 102.434L366.576 102.347C364.556 103.514 362.313 104.11 360.041 104.11C358.903 104.11 357.756 103.96 356.626 103.657C353.243 102.751 350.416 100.581 348.664 97.5477C346.913 94.5144 346.448 90.981 347.354 87.5978C348.261 84.2145 350.43 81.3871 353.464 79.6358C358.041 76.9931 363.722 77.3461 367.938 80.5357L367.938 80.5357C368.507 80.9661 368.619 81.7762 368.188 82.345L368.264 82.4021L368.188 82.345C367.758 82.914 366.948 83.0261 366.379 82.5955L366.319 82.6753L366.379 82.5955C362.994 80.0345 358.432 79.7509 354.756 81.873L354.756 81.873C349.727 84.7761 347.998 91.2282 350.901 96.2563C352.307 98.6917 354.578 100.434 357.295 101.162C360.011 101.89 362.849 101.517 365.285 100.11C367.586 98.7815 369.288 96.6528 370.075 94.1164C370.858 91.5941 370.672 88.8948 369.552 86.5156Z" fill="black" stroke="#FAFAFA" stroke-width="0.2"/>
<mask id="path-32-inside-1" fill="white">
<path d="M109.125 114.312V54.9375C109.127 52.8662 109.951 50.8804 111.416 49.4158C112.88 47.9512 114.866 47.1273 116.938 47.125H145.062C147.134 47.1273 149.12 47.9512 150.584 49.4158C152.049 50.8804 152.873 52.8662 152.875 54.9375V114.312C152.876 116.215 152.181 118.053 150.922 119.48L148.578 117.412C149.334 116.556 149.75 115.454 149.75 114.312V114.308C148.4 115.327 146.754 115.877 145.062 115.875H134.125V112.75H145.062C146.305 112.749 147.497 112.254 148.375 111.375C149.254 110.497 149.749 109.305 149.75 108.062V54.9375C149.749 53.6947 149.254 52.5033 148.375 51.6245C147.497 50.7458 146.305 50.2514 145.062 50.25H116.938C115.695 50.2514 114.503 50.7458 113.625 51.6245C112.746 52.5033 112.251 53.6947 112.25 54.9375V108.062C112.251 109.305 112.746 110.497 113.625 111.375C114.503 112.254 115.695 112.749 116.938 112.75H118.5V115.875H116.938C115.246 115.877 113.6 115.327 112.25 114.308V114.312C112.252 115.135 112.469 115.943 112.881 116.656C113.292 117.368 113.883 117.961 114.595 118.374L113.03 121.079C111.845 120.39 110.86 119.404 110.175 118.216C109.49 117.029 109.128 115.683 109.125 114.312V114.312ZM115.375 61.1875C115.375 60.7731 115.54 60.3757 115.833 60.0826C116.126 59.7896 116.523 59.625 116.938 59.625H145.062C145.477 59.625 145.874 59.7896 146.167 60.0826C146.46 60.3757 146.625 60.7731 146.625 61.1875V73.6875C146.625 74.1019 146.46 74.4993 146.167 74.7924C145.874 75.0854 145.477 75.25 145.062 75.25H116.938C116.523 75.25 116.126 75.0854 115.833 74.7924C115.54 74.4993 115.375 74.1019 115.375 73.6875V61.1875ZM118.5 72.125H143.5V62.75H118.5V72.125ZM118.5 53.375H115.375V56.5H118.5V53.375ZM121.625 53.375V56.5H124.75V53.375H121.625ZM127.875 53.375V56.5H131V53.375H127.875ZM115.375 79.9375C115.375 79.5231 115.54 79.1257 115.833 78.8326C116.126 78.5396 116.523 78.375 116.938 78.375H129.438C129.852 78.375 130.249 78.5396 130.542 78.8326C130.835 79.1257 131 79.5231 131 79.9375V89.3125C131 89.7269 130.835 90.1243 130.542 90.4174C130.249 90.7104 129.852 90.875 129.438 90.875H116.938C116.523 90.875 116.126 90.7104 115.833 90.4174C115.54 90.1243 115.375 89.7269 115.375 89.3125V79.9375ZM118.5 87.75H127.875V81.5H118.5V87.75ZM146.625 79.9375H134.125V83.0625H146.625V79.9375ZM146.625 86.1875H134.125V89.3125H146.625V86.1875ZM115.375 104.938C115.375 105.352 115.54 105.749 115.833 106.042C116.126 106.335 116.523 106.5 116.938 106.5H120.062V103.375H118.5V97.125H127.875V103.375H131V95.5625C131 95.1481 130.835 94.7507 130.542 94.4576C130.249 94.1646 129.852 94 129.438 94H116.938C116.523 94 116.126 94.1646 115.833 94.4576C115.54 94.7507 115.375 95.1481 115.375 95.5625V104.938ZM146.625 95.5625H134.125V98.6875H146.625V95.5625ZM134.125 104.938H146.625V101.812H134.125V104.938ZM117.127 122.125C117.768 122.123 118.403 122.249 118.994 122.494C119.586 122.739 120.124 123.099 120.576 123.554L121.625 124.603V111.188C121.625 109.944 122.119 108.752 122.998 107.873C123.877 106.994 125.069 106.5 126.312 106.5C127.556 106.5 128.748 106.994 129.627 107.873C130.506 108.752 131 109.944 131 111.188V119.268C131.793 118.988 132.646 118.926 133.471 119.089C134.296 119.253 135.061 119.635 135.688 120.196C136.546 119.426 137.659 119 138.812 119C139.966 119 141.079 119.426 141.938 120.196C142.611 119.592 143.446 119.196 144.34 119.056C145.234 118.916 146.15 119.038 146.976 119.408C147.803 119.777 148.504 120.378 148.997 121.137C149.489 121.897 149.75 122.782 149.75 123.688V139.312C149.75 139.727 149.585 140.124 149.292 140.417C148.999 140.71 148.602 140.875 148.188 140.875H123.188C122.962 140.875 122.739 140.826 122.535 140.732C122.33 140.638 122.148 140.501 122.001 140.329L113.424 130.323C112.667 129.439 112.25 128.313 112.25 127.149V127.002C112.251 125.709 112.766 124.469 113.68 123.555C114.594 122.641 115.834 122.126 117.127 122.125V122.125ZM118.366 125.763C118.121 125.518 117.809 125.351 117.469 125.284C117.129 125.216 116.777 125.251 116.457 125.383C116.136 125.516 115.863 125.741 115.67 126.029C115.478 126.317 115.375 126.656 115.375 127.002V127.149C115.375 127.567 115.525 127.972 115.797 128.289L123.906 137.75H146.625V123.688C146.625 123.273 146.46 122.876 146.167 122.583C145.874 122.29 145.477 122.125 145.062 122.125C144.648 122.125 144.251 122.29 143.958 122.583C143.665 122.876 143.5 123.273 143.5 123.688C143.5 124.102 143.335 124.499 143.042 124.792C142.749 125.085 142.352 125.25 141.938 125.25C141.523 125.25 141.126 125.085 140.833 124.792C140.54 124.499 140.375 124.102 140.375 123.688C140.375 123.273 140.21 122.876 139.917 122.583C139.624 122.29 139.227 122.125 138.812 122.125C138.398 122.125 138.001 122.29 137.708 122.583C137.415 122.876 137.25 123.273 137.25 123.688C137.25 124.102 137.085 124.499 136.792 124.792C136.499 125.085 136.102 125.25 135.688 125.25C135.273 125.25 134.876 125.085 134.583 124.792C134.29 124.499 134.125 124.102 134.125 123.688C134.125 123.273 133.96 122.876 133.667 122.583C133.374 122.29 132.977 122.125 132.562 122.125C132.148 122.125 131.751 122.29 131.458 122.583C131.165 122.876 131 123.273 131 123.688C131 124.102 130.835 124.499 130.542 124.792C130.249 125.085 129.852 125.25 129.438 125.25C129.023 125.25 128.626 125.085 128.333 124.792C128.04 124.499 127.875 124.102 127.875 123.688V111.188C127.875 110.773 127.71 110.376 127.417 110.083C127.124 109.79 126.727 109.625 126.312 109.625C125.898 109.625 125.501 109.79 125.208 110.083C124.915 110.376 124.75 110.773 124.75 111.188V128.375C124.75 128.684 124.658 128.986 124.487 129.243C124.315 129.5 124.071 129.7 123.785 129.819C123.5 129.937 123.186 129.968 122.883 129.908C122.58 129.847 122.301 129.698 122.083 129.48L118.366 125.763ZM59.125 114.312V62.75H62.25V108.062C62.2514 109.305 62.7458 110.497 63.6245 111.375C64.5033 112.254 65.6947 112.749 66.9375 112.75H95.0625C96.3053 112.749 97.4967 112.254 98.3755 111.375C99.2542 110.497 99.7486 109.305 99.75 108.062V54.9375C99.7486 53.6947 99.2542 52.5033 98.3755 51.6245C97.4967 50.7458 96.3053 50.2514 95.0625 50.25H66.9375C65.6947 50.2514 64.5033 50.7458 63.6245 51.6245C62.7458 52.5033 62.2514 53.6947 62.25 54.9375V59.625H59.125V54.9375C59.1273 52.8662 59.9512 50.8804 61.4158 49.4158C62.8804 47.9512 64.8662 47.1273 66.9375 47.125H95.0625C97.1338 47.1273 99.1196 47.9512 100.584 49.4158C102.049 50.8804 102.873 52.8662 102.875 54.9375V114.312C102.873 116.384 102.049 118.37 100.584 119.834C99.1196 121.299 97.1338 122.123 95.0625 122.125H66.9375C64.8662 122.123 62.8804 121.299 61.4158 119.834C59.9512 118.37 59.1273 116.384 59.125 114.312V114.312ZM62.25 114.312C62.2514 115.555 62.7458 116.747 63.6245 117.625C64.5033 118.504 65.6947 118.999 66.9375 119H95.0625C96.3053 118.999 97.4967 118.504 98.3755 117.625C99.2542 116.747 99.7486 115.555 99.75 114.312V114.308C98.3996 115.327 96.7539 115.877 95.0625 115.875H66.9375C65.2461 115.877 63.6004 115.327 62.25 114.308V114.312ZM65.375 61.1875C65.375 60.7731 65.5396 60.3757 65.8326 60.0826C66.1257 59.7896 66.5231 59.625 66.9375 59.625H95.0625C95.4769 59.625 95.8743 59.7896 96.1674 60.0826C96.4604 60.3757 96.625 60.7731 96.625 61.1875V76.8125C96.625 77.2269 96.4604 77.6243 96.1674 77.9174C95.8743 78.2104 95.4769 78.375 95.0625 78.375H66.9375C66.5231 78.375 66.1257 78.2104 65.8326 77.9174C65.5396 77.6243 65.375 77.2269 65.375 76.8125V61.1875ZM68.5 75.25H93.5V62.75H68.5V75.25ZM68.5 53.375H65.375V56.5H68.5V53.375ZM71.625 53.375V56.5H74.75V53.375H71.625ZM77.875 53.375V56.5H81V53.375H77.875ZM65.375 83.0625C65.375 82.6481 65.5396 82.2507 65.8326 81.9576C66.1257 81.6646 66.5231 81.5 66.9375 81.5H77.875C78.2894 81.5 78.6868 81.6646 78.9799 81.9576C79.2729 82.2507 79.4375 82.6481 79.4375 83.0625V92.4375C79.4375 92.8519 79.2729 93.2493 78.9799 93.5424C78.6868 93.8354 78.2894 94 77.875 94H66.9375C66.5231 94 66.1257 93.8354 65.8326 93.5424C65.5396 93.2493 65.375 92.8519 65.375 92.4375V83.0625ZM68.5 90.875H76.3125V84.625H68.5V90.875ZM65.375 100.25H79.4375V97.125H65.375V100.25ZM65.375 106.5H79.4375V103.375H65.375V106.5ZM96.625 92.4375C96.625 92.8519 96.4604 93.2493 96.1674 93.5424C95.8743 93.8354 95.4769 94 95.0625 94H84.125C83.7106 94 83.3132 93.8354 83.0201 93.5424C82.7271 93.2493 82.5625 92.8519 82.5625 92.4375V83.0625C82.5625 82.6481 82.7271 82.2507 83.0201 81.9576C83.3132 81.6646 83.7106 81.5 84.125 81.5H95.0625C95.4769 81.5 95.8743 81.6646 96.1674 81.9576C96.4604 82.2507 96.625 82.6481 96.625 83.0625V92.4375ZM93.5 84.625H85.6875V90.875H93.5V84.625ZM96.625 97.125H82.5625V100.25H96.625V97.125ZM82.5625 106.5H96.625V103.375H82.5625V106.5ZM79.4375 134.625H82.5625V131.5H79.4375V134.625ZM88.8125 131.5H85.6875V134.625H88.8125V131.5ZM91.9375 134.625H95.0625V131.5H91.9375V134.625ZM101.312 131.5H98.1875V134.625H101.312V131.5ZM107.562 131.5H104.438V134.625H107.562V131.5ZM82.5625 125.25H79.4375V128.375H82.5625V125.25Z"/>
</mask>
<path d="M109.125 114.312V54.9375C109.127 52.8662 109.951 50.8804 111.416 49.4158C112.88 47.9512 114.866 47.1273 116.938 47.125H145.062C147.134 47.1273 149.12 47.9512 150.584 49.4158C152.049 50.8804 152.873 52.8662 152.875 54.9375V114.312C152.876 116.215 152.181 118.053 150.922 119.48L148.578 117.412C149.334 116.556 149.75 115.454 149.75 114.312V114.308C148.4 115.327 146.754 115.877 145.062 115.875H134.125V112.75H145.062C146.305 112.749 147.497 112.254 148.375 111.375C149.254 110.497 149.749 109.305 149.75 108.062V54.9375C149.749 53.6947 149.254 52.5033 148.375 51.6245C147.497 50.7458 146.305 50.2514 145.062 50.25H116.938C115.695 50.2514 114.503 50.7458 113.625 51.6245C112.746 52.5033 112.251 53.6947 112.25 54.9375V108.062C112.251 109.305 112.746 110.497 113.625 111.375C114.503 112.254 115.695 112.749 116.938 112.75H118.5V115.875H116.938C115.246 115.877 113.6 115.327 112.25 114.308V114.312C112.252 115.135 112.469 115.943 112.881 116.656C113.292 117.368 113.883 117.961 114.595 118.374L113.03 121.079C111.845 120.39 110.86 119.404 110.175 118.216C109.49 117.029 109.128 115.683 109.125 114.312V114.312ZM115.375 61.1875C115.375 60.7731 115.54 60.3757 115.833 60.0826C116.126 59.7896 116.523 59.625 116.938 59.625H145.062C145.477 59.625 145.874 59.7896 146.167 60.0826C146.46 60.3757 146.625 60.7731 146.625 61.1875V73.6875C146.625 74.1019 146.46 74.4993 146.167 74.7924C145.874 75.0854 145.477 75.25 145.062 75.25H116.938C116.523 75.25 116.126 75.0854 115.833 74.7924C115.54 74.4993 115.375 74.1019 115.375 73.6875V61.1875ZM118.5 72.125H143.5V62.75H118.5V72.125ZM118.5 53.375H115.375V56.5H118.5V53.375ZM121.625 53.375V56.5H124.75V53.375H121.625ZM127.875 53.375V56.5H131V53.375H127.875ZM115.375 79.9375C115.375 79.5231 115.54 79.1257 115.833 78.8326C116.126 78.5396 116.523 78.375 116.938 78.375H129.438C129.852 78.375 130.249 78.5396 130.542 78.8326C130.835 79.1257 131 79.5231 131 79.9375V89.3125C131 89.7269 130.835 90.1243 130.542 90.4174C130.249 90.7104 129.852 90.875 129.438 90.875H116.938C116.523 90.875 116.126 90.7104 115.833 90.4174C115.54 90.1243 115.375 89.7269 115.375 89.3125V79.9375ZM118.5 87.75H127.875V81.5H118.5V87.75ZM146.625 79.9375H134.125V83.0625H146.625V79.9375ZM146.625 86.1875H134.125V89.3125H146.625V86.1875ZM115.375 104.938C115.375 105.352 115.54 105.749 115.833 106.042C116.126 106.335 116.523 106.5 116.938 106.5H120.062V103.375H118.5V97.125H127.875V103.375H131V95.5625C131 95.1481 130.835 94.7507 130.542 94.4576C130.249 94.1646 129.852 94 129.438 94H116.938C116.523 94 116.126 94.1646 115.833 94.4576C115.54 94.7507 115.375 95.1481 115.375 95.5625V104.938ZM146.625 95.5625H134.125V98.6875H146.625V95.5625ZM134.125 104.938H146.625V101.812H134.125V104.938ZM117.127 122.125C117.768 122.123 118.403 122.249 118.994 122.494C119.586 122.739 120.124 123.099 120.576 123.554L121.625 124.603V111.188C121.625 109.944 122.119 108.752 122.998 107.873C123.877 106.994 125.069 106.5 126.312 106.5C127.556 106.5 128.748 106.994 129.627 107.873C130.506 108.752 131 109.944 131 111.188V119.268C131.793 118.988 132.646 118.926 133.471 119.089C134.296 119.253 135.061 119.635 135.688 120.196C136.546 119.426 137.659 119 138.812 119C139.966 119 141.079 119.426 141.938 120.196C142.611 119.592 143.446 119.196 144.34 119.056C145.234 118.916 146.15 119.038 146.976 119.408C147.803 119.777 148.504 120.378 148.997 121.137C149.489 121.897 149.75 122.782 149.75 123.688V139.312C149.75 139.727 149.585 140.124 149.292 140.417C148.999 140.71 148.602 140.875 148.188 140.875H123.188C122.962 140.875 122.739 140.826 122.535 140.732C122.33 140.638 122.148 140.501 122.001 140.329L113.424 130.323C112.667 129.439 112.25 128.313 112.25 127.149V127.002C112.251 125.709 112.766 124.469 113.68 123.555C114.594 122.641 115.834 122.126 117.127 122.125V122.125ZM118.366 125.763C118.121 125.518 117.809 125.351 117.469 125.284C117.129 125.216 116.777 125.251 116.457 125.383C116.136 125.516 115.863 125.741 115.67 126.029C115.478 126.317 115.375 126.656 115.375 127.002V127.149C115.375 127.567 115.525 127.972 115.797 128.289L123.906 137.75H146.625V123.688C146.625 123.273 146.46 122.876 146.167 122.583C145.874 122.29 145.477 122.125 145.062 122.125C144.648 122.125 144.251 122.29 143.958 122.583C143.665 122.876 143.5 123.273 143.5 123.688C143.5 124.102 143.335 124.499 143.042 124.792C142.749 125.085 142.352 125.25 141.938 125.25C141.523 125.25 141.126 125.085 140.833 124.792C140.54 124.499 140.375 124.102 140.375 123.688C140.375 123.273 140.21 122.876 139.917 122.583C139.624 122.29 139.227 122.125 138.812 122.125C138.398 122.125 138.001 122.29 137.708 122.583C137.415 122.876 137.25 123.273 137.25 123.688C137.25 124.102 137.085 124.499 136.792 124.792C136.499 125.085 136.102 125.25 135.688 125.25C135.273 125.25 134.876 125.085 134.583 124.792C134.29 124.499 134.125 124.102 134.125 123.688C134.125 123.273 133.96 122.876 133.667 122.583C133.374 122.29 132.977 122.125 132.562 122.125C132.148 122.125 131.751 122.29 131.458 122.583C131.165 122.876 131 123.273 131 123.688C131 124.102 130.835 124.499 130.542 124.792C130.249 125.085 129.852 125.25 129.438 125.25C129.023 125.25 128.626 125.085 128.333 124.792C128.04 124.499 127.875 124.102 127.875 123.688V111.188C127.875 110.773 127.71 110.376 127.417 110.083C127.124 109.79 126.727 109.625 126.312 109.625C125.898 109.625 125.501 109.79 125.208 110.083C124.915 110.376 124.75 110.773 124.75 111.188V128.375C124.75 128.684 124.658 128.986 124.487 129.243C124.315 129.5 124.071 129.7 123.785 129.819C123.5 129.937 123.186 129.968 122.883 129.908C122.58 129.847 122.301 129.698 122.083 129.48L118.366 125.763ZM59.125 114.312V62.75H62.25V108.062C62.2514 109.305 62.7458 110.497 63.6245 111.375C64.5033 112.254 65.6947 112.749 66.9375 112.75H95.0625C96.3053 112.749 97.4967 112.254 98.3755 111.375C99.2542 110.497 99.7486 109.305 99.75 108.062V54.9375C99.7486 53.6947 99.2542 52.5033 98.3755 51.6245C97.4967 50.7458 96.3053 50.2514 95.0625 50.25H66.9375C65.6947 50.2514 64.5033 50.7458 63.6245 51.6245C62.7458 52.5033 62.2514 53.6947 62.25 54.9375V59.625H59.125V54.9375C59.1273 52.8662 59.9512 50.8804 61.4158 49.4158C62.8804 47.9512 64.8662 47.1273 66.9375 47.125H95.0625C97.1338 47.1273 99.1196 47.9512 100.584 49.4158C102.049 50.8804 102.873 52.8662 102.875 54.9375V114.312C102.873 116.384 102.049 118.37 100.584 119.834C99.1196 121.299 97.1338 122.123 95.0625 122.125H66.9375C64.8662 122.123 62.8804 121.299 61.4158 119.834C59.9512 118.37 59.1273 116.384 59.125 114.312V114.312ZM62.25 114.312C62.2514 115.555 62.7458 116.747 63.6245 117.625C64.5033 118.504 65.6947 118.999 66.9375 119H95.0625C96.3053 118.999 97.4967 118.504 98.3755 117.625C99.2542 116.747 99.7486 115.555 99.75 114.312V114.308C98.3996 115.327 96.7539 115.877 95.0625 115.875H66.9375C65.2461 115.877 63.6004 115.327 62.25 114.308V114.312ZM65.375 61.1875C65.375 60.7731 65.5396 60.3757 65.8326 60.0826C66.1257 59.7896 66.5231 59.625 66.9375 59.625H95.0625C95.4769 59.625 95.8743 59.7896 96.1674 60.0826C96.4604 60.3757 96.625 60.7731 96.625 61.1875V76.8125C96.625 77.2269 96.4604 77.6243 96.1674 77.9174C95.8743 78.2104 95.4769 78.375 95.0625 78.375H66.9375C66.5231 78.375 66.1257 78.2104 65.8326 77.9174C65.5396 77.6243 65.375 77.2269 65.375 76.8125V61.1875ZM68.5 75.25H93.5V62.75H68.5V75.25ZM68.5 53.375H65.375V56.5H68.5V53.375ZM71.625 53.375V56.5H74.75V53.375H71.625ZM77.875 53.375V56.5H81V53.375H77.875ZM65.375 83.0625C65.375 82.6481 65.5396 82.2507 65.8326 81.9576C66.1257 81.6646 66.5231 81.5 66.9375 81.5H77.875C78.2894 81.5 78.6868 81.6646 78.9799 81.9576C79.2729 82.2507 79.4375 82.6481 79.4375 83.0625V92.4375C79.4375 92.8519 79.2729 93.2493 78.9799 93.5424C78.6868 93.8354 78.2894 94 77.875 94H66.9375C66.5231 94 66.1257 93.8354 65.8326 93.5424C65.5396 93.2493 65.375 92.8519 65.375 92.4375V83.0625ZM68.5 90.875H76.3125V84.625H68.5V90.875ZM65.375 100.25H79.4375V97.125H65.375V100.25ZM65.375 106.5H79.4375V103.375H65.375V106.5ZM96.625 92.4375C96.625 92.8519 96.4604 93.2493 96.1674 93.5424C95.8743 93.8354 95.4769 94 95.0625 94H84.125C83.7106 94 83.3132 93.8354 83.0201 93.5424C82.7271 93.2493 82.5625 92.8519 82.5625 92.4375V83.0625C82.5625 82.6481 82.7271 82.2507 83.0201 81.9576C83.3132 81.6646 83.7106 81.5 84.125 81.5H95.0625C95.4769 81.5 95.8743 81.6646 96.1674 81.9576C96.4604 82.2507 96.625 82.6481 96.625 83.0625V92.4375ZM93.5 84.625H85.6875V90.875H93.5V84.625ZM96.625 97.125H82.5625V100.25H96.625V97.125ZM82.5625 106.5H96.625V103.375H82.5625V106.5ZM79.4375 134.625H82.5625V131.5H79.4375V134.625ZM88.8125 131.5H85.6875V134.625H88.8125V131.5ZM91.9375 134.625H95.0625V131.5H91.9375V134.625ZM101.312 131.5H98.1875V134.625H101.312V131.5ZM107.562 131.5H104.438V134.625H107.562V131.5ZM82.5625 125.25H79.4375V128.375H82.5625V125.25Z" fill="black" stroke="#FAFAFA" stroke-width="0.8" mask="url(#path-32-inside-1)"/>
<path d="M602.344 128.656V103.803H600V128.656H592.969V75.102H600V101.459H602.344V72.7583H590.625V128.656H583.531L583.596 92.1509H571.877L571.812 128.656H564.844V82.1737H553.125V113.605H555.469V84.5175H562.5V128.656H555.469V115.949H553.125V128.656H546.094V103.947H534.375V128.656H527.344V55.6875H525V131H605V128.656H602.344ZM574.217 94.4945H581.248L581.187 128.656H574.156L574.217 94.4945ZM536.719 106.291H543.75V128.656H536.719V106.291Z" fill="black"/>
<path d="M525 51H527.344V53.3438H525V51Z" fill="black"/>
<path d="M540.234 96.9131C541.735 96.9131 543.235 96.3421 544.378 95.1999C546.662 92.9152 546.662 89.198 544.378 86.9135C544.289 86.825 544.198 86.7413 544.105 86.6596L554.243 72.7266C554.422 72.9716 554.62 73.206 554.841 73.4267C555.983 74.5691 557.484 75.14 558.984 75.14C560.485 75.14 561.985 74.5689 563.128 73.4267C563.559 72.9952 563.909 72.5124 564.178 71.9978L571.956 78.3103C571.663 80.1092 572.207 82.0196 573.591 83.4039C574.734 84.5463 576.234 85.1174 577.735 85.1174C579.235 85.1174 580.735 84.5463 581.878 83.4039C583.885 81.3964 584.128 78.283 582.608 76.0071L593.277 64.7719C594.247 65.4069 595.366 65.7249 596.485 65.7249C597.985 65.7249 599.486 65.1538 600.628 64.0116C602.912 61.7269 602.912 58.0097 600.628 55.7252C598.343 53.4405 594.626 53.4406 592.341 55.7252C590.334 57.7327 590.091 60.8463 591.612 63.1221L580.942 74.3572C578.671 72.8705 575.585 73.1236 573.591 75.1177C573.311 75.3985 573.065 75.7011 572.853 76.0197L564.836 69.5138C564.897 67.9375 564.328 66.3413 563.128 65.1405C560.843 62.856 557.126 62.8558 554.841 65.1405C553.471 66.5113 552.924 68.3977 553.198 70.181L542.058 85.4906C540.026 84.8291 537.703 85.3022 536.092 86.9136C533.807 89.1981 533.807 92.9155 536.092 95.2C537.233 96.342 538.734 96.9131 540.234 96.9131V96.9131ZM593.998 57.3822C594.684 56.6967 595.584 56.3541 596.484 56.3541C597.384 56.3541 598.285 56.6969 598.97 57.3822C600.341 58.753 600.341 60.9833 598.97 62.3541C597.6 63.7249 595.369 63.7247 593.998 62.3541C592.628 60.9833 592.628 58.753 593.998 57.3822V57.3822ZM575.248 76.7746C576.619 75.4039 578.849 75.4038 580.22 76.7746C581.591 78.1453 581.591 80.3756 580.22 81.7464C578.849 83.1172 576.619 83.1171 575.248 81.7464C573.878 80.3758 573.878 78.1453 575.248 76.7746ZM556.498 66.7975C557.869 65.4269 560.1 65.4269 561.47 66.7975C562.841 68.1683 562.841 70.3986 561.47 71.7694C560.099 73.14 557.869 73.14 556.498 71.7694C555.128 70.3986 555.128 68.1683 556.498 66.7975ZM537.748 88.5706C538.434 87.8852 539.334 87.5425 540.234 87.5425C541.135 87.5425 542.035 87.8853 542.72 88.5706C544.091 89.9413 544.091 92.1717 542.72 93.5425C541.35 94.9131 539.119 94.9131 537.748 93.5425C536.378 92.1717 536.378 89.9414 537.748 88.5706Z" fill="black"/>
<path d="M539.062 123.972H541.406V126.315H539.062V123.972Z" fill="black"/>
<path d="M595.312 88.0664H597.656V90.4102H595.312V88.0664Z" fill="black"/>
<path d="M595.312 78.6914H597.656V85.7227H595.312V78.6914Z" fill="black"/>
<path d="M557.812 88.0312H560.156V95.0625H557.812V88.0312Z" fill="black"/>
<path d="M557.812 97.4062H560.156V99.75H557.812V97.4062Z" fill="black"/>
<path d="M576.562 118.112H578.906V125.144H576.562V118.112Z" fill="black"/>
<path d="M576.562 113.424H578.906V115.768H576.562V113.424Z" fill="black"/>
<path d="M481.424 110.424C481.659 110.19 481.659 109.81 481.424 109.576L477.606 105.757C477.372 105.523 476.992 105.523 476.757 105.757C476.523 105.992 476.523 106.372 476.757 106.606L480.151 110L476.757 113.394C476.523 113.628 476.523 114.008 476.757 114.243C476.992 114.477 477.372 114.477 477.606 114.243L481.424 110.424ZM421 110.6H481V109.4H421V110.6Z" fill="black"/>
<path d="M713.424 110.424C713.659 110.19 713.659 109.81 713.424 109.576L709.606 105.757C709.372 105.523 708.992 105.523 708.757 105.757C708.523 105.992 708.523 106.372 708.757 106.606L712.151 110L708.757 113.394C708.523 113.628 708.523 114.008 708.757 114.243C708.992 114.477 709.372 114.477 709.606 114.243L713.424 110.424ZM653 110.6H713V109.4H653V110.6Z" fill="black"/>
<defs>
<clipPath id="clip0">
<rect width="90" height="90" fill="white" transform="translate(750 49)"/>
</clipPath>
</defs>
</svg>
