<svg width="46" height="46" viewBox="0 0 46 46" fill="none" xmlns="http://www.w3.org/2000/svg">
<rect x="0.460051" y="0.460051" width="45.0799" height="45.0799" stroke="#2D2D2D" stroke-width="0.920102"/>
<path d="M12.8797 19.9783V35.1632C12.8797 35.3252 13.0112 35.4567 13.1731 35.4567H22.1263C22.3818 35.4567 22.5153 35.1526 22.3423 34.9646L20.3413 32.787C20.1604 32.59 19.8318 32.7183 19.8318 32.9857V33.2376C19.8318 33.3995 19.7003 33.5311 19.5384 33.5311H15.3452C15.1833 33.5311 15.0517 33.3995 15.0517 33.2376V25.1817C15.0517 24.9222 15.3641 24.7903 15.5501 24.9716L26.6524 35.7876C26.8384 35.9689 27.1512 35.8366 27.1508 35.5771L27.1323 23.4287C27.1323 23.3505 27.1011 23.2758 27.0454 23.2205L25.4519 21.6405C25.2667 21.4568 24.9519 21.588 24.9519 21.849V30.3938C24.9519 30.6537 24.6392 30.7852 24.4531 30.6035L13.3785 19.7686C13.1925 19.5869 12.8797 19.7184 12.8797 19.9783Z" fill="#2D2D2D"/>
<path d="M33.1205 25.9762V10.8248C33.1205 10.6573 32.9846 10.5215 32.8172 10.5215H23.8964C23.6322 10.5215 23.4944 10.8355 23.6729 11.0302L25.6415 13.1726C25.8287 13.376 26.1683 13.2437 26.1683 12.9672V12.7504C26.1683 12.583 26.3042 12.4471 26.4716 12.4471H30.6451C30.8126 12.4471 30.9484 12.583 30.9484 12.7504V20.7732C30.9484 21.0413 30.6258 21.1776 30.4334 20.9904L19.3647 10.2071C19.1724 10.0196 18.8493 10.1562 18.8497 10.4247L18.8683 22.5459C18.8683 22.6265 18.9007 22.7039 18.9579 22.7608L20.5317 24.3215C20.7232 24.5114 21.0486 24.3756 21.0486 24.1063V15.6084C21.0486 15.3399 21.3721 15.2036 21.564 15.3916L32.6047 26.1934C32.797 26.381 33.1205 26.2451 33.1205 25.9762Z" fill="#2D2D2D"/>
</svg>
