<svg width="50" height="50" viewBox="0 0 50 50" fill="none" xmlns="http://www.w3.org/2000/svg">
<rect width="50" height="50" fill="white"/>
<rect x="2.46005" y="2.46005" width="45.0799" height="45.0799" stroke="#2D2D2D" stroke-width="0.920102"/>
<path d="M14.8796 21.9783V37.1632C14.8796 37.3252 15.0111 37.4567 15.1731 37.4567H24.1262C24.3817 37.4567 24.5152 37.1526 24.3423 36.9646L22.3412 34.787C22.1603 34.59 21.8318 34.7183 21.8318 34.9857V35.2376C21.8318 35.3995 21.7003 35.5311 21.5383 35.5311H17.3451C17.1832 35.5311 17.0517 35.3995 17.0517 35.2376V27.1817C17.0517 26.9222 17.3641 26.7903 17.5501 26.9716L28.6524 37.7876C28.8384 37.9689 29.1512 37.8366 29.1508 37.5771L29.1322 25.4287C29.1322 25.3505 29.101 25.2758 29.0453 25.2205L27.4518 23.6405C27.2666 23.4568 26.9519 23.588 26.9519 23.849V32.3938C26.9519 32.6537 26.6391 32.7852 26.4531 32.6035L15.3784 21.7686C15.1924 21.5869 14.8796 21.7184 14.8796 21.9783Z" fill="#2D2D2D"/>
<path d="M35.1203 27.9762V12.8248C35.1203 12.6573 34.9845 12.5215 34.817 12.5215H25.8963C25.6321 12.5215 25.4942 12.8355 25.6727 13.0302L27.6414 15.1726C27.8286 15.376 28.1682 15.2437 28.1682 14.9672V14.7504C28.1682 14.583 28.3041 14.4471 28.4715 14.4471H32.645C32.8124 14.4471 32.9483 14.583 32.9483 14.7504V22.7732C32.9483 23.0413 32.6256 23.1776 32.4333 22.9904L21.3646 12.2071C21.1723 12.0196 20.8492 12.1562 20.8496 12.4247L20.8682 24.5459C20.8682 24.6265 20.9006 24.7039 20.9578 24.7608L22.5316 26.3215C22.7231 26.5114 23.0485 26.3756 23.0485 26.1063V17.6084C23.0485 17.3399 23.3719 17.2036 23.5639 17.3916L34.6046 28.1934C34.7969 28.381 35.1203 28.2451 35.1203 27.9762Z" fill="#2D2D2D"/>
</svg>
