<svg width="1100" height="220" viewBox="0 0 1100 220" fill="none" xmlns="http://www.w3.org/2000/svg">
<rect x="860" width="240" height="220" fill="#FAFAFA"/>
<g clip-path="url(#clip0)">
<path d="M1002.19 124.1H1002.29V124V118.1H1005.09V131.5C1005.08 135.585 1001.77 138.895 997.687 138.9H964.688C962.078 138.895 959.665 137.521 958.327 135.286L960.752 133.886C961.587 135.257 963.077 136.098 964.687 136.1H964.688H997.688C1000.23 136.1 1002.29 134.04 1002.29 131.5V127V126.9H1002.19H975.288V124.1H1002.19Z" fill="black" stroke="#FAFAFA" stroke-width="0.2"/>
<path d="M979.788 130.1H982.587V132.9H979.788V130.1Z" fill="black" stroke="#FAFAFA" stroke-width="0.2"/>
<path d="M984.111 86.6H988.588V89.4H984.108H984.015L984.008 89.4926C983.304 99.0336 975.721 106.622 966.18 107.331L966.087 107.338V107.431V111.9H963.288V107.431V107.338L963.195 107.331C953.654 106.622 946.071 99.0336 945.367 89.4926L945.36 89.4H945.267H940.788V86.6H945.264H945.356L945.363 86.5077C945.927 79.2443 950.506 72.9071 957.226 70.0922L957.288 70.0665V70V56.5001C957.293 52.4149 960.602 49.1051 964.688 49.1L997.688 49.1C999.456 49.0993 1001.17 49.7328 1002.51 50.8843L1000.65 52.9847C999.825 52.2848 998.774 51.9 997.688 51.9H964.688C962.147 51.9 960.087 53.9597 960.087 56.5V58V58.1H960.188H984.088V60.9H960.188H960.087V61V69.0442V69.1706L960.211 69.1415C961.192 68.909 962.19 68.7531 963.195 68.6759L963.288 68.6688V68.5762V64.1H966.087V68.5762V68.6687L966.18 68.6759C975.703 69.4198 983.268 76.9848 984.012 86.5078L984.019 86.6H984.111ZM963.288 104.431V101.6H966.087V104.436V104.545L966.197 104.535C968.302 104.344 970.351 103.751 972.233 102.789L972.288 102.761V102.7V100C972.288 95.8029 968.885 92.4 964.688 92.4C960.49 92.4 957.087 95.8029 957.087 100V102.7V102.761L957.142 102.789C959.025 103.75 961.073 104.341 963.179 104.531L963.288 104.541V104.431ZM981.108 89.4H978.287V86.6H981.111H981.221L981.211 86.4908C980.473 78.5239 974.164 72.2142 966.197 71.4766L966.087 71.4665V71.5762V74.4H963.288V71.5762V71.4665L963.178 71.4766C955.211 72.2142 948.902 78.5239 948.164 86.4908L948.154 86.6H948.264H951.087V89.4H948.267H948.158L948.168 89.509C948.545 93.6929 950.494 97.5776 953.621 100.382L953.621 100.382C953.728 100.478 953.843 100.569 953.955 100.658C954.013 100.703 954.07 100.748 954.124 100.793L954.288 100.927V100.716V100C954.291 96.119 956.456 92.5628 959.902 90.7768L960.035 90.7079L959.92 90.6115C957.543 88.609 956.67 85.334 957.736 82.4144C958.802 79.4942 961.579 77.5517 964.688 77.5517C967.796 77.5517 970.573 79.4942 971.639 82.4144C972.705 85.334 971.832 88.609 969.455 90.6115L969.34 90.7079L969.473 90.7768C972.919 92.5628 975.084 96.119 975.088 100V100.708V100.923L975.252 100.785C975.315 100.732 975.38 100.681 975.446 100.63C975.464 100.616 975.482 100.601 975.5 100.587C975.529 100.564 975.558 100.541 975.587 100.518V100.532L975.754 100.382C978.881 97.5776 980.83 93.6929 981.207 89.509L981.217 89.4H981.108ZM964.688 80.4C962.147 80.4 960.087 82.4597 960.087 85C960.087 87.5403 962.147 89.6 964.688 89.6C967.228 89.6 969.288 87.5403 969.288 85C969.288 82.4597 967.228 80.4 964.688 80.4Z" fill="black" stroke="#FAFAFA" stroke-width="0.2"/>
<path d="M990.187 57.9H990.087V58V73V73.1H990.187H1020.19H1020.29V73V58V57.9H1020.19H990.187ZM1023.09 74.5C1023.09 75.2731 1022.46 75.9 1021.69 75.9H988.687C987.914 75.9 987.288 75.2731 987.288 74.5V56.5C987.288 55.7269 987.914 55.1 988.687 55.1H1021.69C1022.46 55.1 1023.09 55.7269 1023.09 56.5V74.5Z" fill="black" stroke="#FAFAFA" stroke-width="0.2"/>
<path d="M993.288 61.1H999.088V63.9H993.288V61.1Z" fill="black" stroke="#FAFAFA" stroke-width="0.2"/>
<path d="M1002.29 61.1H1017.09V63.9H1002.29V61.1Z" fill="black" stroke="#FAFAFA" stroke-width="0.2"/>
<path d="M993.288 67.1H1017.09V69.9H993.288V67.1Z" fill="black" stroke="#FAFAFA" stroke-width="0.2"/>
<path d="M1025 86.9167C1026.23 85.512 1026.54 83.5117 1025.76 81.8044C1024.99 80.0972 1023.3 79 1021.42 79M1025 86.9167L1002.55 93.925L1002.47 94H1002.29V93.9M1025 86.9167L1024.92 86.8506C1026.13 85.4753 1026.43 83.517 1025.67 81.8456L1025.67 81.8456C1024.92 80.1742 1023.26 79.1 1021.42 79.1M1025 86.9167L1024.92 86.8506L1003.58 111.034L1003.56 111.06L1003.56 111.094C1003.24 116.593 998.696 120.893 993.187 120.9H982.687H982.687C982.037 120.901 981.473 120.454 981.324 119.821C981.175 119.189 981.48 118.537 982.062 118.247C983.43 117.57 984.293 116.172 984.287 114.646V112C984.294 106.492 988.594 101.945 994.093 101.63L994.128 101.628L994.154 101.605L1002.69 94.075L1002.89 93.9H1002.62H1002.29M1021.42 79C1020.26 79.0022 1019.14 79.4285 1018.27 80.1997L1005.29 91.6472V91.7354H1005.19L1005.12 91.6603L1005.19 91.602V79.1H1005.09M1021.42 79V79.1C1021.42 79.1 1021.42 79.1 1021.42 79.1M1021.42 79L1021.42 79.1C1021.42 79.1 1021.42 79.1 1021.42 79.1M1005.09 79.1V79H1002.29V79.1M1005.09 79.1H1002.29M1005.09 79.1V91.7354V91.9568L1005.25 91.8104L1018.34 80.2747L1018.34 80.2745C1019.19 79.5195 1020.29 79.1022 1021.42 79.1M1002.29 79.1H1002.19V93.9H1002.29M1002.29 79.1V93.9M993.187 118.1H993.187C997.147 118.096 1000.44 115.055 1000.76 111.108L1000.77 111.062L1000.73 111.029L994.158 104.453L994.126 104.421L994.079 104.424C990.132 104.746 987.093 108.04 987.087 112V112L987.087 114.646L987.087 114.646C987.09 115.802 986.798 116.94 986.24 117.952L986.158 118.1H986.327H993.187ZM1022.82 84.9988L1022.82 84.9986C1023.47 84.2595 1023.43 83.1443 1022.74 82.4486L1022.74 82.4485C1022.04 81.7536 1020.93 81.7172 1020.19 82.3658L1020.19 82.3659L996.811 102.994L996.731 103.064L996.807 103.14L1002.05 108.381L1002.12 108.456L1002.19 108.376L1022.82 84.9988Z" fill="black" stroke="#FAFAFA" stroke-width="0.2"/>
<path d="M960.087 116.5V116.6H960.187H970.687C971.461 116.6 972.087 117.227 972.087 118V130C972.087 130.773 971.461 131.4 970.687 131.4H937.687C936.914 131.4 936.288 130.773 936.288 130V118C936.288 117.227 936.914 116.6 937.687 116.6H957.187H957.287V116.5V109.1H960.087V116.5ZM939.187 119.4H939.087V119.5V128.5V128.6H939.187H969.187H969.287V128.5V119.5V119.4H969.187H939.187Z" fill="black" stroke="#FAFAFA" stroke-width="0.2"/>
<path d="M942.288 122.6H949.588V125.4H942.288V122.6Z" fill="black" stroke="#FAFAFA" stroke-width="0.2"/>
<path d="M952.788 122.6H966.087V125.4H952.788V122.6Z" fill="black" stroke="#FAFAFA" stroke-width="0.2"/>
<path d="M939.188 57.9H939.088V58V67V67.1H939.188H951.188H951.288V67V58V57.9H951.188H939.188ZM952.688 69.9H937.688C936.914 69.9 936.288 69.2731 936.288 68.5V56.5C936.288 55.7269 936.914 55.1 937.688 55.1H952.688C953.461 55.1 954.087 55.7269 954.087 56.5V68.5C954.087 69.2731 953.461 69.9 952.688 69.9Z" fill="black" stroke="#FAFAFA" stroke-width="0.2"/>
<path d="M942.288 61.1H948.088V63.9H942.288V61.1Z" fill="black" stroke="#FAFAFA" stroke-width="0.2"/>
</g>
<rect x="571" width="240" height="220" fill="#FAFAFA"/>
<rect x="283" width="240" height="220" fill="#FAFAFA"/>
<rect width="240" height="220" fill="#FAFAFA"/>
<path d="M949.389 187H950.637V176.008H949.389V187ZM959.586 175.816V180.28C958.962 179.192 957.906 178.536 956.578 178.536C954.402 178.536 952.77 180.328 952.77 182.856C952.77 185.4 954.402 187.192 956.578 187.192C957.906 187.192 958.962 186.536 959.586 185.448V187H960.786V175.816H959.586ZM956.802 186.12C955.186 186.12 954.034 184.76 954.034 182.856C954.034 180.952 955.186 179.608 956.802 179.608C958.434 179.608 959.586 180.952 959.586 182.856C959.586 184.76 958.434 186.12 956.802 186.12ZM967.053 186.12C965.421 186.12 964.285 184.936 964.109 183.32H970.877C970.877 180.424 969.453 178.536 966.957 178.536C964.733 178.536 962.877 180.376 962.877 182.84C962.877 185.384 964.861 187.192 967.069 187.192C968.221 187.192 969.677 186.696 970.397 185.912L969.661 185.128C969.149 185.688 968.029 186.12 967.053 186.12ZM967.005 179.608C968.653 179.608 969.533 180.76 969.693 182.248H964.125C964.349 180.648 965.533 179.608 967.005 179.608ZM976.201 178.536C975.401 178.536 974.409 178.744 973.225 179.336L973.705 180.312C974.457 179.928 975.289 179.56 976.121 179.56C977.913 179.56 978.361 180.84 978.361 181.96V182.264C977.513 181.992 976.569 181.8 975.673 181.8C973.897 181.8 972.425 182.904 972.425 184.552C972.425 186.184 973.705 187.192 975.449 187.192C976.537 187.192 977.769 186.68 978.361 185.704V187H979.561V181.96C979.561 179.96 978.457 178.536 976.201 178.536ZM975.657 186.136C974.489 186.136 973.593 185.528 973.593 184.504C973.593 183.512 974.633 182.808 975.865 182.808C976.761 182.808 977.609 182.936 978.361 183.144V184.408C978.041 185.576 976.745 186.136 975.657 186.136ZM985.645 185.784C985.469 185.976 985.149 186.12 984.781 186.12C984.301 186.12 983.885 185.688 983.885 185.08V179.8H985.917V178.728H983.885V176.456H982.685V178.728H981.389V179.8H982.685V185.08C982.685 186.312 983.517 187.192 984.701 187.192C985.261 187.192 985.805 187 986.237 186.664L985.645 185.784ZM988.527 177.224C988.959 177.224 989.311 176.856 989.311 176.424C989.311 176.008 988.959 175.64 988.527 175.64C988.079 175.64 987.727 176.008 987.727 176.424C987.727 176.856 988.079 177.224 988.527 177.224ZM987.919 187H989.119V178.728H987.919V187ZM995.369 187.192C997.689 187.192 999.641 185.208 999.641 182.856C999.641 180.504 997.689 178.536 995.369 178.536C993.049 178.536 991.081 180.504 991.081 182.856C991.081 185.208 993.049 187.192 995.369 187.192ZM995.369 186.12C993.721 186.12 992.345 184.632 992.345 182.856C992.345 181.096 993.721 179.608 995.369 179.608C997.001 179.608 998.377 181.096 998.377 182.856C998.377 184.632 997.001 186.12 995.369 186.12ZM1005.56 178.536C1004.39 178.536 1003.32 179.176 1002.84 180.056V178.728H1001.64V187H1002.84V181.736C1002.84 180.584 1004.01 179.608 1005.4 179.608C1006.61 179.608 1007.46 180.552 1007.46 181.896V187H1008.66V181.736C1008.66 179.864 1007.38 178.536 1005.56 178.536Z" fill="#2D2D2D"/>
<path d="M642.336 172.392H645.488V175.016C644.672 175.64 643.488 176.04 642.464 176.04C640.096 176.04 638.096 173.96 638.096 171.496C638.096 169.048 640.096 166.968 642.464 166.968C643.664 166.968 645.088 167.512 645.888 168.36L646.736 167.496C645.712 166.456 643.984 165.816 642.464 165.816C639.424 165.816 636.832 168.408 636.832 171.496C636.832 174.584 639.424 177.192 642.464 177.192C643.984 177.192 645.712 176.536 646.736 175.512V171.208H642.336V172.392ZM652.866 176.12C651.234 176.12 650.098 174.936 649.922 173.32H656.69C656.69 170.424 655.266 168.536 652.77 168.536C650.546 168.536 648.69 170.376 648.69 172.84C648.69 175.384 650.674 177.192 652.882 177.192C654.034 177.192 655.49 176.696 656.21 175.912L655.474 175.128C654.962 175.688 653.842 176.12 652.866 176.12ZM652.818 169.608C654.466 169.608 655.346 170.76 655.506 172.248H649.938C650.162 170.648 651.346 169.608 652.818 169.608ZM662.59 168.536C661.422 168.536 660.35 169.176 659.87 170.056V168.728H658.67V177H659.87V171.736C659.87 170.584 661.038 169.608 662.43 169.608C663.646 169.608 664.494 170.552 664.494 171.896V177H665.694V171.736C665.694 169.864 664.414 168.536 662.59 168.536ZM671.85 176.12C670.218 176.12 669.082 174.936 668.906 173.32H675.674C675.674 170.424 674.25 168.536 671.754 168.536C669.53 168.536 667.674 170.376 667.674 172.84C667.674 175.384 669.658 177.192 671.866 177.192C673.018 177.192 674.474 176.696 675.194 175.912L674.458 175.128C673.946 175.688 672.826 176.12 671.85 176.12ZM671.802 169.608C673.45 169.608 674.33 170.76 674.49 172.248H668.922C669.146 170.648 670.33 169.608 671.802 169.608ZM678.95 170.344V168.728H677.75V177H678.95V172.376C678.95 170.76 680.278 169.608 682.15 169.608V168.536C680.63 168.536 679.446 169.24 678.95 170.344ZM687.17 168.536C686.37 168.536 685.378 168.744 684.194 169.336L684.674 170.312C685.426 169.928 686.258 169.56 687.09 169.56C688.882 169.56 689.33 170.84 689.33 171.96V172.264C688.482 171.992 687.538 171.8 686.642 171.8C684.866 171.8 683.394 172.904 683.394 174.552C683.394 176.184 684.674 177.192 686.418 177.192C687.506 177.192 688.738 176.68 689.33 175.704V177H690.53V171.96C690.53 169.96 689.426 168.536 687.17 168.536ZM686.626 176.136C685.458 176.136 684.562 175.528 684.562 174.504C684.562 173.512 685.602 172.808 686.834 172.808C687.73 172.808 688.578 172.936 689.33 173.144V174.408C689.01 175.576 687.714 176.136 686.626 176.136ZM696.614 175.784C696.438 175.976 696.118 176.12 695.75 176.12C695.27 176.12 694.854 175.688 694.854 175.08V169.8H696.886V168.728H694.854V166.456H693.654V168.728H692.358V169.8H693.654V175.08C693.654 176.312 694.486 177.192 695.67 177.192C696.23 177.192 696.774 177 697.206 176.664L696.614 175.784ZM699.496 167.224C699.928 167.224 700.28 166.856 700.28 166.424C700.28 166.008 699.928 165.64 699.496 165.64C699.048 165.64 698.696 166.008 698.696 166.424C698.696 166.856 699.048 167.224 699.496 167.224ZM698.888 177H700.088V168.728H698.888V177ZM706.337 177.192C708.657 177.192 710.609 175.208 710.609 172.856C710.609 170.504 708.657 168.536 706.337 168.536C704.017 168.536 702.049 170.504 702.049 172.856C702.049 175.208 704.017 177.192 706.337 177.192ZM706.337 176.12C704.689 176.12 703.313 174.632 703.313 172.856C703.313 171.096 704.689 169.608 706.337 169.608C707.969 169.608 709.345 171.096 709.345 172.856C709.345 174.632 707.969 176.12 706.337 176.12ZM716.527 168.536C715.359 168.536 714.287 169.176 713.807 170.056V168.728H712.607V177H713.807V171.736C713.807 170.584 714.975 169.608 716.367 169.608C717.583 169.608 718.431 170.552 718.431 171.896V177H719.631V171.736C719.631 169.864 718.351 168.536 716.527 168.536ZM731.948 177.192C735.004 177.192 737.564 174.584 737.564 171.496C737.564 168.408 735.004 165.816 731.948 165.816C728.908 165.816 726.316 168.408 726.316 171.496C726.316 174.584 728.908 177.192 731.948 177.192ZM731.948 176.04C729.58 176.04 727.58 173.96 727.58 171.496C727.58 169.048 729.58 166.968 731.948 166.968C734.316 166.968 736.3 169.048 736.3 171.496C736.3 173.96 734.316 176.04 731.948 176.04ZM741.479 167.592C741.479 166.984 741.895 166.552 742.375 166.552C742.743 166.552 743.063 166.696 743.239 166.888L743.831 166.008C743.399 165.672 742.855 165.48 742.295 165.48C741.111 165.48 740.279 166.36 740.279 167.592V168.728H738.983V169.8H740.279V177H741.479V169.8H743.511V168.728H741.479V167.592ZM662.123 197H663.371V186.008H662.123V197ZM669.793 188.536C668.625 188.536 667.553 189.176 667.073 190.056V188.728H665.873V197H667.073V191.736C667.073 190.584 668.241 189.608 669.633 189.608C670.849 189.608 671.697 190.552 671.697 191.896V197H672.897V191.736C672.897 189.864 671.617 188.536 669.793 188.536ZM678.253 197.192C679.965 197.192 681.277 196.216 681.277 194.696C681.277 193.128 679.901 192.68 678.573 192.264C677.037 191.768 676.429 191.544 676.429 190.824C676.429 190.024 677.197 189.608 678.125 189.608C678.861 189.608 679.677 189.864 680.509 190.392L681.085 189.464C680.205 188.888 679.149 188.536 678.125 188.536C676.477 188.536 675.229 189.464 675.229 190.968C675.229 192.152 675.997 192.744 677.997 193.32C679.117 193.64 680.077 193.928 680.077 194.824C680.077 195.608 679.341 196.12 678.253 196.12C677.341 196.12 676.397 195.768 675.453 195.08L674.829 195.96C675.821 196.76 677.101 197.192 678.253 197.192ZM683.855 187.224C684.287 187.224 684.639 186.856 684.639 186.424C684.639 186.008 684.287 185.64 683.855 185.64C683.407 185.64 683.055 186.008 683.055 186.424C683.055 186.856 683.407 187.224 683.855 187.224ZM683.247 197H684.447V188.728H683.247V197ZM693.289 188.728V190.152C692.649 189.144 691.593 188.536 690.281 188.536C688.057 188.536 686.473 190.152 686.473 192.456C686.473 194.76 688.057 196.392 690.281 196.392C691.593 196.392 692.649 195.784 693.289 194.776V196.12C693.289 197.736 692.169 198.68 690.265 198.68C689.241 198.68 688.249 198.312 687.609 197.704L687.081 198.648C687.833 199.288 689.081 199.752 690.425 199.752C692.809 199.752 694.489 198.248 694.489 196.12V188.728H693.289ZM690.505 195.32C688.889 195.32 687.737 194.136 687.737 192.456C687.737 190.792 688.889 189.608 690.505 189.608C692.137 189.608 693.289 190.792 693.289 192.456C693.289 194.136 692.137 195.32 690.505 195.32ZM700.965 188.536C699.797 188.536 698.725 189.176 698.245 190.056V185.816H697.045V197H698.245V191.736C698.245 190.584 699.413 189.608 700.805 189.608C702.021 189.608 702.869 190.552 702.869 191.896V197H704.069V191.736C704.069 189.864 702.789 188.536 700.965 188.536ZM710.129 195.784C709.953 195.976 709.633 196.12 709.265 196.12C708.785 196.12 708.369 195.688 708.369 195.08V189.8H710.401V188.728H708.369V186.456H707.169V188.728H705.873V189.8H707.169V195.08C707.169 196.312 708.001 197.192 709.185 197.192C709.745 197.192 710.289 197 710.721 196.664L710.129 195.784ZM715.347 197.192C717.059 197.192 718.371 196.216 718.371 194.696C718.371 193.128 716.995 192.68 715.667 192.264C714.131 191.768 713.523 191.544 713.523 190.824C713.523 190.024 714.291 189.608 715.219 189.608C715.955 189.608 716.771 189.864 717.603 190.392L718.179 189.464C717.299 188.888 716.243 188.536 715.219 188.536C713.571 188.536 712.323 189.464 712.323 190.968C712.323 192.152 713.091 192.744 715.091 193.32C716.211 193.64 717.171 193.928 717.171 194.824C717.171 195.608 716.435 196.12 715.347 196.12C714.435 196.12 713.491 195.768 712.547 195.08L711.923 195.96C712.915 196.76 714.195 197.192 715.347 197.192Z" fill="#2D2D2D"/>
<path d="M363.322 177.176C365.882 177.176 367.194 175.752 367.194 174.008C367.194 172.072 365.69 171.32 363.594 170.824C361.722 170.376 360.634 169.976 360.634 168.84C360.634 167.832 361.626 166.936 362.986 166.936C364.138 166.936 365.226 167.464 366.138 168.344L366.906 167.368C365.898 166.44 364.682 165.8 363.05 165.8C360.938 165.8 359.37 167.176 359.37 168.936C359.37 170.84 360.762 171.528 362.97 172.04C364.89 172.488 365.93 172.952 365.93 174.12C365.93 175.112 365.066 176.04 363.37 176.04C361.834 176.04 360.698 175.384 359.77 174.456L358.986 175.432C360.09 176.52 361.514 177.176 363.322 177.176ZM370.511 179.88C371.647 179.864 372.447 179.336 373.023 177.928L376.799 168.728H375.503L372.766 175.608L369.871 168.728H368.543L372.143 177.032L371.663 178.056C371.343 178.616 370.991 178.792 370.463 178.792C370.111 178.792 369.775 178.728 369.487 178.584L369.199 179.608C369.583 179.784 370.031 179.88 370.511 179.88ZM382.699 168.536C381.531 168.536 380.459 169.176 379.979 170.056V168.728H378.779V177H379.979V171.736C379.979 170.584 381.147 169.608 382.539 169.608C383.755 169.608 384.603 170.552 384.603 171.896V177H385.803V171.736C385.803 169.864 384.523 168.536 382.699 168.536ZM391.864 175.784C391.688 175.976 391.368 176.12 391 176.12C390.52 176.12 390.104 175.688 390.104 175.08V169.8H392.136V168.728H390.104V166.456H388.904V168.728H387.608V169.8H388.904V175.08C388.904 176.312 389.736 177.192 390.92 177.192C391.48 177.192 392.024 177 392.456 176.664L391.864 175.784ZM398.09 168.536C396.922 168.536 395.85 169.176 395.37 170.056V165.816H394.17V177H395.37V171.736C395.37 170.584 396.538 169.608 397.93 169.608C399.146 169.608 399.994 170.552 399.994 171.896V177H401.194V171.736C401.194 169.864 399.914 168.536 398.09 168.536ZM407.35 176.12C405.718 176.12 404.582 174.936 404.406 173.32H411.174C411.174 170.424 409.75 168.536 407.254 168.536C405.03 168.536 403.174 170.376 403.174 172.84C403.174 175.384 405.158 177.192 407.366 177.192C408.518 177.192 409.974 176.696 410.694 175.912L409.958 175.128C409.446 175.688 408.326 176.12 407.35 176.12ZM407.302 169.608C408.95 169.608 409.83 170.76 409.99 172.248H404.422C404.646 170.648 405.83 169.608 407.302 169.608ZM416.066 177.192C417.778 177.192 419.09 176.216 419.09 174.696C419.09 173.128 417.714 172.68 416.386 172.264C414.85 171.768 414.242 171.544 414.242 170.824C414.242 170.024 415.01 169.608 415.938 169.608C416.674 169.608 417.49 169.864 418.322 170.392L418.898 169.464C418.018 168.888 416.962 168.536 415.938 168.536C414.29 168.536 413.042 169.464 413.042 170.968C413.042 172.152 413.81 172.744 415.81 173.32C416.93 173.64 417.89 173.928 417.89 174.824C417.89 175.608 417.154 176.12 416.066 176.12C415.154 176.12 414.21 175.768 413.266 175.08L412.642 175.96C413.634 176.76 414.914 177.192 416.066 177.192ZM421.667 167.224C422.099 167.224 422.451 166.856 422.451 166.424C422.451 166.008 422.099 165.64 421.667 165.64C421.219 165.64 420.867 166.008 420.867 166.424C420.867 166.856 421.219 167.224 421.667 167.224ZM421.059 177H422.259V168.728H421.059V177ZM427.597 177.192C429.309 177.192 430.621 176.216 430.621 174.696C430.621 173.128 429.245 172.68 427.917 172.264C426.381 171.768 425.773 171.544 425.773 170.824C425.773 170.024 426.541 169.608 427.469 169.608C428.205 169.608 429.021 169.864 429.853 170.392L430.429 169.464C429.549 168.888 428.493 168.536 427.469 168.536C425.821 168.536 424.573 169.464 424.573 170.968C424.573 172.152 425.341 172.744 427.341 173.32C428.461 173.64 429.421 173.928 429.421 174.824C429.421 175.608 428.685 176.12 427.597 176.12C426.685 176.12 425.741 175.768 424.797 175.08L424.173 175.96C425.165 176.76 426.445 177.192 427.597 177.192ZM446.079 176.584L444.255 174.728C444.815 173.928 445.311 172.968 445.775 171.944L444.735 171.48C444.399 172.392 443.967 173.224 443.487 173.944C442.495 172.904 441.727 172.072 440.975 171.192C442.543 170.568 443.663 169.88 443.663 168.424C443.663 167.048 442.543 165.88 441.071 165.88C439.423 165.88 438.271 167.016 438.271 168.456C438.271 169.272 438.575 170.008 439.199 170.872C437.503 171.624 436.687 172.664 436.687 174.088C436.687 176.008 438.191 177.192 440.143 177.192C441.503 177.192 442.591 176.6 443.503 175.656L444.943 177.112L446.079 176.584ZM441.071 166.952C441.887 166.952 442.463 167.608 442.463 168.456C442.463 169.368 441.807 169.848 440.335 170.424C439.743 169.672 439.471 169.032 439.471 168.456C439.471 167.512 440.159 166.952 441.071 166.952ZM440.191 176.12C438.943 176.12 437.887 175.352 437.887 174.056C437.887 173.032 438.623 172.232 439.823 171.672C440.591 172.6 441.423 173.512 442.735 174.872C441.999 175.656 441.151 176.12 440.191 176.12ZM381.06 197H382.42L377.572 186.008H376.212L371.364 197H372.724L373.828 194.504H379.956L381.06 197ZM374.34 193.32L376.9 187.544L379.444 193.32H374.34ZM388.082 188.536C386.914 188.536 385.842 189.176 385.362 190.056V188.728H384.162V197H385.362V191.736C385.362 190.584 386.53 189.608 387.922 189.608C389.138 189.608 389.986 190.552 389.986 191.896V197H391.186V191.736C391.186 189.864 389.906 188.536 388.082 188.536ZM396.974 188.536C396.174 188.536 395.182 188.744 393.998 189.336L394.478 190.312C395.23 189.928 396.062 189.56 396.894 189.56C398.686 189.56 399.134 190.84 399.134 191.96V192.264C398.286 191.992 397.342 191.8 396.446 191.8C394.67 191.8 393.198 192.904 393.198 194.552C393.198 196.184 394.478 197.192 396.222 197.192C397.31 197.192 398.542 196.68 399.134 195.704V197H400.334V191.96C400.334 189.96 399.23 188.536 396.974 188.536ZM396.43 196.136C395.262 196.136 394.366 195.528 394.366 194.504C394.366 193.512 395.406 192.808 396.638 192.808C397.534 192.808 398.382 192.936 399.134 193.144V194.408C398.814 195.576 397.518 196.136 396.43 196.136ZM402.786 197H403.986V185.816H402.786V197ZM407.643 199.88C408.779 199.864 409.579 199.336 410.155 197.928L413.931 188.728H412.635L409.899 195.608L407.003 188.728H405.675L409.275 197.032L408.795 198.056C408.475 198.616 408.123 198.792 407.595 198.792C407.243 198.792 406.907 198.728 406.619 198.584L406.331 199.608C406.715 199.784 407.163 199.88 407.643 199.88ZM418.824 197.192C420.536 197.192 421.848 196.216 421.848 194.696C421.848 193.128 420.472 192.68 419.144 192.264C417.608 191.768 417 191.544 417 190.824C417 190.024 417.768 189.608 418.696 189.608C419.432 189.608 420.248 189.864 421.08 190.392L421.656 189.464C420.776 188.888 419.72 188.536 418.696 188.536C417.048 188.536 415.8 189.464 415.8 190.968C415.8 192.152 416.568 192.744 418.568 193.32C419.688 193.64 420.648 193.928 420.648 194.824C420.648 195.608 419.912 196.12 418.824 196.12C417.912 196.12 416.968 195.768 416.024 195.08L415.4 195.96C416.392 196.76 417.672 197.192 418.824 197.192ZM424.425 187.224C424.857 187.224 425.209 186.856 425.209 186.424C425.209 186.008 424.857 185.64 424.425 185.64C423.977 185.64 423.625 186.008 423.625 186.424C423.625 186.856 423.977 187.224 424.425 187.224ZM423.817 197H425.017V188.728H423.817V197ZM430.355 197.192C432.067 197.192 433.379 196.216 433.379 194.696C433.379 193.128 432.003 192.68 430.675 192.264C429.139 191.768 428.531 191.544 428.531 190.824C428.531 190.024 429.299 189.608 430.227 189.608C430.963 189.608 431.779 189.864 432.611 190.392L433.187 189.464C432.307 188.888 431.251 188.536 430.227 188.536C428.579 188.536 427.331 189.464 427.331 190.968C427.331 192.152 428.099 192.744 430.099 193.32C431.219 193.64 432.179 193.928 432.179 194.824C432.179 195.608 431.443 196.12 430.355 196.12C429.443 196.12 428.499 195.768 427.555 195.08L426.931 195.96C427.923 196.76 429.203 197.192 430.355 197.192Z" fill="#2D2D2D"/>
<path d="M77.0227 187.192C79.7107 187.192 81.6147 185.224 81.6147 182.44V176.008H80.3667V182.44C80.3667 184.552 78.9747 186.056 77.0227 186.056C75.0707 186.056 73.6787 184.552 73.6787 182.44V176.008H72.4307V182.44C72.4307 185.224 74.3347 187.192 77.0227 187.192ZM87.1362 187.192C88.8482 187.192 90.1602 186.216 90.1602 184.696C90.1602 183.128 88.7842 182.68 87.4562 182.264C85.9202 181.768 85.3122 181.544 85.3122 180.824C85.3122 180.024 86.0802 179.608 87.0082 179.608C87.7442 179.608 88.5602 179.864 89.3922 180.392L89.9682 179.464C89.0882 178.888 88.0322 178.536 87.0082 178.536C85.3602 178.536 84.1122 179.464 84.1122 180.968C84.1122 182.152 84.8802 182.744 86.8802 183.32C88.0002 183.64 88.9602 183.928 88.9602 184.824C88.9602 185.608 88.2242 186.12 87.1362 186.12C86.2242 186.12 85.2802 185.768 84.3362 185.08L83.7122 185.96C84.7042 186.76 85.9842 187.192 87.1362 187.192ZM95.8737 186.12C94.2417 186.12 93.1057 184.936 92.9297 183.32H99.6977C99.6977 180.424 98.2737 178.536 95.7777 178.536C93.5537 178.536 91.6977 180.376 91.6977 182.84C91.6977 185.384 93.6817 187.192 95.8897 187.192C97.0417 187.192 98.4977 186.696 99.2177 185.912L98.4817 185.128C97.9697 185.688 96.8497 186.12 95.8737 186.12ZM95.8257 179.608C97.4737 179.608 98.3537 180.76 98.5137 182.248H92.9457C93.1697 180.648 94.3537 179.608 95.8257 179.608ZM102.973 180.344V178.728H101.773V187H102.973V182.376C102.973 180.76 104.301 179.608 106.173 179.608V178.536C104.653 178.536 103.469 179.24 102.973 180.344ZM115.674 187H116.922V177.192H120.618V176.008H111.978V177.192H115.674V187ZM126.28 186.12C124.648 186.12 123.512 184.936 123.336 183.32H130.104C130.104 180.424 128.68 178.536 126.184 178.536C123.96 178.536 122.104 180.376 122.104 182.84C122.104 185.384 124.088 187.192 126.296 187.192C127.448 187.192 128.904 186.696 129.624 185.912L128.888 185.128C128.376 185.688 127.256 186.12 126.28 186.12ZM126.232 179.608C127.88 179.608 128.76 180.76 128.92 182.248H123.352C123.576 180.648 124.76 179.608 126.232 179.608ZM134.996 187.192C136.708 187.192 138.02 186.216 138.02 184.696C138.02 183.128 136.644 182.68 135.316 182.264C133.78 181.768 133.172 181.544 133.172 180.824C133.172 180.024 133.94 179.608 134.868 179.608C135.604 179.608 136.42 179.864 137.252 180.392L137.828 179.464C136.948 178.888 135.892 178.536 134.868 178.536C133.22 178.536 131.972 179.464 131.972 180.968C131.972 182.152 132.74 182.744 134.74 183.32C135.86 183.64 136.82 183.928 136.82 184.824C136.82 185.608 136.084 186.12 134.996 186.12C134.084 186.12 133.14 185.768 132.196 185.08L131.572 185.96C132.564 186.76 133.844 187.192 134.996 187.192ZM143.637 185.784C143.461 185.976 143.141 186.12 142.773 186.12C142.293 186.12 141.877 185.688 141.877 185.08V179.8H143.909V178.728H141.877V176.456H140.677V178.728H139.381V179.8H140.677V185.08C140.677 186.312 141.509 187.192 142.693 187.192C143.253 187.192 143.797 187 144.229 186.664L143.637 185.784ZM146.519 177.224C146.951 177.224 147.303 176.856 147.303 176.424C147.303 176.008 146.951 175.64 146.519 175.64C146.071 175.64 145.719 176.008 145.719 176.424C145.719 176.856 146.071 177.224 146.519 177.224ZM145.911 187H147.111V178.728H145.911V187ZM153.457 178.536C152.289 178.536 151.217 179.176 150.737 180.056V178.728H149.537V187H150.737V181.736C150.737 180.584 151.905 179.608 153.297 179.608C154.513 179.608 155.361 180.552 155.361 181.896V187H156.561V181.736C156.561 179.864 155.281 178.536 153.457 178.536ZM165.421 178.728V180.152C164.781 179.144 163.725 178.536 162.413 178.536C160.189 178.536 158.605 180.152 158.605 182.456C158.605 184.76 160.189 186.392 162.413 186.392C163.725 186.392 164.781 185.784 165.421 184.776V186.12C165.421 187.736 164.301 188.68 162.397 188.68C161.373 188.68 160.381 188.312 159.741 187.704L159.213 188.648C159.965 189.288 161.213 189.752 162.557 189.752C164.941 189.752 166.621 188.248 166.621 186.12V178.728H165.421ZM162.637 185.32C161.021 185.32 159.869 184.136 159.869 182.456C159.869 180.792 161.021 179.608 162.637 179.608C164.269 179.608 165.421 180.792 165.421 182.456C165.421 184.136 164.269 185.32 162.637 185.32Z" fill="#2D2D2D"/>
<path d="M887.424 110.424C887.659 110.19 887.659 109.81 887.424 109.576L883.606 105.757C883.372 105.523 882.992 105.523 882.757 105.757C882.523 105.992 882.523 106.372 882.757 106.606L886.151 110L882.757 113.394C882.523 113.628 882.523 114.008 882.757 114.243C882.992 114.477 883.372 114.477 883.606 114.243L887.424 110.424ZM787 110.6H887V109.4H787V110.6Z" fill="black"/>
<path d="M597.424 110.424C597.659 110.19 597.659 109.81 597.424 109.576L593.606 105.757C593.372 105.523 592.992 105.523 592.757 105.757C592.523 105.992 592.523 106.372 592.757 106.606L596.151 110L592.757 113.394C592.523 113.628 592.523 114.008 592.757 114.243C592.992 114.477 593.372 114.477 593.606 114.243L597.424 110.424ZM497 110.6H597V109.4H497V110.6Z" fill="black"/>
<path d="M313.424 110.424C313.659 110.19 313.659 109.81 313.424 109.576L309.606 105.757C309.372 105.523 308.992 105.523 308.757 105.757C308.523 105.992 308.523 106.372 308.757 106.606L312.151 110L308.757 113.394C308.523 113.628 308.523 114.008 308.757 114.243C308.992 114.477 309.372 114.477 309.606 114.243L313.424 110.424ZM213 110.6H313V109.4H213V110.6Z" fill="black"/>
<path d="M412.979 68.894L413.022 68.8343L412.978 68.7756C412.405 68.016 412.065 67.0721 412.065 66.05C412.065 63.5474 414.101 61.5111 416.604 61.5111C419.106 61.5111 421.143 63.5474 421.143 66.05C421.143 68.5525 419.106 70.5887 416.604 70.5887C416.111 70.5887 415.636 70.5084 415.191 70.3625L415.121 70.3396L415.078 70.3993L407.457 81.0499L407.414 81.1096L407.458 81.1682C408.031 81.9279 408.371 82.872 408.371 83.8942C408.371 86.3968 406.335 88.4331 403.832 88.4331C401.329 88.4331 399.293 86.3968 399.293 83.8942C399.293 83.567 399.329 83.2478 399.395 82.9398L399.41 82.8681L399.347 82.8318L394.267 79.9492L394.203 79.913L394.149 79.9629C393.338 80.7178 392.252 81.1808 391.06 81.1808C389.867 81.1808 388.781 80.7178 387.97 79.9628L387.917 79.9128L387.853 79.949L382.773 82.8316L382.709 82.8679L382.724 82.9397C382.791 83.2476 382.826 83.5668 382.826 83.894C382.826 86.3966 380.79 88.4329 378.288 88.4329C375.785 88.4329 373.749 86.3966 373.749 83.894C373.749 81.3915 375.785 79.3552 378.288 79.3552C379.48 79.3552 380.566 79.818 381.377 80.573L381.431 80.623L381.494 80.5868L386.574 77.7041L386.638 77.6679L386.623 77.5961C386.557 77.2882 386.521 76.969 386.521 76.6417C386.521 74.1392 388.557 72.1031 391.06 72.1031C393.562 72.1031 395.598 74.1392 395.598 76.6417C395.598 76.969 395.563 77.2882 395.497 77.5961L395.481 77.6679L395.545 77.7041L400.625 80.5868L400.689 80.623L400.743 80.573C401.554 79.818 402.639 79.355 403.832 79.355C404.325 79.355 404.8 79.4352 405.245 79.5814L405.315 79.6043L405.357 79.5446L412.979 68.894ZM418.559 66.05C418.559 64.9715 417.682 64.0943 416.604 64.0943C415.525 64.0943 414.648 64.9715 414.648 66.05C414.648 67.1283 415.526 68.0055 416.604 68.0055C417.682 68.0055 418.559 67.1283 418.559 66.05ZM376.332 83.8937C376.332 84.9722 377.209 85.8493 378.287 85.8493C379.365 85.8493 380.243 84.9722 380.243 83.8937C380.243 82.8151 379.365 81.938 378.287 81.938C377.209 81.938 376.332 82.8151 376.332 83.8937ZM389.104 76.6416C389.104 77.7201 389.981 78.5972 391.059 78.5972C392.138 78.5972 393.015 77.7201 393.015 76.6416C393.015 75.5632 392.138 74.6861 391.059 74.6861C389.981 74.6861 389.104 75.5632 389.104 76.6416ZM401.876 83.8937C401.876 84.9722 402.753 85.8493 403.832 85.8493C404.91 85.8493 405.787 84.9722 405.787 83.8937C405.787 82.8151 404.91 81.938 403.832 81.938C402.753 81.938 401.876 82.8151 401.876 83.8937Z" fill="black" stroke="#FAFAFA" stroke-width="0.2"/>
<path d="M369.632 118.728V118.628H369.532H359.936C357.821 118.628 356.1 116.907 356.1 114.791V57.3797C356.1 55.2644 357.821 53.5434 359.936 53.5434H366.497C367.21 53.5434 367.788 54.1215 367.788 54.835C367.788 55.5484 367.21 56.1266 366.497 56.1266H359.936C359.245 56.1266 358.683 56.6886 358.683 57.3797V114.791C358.683 115.483 359.245 116.045 359.936 116.045H370.923H423.968H433.706C434.42 116.045 434.998 116.623 434.998 117.336C434.998 118.05 434.42 118.628 433.706 118.628H425.359H425.259V118.728V121.79C425.259 123.48 423.885 124.855 422.195 124.855H408.265H408.102L408.176 125L414.734 137.803C415.059 138.437 414.808 139.216 414.173 139.541C413.984 139.637 413.783 139.683 413.585 139.683C413.116 139.683 412.663 139.427 412.435 138.98L405.227 124.909L405.2 124.855H405.138H389.752H389.691L389.663 124.909L382.456 138.98L382.545 139.026L382.456 138.98C382.228 139.427 381.775 139.683 381.306 139.683C381.108 139.683 380.906 139.638 380.718 139.541L380.672 139.63L380.718 139.541C380.083 139.216 379.832 138.438 380.157 137.803L386.714 125L386.789 124.855H386.625H372.696C371.006 124.855 369.632 123.48 369.632 121.79V118.728ZM372.315 118.628H372.215V118.728V121.79C372.215 122.056 372.43 122.271 372.696 122.271H422.195C422.46 122.271 422.676 122.056 422.676 121.79V118.728V118.628H422.576H372.315Z" fill="black" stroke="#FAFAFA" stroke-width="0.2"/>
<path d="M405.069 53.4434V53.5434H405.169H434.954C437.07 53.5434 438.791 55.2645 438.791 57.3798V70.6113C438.791 71.3248 438.212 71.9029 437.499 71.9029C436.786 71.9029 436.207 71.3248 436.207 70.6113V57.3798C436.207 56.6887 435.645 56.1266 434.954 56.1266H403.777H391.113H372.063C371.35 56.1266 370.771 55.5485 370.771 54.835C370.771 54.1215 371.35 53.5434 372.063 53.5434H389.722H389.822V53.4434V50.708C389.822 48.8382 391.343 47.3168 393.213 47.3168H401.678C403.548 47.3168 405.069 48.8382 405.069 50.708V53.4434ZM392.405 50.708V50.808H392.405V53.4434V53.5434H392.505H402.386H402.486V53.4434V50.708C402.486 50.2624 402.123 49.9 401.678 49.9H393.213C392.768 49.9 392.405 50.2624 392.405 50.708Z" fill="black" stroke="#FAFAFA" stroke-width="0.2"/>
<path d="M379.718 108.044H379.818V107.944V98.4309V98.3309H379.718H376.856H376.756V98.4309V107.944V108.044H376.856H379.718ZM374.173 97.0391C374.173 96.3256 374.751 95.7475 375.464 95.7475H381.11C381.823 95.7475 382.402 96.3256 382.402 97.0391V109.336C382.402 110.049 381.823 110.627 381.11 110.627H375.464C374.751 110.627 374.173 110.049 374.173 109.336V97.0391Z" fill="black" stroke="#FAFAFA" stroke-width="0.2"/>
<path d="M392.491 108.045H392.591V107.945V91.3193V91.2193H392.491H389.628H389.528V91.3193V107.945V108.045H389.628H392.491ZM386.945 89.9277C386.945 89.2143 387.523 88.6361 388.236 88.6361H393.882C394.595 88.6361 395.174 89.2143 395.174 89.9277V109.336C395.174 110.05 394.595 110.628 393.882 110.628H388.236C387.523 110.628 386.945 110.05 386.945 109.336V89.9277Z" fill="black" stroke="#FAFAFA" stroke-width="0.2"/>
<path d="M405.263 108.044H405.363V107.944V98.4309V98.3309H405.263H402.4H402.3V98.4309V107.944V108.044H402.4H405.263ZM399.717 97.0391C399.717 96.3256 400.295 95.7475 401.009 95.7475H406.654C407.368 95.7475 407.946 96.3256 407.946 97.0391V109.336C407.946 110.049 407.368 110.627 406.654 110.627H401.009C400.295 110.627 399.717 110.049 399.717 109.336V97.0391Z" fill="black" stroke="#FAFAFA" stroke-width="0.2"/>
<path d="M415.072 107.945V108.045H415.172H419.426C420.14 108.045 420.718 108.623 420.718 109.336C420.718 110.05 420.14 110.628 419.426 110.628H413.781C413.067 110.628 412.489 110.05 412.489 109.336V105.251C412.489 104.537 413.067 103.959 413.781 103.959C414.494 103.959 415.072 104.537 415.072 105.251V107.945Z" fill="black" stroke="#FAFAFA" stroke-width="0.2"/>
<path d="M442.234 103.357L442.183 103.411L442.22 103.475L450.204 117.303C450.66 118.093 450.9 118.989 450.9 119.896C450.9 121.745 449.905 123.469 448.304 124.393C447.489 124.864 446.598 125.087 445.718 125.087C443.922 125.087 442.174 124.156 441.215 122.493L441.128 122.543L441.215 122.493L433.233 108.665L433.196 108.601L433.123 108.618C431.788 108.93 430.423 109.088 429.05 109.088C427.479 109.088 425.897 108.882 424.339 108.464C419.672 107.213 415.771 104.22 413.355 100.036C408.368 91.3981 411.338 80.3133 419.976 75.3265C428.614 70.3397 439.699 73.3093 444.686 81.9475L444.772 81.8975L444.686 81.9475C447.101 86.132 447.743 91.0063 446.493 95.6733C445.71 98.5936 444.245 101.213 442.234 103.357ZM425.007 105.969L425.033 105.872L425.007 105.969C429.008 107.04 433.186 106.49 436.773 104.42C440.359 102.349 442.925 99.0052 443.997 95.0048C445.069 91.0044 444.519 86.8256 442.448 83.2391C439.58 78.2705 434.356 75.4894 428.994 75.4894C426.365 75.4894 423.703 76.1573 421.268 77.5635L421.318 77.6501L421.268 77.5635C413.863 81.8385 411.317 91.3399 415.592 98.7443C417.663 102.331 421.007 104.897 425.007 105.969ZM435.821 107.755L435.715 107.798L435.773 107.898L443.452 121.202C444.17 122.447 445.768 122.875 447.013 122.156C447.817 121.691 448.317 120.825 448.317 119.896C448.317 119.442 448.196 118.992 447.967 118.595L447.967 118.595L440.285 105.29L440.228 105.19L440.137 105.261C439.483 105.768 438.793 106.236 438.065 106.657C437.337 107.077 436.587 107.443 435.821 107.755Z" fill="black" stroke="#FAFAFA" stroke-width="0.2"/>
<path d="M438.552 86.5156L438.552 86.5156C438.247 85.8703 438.524 85.1009 439.169 84.7968C439.815 84.4928 440.584 84.7694 440.888 85.4148C442.285 88.3794 442.517 91.7417 441.542 94.8826C440.561 98.0418 438.443 100.693 435.576 102.347L435.626 102.434L435.576 102.347C433.556 103.514 431.313 104.11 429.041 104.11C427.903 104.11 426.756 103.96 425.626 103.657C422.243 102.751 419.416 100.581 417.664 97.5477C415.913 94.5144 415.448 90.981 416.354 87.5978C417.261 84.2145 419.43 81.3871 422.464 79.6358C427.041 76.9931 432.722 77.3461 436.938 80.5357L436.938 80.5357C437.507 80.9661 437.619 81.7762 437.188 82.345L437.268 82.4053L437.188 82.345C436.758 82.914 435.948 83.0261 435.379 82.5955L435.319 82.6753L435.379 82.5955C431.994 80.0345 427.432 79.7509 423.756 81.873L423.756 81.873C418.727 84.7761 416.998 91.2282 419.901 96.2563C421.307 98.6917 423.578 100.434 426.295 101.162L426.321 101.066L426.295 101.162C429.011 101.89 431.849 101.517 434.285 100.11C436.586 98.7815 438.288 96.6528 439.075 94.1164C439.858 91.5941 439.672 88.8948 438.552 86.5156Z" fill="black" stroke="#FAFAFA" stroke-width="0.2"/>
<mask id="path-34-inside-1" fill="white">
<path d="M124.125 114.312V54.9375C124.127 52.8662 124.951 50.8804 126.416 49.4158C127.88 47.9512 129.866 47.1273 131.938 47.125H160.062C162.134 47.1273 164.12 47.9512 165.584 49.4158C167.049 50.8804 167.873 52.8662 167.875 54.9375V114.312C167.876 116.215 167.181 118.053 165.922 119.48L163.578 117.412C164.334 116.556 164.75 115.454 164.75 114.312V114.308C163.4 115.327 161.754 115.877 160.062 115.875H149.125V112.75H160.062C161.305 112.749 162.497 112.254 163.375 111.375C164.254 110.497 164.749 109.305 164.75 108.062V54.9375C164.749 53.6947 164.254 52.5033 163.375 51.6245C162.497 50.7458 161.305 50.2514 160.062 50.25H131.938C130.695 50.2514 129.503 50.7458 128.625 51.6245C127.746 52.5033 127.251 53.6947 127.25 54.9375V108.062C127.251 109.305 127.746 110.497 128.625 111.375C129.503 112.254 130.695 112.749 131.938 112.75H133.5V115.875H131.938C130.246 115.877 128.6 115.327 127.25 114.308V114.312C127.252 115.135 127.469 115.943 127.881 116.656C128.292 117.368 128.883 117.961 129.595 118.374L128.03 121.079C126.845 120.39 125.86 119.404 125.175 118.216C124.49 117.029 124.128 115.683 124.125 114.312ZM130.375 61.1875C130.375 60.7731 130.54 60.3757 130.833 60.0826C131.126 59.7896 131.523 59.625 131.938 59.625H160.062C160.477 59.625 160.874 59.7896 161.167 60.0826C161.46 60.3757 161.625 60.7731 161.625 61.1875V73.6875C161.625 74.1019 161.46 74.4993 161.167 74.7924C160.874 75.0854 160.477 75.25 160.062 75.25H131.938C131.523 75.25 131.126 75.0854 130.833 74.7924C130.54 74.4993 130.375 74.1019 130.375 73.6875V61.1875ZM133.5 72.125H158.5V62.75H133.5V72.125ZM133.5 53.375H130.375V56.5H133.5V53.375ZM136.625 53.375V56.5H139.75V53.375H136.625ZM142.875 53.375V56.5H146V53.375H142.875ZM130.375 79.9375C130.375 79.5231 130.54 79.1257 130.833 78.8326C131.126 78.5396 131.523 78.375 131.938 78.375H144.438C144.852 78.375 145.249 78.5396 145.542 78.8326C145.835 79.1257 146 79.5231 146 79.9375V89.3125C146 89.7269 145.835 90.1243 145.542 90.4174C145.249 90.7104 144.852 90.875 144.438 90.875H131.938C131.523 90.875 131.126 90.7104 130.833 90.4174C130.54 90.1243 130.375 89.7269 130.375 89.3125V79.9375ZM133.5 87.75H142.875V81.5H133.5V87.75ZM161.625 79.9375H149.125V83.0625H161.625V79.9375ZM161.625 86.1875H149.125V89.3125H161.625V86.1875ZM130.375 104.938C130.375 105.352 130.54 105.749 130.833 106.042C131.126 106.335 131.523 106.5 131.938 106.5H135.062V103.375H133.5V97.125H142.875V103.375H146V95.5625C146 95.1481 145.835 94.7507 145.542 94.4576C145.249 94.1646 144.852 94 144.438 94H131.938C131.523 94 131.126 94.1646 130.833 94.4576C130.54 94.7507 130.375 95.1481 130.375 95.5625V104.938ZM161.625 95.5625H149.125V98.6875H161.625V95.5625ZM149.125 104.938H161.625V101.812H149.125V104.938ZM132.127 122.125C132.768 122.123 133.403 122.249 133.994 122.494C134.586 122.739 135.124 123.099 135.576 123.554L136.625 124.603V111.188C136.625 109.944 137.119 108.752 137.998 107.873C138.877 106.994 140.069 106.5 141.312 106.5C142.556 106.5 143.748 106.994 144.627 107.873C145.506 108.752 146 109.944 146 111.188V119.268C146.793 118.988 147.646 118.926 148.471 119.089C149.296 119.253 150.061 119.635 150.688 120.196C151.546 119.426 152.659 119 153.812 119C154.966 119 156.079 119.426 156.938 120.196C157.611 119.592 158.446 119.196 159.34 119.056C160.234 118.916 161.15 119.038 161.976 119.408C162.803 119.777 163.504 120.378 163.997 121.137C164.489 121.897 164.75 122.782 164.75 123.688V139.312C164.75 139.727 164.585 140.124 164.292 140.417C163.999 140.71 163.602 140.875 163.188 140.875H138.188C137.962 140.875 137.739 140.826 137.535 140.732C137.33 140.638 137.148 140.501 137.001 140.329L128.424 130.323C127.667 129.439 127.25 128.313 127.25 127.149V127.002C127.251 125.709 127.766 124.469 128.68 123.555C129.594 122.641 130.834 122.126 132.127 122.125ZM133.366 125.763C133.121 125.518 132.809 125.351 132.469 125.284C132.129 125.216 131.777 125.251 131.457 125.383C131.136 125.516 130.863 125.741 130.67 126.029C130.478 126.317 130.375 126.656 130.375 127.002V127.149C130.375 127.567 130.525 127.972 130.797 128.289L138.906 137.75H161.625V123.688C161.625 123.273 161.46 122.876 161.167 122.583C160.874 122.29 160.477 122.125 160.062 122.125C159.648 122.125 159.251 122.29 158.958 122.583C158.665 122.876 158.5 123.273 158.5 123.688C158.5 124.102 158.335 124.499 158.042 124.792C157.749 125.085 157.352 125.25 156.938 125.25C156.523 125.25 156.126 125.085 155.833 124.792C155.54 124.499 155.375 124.102 155.375 123.688C155.375 123.273 155.21 122.876 154.917 122.583C154.624 122.29 154.227 122.125 153.812 122.125C153.398 122.125 153.001 122.29 152.708 122.583C152.415 122.876 152.25 123.273 152.25 123.688C152.25 124.102 152.085 124.499 151.792 124.792C151.499 125.085 151.102 125.25 150.688 125.25C150.273 125.25 149.876 125.085 149.583 124.792C149.29 124.499 149.125 124.102 149.125 123.688C149.125 123.273 148.96 122.876 148.667 122.583C148.374 122.29 147.977 122.125 147.562 122.125C147.148 122.125 146.751 122.29 146.458 122.583C146.165 122.876 146 123.273 146 123.688C146 124.102 145.835 124.499 145.542 124.792C145.249 125.085 144.852 125.25 144.438 125.25C144.023 125.25 143.626 125.085 143.333 124.792C143.04 124.499 142.875 124.102 142.875 123.688V111.188C142.875 110.773 142.71 110.376 142.417 110.083C142.124 109.79 141.727 109.625 141.312 109.625C140.898 109.625 140.501 109.79 140.208 110.083C139.915 110.376 139.75 110.773 139.75 111.188V128.375C139.75 128.684 139.658 128.986 139.487 129.243C139.315 129.5 139.071 129.7 138.785 129.819C138.5 129.937 138.186 129.968 137.883 129.908C137.58 129.847 137.301 129.698 137.083 129.48L133.366 125.763ZM74.125 114.312V62.75H77.25V108.062C77.2514 109.305 77.7458 110.497 78.6245 111.375C79.5033 112.254 80.6947 112.749 81.9375 112.75H110.062C111.305 112.749 112.497 112.254 113.375 111.375C114.254 110.497 114.749 109.305 114.75 108.062V54.9375C114.749 53.6947 114.254 52.5033 113.375 51.6245C112.497 50.7458 111.305 50.2514 110.062 50.25H81.9375C80.6947 50.2514 79.5033 50.7458 78.6245 51.6245C77.7458 52.5033 77.2514 53.6947 77.25 54.9375V59.625H74.125V54.9375C74.1273 52.8662 74.9512 50.8804 76.4158 49.4158C77.8804 47.9512 79.8662 47.1273 81.9375 47.125H110.062C112.134 47.1273 114.12 47.9512 115.584 49.4158C117.049 50.8804 117.873 52.8662 117.875 54.9375V114.312C117.873 116.384 117.049 118.37 115.584 119.834C114.12 121.299 112.134 122.123 110.062 122.125H81.9375C79.8662 122.123 77.8804 121.299 76.4158 119.834C74.9512 118.37 74.1273 116.384 74.125 114.312ZM77.25 114.312C77.2514 115.555 77.7458 116.747 78.6245 117.625C79.5033 118.504 80.6947 118.999 81.9375 119H110.062C111.305 118.999 112.497 118.504 113.375 117.625C114.254 116.747 114.749 115.555 114.75 114.312V114.308C113.4 115.327 111.754 115.877 110.062 115.875H81.9375C80.2461 115.877 78.6004 115.327 77.25 114.308V114.312ZM80.375 61.1875C80.375 60.7731 80.5396 60.3757 80.8326 60.0826C81.1257 59.7896 81.5231 59.625 81.9375 59.625H110.062C110.477 59.625 110.874 59.7896 111.167 60.0826C111.46 60.3757 111.625 60.7731 111.625 61.1875V76.8125C111.625 77.2269 111.46 77.6243 111.167 77.9174C110.874 78.2104 110.477 78.375 110.062 78.375H81.9375C81.5231 78.375 81.1257 78.2104 80.8326 77.9174C80.5396 77.6243 80.375 77.2269 80.375 76.8125V61.1875ZM83.5 75.25H108.5V62.75H83.5V75.25ZM83.5 53.375H80.375V56.5H83.5V53.375ZM86.625 53.375V56.5H89.75V53.375H86.625ZM92.875 53.375V56.5H96V53.375H92.875ZM80.375 83.0625C80.375 82.6481 80.5396 82.2507 80.8326 81.9576C81.1257 81.6646 81.5231 81.5 81.9375 81.5H92.875C93.2894 81.5 93.6868 81.6646 93.9799 81.9576C94.2729 82.2507 94.4375 82.6481 94.4375 83.0625V92.4375C94.4375 92.8519 94.2729 93.2493 93.9799 93.5424C93.6868 93.8354 93.2894 94 92.875 94H81.9375C81.5231 94 81.1257 93.8354 80.8326 93.5424C80.5396 93.2493 80.375 92.8519 80.375 92.4375V83.0625ZM83.5 90.875H91.3125V84.625H83.5V90.875ZM80.375 100.25H94.4375V97.125H80.375V100.25ZM80.375 106.5H94.4375V103.375H80.375V106.5ZM111.625 92.4375C111.625 92.8519 111.46 93.2493 111.167 93.5424C110.874 93.8354 110.477 94 110.062 94H99.125C98.7106 94 98.3132 93.8354 98.0201 93.5424C97.7271 93.2493 97.5625 92.8519 97.5625 92.4375V83.0625C97.5625 82.6481 97.7271 82.2507 98.0201 81.9576C98.3132 81.6646 98.7106 81.5 99.125 81.5H110.062C110.477 81.5 110.874 81.6646 111.167 81.9576C111.46 82.2507 111.625 82.6481 111.625 83.0625V92.4375ZM108.5 84.625H100.688V90.875H108.5V84.625ZM111.625 97.125H97.5625V100.25H111.625V97.125ZM97.5625 106.5H111.625V103.375H97.5625V106.5ZM94.4375 134.625H97.5625V131.5H94.4375V134.625ZM103.812 131.5H100.688V134.625H103.812V131.5ZM106.938 134.625H110.062V131.5H106.938V134.625ZM116.312 131.5H113.188V134.625H116.312V131.5ZM122.562 131.5H119.438V134.625H122.562V131.5ZM97.5625 125.25H94.4375V128.375H97.5625V125.25Z"/>
</mask>
<path d="M124.125 114.312V54.9375C124.127 52.8662 124.951 50.8804 126.416 49.4158C127.88 47.9512 129.866 47.1273 131.938 47.125H160.062C162.134 47.1273 164.12 47.9512 165.584 49.4158C167.049 50.8804 167.873 52.8662 167.875 54.9375V114.312C167.876 116.215 167.181 118.053 165.922 119.48L163.578 117.412C164.334 116.556 164.75 115.454 164.75 114.312V114.308C163.4 115.327 161.754 115.877 160.062 115.875H149.125V112.75H160.062C161.305 112.749 162.497 112.254 163.375 111.375C164.254 110.497 164.749 109.305 164.75 108.062V54.9375C164.749 53.6947 164.254 52.5033 163.375 51.6245C162.497 50.7458 161.305 50.2514 160.062 50.25H131.938C130.695 50.2514 129.503 50.7458 128.625 51.6245C127.746 52.5033 127.251 53.6947 127.25 54.9375V108.062C127.251 109.305 127.746 110.497 128.625 111.375C129.503 112.254 130.695 112.749 131.938 112.75H133.5V115.875H131.938C130.246 115.877 128.6 115.327 127.25 114.308V114.312C127.252 115.135 127.469 115.943 127.881 116.656C128.292 117.368 128.883 117.961 129.595 118.374L128.03 121.079C126.845 120.39 125.86 119.404 125.175 118.216C124.49 117.029 124.128 115.683 124.125 114.312ZM130.375 61.1875C130.375 60.7731 130.54 60.3757 130.833 60.0826C131.126 59.7896 131.523 59.625 131.938 59.625H160.062C160.477 59.625 160.874 59.7896 161.167 60.0826C161.46 60.3757 161.625 60.7731 161.625 61.1875V73.6875C161.625 74.1019 161.46 74.4993 161.167 74.7924C160.874 75.0854 160.477 75.25 160.062 75.25H131.938C131.523 75.25 131.126 75.0854 130.833 74.7924C130.54 74.4993 130.375 74.1019 130.375 73.6875V61.1875ZM133.5 72.125H158.5V62.75H133.5V72.125ZM133.5 53.375H130.375V56.5H133.5V53.375ZM136.625 53.375V56.5H139.75V53.375H136.625ZM142.875 53.375V56.5H146V53.375H142.875ZM130.375 79.9375C130.375 79.5231 130.54 79.1257 130.833 78.8326C131.126 78.5396 131.523 78.375 131.938 78.375H144.438C144.852 78.375 145.249 78.5396 145.542 78.8326C145.835 79.1257 146 79.5231 146 79.9375V89.3125C146 89.7269 145.835 90.1243 145.542 90.4174C145.249 90.7104 144.852 90.875 144.438 90.875H131.938C131.523 90.875 131.126 90.7104 130.833 90.4174C130.54 90.1243 130.375 89.7269 130.375 89.3125V79.9375ZM133.5 87.75H142.875V81.5H133.5V87.75ZM161.625 79.9375H149.125V83.0625H161.625V79.9375ZM161.625 86.1875H149.125V89.3125H161.625V86.1875ZM130.375 104.938C130.375 105.352 130.54 105.749 130.833 106.042C131.126 106.335 131.523 106.5 131.938 106.5H135.062V103.375H133.5V97.125H142.875V103.375H146V95.5625C146 95.1481 145.835 94.7507 145.542 94.4576C145.249 94.1646 144.852 94 144.438 94H131.938C131.523 94 131.126 94.1646 130.833 94.4576C130.54 94.7507 130.375 95.1481 130.375 95.5625V104.938ZM161.625 95.5625H149.125V98.6875H161.625V95.5625ZM149.125 104.938H161.625V101.812H149.125V104.938ZM132.127 122.125C132.768 122.123 133.403 122.249 133.994 122.494C134.586 122.739 135.124 123.099 135.576 123.554L136.625 124.603V111.188C136.625 109.944 137.119 108.752 137.998 107.873C138.877 106.994 140.069 106.5 141.312 106.5C142.556 106.5 143.748 106.994 144.627 107.873C145.506 108.752 146 109.944 146 111.188V119.268C146.793 118.988 147.646 118.926 148.471 119.089C149.296 119.253 150.061 119.635 150.688 120.196C151.546 119.426 152.659 119 153.812 119C154.966 119 156.079 119.426 156.938 120.196C157.611 119.592 158.446 119.196 159.34 119.056C160.234 118.916 161.15 119.038 161.976 119.408C162.803 119.777 163.504 120.378 163.997 121.137C164.489 121.897 164.75 122.782 164.75 123.688V139.312C164.75 139.727 164.585 140.124 164.292 140.417C163.999 140.71 163.602 140.875 163.188 140.875H138.188C137.962 140.875 137.739 140.826 137.535 140.732C137.33 140.638 137.148 140.501 137.001 140.329L128.424 130.323C127.667 129.439 127.25 128.313 127.25 127.149V127.002C127.251 125.709 127.766 124.469 128.68 123.555C129.594 122.641 130.834 122.126 132.127 122.125ZM133.366 125.763C133.121 125.518 132.809 125.351 132.469 125.284C132.129 125.216 131.777 125.251 131.457 125.383C131.136 125.516 130.863 125.741 130.67 126.029C130.478 126.317 130.375 126.656 130.375 127.002V127.149C130.375 127.567 130.525 127.972 130.797 128.289L138.906 137.75H161.625V123.688C161.625 123.273 161.46 122.876 161.167 122.583C160.874 122.29 160.477 122.125 160.062 122.125C159.648 122.125 159.251 122.29 158.958 122.583C158.665 122.876 158.5 123.273 158.5 123.688C158.5 124.102 158.335 124.499 158.042 124.792C157.749 125.085 157.352 125.25 156.938 125.25C156.523 125.25 156.126 125.085 155.833 124.792C155.54 124.499 155.375 124.102 155.375 123.688C155.375 123.273 155.21 122.876 154.917 122.583C154.624 122.29 154.227 122.125 153.812 122.125C153.398 122.125 153.001 122.29 152.708 122.583C152.415 122.876 152.25 123.273 152.25 123.688C152.25 124.102 152.085 124.499 151.792 124.792C151.499 125.085 151.102 125.25 150.688 125.25C150.273 125.25 149.876 125.085 149.583 124.792C149.29 124.499 149.125 124.102 149.125 123.688C149.125 123.273 148.96 122.876 148.667 122.583C148.374 122.29 147.977 122.125 147.562 122.125C147.148 122.125 146.751 122.29 146.458 122.583C146.165 122.876 146 123.273 146 123.688C146 124.102 145.835 124.499 145.542 124.792C145.249 125.085 144.852 125.25 144.438 125.25C144.023 125.25 143.626 125.085 143.333 124.792C143.04 124.499 142.875 124.102 142.875 123.688V111.188C142.875 110.773 142.71 110.376 142.417 110.083C142.124 109.79 141.727 109.625 141.312 109.625C140.898 109.625 140.501 109.79 140.208 110.083C139.915 110.376 139.75 110.773 139.75 111.188V128.375C139.75 128.684 139.658 128.986 139.487 129.243C139.315 129.5 139.071 129.7 138.785 129.819C138.5 129.937 138.186 129.968 137.883 129.908C137.58 129.847 137.301 129.698 137.083 129.48L133.366 125.763ZM74.125 114.312V62.75H77.25V108.062C77.2514 109.305 77.7458 110.497 78.6245 111.375C79.5033 112.254 80.6947 112.749 81.9375 112.75H110.062C111.305 112.749 112.497 112.254 113.375 111.375C114.254 110.497 114.749 109.305 114.75 108.062V54.9375C114.749 53.6947 114.254 52.5033 113.375 51.6245C112.497 50.7458 111.305 50.2514 110.062 50.25H81.9375C80.6947 50.2514 79.5033 50.7458 78.6245 51.6245C77.7458 52.5033 77.2514 53.6947 77.25 54.9375V59.625H74.125V54.9375C74.1273 52.8662 74.9512 50.8804 76.4158 49.4158C77.8804 47.9512 79.8662 47.1273 81.9375 47.125H110.062C112.134 47.1273 114.12 47.9512 115.584 49.4158C117.049 50.8804 117.873 52.8662 117.875 54.9375V114.312C117.873 116.384 117.049 118.37 115.584 119.834C114.12 121.299 112.134 122.123 110.062 122.125H81.9375C79.8662 122.123 77.8804 121.299 76.4158 119.834C74.9512 118.37 74.1273 116.384 74.125 114.312ZM77.25 114.312C77.2514 115.555 77.7458 116.747 78.6245 117.625C79.5033 118.504 80.6947 118.999 81.9375 119H110.062C111.305 118.999 112.497 118.504 113.375 117.625C114.254 116.747 114.749 115.555 114.75 114.312V114.308C113.4 115.327 111.754 115.877 110.062 115.875H81.9375C80.2461 115.877 78.6004 115.327 77.25 114.308V114.312ZM80.375 61.1875C80.375 60.7731 80.5396 60.3757 80.8326 60.0826C81.1257 59.7896 81.5231 59.625 81.9375 59.625H110.062C110.477 59.625 110.874 59.7896 111.167 60.0826C111.46 60.3757 111.625 60.7731 111.625 61.1875V76.8125C111.625 77.2269 111.46 77.6243 111.167 77.9174C110.874 78.2104 110.477 78.375 110.062 78.375H81.9375C81.5231 78.375 81.1257 78.2104 80.8326 77.9174C80.5396 77.6243 80.375 77.2269 80.375 76.8125V61.1875ZM83.5 75.25H108.5V62.75H83.5V75.25ZM83.5 53.375H80.375V56.5H83.5V53.375ZM86.625 53.375V56.5H89.75V53.375H86.625ZM92.875 53.375V56.5H96V53.375H92.875ZM80.375 83.0625C80.375 82.6481 80.5396 82.2507 80.8326 81.9576C81.1257 81.6646 81.5231 81.5 81.9375 81.5H92.875C93.2894 81.5 93.6868 81.6646 93.9799 81.9576C94.2729 82.2507 94.4375 82.6481 94.4375 83.0625V92.4375C94.4375 92.8519 94.2729 93.2493 93.9799 93.5424C93.6868 93.8354 93.2894 94 92.875 94H81.9375C81.5231 94 81.1257 93.8354 80.8326 93.5424C80.5396 93.2493 80.375 92.8519 80.375 92.4375V83.0625ZM83.5 90.875H91.3125V84.625H83.5V90.875ZM80.375 100.25H94.4375V97.125H80.375V100.25ZM80.375 106.5H94.4375V103.375H80.375V106.5ZM111.625 92.4375C111.625 92.8519 111.46 93.2493 111.167 93.5424C110.874 93.8354 110.477 94 110.062 94H99.125C98.7106 94 98.3132 93.8354 98.0201 93.5424C97.7271 93.2493 97.5625 92.8519 97.5625 92.4375V83.0625C97.5625 82.6481 97.7271 82.2507 98.0201 81.9576C98.3132 81.6646 98.7106 81.5 99.125 81.5H110.062C110.477 81.5 110.874 81.6646 111.167 81.9576C111.46 82.2507 111.625 82.6481 111.625 83.0625V92.4375ZM108.5 84.625H100.688V90.875H108.5V84.625ZM111.625 97.125H97.5625V100.25H111.625V97.125ZM97.5625 106.5H111.625V103.375H97.5625V106.5ZM94.4375 134.625H97.5625V131.5H94.4375V134.625ZM103.812 131.5H100.688V134.625H103.812V131.5ZM106.938 134.625H110.062V131.5H106.938V134.625ZM116.312 131.5H113.188V134.625H116.312V131.5ZM122.562 131.5H119.438V134.625H122.562V131.5ZM97.5625 125.25H94.4375V128.375H97.5625V125.25Z" fill="black" stroke="#FAFAFA" stroke-width="0.8" mask="url(#path-34-inside-1)"/>
<path d="M728.344 128.656V103.803H726V128.656H718.969V75.102H726V101.459H728.344V72.7583H716.625V128.656H709.531L709.596 92.1509H697.877L697.812 128.656H690.844V82.1737H679.125V113.605H681.469V84.5175H688.5V128.656H681.469V115.949H679.125V128.656H672.094V103.947H660.375V128.656H653.344V55.6875H651V131H731V128.656H728.344ZM700.217 94.4945H707.248L707.187 128.656H700.156L700.217 94.4945ZM662.719 106.291H669.75V128.656H662.719V106.291Z" fill="black"/>
<path d="M651 51H653.344V53.3438H651V51Z" fill="black"/>
<path d="M666.235 96.9131C667.735 96.9131 669.236 96.3421 670.378 95.1999C672.662 92.9152 672.662 89.198 670.378 86.9135C670.289 86.825 670.198 86.7413 670.106 86.6595L680.244 72.7266C680.422 72.9716 680.621 73.206 680.841 73.4267C681.984 74.5691 683.484 75.14 684.985 75.14C686.485 75.14 687.986 74.5689 689.128 73.4267C689.559 72.9952 689.909 72.5124 690.178 71.9978L697.957 78.3103C697.663 80.1092 698.207 82.0196 699.592 83.4039C700.734 84.5463 702.234 85.1174 703.735 85.1174C705.235 85.1174 706.736 84.5463 707.878 83.4039C709.886 81.3964 710.128 78.283 708.608 76.0071L719.277 64.7719C720.248 65.4069 721.366 65.7249 722.485 65.7249C723.985 65.7249 725.486 65.1538 726.628 64.0116C728.913 61.7269 728.913 58.0097 726.628 55.7252C724.343 53.4405 720.626 53.4406 718.342 55.7252C716.334 57.7327 716.091 60.8463 717.612 63.1221L706.942 74.3572C704.671 72.8705 701.586 73.1236 699.592 75.1177C699.311 75.3985 699.065 75.7011 698.853 76.0197L690.836 69.5138C690.897 67.9375 690.329 66.3413 689.128 65.1405C686.844 62.856 683.126 62.8558 680.842 65.1405C679.471 66.5113 678.924 68.3977 679.198 70.181L668.058 85.4906C666.027 84.8291 663.703 85.3022 662.092 86.9136C659.807 89.1981 659.807 92.9155 662.092 95.2C663.234 96.342 664.734 96.9131 666.235 96.9131ZM719.999 57.3822C720.684 56.6967 721.584 56.3541 722.484 56.3541C723.385 56.3541 724.285 56.6969 724.97 57.3822C726.341 58.753 726.341 60.9833 724.97 62.3541C723.6 63.7249 721.369 63.7247 719.999 62.3541C718.628 60.9833 718.628 58.753 719.999 57.3822ZM701.249 76.7746C702.619 75.4039 704.85 75.4038 706.22 76.7746C707.591 78.1453 707.591 80.3756 706.22 81.7464C704.85 83.1172 702.619 83.1171 701.249 81.7464C699.878 80.3758 699.878 78.1453 701.249 76.7746ZM682.499 66.7975C683.869 65.4269 686.1 65.4269 687.47 66.7975C688.841 68.1683 688.841 70.3986 687.47 71.7694C686.1 73.14 683.869 73.14 682.499 71.7694C681.128 70.3986 681.128 68.1683 682.499 66.7975ZM663.749 88.5706C664.434 87.8852 665.334 87.5425 666.235 87.5425C667.135 87.5425 668.035 87.8853 668.721 88.5706C670.091 89.9413 670.091 92.1717 668.721 93.5425C667.35 94.9131 665.119 94.9131 663.749 93.5425C662.378 92.1717 662.378 89.9414 663.749 88.5706Z" fill="black"/>
<path d="M665.062 123.972H667.406V126.315H665.062V123.972Z" fill="black"/>
<path d="M721.312 88.0664H723.656V90.4102H721.312V88.0664Z" fill="black"/>
<path d="M721.312 78.6914H723.656V85.7227H721.312V78.6914Z" fill="black"/>
<path d="M683.812 88.0312H686.156V95.0625H683.812V88.0312Z" fill="black"/>
<path d="M683.812 97.4062H686.156V99.75H683.812V97.4062Z" fill="black"/>
<path d="M702.562 118.112H704.906V125.144H702.562V118.112Z" fill="black"/>
<path d="M702.562 113.424H704.906V115.768H702.562V113.424Z" fill="black"/>
<defs>
<clipPath id="clip0">
<rect width="90" height="90" fill="white" transform="translate(936 49)"/>
</clipPath>
</defs>
</svg>
