<svg width="353" height="255" viewBox="0 0 353 255" fill="none" xmlns="http://www.w3.org/2000/svg">
<path d="M0 0H353V255H0V0Z" fill="#FDFCF5"/>
<path d="M11.5 8.5H340.5V245.885H11.5V8.5Z" stroke="#FFF2B6"/>
<path d="M35.1946 129.28C34.3466 130.352 34.0586 130.944 34.0586 131.568C34.0586 132.192 34.3786 132.64 34.8746 132.64C35.3226 132.64 35.6266 132.304 35.6266 131.92C35.6266 131.504 35.3066 131.168 34.8906 131.168C35.0186 130.688 35.2906 130.176 35.7226 129.68L35.1946 129.28ZM38.2986 129.28C37.4506 130.352 37.1626 130.944 37.1626 131.568C37.1626 132.192 37.4826 132.64 37.9786 132.64C38.4266 132.64 38.7306 132.304 38.7306 131.92C38.7306 131.504 38.4106 131.168 37.9946 131.168C38.1226 130.688 38.3946 130.176 38.8266 129.68L38.2986 129.28ZM41.3578 140H42.3818V135.936H45.8698C48.1258 135.936 49.8378 134.512 49.8378 132.48C49.8378 130.448 48.1258 129.008 45.8698 129.008H41.3578V140ZM42.3818 134.96V129.984H45.6938C47.5338 129.984 48.8138 130.944 48.8138 132.48C48.8138 134 47.5338 134.96 45.6938 134.96H42.3818ZM52.6794 133.424V131.728H51.6874V140H52.6794V135.376C52.6794 133.664 54.0074 132.448 55.8794 132.448V131.536C54.3594 131.536 53.1434 132.304 52.6794 133.424ZM61.1185 140.192C63.4385 140.192 65.3905 138.208 65.3905 135.856C65.3905 133.504 63.4385 131.536 61.1185 131.536C58.7985 131.536 56.8305 133.504 56.8305 135.856C56.8305 138.208 58.7985 140.192 61.1185 140.192ZM61.1185 139.28C59.3425 139.28 57.8705 137.728 57.8705 135.856C57.8705 134 59.3425 132.448 61.1185 132.448C62.8785 132.448 64.3505 134 64.3505 135.856C64.3505 137.728 62.8785 139.28 61.1185 139.28ZM73.8843 128.816V133.344C73.2443 132.224 72.1563 131.536 70.7963 131.536C68.6683 131.536 67.0203 133.392 67.0203 135.856C67.0203 138.336 68.6683 140.192 70.7963 140.192C72.1563 140.192 73.2443 139.504 73.8843 138.384V140H74.8763V128.816H73.8843ZM70.9723 139.28C69.3083 139.28 68.0443 137.808 68.0443 135.856C68.0443 133.904 69.3083 132.448 70.9723 132.448C72.6843 132.448 73.8843 133.856 73.8843 135.856C73.8843 137.856 72.6843 139.28 70.9723 139.28ZM83.2431 131.728V136.992C83.2431 138.272 82.1071 139.28 80.6511 139.28C79.3391 139.28 78.4111 138.304 78.4111 136.912V131.728H77.4191V137.04C77.4191 138.88 78.6991 140.192 80.5231 140.192C81.7391 140.192 82.7951 139.552 83.2431 138.64V140H84.2351V131.728H83.2431ZM90.4768 140.192C91.5968 140.192 92.6368 139.712 93.4048 138.944L92.7168 138.272C92.1408 138.896 91.3408 139.28 90.4768 139.28C88.6848 139.28 87.2768 137.776 87.2768 135.856C87.2768 133.952 88.6848 132.448 90.4768 132.448C91.3248 132.448 92.1088 132.816 92.6848 133.424L93.3728 132.752C92.6048 132 91.5808 131.536 90.4768 131.536C88.1248 131.536 86.2368 133.44 86.2368 135.856C86.2368 138.272 88.1248 140.192 90.4768 140.192ZM98.9113 138.928C98.6873 139.136 98.3353 139.28 97.9513 139.28C97.4073 139.28 96.9593 138.784 96.9593 138.08V132.64H99.0393V131.728H96.9593V129.456H95.9673V131.728H94.6233V132.64H95.9673V138.08C95.9673 139.312 96.7673 140.192 97.8873 140.192C98.4313 140.192 98.9913 140 99.4233 139.664L98.9113 138.928ZM107.475 130.592C107.475 129.888 107.923 129.392 108.467 129.392C108.867 129.392 109.203 129.52 109.427 129.744L109.939 129.008C109.491 128.672 108.963 128.48 108.403 128.48C107.283 128.48 106.483 129.36 106.483 130.592V131.728H105.139V132.64H106.483V140H107.475V132.64H109.603V131.728H107.475V130.592ZM111.805 130.112C112.189 130.112 112.493 129.808 112.493 129.424C112.493 129.056 112.189 128.736 111.805 128.736C111.421 128.736 111.117 129.056 111.117 129.424C111.117 129.808 111.421 130.112 111.805 130.112ZM111.309 140H112.301V131.728H111.309V140ZM114.716 140H115.708V128.816H114.716V140ZM121.802 138.928C121.578 139.136 121.226 139.28 120.842 139.28C120.298 139.28 119.85 138.784 119.85 138.08V132.64H121.93V131.728H119.85V129.456H118.858V131.728H117.514V132.64H118.858V138.08C118.858 139.312 119.658 140.192 120.778 140.192C121.322 140.192 121.882 140 122.314 139.664L121.802 138.928ZM127.709 139.28C126.013 139.28 124.749 137.968 124.573 136.256H131.565C131.565 133.408 130.093 131.536 127.645 131.536C125.405 131.536 123.565 133.392 123.565 135.84C123.565 138.32 125.501 140.192 127.709 140.192C128.925 140.192 130.381 139.68 131.085 138.912L130.461 138.24C129.885 138.864 128.749 139.28 127.709 139.28ZM127.677 132.448C129.421 132.448 130.445 133.68 130.573 135.344H124.589C124.797 133.632 126.061 132.448 127.677 132.448ZM134.633 133.424V131.728H133.641V140H134.633V135.376C134.633 133.664 135.961 132.448 137.833 132.448V131.536C136.312 131.536 135.097 132.304 134.633 133.424ZM142.425 140.192C144.089 140.192 145.401 139.216 145.401 137.808C145.401 136.368 144.217 135.84 142.697 135.36C141.081 134.832 140.441 134.496 140.441 133.744C140.441 132.944 141.289 132.448 142.297 132.448C143.065 132.448 143.929 132.72 144.761 133.232L145.257 132.464C144.377 131.888 143.305 131.536 142.297 131.536C140.697 131.536 139.449 132.48 139.449 133.856C139.449 135.024 140.233 135.648 142.217 136.224C143.529 136.624 144.409 137.008 144.409 137.904C144.409 138.704 143.561 139.28 142.425 139.28C141.497 139.28 140.489 138.912 139.529 138.224L139.001 138.96C139.977 139.744 141.257 140.192 142.425 140.192ZM155.869 140.192C158.189 140.192 160.141 138.208 160.141 135.856C160.141 133.504 158.189 131.536 155.869 131.536C153.549 131.536 151.581 133.504 151.581 135.856C151.581 138.208 153.549 140.192 155.869 140.192ZM155.869 139.28C154.093 139.28 152.621 137.728 152.621 135.856C152.621 134 154.093 132.448 155.869 132.448C157.629 132.448 159.101 134 159.101 135.856C159.101 137.728 157.629 139.28 155.869 139.28ZM165.85 131.536C164.634 131.536 163.578 132.176 163.13 133.088V131.728H162.138V140H163.13V134.736C163.13 133.456 164.266 132.448 165.722 132.448C167.034 132.448 167.962 133.424 167.962 134.816V140H168.954V134.688C168.954 132.848 167.674 131.536 165.85 131.536ZM184.829 131.536C183.549 131.536 182.461 132.24 182.109 133.328C181.677 132.24 180.717 131.536 179.469 131.536C178.333 131.536 177.421 132.08 177.021 132.944V131.728H176.029V140H177.021V134.688C177.021 133.376 177.981 132.448 179.341 132.448C180.541 132.448 181.373 133.424 181.373 134.816V140H182.365V134.688C182.365 133.376 183.325 132.448 184.685 132.448C185.885 132.448 186.733 133.424 186.733 134.816V140H187.725V134.688C187.725 132.848 186.525 131.536 184.829 131.536ZM193.994 140.192C196.314 140.192 198.266 138.208 198.266 135.856C198.266 133.504 196.314 131.536 193.994 131.536C191.674 131.536 189.706 133.504 189.706 135.856C189.706 138.208 191.674 140.192 193.994 140.192ZM193.994 139.28C192.218 139.28 190.746 137.728 190.746 135.856C190.746 134 192.218 132.448 193.994 132.448C195.754 132.448 197.226 134 197.226 135.856C197.226 137.728 195.754 139.28 193.994 139.28ZM204.439 131.536C203.079 131.536 201.991 132.224 201.351 133.344V128.816H200.359V140H201.351V138.384C201.991 139.504 203.079 140.192 204.439 140.192C206.567 140.192 208.215 138.336 208.215 135.856C208.215 133.392 206.567 131.536 204.439 131.536ZM204.263 139.28C202.551 139.28 201.351 137.856 201.351 135.856C201.351 133.856 202.551 132.448 204.263 132.448C205.927 132.448 207.191 133.904 207.191 135.856C207.191 137.808 205.927 139.28 204.263 139.28ZM210.774 130.112C211.158 130.112 211.462 129.808 211.462 129.424C211.462 129.056 211.158 128.736 210.774 128.736C210.39 128.736 210.086 129.056 210.086 129.424C210.086 129.808 210.39 130.112 210.774 130.112ZM210.278 140H211.27V131.728H210.278V140ZM213.685 140H214.677V128.816H213.685V140ZM220.803 139.28C219.107 139.28 217.843 137.968 217.667 136.256H224.659C224.659 133.408 223.187 131.536 220.739 131.536C218.499 131.536 216.659 133.392 216.659 135.84C216.659 138.32 218.595 140.192 220.803 140.192C222.019 140.192 223.475 139.68 224.179 138.912L223.555 138.24C222.979 138.864 221.843 139.28 220.803 139.28ZM220.771 132.448C222.515 132.448 223.539 133.68 223.667 135.344H217.683C217.891 133.632 219.155 132.448 220.771 132.448ZM237.775 128.816V133.344C237.135 132.224 236.047 131.536 234.687 131.536C232.559 131.536 230.911 133.392 230.911 135.856C230.911 138.336 232.559 140.192 234.687 140.192C236.047 140.192 237.135 139.504 237.775 138.384V140H238.767V128.816H237.775ZM234.863 139.28C233.199 139.28 231.935 137.808 231.935 135.856C231.935 133.904 233.199 132.448 234.863 132.448C236.575 132.448 237.775 133.856 237.775 135.856C237.775 137.856 236.575 139.28 234.863 139.28ZM245.006 139.28C243.31 139.28 242.046 137.968 241.87 136.256H248.862C248.862 133.408 247.39 131.536 244.942 131.536C242.702 131.536 240.862 133.392 240.862 135.84C240.862 138.32 242.798 140.192 245.006 140.192C246.222 140.192 247.678 139.68 248.382 138.912L247.758 138.24C247.182 138.864 246.046 139.28 245.006 139.28ZM244.974 132.448C246.718 132.448 247.742 133.68 247.87 135.344H241.886C242.094 133.632 243.358 132.448 244.974 132.448ZM253.657 140H254.537L258.121 131.728H257.017L254.089 138.736L251.145 131.728H250.041L253.657 140ZM260.243 130.112C260.627 130.112 260.931 129.808 260.931 129.424C260.931 129.056 260.627 128.736 260.243 128.736C259.859 128.736 259.555 129.056 259.555 129.424C259.555 129.808 259.859 130.112 260.243 130.112ZM259.747 140H260.739V131.728H259.747V140ZM266.946 140.192C268.066 140.192 269.106 139.712 269.874 138.944L269.186 138.272C268.61 138.896 267.81 139.28 266.946 139.28C265.154 139.28 263.746 137.776 263.746 135.856C263.746 133.952 265.154 132.448 266.946 132.448C267.794 132.448 268.578 132.816 269.154 133.424L269.842 132.752C269.074 132 268.05 131.536 266.946 131.536C264.594 131.536 262.706 133.44 262.706 135.856C262.706 138.272 264.594 140.192 266.946 140.192ZM275.412 139.28C273.716 139.28 272.452 137.968 272.276 136.256H279.268C279.268 133.408 277.796 131.536 275.348 131.536C273.108 131.536 271.268 133.392 271.268 135.84C271.268 138.32 273.204 140.192 275.412 140.192C276.628 140.192 278.084 139.68 278.788 138.912L278.164 138.24C277.588 138.864 276.452 139.28 275.412 139.28ZM275.38 132.448C277.124 132.448 278.148 133.68 278.276 135.344H272.292C272.5 133.632 273.764 132.448 275.38 132.448ZM284.16 140.192C285.824 140.192 287.136 139.216 287.136 137.808C287.136 136.368 285.952 135.84 284.432 135.36C282.816 134.832 282.176 134.496 282.176 133.744C282.176 132.944 283.024 132.448 284.032 132.448C284.8 132.448 285.664 132.72 286.496 133.232L286.992 132.464C286.112 131.888 285.04 131.536 284.032 131.536C282.432 131.536 281.184 132.48 281.184 133.856C281.184 135.024 281.968 135.648 283.952 136.224C285.264 136.624 286.144 137.008 286.144 137.904C286.144 138.704 285.296 139.28 284.16 139.28C283.232 139.28 282.224 138.912 281.264 138.224L280.736 138.96C281.712 139.744 282.992 140.192 284.16 140.192ZM297.075 131.536C296.259 131.536 295.235 131.76 294.147 132.336L294.547 133.152C295.299 132.736 296.163 132.416 296.995 132.416C298.851 132.416 299.395 133.744 299.395 134.96V135.296C298.515 135.008 297.523 134.8 296.627 134.8C294.771 134.8 293.347 135.92 293.347 137.552C293.347 139.152 294.627 140.192 296.355 140.192C297.475 140.192 298.787 139.664 299.395 138.688V140H300.387V134.96C300.387 132.96 299.251 131.536 297.075 131.536ZM296.515 139.296C295.283 139.296 294.323 138.608 294.323 137.504C294.323 136.432 295.395 135.664 296.771 135.664C297.699 135.664 298.611 135.84 299.395 136.08V137.408C299.075 138.688 297.667 139.296 296.515 139.296ZM303.945 133.424V131.728H302.953V140H303.945V135.376C303.945 133.664 305.273 132.448 307.145 132.448V131.536C305.625 131.536 304.409 132.304 303.945 133.424ZM312.506 139.28C310.81 139.28 309.546 137.968 309.37 136.256H316.362C316.362 133.408 314.89 131.536 312.442 131.536C310.202 131.536 308.362 133.392 308.362 135.84C308.362 138.32 310.298 140.192 312.506 140.192C313.722 140.192 315.178 139.68 315.882 138.912L315.258 138.24C314.682 138.864 313.546 139.28 312.506 139.28ZM312.474 132.448C314.218 132.448 315.242 133.68 315.37 135.344H309.386C309.594 133.632 310.858 132.448 312.474 132.448ZM57.1259 155.728V160.992C57.1259 162.272 55.9899 163.28 54.5339 163.28C53.2219 163.28 52.2939 162.304 52.2939 160.912V155.728H51.3019V161.04C51.3019 162.88 52.5819 164.192 54.4059 164.192C55.6219 164.192 56.6779 163.552 57.1259 162.64V164H58.1179V155.728H57.1259ZM63.4956 164.192C65.1596 164.192 66.4716 163.216 66.4716 161.808C66.4716 160.368 65.2876 159.84 63.7676 159.36C62.1516 158.832 61.5116 158.496 61.5116 157.744C61.5116 156.944 62.3596 156.448 63.3676 156.448C64.1356 156.448 64.9996 156.72 65.8316 157.232L66.3276 156.464C65.4476 155.888 64.3756 155.536 63.3676 155.536C61.7676 155.536 60.5196 156.48 60.5196 157.856C60.5196 159.024 61.3036 159.648 63.2876 160.224C64.5996 160.624 65.4796 161.008 65.4796 161.904C65.4796 162.704 64.6316 163.28 63.4956 163.28C62.5676 163.28 61.5596 162.912 60.5996 162.224L60.0716 162.96C61.0476 163.744 62.3276 164.192 63.4956 164.192ZM74.2822 155.728V160.992C74.2822 162.272 73.1462 163.28 71.6902 163.28C70.3782 163.28 69.4502 162.304 69.4502 160.912V155.728H68.4582V161.04C68.4582 162.88 69.7382 164.192 71.5622 164.192C72.7782 164.192 73.8342 163.552 74.2822 162.64V164H75.2742V155.728H74.2822ZM81.0358 155.536C80.2198 155.536 79.1958 155.76 78.1078 156.336L78.5078 157.152C79.2598 156.736 80.1238 156.416 80.9558 156.416C82.8118 156.416 83.3558 157.744 83.3558 158.96V159.296C82.4758 159.008 81.4838 158.8 80.5878 158.8C78.7318 158.8 77.3078 159.92 77.3078 161.552C77.3078 163.152 78.5878 164.192 80.3158 164.192C81.4358 164.192 82.7478 163.664 83.3558 162.688V164H84.3478V158.96C84.3478 156.96 83.2118 155.536 81.0358 155.536ZM80.4758 163.296C79.2438 163.296 78.2838 162.608 78.2838 161.504C78.2838 160.432 79.3558 159.664 80.7318 159.664C81.6598 159.664 82.5718 159.84 83.3558 160.08V161.408C83.0358 162.688 81.6278 163.296 80.4758 163.296ZM86.8019 164H87.7939V152.816H86.8019V164ZM90.2238 164H91.2158V152.816H90.2238V164ZM94.7337 166.88C95.8857 166.864 96.6857 166.336 97.2137 165.024L101.022 155.728H99.9497L97.0537 162.944L93.9977 155.728H92.9097L96.5417 164.128L96.0457 165.2C95.7417 165.744 95.3097 165.968 94.7017 165.968C94.3497 165.968 93.9817 165.888 93.6777 165.728L93.4217 166.608C93.8057 166.784 94.2697 166.88 94.7337 166.88ZM111.358 155.536C110.142 155.536 109.086 156.176 108.638 157.088V155.728H107.646V164H108.638V158.736C108.638 157.456 109.774 156.448 111.23 156.448C112.542 156.448 113.47 157.424 113.47 158.816V164H114.462V158.688C114.462 156.848 113.182 155.536 111.358 155.536ZM120.736 164.192C123.056 164.192 125.008 162.208 125.008 159.856C125.008 157.504 123.056 155.536 120.736 155.536C118.416 155.536 116.448 157.504 116.448 159.856C116.448 162.208 118.416 164.192 120.736 164.192ZM120.736 163.28C118.96 163.28 117.488 161.728 117.488 159.856C117.488 158 118.96 156.448 120.736 156.448C122.496 156.448 123.968 158 123.968 159.856C123.968 161.728 122.496 163.28 120.736 163.28ZM130.653 162.928C130.429 163.136 130.077 163.28 129.693 163.28C129.149 163.28 128.701 162.784 128.701 162.08V156.64H130.781V155.728H128.701V153.456H127.709V155.728H126.365V156.64H127.709V162.08C127.709 163.312 128.509 164.192 129.629 164.192C130.173 164.192 130.733 164 131.165 163.664L130.653 162.928ZM140.817 155.536C140.001 155.536 138.977 155.76 137.889 156.336L138.289 157.152C139.041 156.736 139.905 156.416 140.737 156.416C142.593 156.416 143.137 157.744 143.137 158.96V159.296C142.257 159.008 141.265 158.8 140.369 158.8C138.513 158.8 137.089 159.92 137.089 161.552C137.089 163.152 138.369 164.192 140.097 164.192C141.217 164.192 142.529 163.664 143.137 162.688V164H144.129V158.96C144.129 156.96 142.993 155.536 140.817 155.536ZM140.257 163.296C139.025 163.296 138.065 162.608 138.065 161.504C138.065 160.432 139.137 159.664 140.513 159.664C141.441 159.664 142.353 159.84 143.137 160.08V161.408C142.817 162.688 141.409 163.296 140.257 163.296ZM152.936 154.592C152.936 153.888 153.384 153.392 153.928 153.392C154.328 153.392 154.664 153.52 154.888 153.744L155.4 153.008C154.952 152.672 154.424 152.48 153.864 152.48C152.744 152.48 151.944 153.36 151.944 154.592V155.728H150.6V156.64H151.944V164H152.936V156.64H155.064V155.728H152.936V154.592ZM162.61 155.728V160.992C162.61 162.272 161.474 163.28 160.018 163.28C158.706 163.28 157.778 162.304 157.778 160.912V155.728H156.786V161.04C156.786 162.88 158.066 164.192 159.89 164.192C161.106 164.192 162.162 163.552 162.61 162.64V164H163.602V155.728H162.61ZM169.78 155.536C168.564 155.536 167.508 156.176 167.06 157.088V155.728H166.068V164H167.06V158.736C167.06 157.456 168.196 156.448 169.652 156.448C170.964 156.448 171.892 157.424 171.892 158.816V164H172.884V158.688C172.884 156.848 171.604 155.536 169.78 155.536ZM183.654 163.28C181.958 163.28 180.694 161.968 180.518 160.256H187.51C187.51 157.408 186.038 155.536 183.59 155.536C181.35 155.536 179.51 157.392 179.51 159.84C179.51 162.32 181.446 164.192 183.654 164.192C184.87 164.192 186.326 163.68 187.03 162.912L186.406 162.24C185.83 162.864 184.694 163.28 183.654 163.28ZM183.622 156.448C185.366 156.448 186.39 157.68 186.518 159.344H180.534C180.742 157.632 182.006 156.448 183.622 156.448ZM196.322 164L193.138 159.776L196.194 155.728H195.026L192.546 159.008L190.066 155.728H188.898L191.97 159.776L188.77 164H189.938L192.546 160.544L195.154 164H196.322ZM202.244 155.536C200.884 155.536 199.796 156.224 199.156 157.344V155.728H198.164V166.752H199.156V162.384C199.796 163.504 200.884 164.192 202.244 164.192C204.372 164.192 206.02 162.336 206.02 159.856C206.02 157.392 204.372 155.536 202.244 155.536ZM202.068 163.28C200.356 163.28 199.156 161.856 199.156 159.856C199.156 157.856 200.356 156.448 202.068 156.448C203.732 156.448 204.996 157.904 204.996 159.856C204.996 161.808 203.732 163.28 202.068 163.28ZM211.795 163.28C210.099 163.28 208.835 161.968 208.659 160.256H215.651C215.651 157.408 214.179 155.536 211.731 155.536C209.491 155.536 207.651 157.392 207.651 159.84C207.651 162.32 209.587 164.192 211.795 164.192C213.011 164.192 214.467 163.68 215.171 162.912L214.547 162.24C213.971 162.864 212.835 163.28 211.795 163.28ZM211.763 156.448C213.507 156.448 214.531 157.68 214.659 159.344H208.675C208.883 157.632 210.147 156.448 211.763 156.448ZM218.718 157.424V155.728H217.726V164H218.718V159.376C218.718 157.664 220.046 156.448 221.918 156.448V155.536C220.398 155.536 219.182 156.304 218.718 157.424ZM224.063 154.112C224.447 154.112 224.751 153.808 224.751 153.424C224.751 153.056 224.447 152.736 224.063 152.736C223.679 152.736 223.375 153.056 223.375 153.424C223.375 153.808 223.679 154.112 224.063 154.112ZM223.567 164H224.559V155.728H223.567V164ZM230.67 163.28C228.974 163.28 227.71 161.968 227.534 160.256H234.526C234.526 157.408 233.054 155.536 230.606 155.536C228.366 155.536 226.526 157.392 226.526 159.84C226.526 162.32 228.462 164.192 230.67 164.192C231.886 164.192 233.342 163.68 234.046 162.912L233.422 162.24C232.846 162.864 231.71 163.28 230.67 163.28ZM230.638 156.448C232.382 156.448 233.406 157.68 233.534 159.344H227.55C227.758 157.632 229.022 156.448 230.638 156.448ZM240.217 155.536C239.001 155.536 237.945 156.176 237.497 157.088V155.728H236.505V164H237.497V158.736C237.497 157.456 238.633 156.448 240.089 156.448C241.401 156.448 242.329 157.424 242.329 158.816V164H243.321V158.688C243.321 156.848 242.041 155.536 240.217 155.536ZM249.547 164.192C250.667 164.192 251.707 163.712 252.475 162.944L251.787 162.272C251.211 162.896 250.411 163.28 249.547 163.28C247.755 163.28 246.347 161.776 246.347 159.856C246.347 157.952 247.755 156.448 249.547 156.448C250.395 156.448 251.179 156.816 251.755 157.424L252.443 156.752C251.675 156 250.651 155.536 249.547 155.536C247.195 155.536 245.307 157.44 245.307 159.856C245.307 162.272 247.195 164.192 249.547 164.192ZM258.014 163.28C256.318 163.28 255.054 161.968 254.878 160.256H261.87C261.87 157.408 260.398 155.536 257.95 155.536C255.71 155.536 253.87 157.392 253.87 159.84C253.87 162.32 255.806 164.192 258.014 164.192C259.23 164.192 260.686 163.68 261.39 162.912L260.766 162.24C260.19 162.864 259.054 163.28 258.014 163.28ZM257.982 156.448C259.726 156.448 260.75 157.68 260.878 159.344H254.894C255.102 157.632 256.366 156.448 257.982 156.448ZM264.537 164.192C264.937 164.192 265.257 163.856 265.257 163.44C265.257 163.056 264.937 162.72 264.537 162.72C264.105 162.72 263.785 163.056 263.785 163.44C263.785 163.856 264.105 164.192 264.537 164.192ZM275.583 164H276.607V153.984H280.415V153.008H271.775V153.984H275.583V164ZM286.077 155.536C284.861 155.536 283.805 156.176 283.357 157.088V152.816H282.365V164H283.357V158.736C283.357 157.456 284.493 156.448 285.949 156.448C287.261 156.448 288.189 157.424 288.189 158.816V164H289.181V158.688C289.181 156.848 287.901 155.536 286.077 155.536ZM295.31 163.28C293.614 163.28 292.35 161.968 292.174 160.256H299.166C299.166 157.408 297.694 155.536 295.246 155.536C293.006 155.536 291.166 157.392 291.166 159.84C291.166 162.32 293.102 164.192 295.31 164.192C296.526 164.192 297.982 163.68 298.686 162.912L298.062 162.24C297.486 162.864 296.35 163.28 295.31 163.28ZM295.278 156.448C297.022 156.448 298.046 157.68 298.174 159.344H292.19C292.398 157.632 293.662 156.448 295.278 156.448ZM59.1389 178.592C59.1389 177.888 59.5869 177.392 60.1309 177.392C60.5309 177.392 60.8669 177.52 61.0909 177.744L61.6029 177.008C61.1549 176.672 60.6269 176.48 60.0669 176.48C58.9469 176.48 58.1469 177.36 58.1469 178.592V179.728H56.8029V180.64H58.1469V188H59.1389V180.64H61.2669V179.728H59.1389V178.592ZM63.4694 178.112C63.8534 178.112 64.1574 177.808 64.1574 177.424C64.1574 177.056 63.8534 176.736 63.4694 176.736C63.0854 176.736 62.7814 177.056 62.7814 177.424C62.7814 177.808 63.0854 178.112 63.4694 178.112ZM62.9734 188H63.9654V179.728H62.9734V188ZM66.3801 188H67.3721V176.816H66.3801V188ZM73.4659 186.928C73.2419 187.136 72.8899 187.28 72.5059 187.28C71.9619 187.28 71.5139 186.784 71.5139 186.08V180.64H73.5939V179.728H71.5139V177.456H70.5219V179.728H69.1779V180.64H70.5219V186.08C70.5219 187.312 71.3219 188.192 72.4419 188.192C72.9859 188.192 73.5459 188 73.9779 187.664L73.4659 186.928ZM79.3729 187.28C77.6769 187.28 76.4129 185.968 76.2369 184.256H83.2289C83.2289 181.408 81.7569 179.536 79.3089 179.536C77.0689 179.536 75.2289 181.392 75.2289 183.84C75.2289 186.32 77.1649 188.192 79.3729 188.192C80.5889 188.192 82.0449 187.68 82.7489 186.912L82.1249 186.24C81.5489 186.864 80.4129 187.28 79.3729 187.28ZM79.3409 180.448C81.0849 180.448 82.1089 181.68 82.2369 183.344H76.2529C76.4609 181.632 77.7249 180.448 79.3409 180.448ZM86.2966 181.424V179.728H85.3046V188H86.2966V183.376C86.2966 181.664 87.6246 180.448 89.4966 180.448V179.536C87.9766 179.536 86.7606 180.304 86.2966 181.424ZM94.0893 188.192C95.7533 188.192 97.0653 187.216 97.0653 185.808C97.0653 184.368 95.8813 183.84 94.3613 183.36C92.7453 182.832 92.1053 182.496 92.1053 181.744C92.1053 180.944 92.9533 180.448 93.9613 180.448C94.7293 180.448 95.5933 180.72 96.4253 181.232L96.9213 180.464C96.0413 179.888 94.9693 179.536 93.9613 179.536C92.3613 179.536 91.1133 180.48 91.1133 181.856C91.1133 183.024 91.8973 183.648 93.8813 184.224C95.1933 184.624 96.0733 185.008 96.0733 185.904C96.0733 186.704 95.2253 187.28 94.0893 187.28C93.1613 187.28 92.1533 186.912 91.1933 186.224L90.6653 186.96C91.6413 187.744 92.9213 188.192 94.0893 188.192ZM107.005 179.536C106.189 179.536 105.165 179.76 104.077 180.336L104.477 181.152C105.229 180.736 106.093 180.416 106.925 180.416C108.781 180.416 109.325 181.744 109.325 182.96V183.296C108.445 183.008 107.453 182.8 106.557 182.8C104.701 182.8 103.277 183.92 103.277 185.552C103.277 187.152 104.557 188.192 106.285 188.192C107.405 188.192 108.717 187.664 109.325 186.688V188H110.317V182.96C110.317 180.96 109.181 179.536 107.005 179.536ZM106.445 187.296C105.213 187.296 104.253 186.608 104.253 185.504C104.253 184.432 105.325 183.664 106.701 183.664C107.629 183.664 108.541 183.84 109.325 184.08V185.408C109.005 186.688 107.597 187.296 106.445 187.296ZM113.875 181.424V179.728H112.883V188H113.875V183.376C113.875 181.664 115.203 180.448 117.075 180.448V179.536C115.555 179.536 114.339 180.304 113.875 181.424ZM122.435 187.28C120.739 187.28 119.475 185.968 119.299 184.256H126.291C126.291 181.408 124.819 179.536 122.371 179.536C120.131 179.536 118.291 181.392 118.291 183.84C118.291 186.32 120.227 188.192 122.435 188.192C123.651 188.192 125.107 187.68 125.811 186.912L125.187 186.24C124.611 186.864 123.475 187.28 122.435 187.28ZM122.403 180.448C124.147 180.448 125.171 181.68 125.299 183.344H119.315C119.523 181.632 120.787 180.448 122.403 180.448ZM136.56 186.928C136.336 187.136 135.984 187.28 135.6 187.28C135.056 187.28 134.608 186.784 134.608 186.08V180.64H136.688V179.728H134.608V177.456H133.616V179.728H132.272V180.64H133.616V186.08C133.616 187.312 134.416 188.192 135.536 188.192C136.08 188.192 136.64 188 137.072 187.664L136.56 186.928ZM142.611 188.192C144.931 188.192 146.883 186.208 146.883 183.856C146.883 181.504 144.931 179.536 142.611 179.536C140.291 179.536 138.323 181.504 138.323 183.856C138.323 186.208 140.291 188.192 142.611 188.192ZM142.611 187.28C140.835 187.28 139.363 185.728 139.363 183.856C139.363 182 140.835 180.448 142.611 180.448C144.371 180.448 145.843 182 145.843 183.856C145.843 185.728 144.371 187.28 142.611 187.28ZM152.704 188.192C155.024 188.192 156.976 186.208 156.976 183.856C156.976 181.504 155.024 179.536 152.704 179.536C150.384 179.536 148.416 181.504 148.416 183.856C148.416 186.208 150.384 188.192 152.704 188.192ZM152.704 187.28C150.928 187.28 149.456 185.728 149.456 183.856C149.456 182 150.928 180.448 152.704 180.448C154.464 180.448 155.936 182 155.936 183.856C155.936 185.728 154.464 187.28 152.704 187.28ZM166.527 188.192C168.191 188.192 169.503 187.216 169.503 185.808C169.503 184.368 168.319 183.84 166.799 183.36C165.183 182.832 164.543 182.496 164.543 181.744C164.543 180.944 165.391 180.448 166.399 180.448C167.167 180.448 168.031 180.72 168.863 181.232L169.359 180.464C168.479 179.888 167.407 179.536 166.399 179.536C164.799 179.536 163.551 180.48 163.551 181.856C163.551 183.024 164.335 183.648 166.319 184.224C167.631 184.624 168.511 185.008 168.511 185.904C168.511 186.704 167.663 187.28 166.527 187.28C165.599 187.28 164.591 186.912 163.631 186.224L163.103 186.96C164.079 187.744 165.359 188.192 166.527 188.192ZM180.289 179.536C179.009 179.536 177.921 180.24 177.569 181.328C177.137 180.24 176.177 179.536 174.929 179.536C173.793 179.536 172.881 180.08 172.481 180.944V179.728H171.489V188H172.481V182.688C172.481 181.376 173.441 180.448 174.801 180.448C176.001 180.448 176.833 181.424 176.833 182.816V188H177.825V182.688C177.825 181.376 178.785 180.448 180.145 180.448C181.345 180.448 182.193 181.424 182.193 182.816V188H183.185V182.688C183.185 180.848 181.985 179.536 180.289 179.536ZM188.926 179.536C188.11 179.536 187.086 179.76 185.998 180.336L186.398 181.152C187.15 180.736 188.014 180.416 188.846 180.416C190.702 180.416 191.246 181.744 191.246 182.96V183.296C190.366 183.008 189.374 182.8 188.478 182.8C186.622 182.8 185.198 183.92 185.198 185.552C185.198 187.152 186.478 188.192 188.206 188.192C189.326 188.192 190.638 187.664 191.246 186.688V188H192.238V182.96C192.238 180.96 191.102 179.536 188.926 179.536ZM188.366 187.296C187.134 187.296 186.174 186.608 186.174 185.504C186.174 184.432 187.246 183.664 188.622 183.664C189.55 183.664 190.462 183.84 191.246 184.08V185.408C190.926 186.688 189.518 187.296 188.366 187.296ZM194.693 188H195.685V176.816H194.693V188ZM198.114 188H199.106V176.816H198.114V188ZM207.889 178.592C207.889 177.888 208.337 177.392 208.881 177.392C209.281 177.392 209.617 177.52 209.841 177.744L210.353 177.008C209.905 176.672 209.377 176.48 208.817 176.48C207.697 176.48 206.897 177.36 206.897 178.592V179.728H205.553V180.64H206.897V188H207.889V180.64H210.017V179.728H207.889V178.592ZM215.579 188.192C217.899 188.192 219.851 186.208 219.851 183.856C219.851 181.504 217.899 179.536 215.579 179.536C213.259 179.536 211.291 181.504 211.291 183.856C211.291 186.208 213.259 188.192 215.579 188.192ZM215.579 187.28C213.803 187.28 212.331 185.728 212.331 183.856C212.331 182 213.803 180.448 215.579 180.448C217.339 180.448 218.811 182 218.811 183.856C218.811 185.728 217.339 187.28 215.579 187.28ZM222.937 181.424V179.728H221.945V188H222.937V183.376C222.937 181.664 224.265 180.448 226.137 180.448V179.536C224.617 179.536 223.401 180.304 222.937 181.424ZM234.155 178.592C234.155 177.888 234.603 177.392 235.147 177.392C235.547 177.392 235.883 177.52 236.107 177.744L236.619 177.008C236.171 176.672 235.643 176.48 235.083 176.48C233.963 176.48 233.163 177.36 233.163 178.592V179.728H231.819V180.64H233.163V188H234.155V180.64H236.283V179.728H234.155V178.592ZM238.485 178.112C238.869 178.112 239.173 177.808 239.173 177.424C239.173 177.056 238.869 176.736 238.485 176.736C238.101 176.736 237.797 177.056 237.797 177.424C237.797 177.808 238.101 178.112 238.485 178.112ZM237.989 188H238.981V179.728H237.989V188ZM245.124 179.536C243.908 179.536 242.852 180.176 242.404 181.088V179.728H241.412V188H242.404V182.736C242.404 181.456 243.54 180.448 244.996 180.448C246.308 180.448 247.236 181.424 247.236 182.816V188H248.228V182.688C248.228 180.848 246.948 179.536 245.124 179.536ZM257.093 179.728V181.296C256.453 180.176 255.333 179.536 253.941 179.536C251.797 179.536 250.197 181.216 250.197 183.456C250.197 185.712 251.797 187.392 253.941 187.392C255.317 187.392 256.453 186.736 257.093 185.616V187.12C257.093 188.8 255.893 189.84 254.005 189.84C252.965 189.84 251.893 189.456 251.221 188.848L250.773 189.648C251.525 190.288 252.821 190.752 254.117 190.752C256.453 190.752 258.085 189.248 258.085 187.12V179.728H257.093ZM254.117 186.48C252.469 186.48 251.221 185.184 251.221 183.456C251.221 181.744 252.469 180.448 254.117 180.448C255.845 180.448 257.093 181.696 257.093 183.456C257.093 185.232 255.845 186.48 254.117 186.48ZM264.326 187.28C262.63 187.28 261.366 185.968 261.19 184.256H268.182C268.182 181.408 266.71 179.536 264.262 179.536C262.022 179.536 260.182 181.392 260.182 183.84C260.182 186.32 262.118 188.192 264.326 188.192C265.542 188.192 266.998 187.68 267.702 186.912L267.078 186.24C266.502 186.864 265.366 187.28 264.326 187.28ZM264.294 180.448C266.038 180.448 267.062 181.68 267.19 183.344H261.206C261.414 181.632 262.678 180.448 264.294 180.448ZM271.25 181.424V179.728H270.258V188H271.25V183.376C271.25 181.664 272.578 180.448 274.45 180.448V179.536C272.93 179.536 271.714 180.304 271.25 181.424ZM279.042 188.192C280.706 188.192 282.018 187.216 282.018 185.808C282.018 184.368 280.834 183.84 279.314 183.36C277.698 182.832 277.058 182.496 277.058 181.744C277.058 180.944 277.906 180.448 278.914 180.448C279.682 180.448 280.546 180.72 281.378 181.232L281.874 180.464C280.994 179.888 279.922 179.536 278.914 179.536C277.314 179.536 276.066 180.48 276.066 181.856C276.066 183.024 276.85 183.648 278.834 184.224C280.146 184.624 281.026 185.008 281.026 185.904C281.026 186.704 280.178 187.28 279.042 187.28C278.114 187.28 277.106 186.912 276.146 186.224L275.618 186.96C276.594 187.744 277.874 188.192 279.042 188.192ZM284.709 188.192C285.109 188.192 285.429 187.856 285.429 187.44C285.429 187.056 285.109 186.72 284.709 186.72C284.277 186.72 283.957 187.056 283.957 187.44C283.957 187.856 284.277 188.192 284.709 188.192ZM288.378 180.704C289.226 179.632 289.514 179.04 289.514 178.416C289.514 177.792 289.194 177.344 288.698 177.344C288.25 177.344 287.946 177.68 287.946 178.064C287.946 178.48 288.266 178.816 288.682 178.816C288.554 179.296 288.282 179.808 287.85 180.304L288.378 180.704ZM291.466 180.704C292.314 179.632 292.602 179.04 292.602 178.416C292.602 177.792 292.282 177.344 291.786 177.344C291.338 177.344 291.034 177.68 291.034 178.064C291.034 178.48 291.354 178.816 291.77 178.816C291.642 179.296 291.37 179.808 290.938 180.304L291.466 180.704Z" fill="#2D2D2D"/>
<path d="M130.742 100.192C133.03 100.192 134.566 98.864 134.566 97.024C134.566 95.44 133.318 94.624 132.198 94.368C133.334 94.032 134.326 93.2 134.326 91.792C134.326 90.032 132.79 88.816 130.694 88.816C128.982 88.816 127.766 89.648 126.934 90.752L127.766 91.504C128.55 90.56 129.414 89.952 130.63 89.952C132.006 89.952 133.062 90.784 133.062 91.936C133.062 93.184 131.958 93.888 130.486 93.872L129.302 93.856V95.008H130.47C132.198 95.008 133.302 95.664 133.302 96.96C133.302 98.208 132.278 99.056 130.742 99.056C129.398 99.056 128.326 98.416 127.606 97.488L126.742 98.304C127.542 99.36 128.934 100.192 130.742 100.192ZM136.261 100H143.845V98.816H138.261L141.141 96.32C142.997 94.72 143.733 93.536 143.733 92.048C143.733 90.08 142.133 88.816 140.229 88.816C138.501 88.816 137.269 89.632 136.357 90.928L137.237 91.648C137.989 90.624 138.901 89.936 140.181 89.936C141.349 89.936 142.469 90.72 142.469 92.064C142.469 93.152 141.829 94.208 140.277 95.536L136.261 98.96V100ZM146.754 102.128C147.714 100.928 147.986 100.384 147.986 99.744C147.986 99.008 147.618 98.464 147.01 98.464C146.498 98.464 146.13 98.864 146.13 99.312C146.13 99.792 146.514 100.192 146.994 100.192C146.866 100.688 146.594 101.184 146.162 101.68L146.754 102.128ZM163.966 100H165.326L160.478 89.008H159.118L154.27 100H155.63L156.734 97.504H162.862L163.966 100ZM157.246 96.32L159.806 90.544L162.35 96.32H157.246ZM170.892 100.192C172.044 100.192 173.1 99.712 173.884 98.928L173.052 98.112C172.492 98.736 171.724 99.12 170.892 99.12C169.244 99.12 167.868 97.632 167.868 95.856C167.868 94.096 169.244 92.608 170.892 92.608C171.708 92.608 172.46 92.976 173.004 93.568L173.836 92.752C173.052 92 172.012 91.536 170.892 91.536C168.572 91.536 166.604 93.504 166.604 95.856C166.604 98.208 168.572 100.192 170.892 100.192ZM179.564 100.192C180.716 100.192 181.772 99.712 182.556 98.928L181.724 98.112C181.164 98.736 180.396 99.12 179.564 99.12C177.916 99.12 176.54 97.632 176.54 95.856C176.54 94.096 177.916 92.608 179.564 92.608C180.38 92.608 181.132 92.976 181.676 93.568L182.508 92.752C181.724 92 180.684 91.536 179.564 91.536C177.244 91.536 175.276 93.504 175.276 95.856C175.276 98.208 177.244 100.192 179.564 100.192ZM188.064 100.192C190.384 100.192 192.336 98.208 192.336 95.856C192.336 93.504 190.384 91.536 188.064 91.536C185.744 91.536 183.776 93.504 183.776 95.856C183.776 98.208 185.744 100.192 188.064 100.192ZM188.064 99.12C186.416 99.12 185.04 97.632 185.04 95.856C185.04 94.096 186.416 92.608 188.064 92.608C189.696 92.608 191.072 94.096 191.072 95.856C191.072 97.632 189.696 99.12 188.064 99.12ZM200.142 91.728V96.992C200.142 98.144 198.974 99.12 197.582 99.12C196.366 99.12 195.518 98.176 195.518 96.832V91.728H194.318V96.992C194.318 98.864 195.598 100.192 197.422 100.192C198.59 100.192 199.662 99.552 200.142 98.672V100H201.342V91.728H200.142ZM207.722 91.536C206.554 91.536 205.482 92.176 205.002 93.056V91.728H203.802V100H205.002V94.736C205.002 93.584 206.17 92.608 207.562 92.608C208.778 92.608 209.626 93.552 209.626 94.896V100H210.826V94.736C210.826 92.864 209.546 91.536 207.722 91.536ZM216.887 98.784C216.711 98.976 216.391 99.12 216.023 99.12C215.543 99.12 215.127 98.688 215.127 98.08V92.8H217.159V91.728H215.127V89.456H213.927V91.728H212.631V92.8H213.927V98.08C213.927 99.312 214.759 100.192 215.943 100.192C216.503 100.192 217.047 100 217.479 99.664L216.887 98.784ZM222.105 100.192C223.817 100.192 225.129 99.216 225.129 97.696C225.129 96.128 223.753 95.68 222.425 95.264C220.889 94.768 220.281 94.544 220.281 93.824C220.281 93.024 221.049 92.608 221.977 92.608C222.713 92.608 223.529 92.864 224.361 93.392L224.937 92.464C224.057 91.888 223.001 91.536 221.977 91.536C220.329 91.536 219.081 92.464 219.081 93.968C219.081 95.152 219.849 95.744 221.849 96.32C222.969 96.64 223.929 96.928 223.929 97.824C223.929 98.608 223.193 99.12 222.105 99.12C221.193 99.12 220.249 98.768 219.305 98.08L218.681 98.96C219.673 99.76 220.953 100.192 222.105 100.192Z" fill="#2D2D2D"/>
<path d="M142.153 76.288C146.185 76.288 148.561 74.2 148.561 71.056C148.561 68.008 146.209 66.952 142.657 66.16C140.113 65.584 139.129 65.2 139.129 64C139.129 63.016 140.041 62.224 141.553 62.224C143.137 62.224 144.793 62.872 146.257 64.048L148.105 61.504C146.425 60.064 144.337 59.224 141.649 59.224C138.049 59.224 135.553 61.312 135.553 64.36C135.553 67.552 138.025 68.536 141.505 69.328C144.025 69.904 144.985 70.264 144.985 71.44C144.985 72.472 144.073 73.288 142.297 73.288C140.209 73.288 138.433 72.472 136.873 71.128L134.833 73.552C136.753 75.328 139.297 76.288 142.153 76.288ZM156.549 63.304C154.821 63.304 153.117 63.784 151.365 64.672L152.541 67C153.525 66.496 154.605 66.112 155.757 66.112C157.797 66.112 158.613 67.264 158.613 68.584V68.824C157.557 68.416 156.453 68.2 155.445 68.2C152.565 68.2 150.285 69.88 150.285 72.328C150.285 74.704 152.325 76.288 154.965 76.288C156.309 76.288 157.725 75.76 158.613 74.752V76H161.997V68.584C161.997 65.344 159.789 63.304 156.549 63.304ZM155.757 73.864C154.557 73.864 153.669 73.24 153.669 72.232C153.669 71.224 154.677 70.48 155.949 70.48C156.909 70.48 157.821 70.648 158.613 70.936V72.088C158.373 73.24 157.101 73.864 155.757 73.864ZM172.126 63.304C170.518 63.304 169.126 64.024 168.382 65.152V63.592H164.878V76H168.382V68.584L168.406 68.656C168.406 67.312 169.534 66.256 170.998 66.256C172.39 66.256 173.35 67.312 173.35 68.848V76H176.734V68.104C176.734 65.296 174.814 63.304 172.126 63.304ZM188.956 59.224V65.368C187.972 64.072 186.532 63.304 184.78 63.304C181.468 63.304 179.068 65.992 179.068 69.784C179.068 73.6 181.468 76.288 184.78 76.288C186.532 76.288 187.972 75.52 188.956 74.224V76H192.46V59.224H188.956ZM185.788 73.336C183.844 73.336 182.476 71.872 182.476 69.784C182.476 67.72 183.844 66.256 185.788 66.256C187.636 66.256 188.956 67.72 188.956 69.784C188.956 71.872 187.636 73.336 185.788 73.336ZM199.04 65.896V63.592H195.536V76H199.04V70.072C199.04 67.744 200.696 66.256 203.288 66.256V63.304C201.392 63.304 199.856 64.288 199.04 65.896ZM210.853 63.304C209.125 63.304 207.421 63.784 205.669 64.672L206.845 67C207.829 66.496 208.909 66.112 210.061 66.112C212.101 66.112 212.917 67.264 212.917 68.584V68.824C211.861 68.416 210.757 68.2 209.749 68.2C206.869 68.2 204.589 69.88 204.589 72.328C204.589 74.704 206.629 76.288 209.269 76.288C210.613 76.288 212.029 75.76 212.917 74.752V76H216.301V68.584C216.301 65.344 214.093 63.304 210.853 63.304ZM210.061 73.864C208.861 73.864 207.973 73.24 207.973 72.232C207.973 71.224 208.981 70.48 210.253 70.48C211.213 70.48 212.125 70.648 212.917 70.936V72.088C212.677 73.24 211.405 73.864 210.061 73.864Z" fill="#2D2D2D"/>
</svg>
