<svg width="353" height="255" viewBox="0 0 353 255" fill="none" xmlns="http://www.w3.org/2000/svg">
<path d="M0 0H353V255H0V0Z" fill="#FDFCF5"/>
<path d="M11.5 8.5H340.5V245.885H11.5V8.5Z" stroke="#FFF2B6"/>
<path d="M32.1908 132.992H32.8148C32.9268 132.064 33.1508 130.704 33.1508 130C33.1508 129.648 32.8628 129.36 32.5108 129.36C32.1588 129.36 31.8548 129.648 31.8548 130C31.8548 130.704 32.0788 132.064 32.1908 132.992ZM35.0708 132.992H35.6948C35.8068 132.064 36.0308 130.704 36.0308 130C36.0308 129.648 35.7428 129.36 35.3908 129.36C35.0388 129.36 34.7348 129.648 34.7348 130C34.7348 130.704 34.9588 132.064 35.0708 132.992ZM38.4515 140H39.4755V129.008H38.4515V140ZM45.6144 138.928C45.3904 139.136 45.0384 139.28 44.6544 139.28C44.1104 139.28 43.6624 138.784 43.6624 138.08V132.64H45.7424V131.728H43.6624V129.456H42.6704V131.728H41.3264V132.64H42.6704V138.08C42.6704 139.312 43.4704 140.192 44.5904 140.192C45.1344 140.192 45.6944 140 46.1264 139.664L45.6144 138.928ZM48.0814 132.992H48.7054C48.8174 132.064 49.0414 130.704 49.0414 130C49.0414 129.648 48.7534 129.36 48.4014 129.36C48.0494 129.36 47.7454 129.648 47.7454 130C47.7454 130.704 47.9694 132.064 48.0814 132.992ZM54.3159 140.192C55.9799 140.192 57.2919 139.216 57.2919 137.808C57.2919 136.368 56.1079 135.84 54.5879 135.36C52.9719 134.832 52.3319 134.496 52.3319 133.744C52.3319 132.944 53.1799 132.448 54.1879 132.448C54.9559 132.448 55.8199 132.72 56.6519 133.232L57.1479 132.464C56.2679 131.888 55.1959 131.536 54.1879 131.536C52.5879 131.536 51.3399 132.48 51.3399 133.856C51.3399 135.024 52.1239 135.648 54.1079 136.224C55.4199 136.624 56.2999 137.008 56.2999 137.904C56.2999 138.704 55.4519 139.28 54.3159 139.28C53.3879 139.28 52.3799 138.912 51.4199 138.224L50.8919 138.96C51.8679 139.744 53.1479 140.192 54.3159 140.192ZM65.6311 130.592C65.6311 129.888 66.0791 129.392 66.6231 129.392C67.0231 129.392 67.3591 129.52 67.5831 129.744L68.0951 129.008C67.6471 128.672 67.1191 128.48 66.5591 128.48C65.4391 128.48 64.6391 129.36 64.6391 130.592V131.728H63.2951V132.64H64.6391V140H65.6311V132.64H67.7591V131.728H65.6311V130.592ZM70.5856 133.424V131.728H69.5936V140H70.5856V135.376C70.5856 133.664 71.9136 132.448 73.7856 132.448V131.536C72.2656 131.536 71.0496 132.304 70.5856 133.424ZM81.2744 131.728V136.992C81.2744 138.272 80.1384 139.28 78.6824 139.28C77.3704 139.28 76.4424 138.304 76.4424 136.912V131.728H75.4504V137.04C75.4504 138.88 76.7304 140.192 78.5544 140.192C79.7704 140.192 80.8264 139.552 81.2744 138.64V140H82.2664V131.728H81.2744ZM87.644 140.192C89.308 140.192 90.62 139.216 90.62 137.808C90.62 136.368 89.436 135.84 87.916 135.36C86.3 134.832 85.66 134.496 85.66 133.744C85.66 132.944 86.508 132.448 87.516 132.448C88.284 132.448 89.148 132.72 89.98 133.232L90.476 132.464C89.596 131.888 88.524 131.536 87.516 131.536C85.916 131.536 84.668 132.48 84.668 133.856C84.668 135.024 85.452 135.648 87.436 136.224C88.748 136.624 89.628 137.008 89.628 137.904C89.628 138.704 88.78 139.28 87.644 139.28C86.716 139.28 85.708 138.912 84.748 138.224L84.22 138.96C85.196 139.744 86.476 140.192 87.644 140.192ZM96.2706 138.928C96.0466 139.136 95.6946 139.28 95.3106 139.28C94.7666 139.28 94.3186 138.784 94.3186 138.08V132.64H96.3986V131.728H94.3186V129.456H93.3266V131.728H91.9826V132.64H93.3266V138.08C93.3266 139.312 94.1266 140.192 95.2466 140.192C95.7906 140.192 96.3506 140 96.7826 139.664L96.2706 138.928ZM99.5856 133.424V131.728H98.5936V140H99.5856V135.376C99.5856 133.664 100.914 132.448 102.786 132.448V131.536C101.266 131.536 100.05 132.304 99.5856 133.424ZM107.762 131.536C106.946 131.536 105.922 131.76 104.834 132.336L105.234 133.152C105.986 132.736 106.85 132.416 107.682 132.416C109.538 132.416 110.082 133.744 110.082 134.96V135.296C109.202 135.008 108.21 134.8 107.314 134.8C105.458 134.8 104.034 135.92 104.034 137.552C104.034 139.152 105.314 140.192 107.042 140.192C108.162 140.192 109.474 139.664 110.082 138.688V140H111.074V134.96C111.074 132.96 109.938 131.536 107.762 131.536ZM107.202 139.296C105.97 139.296 105.01 138.608 105.01 137.504C105.01 136.432 106.082 135.664 107.458 135.664C108.386 135.664 109.298 135.84 110.082 136.08V137.408C109.762 138.688 108.354 139.296 107.202 139.296ZM117.193 138.928C116.969 139.136 116.617 139.28 116.233 139.28C115.689 139.28 115.241 138.784 115.241 138.08V132.64H117.321V131.728H115.241V129.456H114.249V131.728H112.905V132.64H114.249V138.08C114.249 139.312 115.049 140.192 116.169 140.192C116.713 140.192 117.273 140 117.705 139.664L117.193 138.928ZM119.884 130.112C120.268 130.112 120.572 129.808 120.572 129.424C120.572 129.056 120.268 128.736 119.884 128.736C119.5 128.736 119.196 129.056 119.196 129.424C119.196 129.808 119.5 130.112 119.884 130.112ZM119.388 140H120.38V131.728H119.388V140ZM126.522 131.536C125.306 131.536 124.25 132.176 123.802 133.088V131.728H122.81V140H123.802V134.736C123.802 133.456 124.938 132.448 126.394 132.448C127.706 132.448 128.634 133.424 128.634 134.816V140H129.626V134.688C129.626 132.848 128.346 131.536 126.522 131.536ZM138.492 131.728V133.296C137.852 132.176 136.732 131.536 135.34 131.536C133.196 131.536 131.596 133.216 131.596 135.456C131.596 137.712 133.196 139.392 135.34 139.392C136.716 139.392 137.852 138.736 138.492 137.616V139.12C138.492 140.8 137.292 141.84 135.404 141.84C134.364 141.84 133.292 141.456 132.62 140.848L132.172 141.648C132.924 142.288 134.22 142.752 135.516 142.752C137.852 142.752 139.484 141.248 139.484 139.12V131.728H138.492ZM135.516 138.48C133.868 138.48 132.62 137.184 132.62 135.456C132.62 133.744 133.868 132.448 135.516 132.448C137.244 132.448 138.492 133.696 138.492 135.456C138.492 137.232 137.244 138.48 135.516 138.48ZM150.333 138.928C150.109 139.136 149.757 139.28 149.373 139.28C148.829 139.28 148.381 138.784 148.381 138.08V132.64H150.461V131.728H148.381V129.456H147.389V131.728H146.045V132.64H147.389V138.08C147.389 139.312 148.189 140.192 149.309 140.192C149.853 140.192 150.413 140 150.845 139.664L150.333 138.928ZM156.384 140.192C158.704 140.192 160.656 138.208 160.656 135.856C160.656 133.504 158.704 131.536 156.384 131.536C154.064 131.536 152.096 133.504 152.096 135.856C152.096 138.208 154.064 140.192 156.384 140.192ZM156.384 139.28C154.608 139.28 153.136 137.728 153.136 135.856C153.136 134 154.608 132.448 156.384 132.448C158.144 132.448 159.616 134 159.616 135.856C159.616 137.728 158.144 139.28 156.384 139.28ZM173.711 131.728V133.296C173.071 132.176 171.951 131.536 170.559 131.536C168.414 131.536 166.815 133.216 166.815 135.456C166.815 137.712 168.414 139.392 170.559 139.392C171.935 139.392 173.071 138.736 173.711 137.616V139.12C173.711 140.8 172.511 141.84 170.623 141.84C169.583 141.84 168.511 141.456 167.839 140.848L167.391 141.648C168.143 142.288 169.439 142.752 170.735 142.752C173.071 142.752 174.703 141.248 174.703 139.12V131.728H173.711ZM170.735 138.48C169.087 138.48 167.839 137.184 167.839 135.456C167.839 133.744 169.087 132.448 170.735 132.448C172.463 132.448 173.711 133.696 173.711 135.456C173.711 137.232 172.463 138.48 170.735 138.48ZM181.087 140.192C183.407 140.192 185.359 138.208 185.359 135.856C185.359 133.504 183.407 131.536 181.087 131.536C178.767 131.536 176.799 133.504 176.799 135.856C176.799 138.208 178.767 140.192 181.087 140.192ZM181.087 139.28C179.311 139.28 177.839 137.728 177.839 135.856C177.839 134 179.311 132.448 181.087 132.448C182.847 132.448 184.319 134 184.319 135.856C184.319 137.728 182.847 139.28 181.087 139.28ZM195.646 138.928C195.422 139.136 195.07 139.28 194.686 139.28C194.142 139.28 193.694 138.784 193.694 138.08V132.64H195.774V131.728H193.694V129.456H192.702V131.728H191.358V132.64H192.702V138.08C192.702 139.312 193.502 140.192 194.622 140.192C195.166 140.192 195.726 140 196.158 139.664L195.646 138.928ZM201.585 131.536C200.369 131.536 199.313 132.176 198.865 133.088V128.816H197.873V140H198.865V134.736C198.865 133.456 200.001 132.448 201.457 132.448C202.769 132.448 203.697 133.424 203.697 134.816V140H204.689V134.688C204.689 132.848 203.409 131.536 201.585 131.536ZM208.226 133.424V131.728H207.234V140H208.226V135.376C208.226 133.664 209.554 132.448 211.426 132.448V131.536C209.906 131.536 208.69 132.304 208.226 133.424ZM216.665 140.192C218.985 140.192 220.937 138.208 220.937 135.856C220.937 133.504 218.985 131.536 216.665 131.536C214.345 131.536 212.377 133.504 212.377 135.856C212.377 138.208 214.345 140.192 216.665 140.192ZM216.665 139.28C214.889 139.28 213.417 137.728 213.417 135.856C213.417 134 214.889 132.448 216.665 132.448C218.425 132.448 219.897 134 219.897 135.856C219.897 137.728 218.425 139.28 216.665 139.28ZM228.743 131.728V136.992C228.743 138.272 227.607 139.28 226.151 139.28C224.839 139.28 223.911 138.304 223.911 136.912V131.728H222.919V137.04C222.919 138.88 224.199 140.192 226.023 140.192C227.239 140.192 228.295 139.552 228.743 138.64V140H229.735V131.728H228.743ZM238.617 131.728V133.296C237.977 132.176 236.857 131.536 235.465 131.536C233.321 131.536 231.721 133.216 231.721 135.456C231.721 137.712 233.321 139.392 235.465 139.392C236.841 139.392 237.977 138.736 238.617 137.616V139.12C238.617 140.8 237.417 141.84 235.529 141.84C234.489 141.84 233.417 141.456 232.745 140.848L232.297 141.648C233.049 142.288 234.345 142.752 235.641 142.752C237.977 142.752 239.609 141.248 239.609 139.12V131.728H238.617ZM235.641 138.48C233.993 138.48 232.745 137.184 232.745 135.456C232.745 133.744 233.993 132.448 235.641 132.448C237.369 132.448 238.617 133.696 238.617 135.456C238.617 137.232 237.369 138.48 235.641 138.48ZM245.882 131.536C244.666 131.536 243.61 132.176 243.162 133.088V128.816H242.17V140H243.162V134.736C243.162 133.456 244.298 132.448 245.754 132.448C247.066 132.448 247.994 133.424 247.994 134.816V140H248.986V134.688C248.986 132.848 247.706 131.536 245.882 131.536ZM258.988 140.192C260.652 140.192 261.964 139.216 261.964 137.808C261.964 136.368 260.78 135.84 259.26 135.36C257.644 134.832 257.004 134.496 257.004 133.744C257.004 132.944 257.852 132.448 258.86 132.448C259.628 132.448 260.492 132.72 261.324 133.232L261.82 132.464C260.94 131.888 259.868 131.536 258.86 131.536C257.26 131.536 256.012 132.48 256.012 133.856C256.012 135.024 256.796 135.648 258.78 136.224C260.092 136.624 260.972 137.008 260.972 137.904C260.972 138.704 260.124 139.28 258.988 139.28C258.06 139.28 257.052 138.912 256.092 138.224L255.564 138.96C256.54 139.744 257.82 140.192 258.988 140.192ZM267.79 140.192C270.11 140.192 272.062 138.208 272.062 135.856C272.062 133.504 270.11 131.536 267.79 131.536C265.47 131.536 263.502 133.504 263.502 135.856C263.502 138.208 265.47 140.192 267.79 140.192ZM267.79 139.28C266.014 139.28 264.542 137.728 264.542 135.856C264.542 134 266.014 132.448 267.79 132.448C269.55 132.448 271.022 134 271.022 135.856C271.022 137.728 269.55 139.28 267.79 139.28ZM287.485 131.536C286.205 131.536 285.117 132.24 284.765 133.328C284.333 132.24 283.373 131.536 282.125 131.536C280.989 131.536 280.077 132.08 279.677 132.944V131.728H278.685V140H279.677V134.688C279.677 133.376 280.637 132.448 281.997 132.448C283.197 132.448 284.029 133.424 284.029 134.816V140H285.021V134.688C285.021 133.376 285.981 132.448 287.341 132.448C288.541 132.448 289.389 133.424 289.389 134.816V140H290.381V134.688C290.381 132.848 289.181 131.536 287.485 131.536ZM296.122 131.536C295.306 131.536 294.282 131.76 293.194 132.336L293.594 133.152C294.346 132.736 295.21 132.416 296.042 132.416C297.898 132.416 298.442 133.744 298.442 134.96V135.296C297.562 135.008 296.57 134.8 295.674 134.8C293.818 134.8 292.394 135.92 292.394 137.552C292.394 139.152 293.674 140.192 295.402 140.192C296.522 140.192 297.834 139.664 298.442 138.688V140H299.434V134.96C299.434 132.96 298.298 131.536 296.122 131.536ZM295.562 139.296C294.33 139.296 293.37 138.608 293.37 137.504C293.37 136.432 294.442 135.664 295.818 135.664C296.746 135.664 297.658 135.84 298.442 136.08V137.408C298.122 138.688 296.714 139.296 295.562 139.296ZM305.616 131.536C304.4 131.536 303.344 132.176 302.896 133.088V131.728H301.904V140H302.896V134.736C302.896 133.456 304.032 132.448 305.488 132.448C306.8 132.448 307.728 133.424 307.728 134.816V140H308.72V134.688C308.72 132.848 307.44 131.536 305.616 131.536ZM312.242 142.88C313.394 142.864 314.194 142.336 314.722 141.024L318.53 131.728H317.458L314.562 138.944L311.506 131.728H310.418L314.049 140.128L313.554 141.2C313.25 141.744 312.818 141.968 312.21 141.968C311.858 141.968 311.49 141.888 311.186 141.728L310.93 142.608C311.314 142.784 311.778 142.88 312.242 142.88ZM58.8218 152.816V157.344C58.1818 156.224 57.0938 155.536 55.7338 155.536C53.6058 155.536 51.9578 157.392 51.9578 159.856C51.9578 162.336 53.6058 164.192 55.7338 164.192C57.0938 164.192 58.1818 163.504 58.8218 162.384V164H59.8138V152.816H58.8218ZM55.9098 163.28C54.2458 163.28 52.9818 161.808 52.9818 159.856C52.9818 157.904 54.2458 156.448 55.9098 156.448C57.6218 156.448 58.8218 157.856 58.8218 159.856C58.8218 161.856 57.6218 163.28 55.9098 163.28ZM62.8366 154.112C63.2206 154.112 63.5246 153.808 63.5246 153.424C63.5246 153.056 63.2206 152.736 62.8366 152.736C62.4526 152.736 62.1486 153.056 62.1486 153.424C62.1486 153.808 62.4526 154.112 62.8366 154.112ZM62.3406 164H63.3326V155.728H62.3406V164ZM67.4593 154.592C67.4593 153.888 67.9073 153.392 68.4513 153.392C68.8513 153.392 69.1873 153.52 69.4113 153.744L69.9233 153.008C69.4753 152.672 68.9473 152.48 68.3873 152.48C67.2673 152.48 66.4673 153.36 66.4673 154.592V155.728H65.1233V156.64H66.4673V164H67.4593V156.64H69.5873V155.728H67.4593V154.592ZM73.0218 154.592C73.0218 153.888 73.4698 153.392 74.0138 153.392C74.4138 153.392 74.7498 153.52 74.9738 153.744L75.4858 153.008C75.0378 152.672 74.5098 152.48 73.9498 152.48C72.8298 152.48 72.0298 153.36 72.0298 154.592V155.728H70.6858V156.64H72.0298V164H73.0218V156.64H75.1498V155.728H73.0218V154.592ZM80.5683 163.28C78.8723 163.28 77.6083 161.968 77.4323 160.256H84.4243C84.4243 157.408 82.9523 155.536 80.5043 155.536C78.2643 155.536 76.4243 157.392 76.4243 159.84C76.4243 162.32 78.3603 164.192 80.5683 164.192C81.7843 164.192 83.2403 163.68 83.9443 162.912L83.3203 162.24C82.7443 162.864 81.6083 163.28 80.5683 163.28ZM80.5363 156.448C82.2803 156.448 83.3043 157.68 83.4323 159.344H77.4483C77.6562 157.632 78.9203 156.448 80.5363 156.448ZM87.4919 157.424V155.728H86.4999V164H87.4919V159.376C87.4919 157.664 88.8199 156.448 90.6919 156.448V155.536C89.1719 155.536 87.9559 156.304 87.4919 157.424ZM96.0526 163.28C94.3566 163.28 93.0926 161.968 92.9166 160.256H99.9086C99.9086 157.408 98.4366 155.536 95.9886 155.536C93.7486 155.536 91.9086 157.392 91.9086 159.84C91.9086 162.32 93.8446 164.192 96.0526 164.192C97.2686 164.192 98.7246 163.68 99.4286 162.912L98.8046 162.24C98.2286 162.864 97.0926 163.28 96.0526 163.28ZM96.0206 156.448C97.7646 156.448 98.7886 157.68 98.9166 159.344H92.9326C93.1406 157.632 94.4046 156.448 96.0206 156.448ZM105.6 155.536C104.384 155.536 103.328 156.176 102.88 157.088V155.728H101.888V164H102.88V158.736C102.88 157.456 104.016 156.448 105.472 156.448C106.784 156.448 107.712 157.424 107.712 158.816V164H108.704V158.688C108.704 156.848 107.424 155.536 105.6 155.536ZM114.802 162.928C114.578 163.136 114.226 163.28 113.842 163.28C113.298 163.28 112.85 162.784 112.85 162.08V156.64H114.93V155.728H112.85V153.456H111.858V155.728H110.514V156.64H111.858V162.08C111.858 163.312 112.658 164.192 113.778 164.192C114.322 164.192 114.882 164 115.314 163.664L114.802 162.928ZM125.494 164.192C127.814 164.192 129.766 162.208 129.766 159.856C129.766 157.504 127.814 155.536 125.494 155.536C123.174 155.536 121.206 157.504 121.206 159.856C121.206 162.208 123.174 164.192 125.494 164.192ZM125.494 163.28C123.718 163.28 122.246 161.728 122.246 159.856C122.246 158 123.718 156.448 125.494 156.448C127.254 156.448 128.726 158 128.726 159.856C128.726 161.728 127.254 163.28 125.494 163.28ZM135.939 155.536C134.579 155.536 133.491 156.224 132.851 157.344V155.728H131.859V166.752H132.851V162.384C133.491 163.504 134.579 164.192 135.939 164.192C138.067 164.192 139.715 162.336 139.715 159.856C139.715 157.392 138.067 155.536 135.939 155.536ZM135.763 163.28C134.051 163.28 132.851 161.856 132.851 159.856C132.851 157.856 134.051 156.448 135.763 156.448C137.427 156.448 138.691 157.904 138.691 159.856C138.691 161.808 137.427 163.28 135.763 163.28ZM145.458 162.928C145.234 163.136 144.882 163.28 144.498 163.28C143.954 163.28 143.506 162.784 143.506 162.08V156.64H145.586V155.728H143.506V153.456H142.514V155.728H141.17V156.64H142.514V162.08C142.514 163.312 143.314 164.192 144.434 164.192C144.978 164.192 145.538 164 145.97 163.664L145.458 162.928ZM148.149 154.112C148.533 154.112 148.837 153.808 148.837 153.424C148.837 153.056 148.533 152.736 148.149 152.736C147.765 152.736 147.461 153.056 147.461 153.424C147.461 153.808 147.765 154.112 148.149 154.112ZM147.653 164H148.645V155.728H147.653V164ZM154.9 164.192C157.22 164.192 159.172 162.208 159.172 159.856C159.172 157.504 157.22 155.536 154.9 155.536C152.58 155.536 150.612 157.504 150.612 159.856C150.612 162.208 152.58 164.192 154.9 164.192ZM154.9 163.28C153.124 163.28 151.652 161.728 151.652 159.856C151.652 158 153.124 156.448 154.9 156.448C156.66 156.448 158.132 158 158.132 159.856C158.132 161.728 156.66 163.28 154.9 163.28ZM164.882 155.536C163.666 155.536 162.61 156.176 162.162 157.088V155.728H161.17V164H162.162V158.736C162.162 157.456 163.298 156.448 164.754 156.448C166.066 156.448 166.994 157.424 166.994 158.816V164H167.986V158.688C167.986 156.848 166.706 155.536 164.882 155.536ZM173.347 164.192C175.011 164.192 176.323 163.216 176.323 161.808C176.323 160.368 175.139 159.84 173.619 159.36C172.003 158.832 171.363 158.496 171.363 157.744C171.363 156.944 172.211 156.448 173.219 156.448C173.987 156.448 174.851 156.72 175.683 157.232L176.179 156.464C175.299 155.888 174.227 155.536 173.219 155.536C171.619 155.536 170.371 156.48 170.371 157.856C170.371 159.024 171.155 159.648 173.139 160.224C174.451 160.624 175.331 161.008 175.331 161.904C175.331 162.704 174.483 163.28 173.347 163.28C172.419 163.28 171.411 162.912 170.451 162.224L169.923 162.96C170.899 163.744 172.179 164.192 173.347 164.192ZM183.43 154.112C183.814 154.112 184.118 153.808 184.118 153.424C184.118 153.056 183.814 152.736 183.43 152.736C183.046 152.736 182.742 153.056 182.742 153.424C182.742 153.808 183.046 154.112 183.43 154.112ZM182.934 164H183.926V155.728H182.934V164ZM190.069 155.536C188.853 155.536 187.797 156.176 187.349 157.088V155.728H186.357V164H187.349V158.736C187.349 157.456 188.485 156.448 189.941 156.448C191.253 156.448 192.181 157.424 192.181 158.816V164H193.173V158.688C193.173 156.848 191.893 155.536 190.069 155.536ZM203.175 164.192C204.839 164.192 206.151 163.216 206.151 161.808C206.151 160.368 204.967 159.84 203.447 159.36C201.831 158.832 201.191 158.496 201.191 157.744C201.191 156.944 202.039 156.448 203.047 156.448C203.815 156.448 204.679 156.72 205.511 157.232L206.007 156.464C205.127 155.888 204.055 155.536 203.047 155.536C201.447 155.536 200.199 156.48 200.199 157.856C200.199 159.024 200.983 159.648 202.967 160.224C204.279 160.624 205.159 161.008 205.159 161.904C205.159 162.704 204.311 163.28 203.175 163.28C202.247 163.28 201.239 162.912 200.279 162.224L199.751 162.96C200.727 163.744 202.007 164.192 203.175 164.192ZM211.834 163.28C210.138 163.28 208.874 161.968 208.698 160.256H215.69C215.69 157.408 214.218 155.536 211.77 155.536C209.53 155.536 207.69 157.392 207.69 159.84C207.69 162.32 209.626 164.192 211.834 164.192C213.05 164.192 214.506 163.68 215.21 162.912L214.586 162.24C214.01 162.864 212.874 163.28 211.834 163.28ZM211.802 156.448C213.546 156.448 214.57 157.68 214.698 159.344H208.714C208.922 157.632 210.186 156.448 211.802 156.448ZM220.966 155.536C220.15 155.536 219.126 155.76 218.038 156.336L218.438 157.152C219.19 156.736 220.054 156.416 220.886 156.416C222.742 156.416 223.286 157.744 223.286 158.96V159.296C222.406 159.008 221.414 158.8 220.518 158.8C218.662 158.8 217.238 159.92 217.238 161.552C217.238 163.152 218.518 164.192 220.246 164.192C221.366 164.192 222.678 163.664 223.286 162.688V164H224.278V158.96C224.278 156.96 223.142 155.536 220.966 155.536ZM220.406 163.296C219.174 163.296 218.214 162.608 218.214 161.504C218.214 160.432 219.286 159.664 220.661 159.664C221.59 159.664 222.502 159.84 223.286 160.08V161.408C222.966 162.688 221.558 163.296 220.406 163.296ZM227.836 157.424V155.728H226.844V164H227.836V159.376C227.836 157.664 229.164 156.448 231.036 156.448V155.536C229.516 155.536 228.3 156.304 227.836 157.424ZM236.492 164.192C237.612 164.192 238.652 163.712 239.42 162.944L238.732 162.272C238.156 162.896 237.356 163.28 236.492 163.28C234.7 163.28 233.292 161.776 233.292 159.856C233.292 157.952 234.7 156.448 236.492 156.448C237.34 156.448 238.124 156.816 238.7 157.424L239.388 156.752C238.62 156 237.596 155.536 236.492 155.536C234.14 155.536 232.252 157.44 232.252 159.856C232.252 162.272 234.14 164.192 236.492 164.192ZM244.991 155.536C243.775 155.536 242.719 156.176 242.271 157.088V152.816H241.279V164H242.271V158.736C242.271 157.456 243.407 156.448 244.863 156.448C246.175 156.448 247.103 157.424 247.103 158.816V164H248.095V158.688C248.095 156.848 246.815 155.536 244.991 155.536ZM259.009 164.192C261.329 164.192 263.281 162.208 263.281 159.856C263.281 157.504 261.329 155.536 259.009 155.536C256.689 155.536 254.721 157.504 254.721 159.856C254.721 162.208 256.689 164.192 259.009 164.192ZM259.009 163.28C257.233 163.28 255.761 161.728 255.761 159.856C255.761 158 257.233 156.448 259.009 156.448C260.769 156.448 262.241 158 262.241 159.856C262.241 161.728 260.769 163.28 259.009 163.28ZM266.975 154.592C266.975 153.888 267.423 153.392 267.967 153.392C268.367 153.392 268.703 153.52 268.927 153.744L269.439 153.008C268.991 152.672 268.463 152.48 267.903 152.48C266.783 152.48 265.983 153.36 265.983 154.592V155.728H264.639V156.64H265.983V164H266.975V156.64H269.103V155.728H266.975V154.592ZM279.13 162.928C278.906 163.136 278.554 163.28 278.17 163.28C277.626 163.28 277.178 162.784 277.178 162.08V156.64H279.258V155.728H277.178V153.456H276.186V155.728H274.842V156.64H276.186V162.08C276.186 163.312 276.986 164.192 278.106 164.192C278.65 164.192 279.21 164 279.642 163.664L279.13 162.928ZM285.069 155.536C283.853 155.536 282.797 156.176 282.349 157.088V152.816H281.357V164H282.349V158.736C282.349 157.456 283.485 156.448 284.941 156.448C286.253 156.448 287.181 157.424 287.181 158.816V164H288.173V158.688C288.173 156.848 286.893 155.536 285.069 155.536ZM294.303 163.28C292.607 163.28 291.343 161.968 291.167 160.256H298.159C298.159 157.408 296.687 155.536 294.239 155.536C291.999 155.536 290.159 157.392 290.159 159.84C290.159 162.32 292.095 164.192 294.303 164.192C295.519 164.192 296.975 163.68 297.679 162.912L297.055 162.24C296.479 162.864 295.343 163.28 294.303 163.28ZM294.271 156.448C296.015 156.448 297.039 157.68 297.167 159.344H291.183C291.391 157.632 292.655 156.448 294.271 156.448ZM55.2636 187.28C53.5676 187.28 52.3036 185.968 52.1276 184.256H59.1196C59.1196 181.408 57.6476 179.536 55.1996 179.536C52.9596 179.536 51.1196 181.392 51.1196 183.84C51.1196 186.32 53.0556 188.192 55.2636 188.192C56.4796 188.192 57.9356 187.68 58.6396 186.912L58.0156 186.24C57.4396 186.864 56.3036 187.28 55.2636 187.28ZM55.2316 180.448C56.9756 180.448 57.9996 181.68 58.1276 183.344H52.1436C52.3516 181.632 53.6156 180.448 55.2316 180.448ZM67.9312 188L64.7472 183.776L67.8032 179.728H66.6352L64.1552 183.008L61.6752 179.728H60.5072L63.5792 183.776L60.3792 188H61.5472L64.1552 184.544L66.7632 188H67.9312ZM72.9733 179.536C72.1573 179.536 71.1333 179.76 70.0453 180.336L70.4453 181.152C71.1973 180.736 72.0613 180.416 72.8933 180.416C74.7493 180.416 75.2933 181.744 75.2933 182.96V183.296C74.4133 183.008 73.4213 182.8 72.5253 182.8C70.6693 182.8 69.2453 183.92 69.2453 185.552C69.2453 187.152 70.5253 188.192 72.2533 188.192C73.3733 188.192 74.6853 187.664 75.2933 186.688V188H76.2853V182.96C76.2853 180.96 75.1493 179.536 72.9733 179.536ZM72.4133 187.296C71.1813 187.296 70.2213 186.608 70.2213 185.504C70.2213 184.432 71.2933 183.664 72.6693 183.664C73.5973 183.664 74.5093 183.84 75.2933 184.08V185.408C74.9733 186.688 73.5653 187.296 72.4133 187.296ZM82.5314 188.192C83.6514 188.192 84.6914 187.712 85.4594 186.944L84.7714 186.272C84.1954 186.896 83.3954 187.28 82.5314 187.28C80.7394 187.28 79.3314 185.776 79.3314 183.856C79.3314 181.952 80.7394 180.448 82.5314 180.448C83.3794 180.448 84.1634 180.816 84.7394 181.424L85.4274 180.752C84.6594 180 83.6354 179.536 82.5314 179.536C80.1794 179.536 78.2914 181.44 78.2914 183.856C78.2914 186.272 80.1794 188.192 82.5314 188.192ZM90.9659 186.928C90.7419 187.136 90.3899 187.28 90.0059 187.28C89.4619 187.28 89.0139 186.784 89.0139 186.08V180.64H91.0939V179.728H89.0139V177.456H88.0219V179.728H86.6779V180.64H88.0219V186.08C88.0219 187.312 88.8219 188.192 89.9419 188.192C90.4859 188.192 91.0459 188 91.4779 187.664L90.9659 186.928ZM100.746 188.192C102.41 188.192 103.722 187.216 103.722 185.808C103.722 184.368 102.538 183.84 101.018 183.36C99.4016 182.832 98.7616 182.496 98.7616 181.744C98.7616 180.944 99.6096 180.448 100.618 180.448C101.386 180.448 102.25 180.72 103.082 181.232L103.578 180.464C102.698 179.888 101.626 179.536 100.618 179.536C99.0176 179.536 97.7696 180.48 97.7696 181.856C97.7696 183.024 98.5536 183.648 100.538 184.224C101.85 184.624 102.73 185.008 102.73 185.904C102.73 186.704 101.882 187.28 100.746 187.28C99.8176 187.28 98.8096 186.912 97.8496 186.224L97.3216 186.96C98.2976 187.744 99.5776 188.192 100.746 188.192ZM106.188 178.112C106.572 178.112 106.876 177.808 106.876 177.424C106.876 177.056 106.572 176.736 106.188 176.736C105.804 176.736 105.5 177.056 105.5 177.424C105.5 177.808 105.804 178.112 106.188 178.112ZM105.692 188H106.684V179.728H105.692V188ZM108.747 188H115.275V187.056H110.059L115.243 180.512V179.728H108.843V180.672H113.915L108.747 187.216V188ZM121.014 187.28C119.318 187.28 118.054 185.968 117.878 184.256H124.87C124.87 181.408 123.398 179.536 120.95 179.536C118.71 179.536 116.87 181.392 116.87 183.84C116.87 186.32 118.806 188.192 121.014 188.192C122.23 188.192 123.686 187.68 124.39 186.912L123.766 186.24C123.19 186.864 122.054 187.28 121.014 187.28ZM120.982 180.448C122.726 180.448 123.75 181.68 123.878 183.344H117.894C118.102 181.632 119.366 180.448 120.982 180.448ZM134.786 179.536C133.97 179.536 132.946 179.76 131.858 180.336L132.258 181.152C133.01 180.736 133.874 180.416 134.706 180.416C136.562 180.416 137.106 181.744 137.106 182.96V183.296C136.226 183.008 135.234 182.8 134.338 182.8C132.482 182.8 131.058 183.92 131.058 185.552C131.058 187.152 132.338 188.192 134.066 188.192C135.186 188.192 136.498 187.664 137.106 186.688V188H138.098V182.96C138.098 180.96 136.962 179.536 134.786 179.536ZM134.226 187.296C132.994 187.296 132.034 186.608 132.034 185.504C132.034 184.432 133.106 183.664 134.482 183.664C135.41 183.664 136.322 183.84 137.106 184.08V185.408C136.786 186.688 135.378 187.296 134.226 187.296ZM144.28 179.536C143.064 179.536 142.008 180.176 141.56 181.088V179.728H140.568V188H141.56V182.736C141.56 181.456 142.696 180.448 144.152 180.448C145.464 180.448 146.392 181.424 146.392 182.816V188H147.384V182.688C147.384 180.848 146.104 179.536 144.28 179.536ZM156.33 176.816V181.344C155.69 180.224 154.602 179.536 153.242 179.536C151.114 179.536 149.466 181.392 149.466 183.856C149.466 186.336 151.114 188.192 153.242 188.192C154.602 188.192 155.69 187.504 156.33 186.384V188H157.322V176.816H156.33ZM153.418 187.28C151.754 187.28 150.49 185.808 150.49 183.856C150.49 181.904 151.754 180.448 153.418 180.448C155.13 180.448 156.33 181.856 156.33 183.856C156.33 185.856 155.13 187.28 153.418 187.28ZM168.697 179.536C167.337 179.536 166.249 180.224 165.609 181.344V179.728H164.617V190.752H165.609V186.384C166.249 187.504 167.337 188.192 168.697 188.192C170.825 188.192 172.473 186.336 172.473 183.856C172.473 181.392 170.825 179.536 168.697 179.536ZM168.521 187.28C166.809 187.28 165.609 185.856 165.609 183.856C165.609 181.856 166.809 180.448 168.521 180.448C170.185 180.448 171.449 181.904 171.449 183.856C171.449 185.808 170.185 187.28 168.521 187.28ZM175.656 181.424V179.728H174.664V188H175.656V183.376C175.656 181.664 176.984 180.448 178.856 180.448V179.536C177.336 179.536 176.12 180.304 175.656 181.424ZM184.095 188.192C186.415 188.192 188.367 186.208 188.367 183.856C188.367 181.504 186.415 179.536 184.095 179.536C181.775 179.536 179.807 181.504 179.807 183.856C179.807 186.208 181.775 188.192 184.095 188.192ZM184.095 187.28C182.319 187.28 180.847 185.728 180.847 183.856C180.847 182 182.319 180.448 184.095 180.448C185.855 180.448 187.327 182 187.327 183.856C187.327 185.728 185.855 187.28 184.095 187.28ZM196.861 176.816V181.344C196.221 180.224 195.133 179.536 193.773 179.536C191.645 179.536 189.997 181.392 189.997 183.856C189.997 186.336 191.645 188.192 193.773 188.192C195.133 188.192 196.221 187.504 196.861 186.384V188H197.853V176.816H196.861ZM193.949 187.28C192.285 187.28 191.021 185.808 191.021 183.856C191.021 181.904 192.285 180.448 193.949 180.448C195.661 180.448 196.861 181.856 196.861 183.856C196.861 185.856 195.661 187.28 193.949 187.28ZM206.22 179.728V184.992C206.22 186.272 205.084 187.28 203.628 187.28C202.316 187.28 201.388 186.304 201.388 184.912V179.728H200.396V185.04C200.396 186.88 201.676 188.192 203.5 188.192C204.716 188.192 205.772 187.552 206.22 186.64V188H207.212V179.728H206.22ZM213.453 188.192C214.573 188.192 215.613 187.712 216.381 186.944L215.693 186.272C215.117 186.896 214.317 187.28 213.453 187.28C211.661 187.28 210.253 185.776 210.253 183.856C210.253 181.952 211.661 180.448 213.453 180.448C214.301 180.448 215.085 180.816 215.661 181.424L216.349 180.752C215.581 180 214.557 179.536 213.453 179.536C211.101 179.536 209.213 181.44 209.213 183.856C209.213 186.272 211.101 188.192 213.453 188.192ZM221.888 186.928C221.664 187.136 221.312 187.28 220.928 187.28C220.384 187.28 219.936 186.784 219.936 186.08V180.64H222.016V179.728H219.936V177.456H218.944V179.728H217.6V180.64H218.944V186.08C218.944 187.312 219.744 188.192 220.864 188.192C221.408 188.192 221.968 188 222.4 187.664L221.888 186.928ZM228.787 188H229.811V177.008H228.787V188ZM238.031 181.424V179.728H237.039V188H238.031V183.376C238.031 181.664 239.359 180.448 241.231 180.448V179.536C239.711 179.536 238.495 180.304 238.031 181.424ZM246.592 187.28C244.896 187.28 243.632 185.968 243.456 184.256H250.448C250.448 181.408 248.976 179.536 246.528 179.536C244.288 179.536 242.448 181.392 242.448 183.84C242.448 186.32 244.384 188.192 246.592 188.192C247.808 188.192 249.264 187.68 249.968 186.912L249.344 186.24C248.768 186.864 247.632 187.28 246.592 187.28ZM246.56 180.448C248.304 180.448 249.328 181.68 249.456 183.344H243.472C243.68 181.632 244.944 180.448 246.56 180.448ZM258.923 179.728V181.344C258.283 180.224 257.195 179.536 255.835 179.536C253.707 179.536 252.059 181.392 252.059 183.856C252.059 186.336 253.707 188.192 255.835 188.192C257.195 188.192 258.283 187.504 258.923 186.384V190.752H259.915V179.728H258.923ZM256.011 187.28C254.347 187.28 253.083 185.808 253.083 183.856C253.083 181.904 254.347 180.448 256.011 180.448C257.723 180.448 258.923 181.856 258.923 183.856C258.923 185.856 257.723 187.28 256.011 187.28ZM268.282 179.728V184.992C268.282 186.272 267.146 187.28 265.69 187.28C264.378 187.28 263.45 186.304 263.45 184.912V179.728H262.458V185.04C262.458 186.88 263.738 188.192 265.562 188.192C266.778 188.192 267.834 187.552 268.282 186.64V188H269.274V179.728H268.282ZM272.204 178.112C272.588 178.112 272.892 177.808 272.892 177.424C272.892 177.056 272.588 176.736 272.204 176.736C271.82 176.736 271.516 177.056 271.516 177.424C271.516 177.808 271.82 178.112 272.204 178.112ZM271.708 188H272.7V179.728H271.708V188ZM276.218 181.424V179.728H275.226V188H276.218V183.376C276.218 181.664 277.546 180.448 279.418 180.448V179.536C277.898 179.536 276.682 180.304 276.218 181.424ZM284.779 187.28C283.083 187.28 281.819 185.968 281.643 184.256H288.635C288.635 181.408 287.163 179.536 284.715 179.536C282.475 179.536 280.635 181.392 280.635 183.84C280.635 186.32 282.571 188.192 284.779 188.192C285.995 188.192 287.451 187.68 288.155 186.912L287.531 186.24C286.955 186.864 285.819 187.28 284.779 187.28ZM284.747 180.448C286.491 180.448 287.515 181.68 287.643 183.344H281.659C281.867 181.632 283.131 180.448 284.747 180.448ZM291.303 188.192C291.703 188.192 292.023 187.856 292.023 187.44C292.023 187.056 291.703 186.72 291.303 186.72C290.871 186.72 290.551 187.056 290.551 187.44C290.551 187.856 290.871 188.192 291.303 188.192ZM294.652 180.992H295.276C295.388 180.064 295.612 178.704 295.612 178C295.612 177.648 295.324 177.36 294.972 177.36C294.62 177.36 294.316 177.648 294.316 178C294.316 178.704 294.54 180.064 294.652 180.992ZM297.532 180.992H298.156C298.268 180.064 298.492 178.704 298.492 178C298.492 177.648 298.204 177.36 297.852 177.36C297.5 177.36 297.196 177.648 297.196 178C297.196 178.704 297.42 180.064 297.532 180.992Z" fill="#2D2D2D"/>
<path d="M137.792 100H145.376V98.816H139.792L142.672 96.32C144.528 94.72 145.264 93.536 145.264 92.048C145.264 90.08 143.664 88.816 141.76 88.816C140.032 88.816 138.8 89.632 137.888 90.928L138.768 91.648C139.52 90.624 140.432 89.936 141.712 89.936C142.88 89.936 144 90.72 144 92.064C144 93.152 143.36 94.208 141.808 95.536L137.792 98.96V100ZM148.638 100H150.078L154.814 89.952V89.008H147.374V90.192H153.326L148.638 100ZM157.879 102.128C158.839 100.928 159.111 100.384 159.111 99.744C159.111 99.008 158.743 98.464 158.135 98.464C157.623 98.464 157.255 98.864 157.255 99.312C157.255 99.792 157.639 100.192 158.119 100.192C157.991 100.688 157.719 101.184 157.287 101.68L157.879 102.128ZM171.347 100.192C172.867 100.192 174.275 99.536 175.299 98.512L174.451 97.648C173.651 98.496 172.547 99.04 171.347 99.04C168.979 99.04 166.979 96.96 166.979 94.496C166.979 92.048 168.979 89.968 171.347 89.968C172.547 89.968 173.651 90.512 174.451 91.36L175.299 90.496C174.275 89.456 172.867 88.816 171.347 88.816C168.307 88.816 165.715 91.408 165.715 94.496C165.715 97.584 168.307 100.192 171.347 100.192ZM178.206 102.88C179.342 102.864 180.142 102.336 180.718 100.928L184.494 91.728H183.198L180.462 98.608L177.566 91.728H176.238L179.838 100.032L179.358 101.056C179.038 101.616 178.686 101.792 178.158 101.792C177.806 101.792 177.47 101.728 177.182 101.584L176.894 102.608C177.278 102.784 177.726 102.88 178.206 102.88ZM190.298 100.192C191.45 100.192 192.506 99.712 193.29 98.928L192.458 98.112C191.898 98.736 191.13 99.12 190.298 99.12C188.65 99.12 187.274 97.632 187.274 95.856C187.274 94.096 188.65 92.608 190.298 92.608C191.114 92.608 191.866 92.976 192.41 93.568L193.242 92.752C192.458 92 191.418 91.536 190.298 91.536C187.978 91.536 186.01 93.504 186.01 95.856C186.01 98.208 187.978 100.192 190.298 100.192ZM195.13 100H196.33V88.816H195.13V100ZM199.347 90.224C199.779 90.224 200.131 89.856 200.131 89.424C200.131 89.008 199.779 88.64 199.347 88.64C198.899 88.64 198.547 89.008 198.547 89.424C198.547 89.856 198.899 90.224 199.347 90.224ZM198.739 100H199.939V91.728H198.739V100ZM205.277 100.192C206.989 100.192 208.301 99.216 208.301 97.696C208.301 96.128 206.925 95.68 205.597 95.264C204.061 94.768 203.453 94.544 203.453 93.824C203.453 93.024 204.221 92.608 205.149 92.608C205.885 92.608 206.701 92.864 207.533 93.392L208.109 92.464C207.229 91.888 206.173 91.536 205.149 91.536C203.501 91.536 202.253 92.464 202.253 93.968C202.253 95.152 203.021 95.744 205.021 96.32C206.141 96.64 207.101 96.928 207.101 97.824C207.101 98.608 206.365 99.12 205.277 99.12C204.365 99.12 203.421 98.768 202.477 98.08L201.853 98.96C202.845 99.76 204.125 100.192 205.277 100.192ZM213.918 98.784C213.742 98.976 213.422 99.12 213.054 99.12C212.574 99.12 212.158 98.688 212.158 98.08V92.8H214.19V91.728H212.158V89.456H210.958V91.728H209.662V92.8H210.958V98.08C210.958 99.312 211.79 100.192 212.974 100.192C213.534 100.192 214.078 100 214.51 99.664L213.918 98.784Z" fill="#2D2D2D"/>
<path d="M142.24 76.288C144.736 76.288 147.04 75.208 148.648 73.528L146.08 71.224C145.12 72.328 143.752 73.072 142.24 73.072C139.48 73.072 137.128 70.624 137.128 67.744C137.128 64.888 139.48 62.44 142.24 62.44C143.752 62.44 145.12 63.184 146.08 64.288L148.648 61.984C147.04 60.28 144.736 59.224 142.24 59.224C137.512 59.224 133.48 63.112 133.48 67.744C133.48 72.376 137.512 76.288 142.24 76.288ZM157.919 63.304C156.335 63.304 154.967 64.024 154.199 65.104V59.224H150.695V76H154.199V68.656C154.199 67.312 155.327 66.256 156.791 66.256C158.183 66.256 159.143 67.312 159.143 68.848V76H162.527V68.104C162.527 65.296 160.607 63.304 157.919 63.304ZM171.029 63.304C169.301 63.304 167.597 63.784 165.845 64.672L167.021 67C168.005 66.496 169.085 66.112 170.237 66.112C172.277 66.112 173.093 67.264 173.093 68.584V68.824C172.037 68.416 170.933 68.2 169.925 68.2C167.045 68.2 164.765 69.88 164.765 72.328C164.765 74.704 166.805 76.288 169.445 76.288C170.789 76.288 172.205 75.76 173.093 74.752V76H176.477V68.584C176.477 65.344 174.269 63.304 171.029 63.304ZM170.237 73.864C169.037 73.864 168.149 73.24 168.149 72.232C168.149 71.224 169.157 70.48 170.429 70.48C171.389 70.48 172.301 70.648 173.093 70.936V72.088C172.853 73.24 171.581 73.864 170.237 73.864ZM182.935 65.896V63.592H179.431V76H182.935V70.072C182.935 67.744 184.591 66.256 187.183 66.256V63.304C185.287 63.304 183.751 64.288 182.935 65.896ZM189.204 76H192.708V59.224H189.204V76ZM201.622 73.192C200.158 73.192 199.078 72.28 198.67 70.936H207.622C207.622 66.256 205.342 63.304 201.454 63.304C197.83 63.304 195.07 66.016 195.07 69.76C195.07 73.576 197.95 76.288 201.646 76.288C203.47 76.288 205.606 75.52 206.71 74.368L204.478 72.088C203.806 72.736 202.606 73.192 201.622 73.192ZM201.598 66.4C203.014 66.4 203.926 67.192 204.262 68.416H198.718C199.174 67.168 200.278 66.4 201.598 66.4ZM214.649 76.288C217.697 76.288 219.689 74.728 219.689 72.28C219.689 69.568 217.313 68.848 215.177 68.296C213.497 67.84 212.993 67.648 212.993 66.976C212.993 66.544 213.593 66.232 214.457 66.232C215.513 66.232 216.809 66.64 217.937 67.336L219.353 64.84C217.985 63.928 216.233 63.304 214.457 63.304C211.529 63.304 209.585 64.984 209.609 67.336C209.633 69.784 211.601 70.48 214.145 71.104C215.417 71.44 216.329 71.68 216.329 72.448C216.329 73 215.657 73.384 214.721 73.384C213.065 73.384 211.673 72.784 210.569 71.992L209.057 74.416C210.545 75.616 212.657 76.288 214.649 76.288Z" fill="#2D2D2D"/>
</svg>
