<svg width="353" height="255" viewBox="0 0 353 255" fill="none" xmlns="http://www.w3.org/2000/svg">
<path d="M0 0H353V255H0V0Z" fill="#FDFCF5"/>
<path d="M11.5 8.5H340.5V245.885H11.5V8.5Z" stroke="#FFF2B6"/>
<path d="M41.4446 129.28C40.5966 130.352 40.3086 130.944 40.3086 131.568C40.3086 132.192 40.6286 132.64 41.1246 132.64C41.5726 132.64 41.8766 132.304 41.8766 131.92C41.8766 131.504 41.5566 131.168 41.1406 131.168C41.2686 130.688 41.5406 130.176 41.9726 129.68L41.4446 129.28ZM44.5486 129.28C43.7006 130.352 43.4126 130.944 43.4126 131.568C43.4126 132.192 43.7326 132.64 44.2286 132.64C44.6766 132.64 44.9806 132.304 44.9806 131.92C44.9806 131.504 44.6606 131.168 44.2446 131.168C44.3726 130.688 44.6446 130.176 45.0766 129.68L44.5486 129.28ZM47.8478 140H52.9358C54.8398 140 56.1998 138.752 56.1998 136.992C56.1998 135.792 55.4318 134.752 54.1998 134.192C55.1597 133.712 55.7678 132.912 55.7678 131.744C55.7678 130.144 54.5198 129.008 52.7438 129.008H47.8478V140ZM48.8718 133.776V129.952H52.5198C53.8158 129.952 54.7278 130.752 54.7278 131.856C54.7278 132.976 53.8478 133.776 52.5838 133.776H48.8718ZM48.8718 139.056V134.72H52.7118C54.1518 134.72 55.1597 135.616 55.1597 136.88C55.1597 138.144 54.1518 139.056 52.7118 139.056H48.8718ZM59.4294 133.424V131.728H58.4374V140H59.4294V135.376C59.4294 133.664 60.7574 132.448 62.6294 132.448V131.536C61.1094 131.536 59.8934 132.304 59.4294 133.424ZM67.8685 140.192C70.1885 140.192 72.1405 138.208 72.1405 135.856C72.1405 133.504 70.1885 131.536 67.8685 131.536C65.5485 131.536 63.5805 133.504 63.5805 135.856C63.5805 138.208 65.5485 140.192 67.8685 140.192ZM67.8685 139.28C66.0925 139.28 64.6205 137.728 64.6205 135.856C64.6205 134 66.0925 132.448 67.8685 132.448C69.6285 132.448 71.1005 134 71.1005 135.856C71.1005 137.728 69.6285 139.28 67.8685 139.28ZM75.9058 140H76.8978L79.1698 133.2L81.4258 140H82.4178L85.1858 131.728H84.1298L81.9218 138.672L79.6018 131.728H78.7378L76.4018 138.672L74.2098 131.728H73.1538L75.9058 140ZM89.8628 140.192C91.5268 140.192 92.8388 139.216 92.8388 137.808C92.8388 136.368 91.6548 135.84 90.1348 135.36C88.5188 134.832 87.8788 134.496 87.8788 133.744C87.8788 132.944 88.7268 132.448 89.7348 132.448C90.5028 132.448 91.3668 132.72 92.1988 133.232L92.6948 132.464C91.8148 131.888 90.7428 131.536 89.7348 131.536C88.1348 131.536 86.8868 132.48 86.8868 133.856C86.8868 135.024 87.6708 135.648 89.6548 136.224C90.9668 136.624 91.8468 137.008 91.8468 137.904C91.8468 138.704 90.9988 139.28 89.8628 139.28C88.9348 139.28 87.9268 138.912 86.9668 138.224L86.4388 138.96C87.4148 139.744 88.6948 140.192 89.8628 140.192ZM95.3054 130.112C95.6894 130.112 95.9934 129.808 95.9934 129.424C95.9934 129.056 95.6894 128.736 95.3054 128.736C94.9214 128.736 94.6174 129.056 94.6174 129.424C94.6174 129.808 94.9214 130.112 95.3054 130.112ZM94.8094 140H95.8014V131.728H94.8094V140ZM101.944 131.536C100.728 131.536 99.672 132.176 99.224 133.088V131.728H98.232V140H99.224V134.736C99.224 133.456 100.36 132.448 101.816 132.448C103.128 132.448 104.056 133.424 104.056 134.816V140H105.048V134.688C105.048 132.848 103.768 131.536 101.944 131.536ZM113.914 131.728V133.296C113.274 132.176 112.154 131.536 110.762 131.536C108.618 131.536 107.018 133.216 107.018 135.456C107.018 137.712 108.618 139.392 110.762 139.392C112.138 139.392 113.274 138.736 113.914 137.616V139.12C113.914 140.8 112.714 141.84 110.826 141.84C109.786 141.84 108.714 141.456 108.042 140.848L107.594 141.648C108.346 142.288 109.642 142.752 110.938 142.752C113.274 142.752 114.906 141.248 114.906 139.12V131.728H113.914ZM110.938 138.48C109.29 138.48 108.042 137.184 108.042 135.456C108.042 133.744 109.29 132.448 110.938 132.448C112.666 132.448 113.914 133.696 113.914 135.456C113.914 137.232 112.666 138.48 110.938 138.48ZM123.195 133.424V131.728H122.203V140H123.195V135.376C123.195 133.664 124.523 132.448 126.395 132.448V131.536C124.875 131.536 123.659 132.304 123.195 133.424ZM131.372 131.536C130.556 131.536 129.532 131.76 128.444 132.336L128.844 133.152C129.596 132.736 130.46 132.416 131.292 132.416C133.148 132.416 133.692 133.744 133.692 134.96V135.296C132.812 135.008 131.82 134.8 130.924 134.8C129.068 134.8 127.644 135.92 127.644 137.552C127.644 139.152 128.924 140.192 130.652 140.192C131.772 140.192 133.084 139.664 133.692 138.688V140H134.684V134.96C134.684 132.96 133.548 131.536 131.372 131.536ZM130.812 139.296C129.58 139.296 128.62 138.608 128.62 137.504C128.62 136.432 129.692 135.664 131.068 135.664C131.996 135.664 132.908 135.84 133.692 136.08V137.408C133.372 138.688 131.964 139.296 130.812 139.296ZM140.866 131.536C139.65 131.536 138.594 132.176 138.146 133.088V131.728H137.154V140H138.146V134.736C138.146 133.456 139.282 132.448 140.738 132.448C142.05 132.448 142.978 133.424 142.978 134.816V140H143.97V134.688C143.97 132.848 142.69 131.536 140.866 131.536ZM152.916 128.816V133.344C152.276 132.224 151.188 131.536 149.828 131.536C147.7 131.536 146.052 133.392 146.052 135.856C146.052 138.336 147.7 140.192 149.828 140.192C151.188 140.192 152.276 139.504 152.916 138.384V140H153.908V128.816H152.916ZM150.004 139.28C148.34 139.28 147.076 137.808 147.076 135.856C147.076 133.904 148.34 132.448 150.004 132.448C151.716 132.448 152.916 133.856 152.916 135.856C152.916 137.856 151.716 139.28 150.004 139.28ZM160.29 140.192C162.61 140.192 164.562 138.208 164.562 135.856C164.562 133.504 162.61 131.536 160.29 131.536C157.97 131.536 156.002 133.504 156.002 135.856C156.002 138.208 157.97 140.192 160.29 140.192ZM160.29 139.28C158.514 139.28 157.042 137.728 157.042 135.856C157.042 134 158.514 132.448 160.29 132.448C162.05 132.448 163.522 134 163.522 135.856C163.522 137.728 162.05 139.28 160.29 139.28ZM175.344 131.536C174.064 131.536 172.976 132.24 172.624 133.328C172.192 132.24 171.232 131.536 169.984 131.536C168.848 131.536 167.936 132.08 167.536 132.944V131.728H166.544V140H167.536V134.688C167.536 133.376 168.496 132.448 169.856 132.448C171.056 132.448 171.888 133.424 171.888 134.816V140H172.88V134.688C172.88 133.376 173.84 132.448 175.2 132.448C176.4 132.448 177.248 133.424 177.248 134.816V140H178.24V134.688C178.24 132.848 177.04 131.536 175.344 131.536ZM180.669 140H181.661V128.816H180.669V140ZM185.179 142.88C186.331 142.864 187.131 142.336 187.659 141.024L191.467 131.728H190.395L187.499 138.944L184.443 131.728H183.355L186.987 140.128L186.491 141.2C186.187 141.744 185.755 141.968 185.147 141.968C184.795 141.968 184.427 141.888 184.123 141.728L183.867 142.608C184.251 142.784 184.715 142.88 185.179 142.88ZM201.387 131.536C200.571 131.536 199.547 131.76 198.459 132.336L198.859 133.152C199.611 132.736 200.475 132.416 201.307 132.416C203.163 132.416 203.707 133.744 203.707 134.96V135.296C202.827 135.008 201.835 134.8 200.939 134.8C199.083 134.8 197.659 135.92 197.659 137.552C197.659 139.152 198.939 140.192 200.667 140.192C201.787 140.192 203.099 139.664 203.707 138.688V140H204.699V134.96C204.699 132.96 203.563 131.536 201.387 131.536ZM200.827 139.296C199.595 139.296 198.635 138.608 198.635 137.504C198.635 136.432 199.707 135.664 201.083 135.664C202.011 135.664 202.923 135.84 203.707 136.08V137.408C203.387 138.688 201.979 139.296 200.827 139.296ZM210.882 131.536C209.666 131.536 208.61 132.176 208.162 133.088V131.728H207.17V140H208.162V134.736C208.162 133.456 209.298 132.448 210.754 132.448C212.066 132.448 212.994 133.424 212.994 134.816V140H213.986V134.688C213.986 132.848 212.706 131.536 210.882 131.536ZM222.931 128.816V133.344C222.291 132.224 221.203 131.536 219.843 131.536C217.715 131.536 216.067 133.392 216.067 135.856C216.067 138.336 217.715 140.192 219.843 140.192C221.203 140.192 222.291 139.504 222.931 138.384V140H223.923V128.816H222.931ZM220.019 139.28C218.355 139.28 217.091 137.808 217.091 135.856C217.091 133.904 218.355 132.448 220.019 132.448C221.731 132.448 222.931 133.856 222.931 135.856C222.931 137.856 221.731 139.28 220.019 139.28ZM231.107 140H232.099V128.816H231.107V140ZM238.369 140.192C240.689 140.192 242.641 138.208 242.641 135.856C242.641 133.504 240.689 131.536 238.369 131.536C236.049 131.536 234.081 133.504 234.081 135.856C234.081 138.208 236.049 140.192 238.369 140.192ZM238.369 139.28C236.593 139.28 235.121 137.728 235.121 135.856C235.121 134 236.593 132.448 238.369 132.448C240.129 132.448 241.601 134 241.601 135.856C241.601 137.728 240.129 139.28 238.369 139.28ZM248.462 140.192C250.782 140.192 252.734 138.208 252.734 135.856C252.734 133.504 250.782 131.536 248.462 131.536C246.142 131.536 244.174 133.504 244.174 135.856C244.174 138.208 246.142 140.192 248.462 140.192ZM248.462 139.28C246.686 139.28 245.214 137.728 245.214 135.856C245.214 134 246.686 132.448 248.462 132.448C250.222 132.448 251.694 134 251.694 135.856C251.694 137.728 250.222 139.28 248.462 139.28ZM261.74 131.728H260.444L255.692 136.544V128.816H254.7V140H255.692V137.824L257.308 136.192L260.284 140H261.532L258.012 135.52L261.74 131.728ZM263.665 130.112C264.049 130.112 264.353 129.808 264.353 129.424C264.353 129.056 264.049 128.736 263.665 128.736C263.281 128.736 262.977 129.056 262.977 129.424C262.977 129.808 263.281 130.112 263.665 130.112ZM263.169 140H264.161V131.728H263.169V140ZM270.303 131.536C269.087 131.536 268.031 132.176 267.583 133.088V131.728H266.591V140H267.583V134.736C267.583 133.456 268.719 132.448 270.175 132.448C271.487 132.448 272.415 133.424 272.415 134.816V140H273.407V134.688C273.407 132.848 272.127 131.536 270.303 131.536ZM282.273 131.728V133.296C281.633 132.176 280.513 131.536 279.121 131.536C276.977 131.536 275.377 133.216 275.377 135.456C275.377 137.712 276.977 139.392 279.121 139.392C280.497 139.392 281.633 138.736 282.273 137.616V139.12C282.273 140.8 281.073 141.84 279.185 141.84C278.145 141.84 277.073 141.456 276.401 140.848L275.953 141.648C276.705 142.288 278.001 142.752 279.297 142.752C281.633 142.752 283.265 141.248 283.265 139.12V131.728H282.273ZM279.297 138.48C277.649 138.48 276.401 137.184 276.401 135.456C276.401 133.744 277.649 132.448 279.297 132.448C281.025 132.448 282.273 133.696 282.273 135.456C282.273 137.232 281.025 138.48 279.297 138.48ZM292.162 130.592C292.162 129.888 292.61 129.392 293.154 129.392C293.554 129.392 293.89 129.52 294.114 129.744L294.626 129.008C294.178 128.672 293.65 128.48 293.09 128.48C291.97 128.48 291.17 129.36 291.17 130.592V131.728H289.826V132.64H291.17V140H292.162V132.64H294.29V131.728H292.162V130.592ZM299.853 140.192C302.173 140.192 304.125 138.208 304.125 135.856C304.125 133.504 302.173 131.536 299.853 131.536C297.533 131.536 295.565 133.504 295.565 135.856C295.565 138.208 297.533 140.192 299.853 140.192ZM299.853 139.28C298.077 139.28 296.605 137.728 296.605 135.856C296.605 134 298.077 132.448 299.853 132.448C301.613 132.448 303.085 134 303.085 135.856C303.085 137.728 301.613 139.28 299.853 139.28ZM307.211 133.424V131.728H306.219V140H307.211V135.376C307.211 133.664 308.539 132.448 310.411 132.448V131.536C308.891 131.536 307.675 132.304 307.211 133.424ZM42.1222 162.928C41.8982 163.136 41.5462 163.28 41.1622 163.28C40.6182 163.28 40.1702 162.784 40.1702 162.08V156.64H42.2502V155.728H40.1702V153.456H39.1782V155.728H37.8342V156.64H39.1782V162.08C39.1782 163.312 39.9782 164.192 41.0982 164.192C41.6422 164.192 42.2022 164 42.6342 163.664L42.1222 162.928ZM48.0612 155.536C46.8452 155.536 45.7892 156.176 45.3412 157.088V152.816H44.3492V164H45.3412V158.736C45.3412 157.456 46.4772 156.448 47.9332 156.448C49.2452 156.448 50.1732 157.424 50.1732 158.816V164H51.1652V158.688C51.1652 156.848 49.8852 155.536 48.0612 155.536ZM57.2948 163.28C55.5988 163.28 54.3348 161.968 54.1588 160.256H61.1508C61.1508 157.408 59.6788 155.536 57.2308 155.536C54.9908 155.536 53.1508 157.392 53.1508 159.84C53.1508 162.32 55.0868 164.192 57.2948 164.192C58.5108 164.192 59.9668 163.68 60.6708 162.912L60.0468 162.24C59.4708 162.864 58.3348 163.28 57.2948 163.28ZM57.2628 156.448C59.0068 156.448 60.0308 157.68 60.1588 159.344H54.1748C54.3828 157.632 55.6468 156.448 57.2628 156.448ZM71.9471 155.536C70.5871 155.536 69.4991 156.224 68.8591 157.344V155.728H67.8671V166.752H68.8591V162.384C69.4991 163.504 70.5871 164.192 71.9471 164.192C74.0751 164.192 75.7231 162.336 75.7231 159.856C75.7231 157.392 74.0751 155.536 71.9471 155.536ZM71.7711 163.28C70.0591 163.28 68.8591 161.856 68.8591 159.856C68.8591 157.856 70.0591 156.448 71.7711 156.448C73.4351 156.448 74.6991 157.904 74.6991 159.856C74.6991 161.808 73.4351 163.28 71.7711 163.28ZM81.4979 163.28C79.8019 163.28 78.5379 161.968 78.3619 160.256H85.3539C85.3539 157.408 83.8819 155.536 81.4339 155.536C79.1939 155.536 77.3539 157.392 77.3539 159.84C77.3539 162.32 79.2899 164.192 81.4979 164.192C82.7139 164.192 84.1699 163.68 84.8739 162.912L84.2499 162.24C83.6739 162.864 82.5379 163.28 81.4979 163.28ZM81.4659 156.448C83.2099 156.448 84.2339 157.68 84.3619 159.344H78.3779C78.5859 157.632 79.8499 156.448 81.4659 156.448ZM93.7496 155.728V157.296C93.1096 156.176 91.9896 155.536 90.5976 155.536C88.4536 155.536 86.8536 157.216 86.8536 159.456C86.8536 161.712 88.4536 163.392 90.5976 163.392C91.9736 163.392 93.1096 162.736 93.7496 161.616V163.12C93.7496 164.8 92.5496 165.84 90.6616 165.84C89.6216 165.84 88.5496 165.456 87.8776 164.848L87.4296 165.648C88.1816 166.288 89.4776 166.752 90.7736 166.752C93.1096 166.752 94.7416 165.248 94.7416 163.12V155.728H93.7496ZM90.7736 162.48C89.1256 162.48 87.8776 161.184 87.8776 159.456C87.8776 157.744 89.1256 156.448 90.7736 156.448C92.5016 156.448 93.7496 157.696 93.7496 159.456C93.7496 161.232 92.5016 162.48 90.7736 162.48ZM100.214 164.192C101.878 164.192 103.19 163.216 103.19 161.808C103.19 160.368 102.006 159.84 100.486 159.36C98.8703 158.832 98.2303 158.496 98.2303 157.744C98.2303 156.944 99.0783 156.448 100.086 156.448C100.854 156.448 101.718 156.72 102.55 157.232L103.046 156.464C102.166 155.888 101.094 155.536 100.086 155.536C98.4863 155.536 97.2383 156.48 97.2383 157.856C97.2383 159.024 98.0223 159.648 100.006 160.224C101.318 160.624 102.198 161.008 102.198 161.904C102.198 162.704 101.35 163.28 100.214 163.28C99.2863 163.28 98.2783 162.912 97.3183 162.224L96.7903 162.96C97.7663 163.744 99.0463 164.192 100.214 164.192ZM109.866 164H110.89V153.008H109.866V164ZM118.005 164H118.997V152.816H118.005V164ZM121.907 154.112C122.291 154.112 122.595 153.808 122.595 153.424C122.595 153.056 122.291 152.736 121.907 152.736C121.523 152.736 121.219 153.056 121.219 153.424C121.219 153.808 121.523 154.112 121.907 154.112ZM121.411 164H122.403V155.728H121.411V164ZM131.842 155.728H130.546L125.794 160.544V152.816H124.802V164H125.794V161.824L127.41 160.192L130.386 164H131.634L128.114 159.52L131.842 155.728ZM136.982 163.28C135.286 163.28 134.022 161.968 133.846 160.256H140.838C140.838 157.408 139.366 155.536 136.918 155.536C134.678 155.536 132.838 157.392 132.838 159.84C132.838 162.32 134.774 164.192 136.982 164.192C138.198 164.192 139.654 163.68 140.358 162.912L139.734 162.24C139.158 162.864 138.022 163.28 136.982 163.28ZM136.95 156.448C138.694 156.448 139.718 157.68 139.846 159.344H133.862C134.07 157.632 135.334 156.448 136.95 156.448ZM147.923 154.112C148.307 154.112 148.611 153.808 148.611 153.424C148.611 153.056 148.307 152.736 147.923 152.736C147.539 152.736 147.235 153.056 147.235 153.424C147.235 153.808 147.539 154.112 147.923 154.112ZM147.427 164H148.419V155.728H147.427V164ZM153.761 164.192C155.425 164.192 156.737 163.216 156.737 161.808C156.737 160.368 155.553 159.84 154.033 159.36C152.417 158.832 151.777 158.496 151.777 157.744C151.777 156.944 152.625 156.448 153.633 156.448C154.401 156.448 155.265 156.72 156.097 157.232L156.593 156.464C155.713 155.888 154.641 155.536 153.633 155.536C152.033 155.536 150.785 156.48 150.785 157.856C150.785 159.024 151.569 159.648 153.553 160.224C154.865 160.624 155.745 161.008 155.745 161.904C155.745 162.704 154.897 163.28 153.761 163.28C152.833 163.28 151.825 162.912 150.865 162.224L150.337 162.96C151.313 163.744 152.593 164.192 153.761 164.192ZM167.092 155.536C165.876 155.536 164.82 156.176 164.372 157.088V152.816H163.38V164H164.372V158.736C164.372 157.456 165.508 156.448 166.964 156.448C168.276 156.448 169.204 157.424 169.204 158.816V164H170.196V158.688C170.196 156.848 168.916 155.536 167.092 155.536ZM175.942 155.536C175.126 155.536 174.102 155.76 173.014 156.336L173.414 157.152C174.166 156.736 175.03 156.416 175.862 156.416C177.718 156.416 178.262 157.744 178.262 158.96V159.296C177.382 159.008 176.39 158.8 175.494 158.8C173.638 158.8 172.214 159.92 172.214 161.552C172.214 163.152 173.494 164.192 175.222 164.192C176.342 164.192 177.654 163.664 178.262 162.688V164H179.254V158.96C179.254 156.96 178.118 155.536 175.942 155.536ZM175.382 163.296C174.15 163.296 173.19 162.608 173.19 161.504C173.19 160.432 174.262 159.664 175.638 159.664C176.566 159.664 177.478 159.84 178.262 160.08V161.408C177.942 162.688 176.534 163.296 175.382 163.296ZM182.812 157.424V155.728H181.82V164H182.812V159.376C182.812 157.664 184.14 156.448 186.012 156.448V155.536C184.492 155.536 183.276 156.304 182.812 157.424ZM194.189 152.816V157.344C193.549 156.224 192.461 155.536 191.101 155.536C188.973 155.536 187.325 157.392 187.325 159.856C187.325 162.336 188.973 164.192 191.101 164.192C192.461 164.192 193.549 163.504 194.189 162.384V164H195.181V152.816H194.189ZM191.277 163.28C189.613 163.28 188.349 161.808 188.349 159.856C188.349 157.904 189.613 156.448 191.277 156.448C192.989 156.448 194.189 157.856 194.189 159.856C194.189 161.856 192.989 163.28 191.277 163.28ZM198.428 164.192C198.828 164.192 199.148 163.856 199.148 163.44C199.148 163.056 198.828 162.72 198.428 162.72C197.996 162.72 197.676 163.056 197.676 163.44C197.676 163.856 197.996 164.192 198.428 164.192ZM206.209 164H207.233V153.008H206.209V164ZM218.077 155.536C216.861 155.536 215.805 156.176 215.357 157.088V152.816H214.365V164H215.357V158.736C215.357 157.456 216.493 156.448 217.949 156.448C219.261 156.448 220.189 157.424 220.189 158.816V164H221.181V158.688C221.181 156.848 219.901 155.536 218.077 155.536ZM227.454 164.192C229.774 164.192 231.726 162.208 231.726 159.856C231.726 157.504 229.774 155.536 227.454 155.536C225.134 155.536 223.166 157.504 223.166 159.856C223.166 162.208 225.134 164.192 227.454 164.192ZM227.454 163.28C225.678 163.28 224.206 161.728 224.206 159.856C224.206 158 225.678 156.448 227.454 156.448C229.214 156.448 230.686 158 230.686 159.856C230.686 161.728 229.214 163.28 227.454 163.28ZM237.9 155.536C236.54 155.536 235.452 156.224 234.812 157.344V155.728H233.82V166.752H234.812V162.384C235.452 163.504 236.54 164.192 237.9 164.192C240.028 164.192 241.676 162.336 241.676 159.856C241.676 157.392 240.028 155.536 237.9 155.536ZM237.724 163.28C236.012 163.28 234.812 161.856 234.812 159.856C234.812 157.856 236.012 156.448 237.724 156.448C239.388 156.448 240.652 157.904 240.652 159.856C240.652 161.808 239.388 163.28 237.724 163.28ZM247.451 163.28C245.755 163.28 244.491 161.968 244.315 160.256H251.307C251.307 157.408 249.835 155.536 247.387 155.536C245.147 155.536 243.307 157.392 243.307 159.84C243.307 162.32 245.243 164.192 247.451 164.192C248.667 164.192 250.123 163.68 250.827 162.912L250.203 162.24C249.627 162.864 248.491 163.28 247.451 163.28ZM247.419 156.448C249.163 156.448 250.187 157.68 250.315 159.344H244.331C244.539 157.632 245.803 156.448 247.419 156.448ZM261.575 162.928C261.351 163.136 260.999 163.28 260.615 163.28C260.071 163.28 259.623 162.784 259.623 162.08V156.64H261.703V155.728H259.623V153.456H258.631V155.728H257.287V156.64H258.631V162.08C258.631 163.312 259.431 164.192 260.551 164.192C261.095 164.192 261.655 164 262.087 163.664L261.575 162.928ZM267.514 155.536C266.298 155.536 265.242 156.176 264.794 157.088V152.816H263.802V164H264.794V158.736C264.794 157.456 265.93 156.448 267.386 156.448C268.698 156.448 269.626 157.424 269.626 158.816V164H270.618V158.688C270.618 156.848 269.338 155.536 267.514 155.536ZM276.748 163.28C275.052 163.28 273.788 161.968 273.612 160.256H280.604C280.604 157.408 279.132 155.536 276.684 155.536C274.444 155.536 272.604 157.392 272.604 159.84C272.604 162.32 274.54 164.192 276.748 164.192C277.964 164.192 279.42 163.68 280.124 162.912L279.5 162.24C278.924 162.864 277.788 163.28 276.748 163.28ZM276.716 156.448C278.46 156.448 279.484 157.68 279.612 159.344H273.628C273.836 157.632 275.1 156.448 276.716 156.448ZM283.672 157.424V155.728H282.68V164H283.672V159.376C283.672 157.664 285 156.448 286.872 156.448V155.536C285.352 155.536 284.136 156.304 283.672 157.424ZM292.232 163.28C290.536 163.28 289.272 161.968 289.096 160.256H296.088C296.088 157.408 294.616 155.536 292.168 155.536C289.928 155.536 288.088 157.392 288.088 159.84C288.088 162.32 290.024 164.192 292.232 164.192C293.448 164.192 294.904 163.68 295.608 162.912L294.984 162.24C294.408 162.864 293.272 163.28 292.232 163.28ZM292.2 156.448C293.944 156.448 294.968 157.68 295.096 159.344H289.112C289.32 157.632 290.584 156.448 292.2 156.448ZM303.173 154.112C303.557 154.112 303.861 153.808 303.861 153.424C303.861 153.056 303.557 152.736 303.173 152.736C302.789 152.736 302.485 153.056 302.485 153.424C302.485 153.808 302.789 154.112 303.173 154.112ZM302.677 164H303.669V155.728H302.677V164ZM309.011 164.192C310.675 164.192 311.987 163.216 311.987 161.808C311.987 160.368 310.803 159.84 309.283 159.36C307.667 158.832 307.027 158.496 307.027 157.744C307.027 156.944 307.875 156.448 308.883 156.448C309.651 156.448 310.515 156.72 311.347 157.232L311.843 156.464C310.963 155.888 309.891 155.536 308.883 155.536C307.283 155.536 306.035 156.48 306.035 157.856C306.035 159.024 306.819 159.648 308.803 160.224C310.115 160.624 310.995 161.008 310.995 161.904C310.995 162.704 310.147 163.28 309.011 163.28C308.083 163.28 307.075 162.912 306.115 162.224L305.587 162.96C306.563 163.744 307.843 164.192 309.011 164.192ZM45.3483 179.536C44.5323 179.536 43.5083 179.76 42.4203 180.336L42.8203 181.152C43.5723 180.736 44.4363 180.416 45.2683 180.416C47.1243 180.416 47.6683 181.744 47.6683 182.96V183.296C46.7883 183.008 45.7963 182.8 44.9003 182.8C43.0443 182.8 41.6203 183.92 41.6203 185.552C41.6203 187.152 42.9003 188.192 44.6283 188.192C45.7483 188.192 47.0603 187.664 47.6683 186.688V188H48.6603V182.96C48.6603 180.96 47.5243 179.536 45.3483 179.536ZM44.7883 187.296C43.5563 187.296 42.5963 186.608 42.5963 185.504C42.5963 184.432 43.6683 183.664 45.0443 183.664C45.9723 183.664 46.8843 183.84 47.6683 184.08V185.408C47.3483 186.688 45.9403 187.296 44.7883 187.296ZM54.8424 179.536C53.6264 179.536 52.5704 180.176 52.1224 181.088V179.728H51.1304V188H52.1224V182.736C52.1224 181.456 53.2584 180.448 54.7144 180.448C56.0264 180.448 56.9544 181.424 56.9544 182.816V188H57.9464V182.688C57.9464 180.848 56.6664 179.536 54.8424 179.536ZM68.7167 187.28C67.0207 187.28 65.7567 185.968 65.5807 184.256H72.5727C72.5727 181.408 71.1007 179.536 68.6527 179.536C66.4127 179.536 64.5727 181.392 64.5727 183.84C64.5727 186.32 66.5087 188.192 68.7167 188.192C69.9327 188.192 71.3887 187.68 72.0927 186.912L71.4687 186.24C70.8927 186.864 69.7567 187.28 68.7167 187.28ZM68.6847 180.448C70.4287 180.448 71.4527 181.68 71.5807 183.344H65.5967C65.8047 181.632 67.0687 180.448 68.6847 180.448ZM77.8483 179.536C77.0323 179.536 76.0083 179.76 74.9203 180.336L75.3203 181.152C76.0723 180.736 76.9363 180.416 77.7683 180.416C79.6243 180.416 80.1683 181.744 80.1683 182.96V183.296C79.2883 183.008 78.2963 182.8 77.4003 182.8C75.5443 182.8 74.1203 183.92 74.1203 185.552C74.1203 187.152 75.4003 188.192 77.1283 188.192C78.2483 188.192 79.5603 187.664 80.1683 186.688V188H81.1603V182.96C81.1603 180.96 80.0243 179.536 77.8483 179.536ZM77.2883 187.296C76.0563 187.296 75.0963 186.608 75.0963 185.504C75.0963 184.432 76.1683 183.664 77.5443 183.664C78.4723 183.664 79.3843 183.84 80.1683 184.08V185.408C79.8483 186.688 78.4403 187.296 77.2883 187.296ZM86.5424 188.192C88.2064 188.192 89.5184 187.216 89.5184 185.808C89.5184 184.368 88.3344 183.84 86.8144 183.36C85.1984 182.832 84.5584 182.496 84.5584 181.744C84.5584 180.944 85.4064 180.448 86.4144 180.448C87.1824 180.448 88.0464 180.72 88.8784 181.232L89.3744 180.464C88.4944 179.888 87.4224 179.536 86.4144 179.536C84.8144 179.536 83.5664 180.48 83.5664 181.856C83.5664 183.024 84.3504 183.648 86.3344 184.224C87.6464 184.624 88.5264 185.008 88.5264 185.904C88.5264 186.704 87.6784 187.28 86.5424 187.28C85.6144 187.28 84.6064 186.912 83.6464 186.224L83.1184 186.96C84.0944 187.744 85.3744 188.192 86.5424 188.192ZM92.5931 190.88C93.7451 190.864 94.5451 190.336 95.0731 189.024L98.8811 179.728H97.8091L94.9131 186.944L91.8571 179.728H90.7691L94.4011 188.128L93.9051 189.2C93.6011 189.744 93.1691 189.968 92.5611 189.968C92.2091 189.968 91.8411 189.888 91.5371 189.728L91.2811 190.608C91.6651 190.784 92.1291 190.88 92.5931 190.88ZM107.585 188H108.577L110.849 181.2L113.105 188H114.097L116.865 179.728H115.809L113.601 186.672L111.281 179.728H110.417L108.081 186.672L105.889 179.728H104.833L107.585 188ZM121.926 179.536C121.11 179.536 120.086 179.76 118.998 180.336L119.398 181.152C120.15 180.736 121.014 180.416 121.846 180.416C123.702 180.416 124.246 181.744 124.246 182.96V183.296C123.366 183.008 122.374 182.8 121.478 182.8C119.622 182.8 118.198 183.92 118.198 185.552C118.198 187.152 119.478 188.192 121.206 188.192C122.326 188.192 123.638 187.664 124.246 186.688V188H125.238V182.96C125.238 180.96 124.102 179.536 121.926 179.536ZM121.366 187.296C120.134 187.296 119.174 186.608 119.174 185.504C119.174 184.432 120.246 183.664 121.622 183.664C122.55 183.664 123.462 183.84 124.246 184.08V185.408C123.926 186.688 122.518 187.296 121.366 187.296ZM128.781 190.88C129.933 190.864 130.733 190.336 131.261 189.024L135.069 179.728H133.997L131.101 186.944L128.045 179.728H126.957L130.589 188.128L130.093 189.2C129.789 189.744 129.357 189.968 128.749 189.968C128.397 189.968 128.029 189.888 127.725 189.728L127.469 190.608C127.853 190.784 128.317 190.88 128.781 190.88ZM145.341 186.928C145.117 187.136 144.765 187.28 144.381 187.28C143.837 187.28 143.389 186.784 143.389 186.08V180.64H145.469V179.728H143.389V177.456H142.397V179.728H141.053V180.64H142.397V186.08C142.397 187.312 143.197 188.192 144.317 188.192C144.861 188.192 145.421 188 145.853 187.664L145.341 186.928ZM151.392 188.192C153.712 188.192 155.664 186.208 155.664 183.856C155.664 181.504 153.712 179.536 151.392 179.536C149.072 179.536 147.104 181.504 147.104 183.856C147.104 186.208 149.072 188.192 151.392 188.192ZM151.392 187.28C149.616 187.28 148.144 185.728 148.144 183.856C148.144 182 149.616 180.448 151.392 180.448C153.152 180.448 154.624 182 154.624 183.856C154.624 185.728 153.152 187.28 151.392 187.28ZM163.998 178.592C163.998 177.888 164.446 177.392 164.99 177.392C165.39 177.392 165.726 177.52 165.95 177.744L166.462 177.008C166.014 176.672 165.486 176.48 164.926 176.48C163.806 176.48 163.006 177.36 163.006 178.592V179.728H161.662V180.64H163.006V188H163.998V180.64H166.126V179.728H163.998V178.592ZM168.329 178.112C168.713 178.112 169.017 177.808 169.017 177.424C169.017 177.056 168.713 176.736 168.329 176.736C167.945 176.736 167.641 177.056 167.641 177.424C167.641 177.808 167.945 178.112 168.329 178.112ZM167.833 188H168.825V179.728H167.833V188ZM171.239 188H172.231V176.816H171.239V188ZM178.325 186.928C178.101 187.136 177.749 187.28 177.365 187.28C176.821 187.28 176.373 186.784 176.373 186.08V180.64H178.453V179.728H176.373V177.456H175.381V179.728H174.037V180.64H175.381V186.08C175.381 187.312 176.181 188.192 177.301 188.192C177.845 188.192 178.405 188 178.837 187.664L178.325 186.928ZM184.232 187.28C182.536 187.28 181.272 185.968 181.096 184.256H188.088C188.088 181.408 186.616 179.536 184.168 179.536C181.928 179.536 180.088 181.392 180.088 183.84C180.088 186.32 182.024 188.192 184.232 188.192C185.448 188.192 186.904 187.68 187.608 186.912L186.984 186.24C186.408 186.864 185.272 187.28 184.232 187.28ZM184.2 180.448C185.944 180.448 186.968 181.68 187.096 183.344H181.112C181.32 181.632 182.584 180.448 184.2 180.448ZM191.156 181.424V179.728H190.164V188H191.156V183.376C191.156 181.664 192.484 180.448 194.356 180.448V179.536C192.836 179.536 191.62 180.304 191.156 181.424ZM204.501 188.192C206.821 188.192 208.773 186.208 208.773 183.856C208.773 181.504 206.821 179.536 204.501 179.536C202.181 179.536 200.213 181.504 200.213 183.856C200.213 186.208 202.181 188.192 204.501 188.192ZM204.501 187.28C202.725 187.28 201.253 185.728 201.253 183.856C201.253 182 202.725 180.448 204.501 180.448C206.261 180.448 207.733 182 207.733 183.856C207.733 185.728 206.261 187.28 204.501 187.28ZM216.579 179.728V184.992C216.579 186.272 215.443 187.28 213.987 187.28C212.675 187.28 211.747 186.304 211.747 184.912V179.728H210.755V185.04C210.755 186.88 212.035 188.192 213.859 188.192C215.075 188.192 216.131 187.552 216.579 186.64V188H217.571V179.728H216.579ZM223.685 186.928C223.461 187.136 223.109 187.28 222.725 187.28C222.181 187.28 221.733 186.784 221.733 186.08V180.64H223.813V179.728H221.733V177.456H220.741V179.728H219.397V180.64H220.741V186.08C220.741 187.312 221.541 188.192 222.661 188.192C223.205 188.192 223.765 188 224.197 187.664L223.685 186.928ZM234.328 188.192C235.448 188.192 236.488 187.712 237.256 186.944L236.568 186.272C235.992 186.896 235.192 187.28 234.328 187.28C232.536 187.28 231.128 185.776 231.128 183.856C231.128 181.952 232.536 180.448 234.328 180.448C235.176 180.448 235.96 180.816 236.536 181.424L237.224 180.752C236.456 180 235.432 179.536 234.328 179.536C231.976 179.536 230.088 181.44 230.088 183.856C230.088 186.272 231.976 188.192 234.328 188.192ZM242.411 179.536C241.595 179.536 240.571 179.76 239.483 180.336L239.883 181.152C240.635 180.736 241.499 180.416 242.331 180.416C244.187 180.416 244.731 181.744 244.731 182.96V183.296C243.851 183.008 242.859 182.8 241.963 182.8C240.107 182.8 238.683 183.92 238.683 185.552C238.683 187.152 239.963 188.192 241.691 188.192C242.811 188.192 244.123 187.664 244.731 186.688V188H245.723V182.96C245.723 180.96 244.587 179.536 242.411 179.536ZM241.851 187.296C240.619 187.296 239.659 186.608 239.659 185.504C239.659 184.432 240.731 183.664 242.107 183.664C243.035 183.664 243.947 183.84 244.731 184.08V185.408C244.411 186.688 243.003 187.296 241.851 187.296ZM251.841 186.928C251.617 187.136 251.265 187.28 250.881 187.28C250.337 187.28 249.889 186.784 249.889 186.08V180.64H251.969V179.728H249.889V177.456H248.897V179.728H247.553V180.64H248.897V186.08C248.897 187.312 249.697 188.192 250.817 188.192C251.361 188.192 251.921 188 252.353 187.664L251.841 186.928ZM257.748 187.28C256.052 187.28 254.788 185.968 254.612 184.256H261.604C261.604 181.408 260.132 179.536 257.684 179.536C255.444 179.536 253.604 181.392 253.604 183.84C253.604 186.32 255.54 188.192 257.748 188.192C258.964 188.192 260.42 187.68 261.124 186.912L260.5 186.24C259.924 186.864 258.788 187.28 257.748 187.28ZM257.716 180.448C259.46 180.448 260.484 181.68 260.612 183.344H254.628C254.836 181.632 256.1 180.448 257.716 180.448ZM270 179.728V181.296C269.36 180.176 268.24 179.536 266.848 179.536C264.704 179.536 263.104 181.216 263.104 183.456C263.104 185.712 264.704 187.392 266.848 187.392C268.224 187.392 269.36 186.736 270 185.616V187.12C270 188.8 268.8 189.84 266.912 189.84C265.872 189.84 264.8 189.456 264.128 188.848L263.68 189.648C264.432 190.288 265.728 190.752 267.024 190.752C269.36 190.752 270.992 189.248 270.992 187.12V179.728H270ZM267.024 186.48C265.376 186.48 264.128 185.184 264.128 183.456C264.128 181.744 265.376 180.448 267.024 180.448C268.752 180.448 270 181.696 270 183.456C270 185.232 268.752 186.48 267.024 186.48ZM277.376 188.192C279.696 188.192 281.648 186.208 281.648 183.856C281.648 181.504 279.696 179.536 277.376 179.536C275.056 179.536 273.088 181.504 273.088 183.856C273.088 186.208 275.056 188.192 277.376 188.192ZM277.376 187.28C275.6 187.28 274.128 185.728 274.128 183.856C274.128 182 275.6 180.448 277.376 180.448C279.136 180.448 280.608 182 280.608 183.856C280.608 185.728 279.136 187.28 277.376 187.28ZM284.734 181.424V179.728H283.742V188H284.734V183.376C284.734 181.664 286.062 180.448 287.934 180.448V179.536C286.414 179.536 285.198 180.304 284.734 181.424ZM290.079 178.112C290.463 178.112 290.767 177.808 290.767 177.424C290.767 177.056 290.463 176.736 290.079 176.736C289.695 176.736 289.391 177.056 289.391 177.424C289.391 177.808 289.695 178.112 290.079 178.112ZM289.583 188H290.575V179.728H289.583V188ZM296.685 187.28C294.989 187.28 293.725 185.968 293.549 184.256H300.541C300.541 181.408 299.069 179.536 296.621 179.536C294.381 179.536 292.541 181.392 292.541 183.84C292.541 186.32 294.477 188.192 296.685 188.192C297.901 188.192 299.357 187.68 300.061 186.912L299.437 186.24C298.861 186.864 297.725 187.28 296.685 187.28ZM296.653 180.448C298.397 180.448 299.421 181.68 299.549 183.344H293.565C293.773 181.632 295.037 180.448 296.653 180.448ZM305.433 188.192C307.097 188.192 308.409 187.216 308.409 185.808C308.409 184.368 307.225 183.84 305.705 183.36C304.089 182.832 303.449 182.496 303.449 181.744C303.449 180.944 304.297 180.448 305.305 180.448C306.073 180.448 306.937 180.72 307.769 181.232L308.265 180.464C307.385 179.888 306.313 179.536 305.305 179.536C303.705 179.536 302.457 180.48 302.457 181.856C302.457 183.024 303.241 183.648 305.225 184.224C306.537 184.624 307.417 185.008 307.417 185.904C307.417 186.704 306.569 187.28 305.433 187.28C304.505 187.28 303.497 186.912 302.537 186.224L302.009 186.96C302.985 187.744 304.265 188.192 305.433 188.192ZM139.059 203.536C138.243 203.536 137.219 203.76 136.131 204.336L136.531 205.152C137.283 204.736 138.147 204.416 138.979 204.416C140.835 204.416 141.379 205.744 141.379 206.96V207.296C140.499 207.008 139.507 206.8 138.611 206.8C136.755 206.8 135.331 207.92 135.331 209.552C135.331 211.152 136.611 212.192 138.339 212.192C139.459 212.192 140.771 211.664 141.379 210.688V212H142.371V206.96C142.371 204.96 141.235 203.536 139.059 203.536ZM138.499 211.296C137.267 211.296 136.307 210.608 136.307 209.504C136.307 208.432 137.379 207.664 138.755 207.664C139.683 207.664 140.595 207.84 141.379 208.08V209.408C141.059 210.688 139.651 211.296 138.499 211.296ZM148.553 203.536C147.337 203.536 146.281 204.176 145.833 205.088V203.728H144.841V212H145.833V206.736C145.833 205.456 146.969 204.448 148.425 204.448C149.737 204.448 150.665 205.424 150.665 206.816V212H151.657V206.688C151.657 204.848 150.377 203.536 148.553 203.536ZM160.603 200.816V205.344C159.963 204.224 158.875 203.536 157.515 203.536C155.387 203.536 153.739 205.392 153.739 207.856C153.739 210.336 155.387 212.192 157.515 212.192C158.875 212.192 159.963 211.504 160.603 210.384V212H161.595V200.816H160.603ZM157.691 211.28C156.027 211.28 154.763 209.808 154.763 207.856C154.763 205.904 156.027 204.448 157.691 204.448C159.403 204.448 160.603 205.856 160.603 207.856C160.603 209.856 159.403 211.28 157.691 211.28ZM171.707 212.192C173.371 212.192 174.683 211.216 174.683 209.808C174.683 208.368 173.499 207.84 171.979 207.36C170.363 206.832 169.723 206.496 169.723 205.744C169.723 204.944 170.571 204.448 171.579 204.448C172.347 204.448 173.211 204.72 174.043 205.232L174.539 204.464C173.659 203.888 172.587 203.536 171.579 203.536C169.979 203.536 168.731 204.48 168.731 205.856C168.731 207.024 169.515 207.648 171.499 208.224C172.811 208.624 173.691 209.008 173.691 209.904C173.691 210.704 172.843 211.28 171.707 211.28C170.779 211.28 169.771 210.912 168.811 210.224L168.283 210.96C169.259 211.744 170.539 212.192 171.707 212.192ZM177.149 202.112C177.533 202.112 177.837 201.808 177.837 201.424C177.837 201.056 177.533 200.736 177.149 200.736C176.765 200.736 176.461 201.056 176.461 201.424C176.461 201.808 176.765 202.112 177.149 202.112ZM176.653 212H177.645V203.728H176.653V212ZM179.708 212H186.236V211.056H181.02L186.204 204.512V203.728H179.804V204.672H184.876L179.708 211.216V212ZM191.975 211.28C190.279 211.28 189.015 209.968 188.839 208.256H195.831C195.831 205.408 194.359 203.536 191.911 203.536C189.671 203.536 187.831 205.392 187.831 207.84C187.831 210.32 189.767 212.192 191.975 212.192C193.191 212.192 194.647 211.68 195.351 210.912L194.727 210.24C194.151 210.864 193.015 211.28 191.975 211.28ZM191.943 204.448C193.687 204.448 194.711 205.68 194.839 207.344H188.855C189.062 205.632 190.327 204.448 191.943 204.448ZM200.722 212.192C202.386 212.192 203.698 211.216 203.698 209.808C203.698 208.368 202.514 207.84 200.994 207.36C199.378 206.832 198.738 206.496 198.738 205.744C198.738 204.944 199.586 204.448 200.594 204.448C201.362 204.448 202.226 204.72 203.058 205.232L203.554 204.464C202.674 203.888 201.602 203.536 200.594 203.536C198.994 203.536 197.746 204.48 197.746 205.856C197.746 207.024 198.53 207.648 200.514 208.224C201.826 208.624 202.706 209.008 202.706 209.904C202.706 210.704 201.858 211.28 200.722 211.28C199.794 211.28 198.786 210.912 197.826 210.224L197.298 210.96C198.274 211.744 199.554 212.192 200.722 212.192ZM206.389 212.192C206.789 212.192 207.109 211.856 207.109 211.44C207.109 211.056 206.789 210.72 206.389 210.72C205.957 210.72 205.637 211.056 205.637 211.44C205.637 211.856 205.957 212.192 206.389 212.192ZM210.058 204.704C210.906 203.632 211.194 203.04 211.194 202.416C211.194 201.792 210.874 201.344 210.378 201.344C209.93 201.344 209.626 201.68 209.626 202.064C209.626 202.48 209.946 202.816 210.362 202.816C210.234 203.296 209.962 203.808 209.53 204.304L210.058 204.704ZM213.146 204.704C213.994 203.632 214.282 203.04 214.282 202.416C214.282 201.792 213.962 201.344 213.466 201.344C213.018 201.344 212.714 201.68 212.714 202.064C212.714 202.48 213.034 202.816 213.45 202.816C213.322 203.296 213.05 203.808 212.618 204.304L213.146 204.704Z" fill="#2D2D2D"/>
<path d="M133.276 100H140.86V98.816H135.276L138.156 96.32C140.012 94.72 140.748 93.536 140.748 92.048C140.748 90.08 139.148 88.816 137.244 88.816C135.516 88.816 134.284 89.632 133.372 90.928L134.252 91.648C135.004 90.624 135.916 89.936 137.196 89.936C138.364 89.936 139.484 90.72 139.484 92.064C139.484 93.152 138.844 94.208 137.292 95.536L133.276 98.96V100ZM142.698 100H150.282V98.816H144.698L147.578 96.32C149.434 94.72 150.17 93.536 150.17 92.048C150.17 90.08 148.57 88.816 146.666 88.816C144.938 88.816 143.706 89.632 142.794 90.928L143.674 91.648C144.426 90.624 145.338 89.936 146.618 89.936C147.786 89.936 148.906 90.72 148.906 92.064C148.906 93.152 148.266 94.208 146.714 95.536L142.698 98.96V100ZM153.192 102.128C154.152 100.928 154.424 100.384 154.424 99.744C154.424 99.008 154.056 98.464 153.448 98.464C152.936 98.464 152.568 98.864 152.568 99.312C152.568 99.792 152.952 100.192 153.432 100.192C153.304 100.688 153.032 101.184 152.6 101.68L153.192 102.128ZM165.267 100.176C167.827 100.176 169.139 98.752 169.139 97.008C169.139 95.072 167.635 94.32 165.539 93.824C163.667 93.376 162.579 92.976 162.579 91.84C162.579 90.832 163.571 89.936 164.931 89.936C166.083 89.936 167.171 90.464 168.083 91.344L168.851 90.368C167.843 89.44 166.627 88.8 164.995 88.8C162.883 88.8 161.315 90.176 161.315 91.936C161.315 93.84 162.707 94.528 164.915 95.04C166.835 95.488 167.875 95.952 167.875 97.12C167.875 98.112 167.011 99.04 165.315 99.04C163.779 99.04 162.643 98.384 161.715 97.456L160.931 98.432C162.035 99.52 163.459 100.176 165.267 100.176ZM174.856 98.784C174.68 98.976 174.36 99.12 173.992 99.12C173.512 99.12 173.096 98.688 173.096 98.08V92.8H175.128V91.728H173.096V89.456H171.896V91.728H170.6V92.8H171.896V98.08C171.896 99.312 172.728 100.192 173.912 100.192C174.472 100.192 175.016 100 175.448 99.664L174.856 98.784ZM182.97 91.728V96.992C182.97 98.144 181.802 99.12 180.41 99.12C179.194 99.12 178.346 98.176 178.346 96.832V91.728H177.146V96.992C177.146 98.864 178.426 100.192 180.25 100.192C181.418 100.192 182.49 99.552 182.97 98.672V100H184.17V91.728H182.97ZM193.078 88.816V93.28C192.454 92.192 191.398 91.536 190.07 91.536C187.894 91.536 186.262 93.328 186.262 95.856C186.262 98.4 187.894 100.192 190.07 100.192C191.398 100.192 192.454 99.536 193.078 98.448V100H194.278V88.816H193.078ZM190.294 99.12C188.678 99.12 187.526 97.76 187.526 95.856C187.526 93.952 188.678 92.608 190.294 92.608C191.926 92.608 193.078 93.952 193.078 95.856C193.078 97.76 191.926 99.12 190.294 99.12ZM200.546 99.12C198.914 99.12 197.778 97.936 197.602 96.32H204.37C204.37 93.424 202.946 91.536 200.45 91.536C198.226 91.536 196.37 93.376 196.37 95.84C196.37 98.384 198.354 100.192 200.562 100.192C201.714 100.192 203.17 99.696 203.89 98.912L203.154 98.128C202.642 98.688 201.522 99.12 200.546 99.12ZM200.498 92.608C202.146 92.608 203.026 93.76 203.186 95.248H197.618C197.842 93.648 199.026 92.608 200.498 92.608ZM210.269 91.536C209.101 91.536 208.029 92.176 207.549 93.056V91.728H206.349V100H207.549V94.736C207.549 93.584 208.717 92.608 210.109 92.608C211.325 92.608 212.173 93.552 212.173 94.896V100H213.373V94.736C213.373 92.864 212.093 91.536 210.269 91.536ZM219.434 98.784C219.258 98.976 218.938 99.12 218.57 99.12C218.09 99.12 217.674 98.688 217.674 98.08V92.8H219.706V91.728H217.674V89.456H216.474V91.728H215.178V92.8H216.474V98.08C216.474 99.312 217.306 100.192 218.49 100.192C219.05 100.192 219.594 100 220.026 99.664L219.434 98.784Z" fill="#2D2D2D"/>
<path d="M134.097 76.288C137.433 76.288 139.785 73.936 139.785 70.624V59.512H136.233V70.336C136.233 71.944 135.177 73.072 133.737 73.072C132.633 73.072 131.457 72.328 130.929 71.248L128.577 73.552C129.681 75.16 131.985 76.288 134.097 76.288ZM148.759 73.192C147.295 73.192 146.215 72.28 145.807 70.936H154.759C154.759 66.256 152.479 63.304 148.591 63.304C144.967 63.304 142.207 66.016 142.207 69.76C142.207 73.576 145.087 76.288 148.783 76.288C150.607 76.288 152.743 75.52 153.847 74.368L151.615 72.088C150.943 72.736 149.743 73.192 148.759 73.192ZM148.735 66.4C150.151 66.4 151.063 67.192 151.399 68.416H145.855C146.311 67.168 147.415 66.4 148.735 66.4ZM164.306 63.304C162.698 63.304 161.306 64.024 160.562 65.152V63.592H157.058V76H160.562V68.584L160.586 68.656C160.586 67.312 161.714 66.256 163.178 66.256C164.57 66.256 165.53 67.312 165.53 68.848V76H168.914V68.104C168.914 65.296 166.994 63.304 164.306 63.304ZM179.048 63.304C177.44 63.304 176.048 64.024 175.304 65.152V63.592H171.8V76H175.304V68.584L175.328 68.656C175.328 67.312 176.456 66.256 177.92 66.256C179.312 66.256 180.272 67.312 180.272 68.848V76H183.656V68.104C183.656 65.296 181.736 63.304 179.048 63.304ZM188.366 61.888C189.398 61.888 190.238 61.024 190.238 59.968C190.238 58.984 189.398 58.096 188.366 58.096C187.286 58.096 186.446 58.984 186.446 59.968C186.446 61.024 187.286 61.888 188.366 61.888ZM186.59 76H190.094V63.592H186.59V76ZM197.305 62.92C197.305 62.104 197.833 61.528 198.481 61.528C198.961 61.528 199.441 61.696 199.681 61.936L200.521 59.8C199.801 59.152 198.673 58.72 197.665 58.72C195.481 58.72 193.945 60.28 193.945 62.512V63.592H192.241V66.424H193.945V76H197.305V66.424H199.993V63.592H197.305V62.92ZM208.103 73.192C206.639 73.192 205.559 72.28 205.151 70.936H214.103C214.103 66.256 211.823 63.304 207.935 63.304C204.311 63.304 201.551 66.016 201.551 69.76C201.551 73.576 204.431 76.288 208.127 76.288C209.951 76.288 212.087 75.52 213.191 74.368L210.959 72.088C210.287 72.736 209.087 73.192 208.103 73.192ZM208.079 66.4C209.495 66.4 210.407 67.192 210.743 68.416H205.199C205.655 67.168 206.759 66.4 208.079 66.4ZM219.978 65.896V63.592H216.474V76H219.978V70.072C219.978 67.744 221.634 66.256 224.226 66.256V63.304C222.33 63.304 220.794 64.288 219.978 65.896Z" fill="#2D2D2D"/>
</svg>
